<svg width="595" height="238" viewBox="0 0 595 238" fill="none" xmlns="http://www.w3.org/2000/svg">
<g clip-path="url(#clip0_167_2600)">
<rect x="1" y="1.84473" width="593" height="234.962" fill="#F2F2F2"/>
<g clip-path="url(#clip1_167_2600)">
<rect width="1187.45" height="235.27" transform="translate(1 1.84473)" fill="#F2F2F2"/>
<rect x="1.15208" y="1.61888" width="593.422" height="236.182" stroke="black" stroke-width="0.304163"/>
<path d="M6.51678 7.79455V7.21239C6.78685 7.20038 6.97591 7.18238 7.08394 7.15837C7.25599 7.12036 7.39603 7.04434 7.50406 6.93031C7.57808 6.85228 7.63409 6.74825 7.6721 6.61822C7.69411 6.5402 7.70511 6.48218 7.70511 6.44417H8.41632V10.7954H7.54007V7.79455H6.51678ZM161.353 10.7954C161.361 10.4833 161.428 10.1982 161.554 9.94017C161.676 9.65008 161.964 9.343 162.418 9.0189C162.812 8.73682 163.068 8.53476 163.184 8.41273C163.362 8.22268 163.451 8.01462 163.451 7.78855C163.451 7.6045 163.4 7.45146 163.298 7.32942C163.196 7.20739 163.05 7.14637 162.859 7.14637C162.599 7.14637 162.422 7.2434 162.328 7.43745C162.274 7.54948 162.242 7.72753 162.232 7.9716H161.401C161.415 7.6015 161.482 7.30241 161.602 7.07435C161.83 6.64022 162.235 6.42316 162.817 6.42316C163.278 6.42316 163.644 6.5512 163.916 6.80727C164.188 7.06134 164.324 7.39844 164.324 7.81856C164.324 8.14065 164.228 8.42673 164.036 8.67681C163.91 8.84285 163.703 9.02791 163.415 9.23196L163.073 9.47503C162.858 9.62708 162.711 9.73711 162.631 9.80513C162.553 9.87315 162.487 9.95217 162.433 10.0422H164.333V10.7954H161.353ZM325.479 9.46003C325.479 9.63408 325.507 9.77812 325.563 9.89215C325.667 10.1022 325.856 10.2072 326.13 10.2072C326.298 10.2072 326.444 10.1502 326.568 10.0362C326.694 9.92016 326.757 9.75411 326.757 9.53805C326.757 9.25197 326.641 9.06092 326.409 8.96489C326.277 8.91087 326.069 8.88386 325.785 8.88386V8.27169C326.063 8.26769 326.257 8.24068 326.367 8.19067C326.557 8.10664 326.652 7.93659 326.652 7.68052C326.652 7.51447 326.603 7.37944 326.505 7.27541C326.409 7.17138 326.273 7.11936 326.097 7.11936C325.895 7.11936 325.746 7.18338 325.65 7.31142C325.556 7.43945 325.511 7.6105 325.515 7.82456H324.717C324.725 7.6085 324.762 7.40344 324.828 7.20939C324.898 7.03934 325.008 6.88229 325.158 6.73825C325.27 6.63622 325.403 6.5582 325.557 6.50419C325.711 6.45017 325.9 6.42316 326.124 6.42316C326.54 6.42316 326.875 6.53119 327.129 6.74725C327.385 6.96132 327.513 7.2494 327.513 7.6115C327.513 7.86757 327.437 8.08364 327.285 8.25969C327.189 8.36972 327.089 8.44474 326.985 8.48475C327.063 8.48475 327.175 8.55177 327.321 8.68581C327.539 8.88787 327.648 9.16394 327.648 9.51404C327.648 9.88215 327.52 10.2062 327.264 10.4863C327.01 10.7644 326.633 10.9034 326.133 10.9034C325.517 10.9034 325.089 10.7024 324.849 10.3003C324.723 10.0862 324.653 9.80613 324.639 9.46003H325.479ZM350.838 9.85914H350.346V10.7954H349.509V9.85914H347.786V9.11193L349.386 6.47118H350.346V9.18995H350.838V9.85914ZM349.509 9.18995V7.31142L348.42 9.18995H349.509ZM404.767 9.63108C404.801 9.81713 404.866 9.96117 404.962 10.0632C405.058 10.1632 405.198 10.2132 405.382 10.2132C405.594 10.2132 405.755 10.1392 405.866 9.99118C405.978 9.84114 406.034 9.65308 406.034 9.42702C406.034 9.20496 405.982 9.0179 405.878 8.86586C405.773 8.71182 405.611 8.63479 405.391 8.63479C405.287 8.63479 405.197 8.6478 405.121 8.6738C404.987 8.72182 404.886 8.81084 404.818 8.94088L404.05 8.90487L404.356 6.50118H406.754V7.22739H404.974L404.818 8.17866C404.95 8.09264 405.053 8.03562 405.127 8.00761C405.251 7.9616 405.402 7.93859 405.58 7.93859C405.941 7.93859 406.255 8.05963 406.523 8.3017C406.791 8.54377 406.925 8.89587 406.925 9.358C406.925 9.76011 406.796 10.1192 406.538 10.4353C406.28 10.7514 405.894 10.9094 405.379 10.9094C404.965 10.9094 404.625 10.7984 404.359 10.5763C404.093 10.3543 403.945 10.0392 403.915 9.63108H404.767ZM441.143 9.41802C441.143 9.65208 441.206 9.84314 441.332 9.99118C441.458 10.1392 441.618 10.2132 441.813 10.2132C442.003 10.2132 442.152 10.1422 442.26 10.0002C442.37 9.85614 442.425 9.67009 442.425 9.44202C442.425 9.18795 442.363 8.9939 442.239 8.85986C442.115 8.72382 441.963 8.6558 441.783 8.6558C441.636 8.6558 441.507 8.69981 441.395 8.78784C441.227 8.91787 441.143 9.12793 441.143 9.41802ZM442.347 7.53948C442.347 7.46946 442.32 7.39244 442.266 7.30841C442.174 7.17238 442.035 7.10436 441.849 7.10436C441.57 7.10436 441.372 7.2604 441.254 7.57249C441.19 7.74454 441.146 7.99861 441.122 8.33471C441.228 8.20867 441.351 8.11665 441.491 8.05863C441.631 8.00061 441.792 7.9716 441.972 7.9716C442.358 7.9716 442.674 8.10264 442.92 8.36472C443.168 8.62679 443.292 8.96189 443.292 9.37C443.292 9.77612 443.171 10.1342 442.929 10.4443C442.687 10.7544 442.311 10.9094 441.801 10.9094C441.252 10.9094 440.848 10.6804 440.588 10.2222C440.386 9.86414 440.285 9.40201 440.285 8.83585C440.285 8.50376 440.299 8.23368 440.327 8.02562C440.377 7.65551 440.474 7.34743 440.618 7.10136C440.742 6.8913 440.904 6.72225 441.104 6.59421C441.306 6.46617 441.547 6.40216 441.828 6.40216C442.232 6.40216 442.554 6.50619 442.794 6.71425C443.034 6.9203 443.169 7.19538 443.199 7.53948H442.347ZM499.462 7.17038C499.334 7.29641 499.156 7.52148 498.928 7.84557C498.7 8.16766 498.509 8.50076 498.355 8.84485C498.233 9.11493 498.123 9.44502 498.025 9.83514C497.927 10.2252 497.878 10.5453 497.878 10.7954H496.99C497.016 10.0152 497.272 9.20396 497.758 8.36172C498.072 7.83957 498.335 7.47546 498.547 7.2694H496.378L496.39 6.50118H499.462V7.17038ZM564.944 9.53205C564.944 9.74611 564.999 9.91216 565.109 10.0302C565.221 10.1482 565.375 10.2072 565.571 10.2072C565.767 10.2072 565.92 10.1482 566.03 10.0302C566.142 9.91216 566.198 9.74611 566.198 9.53205C566.198 9.30999 566.141 9.14194 566.027 9.02791C565.915 8.91187 565.763 8.85386 565.571 8.85386C565.379 8.85386 565.226 8.91187 565.112 9.02791C565 9.14194 564.944 9.30999 564.944 9.53205ZM564.055 9.58907C564.055 9.345 564.11 9.12393 564.22 8.92588C564.332 8.72782 564.495 8.57878 564.709 8.47875C564.499 8.33871 564.362 8.18767 564.298 8.02562C564.236 7.86157 564.205 7.70853 564.205 7.56649C564.205 7.2504 564.324 6.98132 564.562 6.75926C564.801 6.53519 565.137 6.42316 565.571 6.42316C566.005 6.42316 566.341 6.53519 566.579 6.75926C566.817 6.98132 566.936 7.2504 566.936 7.56649C566.936 7.70853 566.904 7.86157 566.84 8.02562C566.778 8.18767 566.642 8.32871 566.432 8.44874C566.646 8.56877 566.807 8.72782 566.915 8.92588C567.023 9.12393 567.077 9.345 567.077 9.58907C567.077 9.95517 566.941 10.2673 566.669 10.5253C566.399 10.7814 566.021 10.9094 565.535 10.9094C565.049 10.9094 564.68 10.7814 564.43 10.5253C564.18 10.2673 564.055 9.95517 564.055 9.58907ZM565.022 7.66252C565.022 7.82056 565.07 7.9496 565.166 8.04963C565.264 8.14965 565.399 8.19967 565.571 8.19967C565.745 8.19967 565.879 8.14965 565.973 8.04963C566.069 7.9496 566.117 7.82056 566.117 7.66252C566.117 7.49047 566.069 7.35643 565.973 7.2604C565.879 7.16237 565.745 7.11336 565.571 7.11336C565.399 7.11336 565.264 7.16237 565.166 7.2604C565.07 7.35643 565.022 7.49047 565.022 7.66252ZM645.401 7.9746C645.401 7.50847 645.535 7.13136 645.803 6.84328C646.073 6.5532 646.423 6.40816 646.853 6.40816C647.516 6.40816 647.97 6.70124 648.216 7.28741C648.356 7.6195 648.426 8.05663 648.426 8.59878C648.426 9.12493 648.359 9.56406 648.225 9.91616C647.969 10.5864 647.499 10.9214 646.814 10.9214C646.488 10.9214 646.195 10.8254 645.935 10.6334C645.675 10.4393 645.526 10.1572 645.488 9.78712H646.34C646.36 9.91516 646.414 10.0192 646.502 10.0992C646.59 10.1792 646.707 10.2192 646.853 10.2192C647.135 10.2192 647.333 10.0632 647.448 9.75111C647.51 9.57906 647.549 9.32799 647.565 8.9979C647.487 9.09593 647.404 9.17095 647.315 9.22296C647.155 9.31899 646.958 9.367 646.724 9.367C646.378 9.367 646.071 9.24797 645.803 9.0099C645.535 8.76983 645.401 8.42473 645.401 7.9746ZM646.91 8.6708C647.028 8.6708 647.139 8.63679 647.243 8.56877C647.438 8.44474 647.535 8.22968 647.535 7.92359C647.535 7.67752 647.477 7.48246 647.361 7.33842C647.246 7.19438 647.089 7.12236 646.889 7.12236C646.743 7.12236 646.618 7.16337 646.514 7.2454C646.35 7.37343 646.268 7.5905 646.268 7.89658C646.268 8.15466 646.32 8.34871 646.424 8.47875C646.53 8.60679 646.692 8.6708 646.91 8.6708Z" fill="black"/>
<path d="M503.249 68.8637H504.347V76.9825H506.405V68.8637H507.5V90.2136H506.405V80.6715H504.347V90.2136H503.249V68.8637Z" fill="black"/>
<path d="M508.543 68.8637H512.39V72.5382H509.595V77.2729H512.166V80.962H509.595V86.3503H512.515V90.2136H508.543V68.8637Z" fill="black"/>
<path d="M514.79 68.8637H519.084V72.5382H517.482V90.2136H516.388V72.5382H514.79V68.8637Z" fill="black"/>
<path d="M521.122 68.8637H522.373L524.227 90.2136H523.036L522.701 85.8129H520.765L520.401 90.2136H519.246L521.122 68.8637ZM521.057 82.1239H522.395L521.742 73.6711H521.728L521.057 82.1239Z" fill="black"/>
<path d="M524.939 68.8637H526.034V77.5489L528.038 68.8637H529.453L527.314 77.607L529.578 90.2136H528.191L526.568 80.7586L526.034 82.9808V90.2136H524.939V68.8637Z" fill="black"/>
<path d="M530.243 74.2084C530.431 72.4269 530.706 70.5097 531.067 68.457H531.834L531.616 70.0837C531.317 72.3203 531.109 74.6635 530.992 77.1132C530.916 78.7205 530.878 80.473 530.878 82.3708C530.878 85.3336 530.984 88.0592 531.195 90.5476C531.319 92.0194 531.538 93.9075 531.851 96.2119H531.099L530.846 94.8031C530.682 93.951 530.507 92.6826 530.322 90.9979C529.991 87.9866 529.826 85.0238 529.826 82.1093C529.826 79.4563 529.965 76.8227 530.243 74.2084Z" fill="black"/>
<path d="M532.67 68.8782H533.786V74.3101L533.497 84.3024H532.966L532.67 74.3101V68.8782ZM532.695 86.0162H533.757V90.2136H532.695V86.0162Z" fill="black"/>
<path d="M535.086 68.457C535.447 70.5097 535.722 72.4269 535.91 74.2084C536.188 76.8227 536.327 79.4563 536.327 82.1093C536.327 85.0238 536.162 87.9866 535.831 90.9979C535.646 92.6826 535.471 93.951 535.307 94.8031L535.054 96.2119H534.301C534.615 93.9075 534.834 92.0194 534.957 90.5476C535.169 88.0592 535.275 85.3336 535.275 82.3708C535.275 80.473 535.237 78.7205 535.161 77.1132C535.044 74.6635 534.836 72.3203 534.537 70.0837L534.319 68.457H535.086Z" fill="black"/>
<path d="M89.5898 227.569C72.8604 228.234 65.1105 230.522 54.459 238.329L54.459 216.809C64.9137 224.791 72.9278 226.771 89.5898 227.569Z" fill="black"/>
<path d="M152.244 228.407C132.256 229.072 122.996 231.36 110.27 239.166L110.27 217.647C122.761 225.628 132.336 227.609 152.244 228.407Z" fill="black"/>
<path d="M321.131 227.569C290.75 228.234 276.676 230.522 257.333 238.329L257.333 216.809C276.319 224.791 290.872 226.771 321.131 227.569Z" fill="black"/>
<rect x="215.127" y="216.809" width="21.5195" height="21.5195" fill="black"/>
<rect x="152.244" y="216.809" width="21.5195" height="21.5195" fill="black"/>
<rect x="152.244" y="148.981" width="21.5195" height="21.5195" fill="black"/>
<rect x="215.127" y="69.2129" width="21.5195" height="21.5195" fill="black"/>
<rect x="-9.25781" y="216.809" width="21.5195" height="21.5195" fill="black"/>
<rect x="32.9316" y="216.809" width="21.5195" height="21.5195" fill="black"/>
<circle cx="204.801" cy="227.989" r="10.3415" fill="black"/>
<circle cx="184.109" cy="227.989" r="10.3415" fill="black"/>
<circle cx="22.6072" cy="227.989" r="10.3415" fill="black"/>
<circle cx="99.9314" cy="227.989" r="10.3415" fill="black"/>
<circle cx="22.6072" cy="79.5544" r="10.3415" fill="black"/>
<circle cx="96.7302" cy="159.322" r="10.3415" fill="black"/>
<circle cx="96.7302" cy="79.5544" r="10.3415" fill="black"/>
<circle cx="478.986" cy="159.322" r="10.3415" fill="black"/>
<circle cx="478.986" cy="79.5544" r="10.3415" fill="black"/>
<circle cx="246.992" cy="227.151" r="10.3415" fill="black"/>
<path d="M384.92 227.569C354.539 228.234 340.465 230.522 321.122 238.329L321.122 216.809C340.108 224.791 354.661 226.771 384.92 227.569Z" fill="black"/>
<path d="M448.734 227.569C418.353 228.234 404.279 230.522 384.936 238.329L384.936 216.809C403.922 224.791 418.476 226.771 448.734 227.569Z" fill="black"/>
<path d="M541.961 227.569C516.903 228.234 505.295 230.522 489.341 238.329L489.341 216.809C505 224.791 517.004 226.771 541.961 227.569Z" fill="black"/>
<path d="M594.736 227.569C569.606 228.234 557.964 230.522 541.964 238.329L541.964 216.809C557.669 224.791 569.707 226.771 594.736 227.569Z" fill="black"/>
<rect x="447.121" y="216.809" width="21.5195" height="21.5195" fill="black"/>
<circle cx="478.986" cy="227.989" r="10.3415" fill="black"/>
<path d="M278.865 79.9766L257.346 69.2168L257.346 90.7363L278.865 79.9766Z" fill="black"/>
<path d="M278.865 158.907L257.346 148.147L257.346 169.667L278.865 158.907Z" fill="black"/>
<path d="M406.443 158.907L384.924 148.147L384.924 169.667L406.443 158.907Z" fill="black"/>
<path d="M18.6675 79.4024C18.6675 77.8522 19.0832 76.6574 19.9145 75.818C20.6375 75.087 21.5572 74.7216 22.6737 74.7216C24.1677 74.7216 25.2601 75.2115 25.9509 76.1915C26.3324 76.7417 26.5372 77.2939 26.5653 77.8482H24.7099C24.5894 77.4224 24.4348 77.1011 24.246 76.8843C23.9086 76.4987 23.4086 76.3059 22.7459 76.3059C22.0712 76.3059 21.5391 76.579 21.1495 77.1252C20.7599 77.6674 20.5652 78.4365 20.5652 79.4325C20.5652 80.4286 20.77 81.1756 21.1796 81.6736C21.5933 82.1676 22.1174 82.4146 22.752 82.4146C23.4026 82.4146 23.8986 82.2017 24.24 81.776C24.4287 81.5471 24.5854 81.2037 24.7099 80.7458H26.5473C26.3866 81.7137 25.975 82.5009 25.3123 83.1073C24.6536 83.7138 23.8082 84.017 22.7761 84.017C21.4989 84.017 20.4949 83.6074 19.7639 82.7881C19.033 81.9647 18.6675 80.8362 18.6675 79.4024Z" fill="#F2F2F2"/>
<circle cx="22.6072" cy="159.322" r="10.3415" fill="#D000FF"/>
<path d="M18.6675 159.164C18.6675 157.614 19.0832 156.419 19.9145 155.58C20.6375 154.849 21.5572 154.483 22.6737 154.483C24.1677 154.483 25.2601 154.973 25.9509 155.953C26.3324 156.503 26.5372 157.056 26.5653 157.61H24.7099C24.5894 157.184 24.4348 156.863 24.246 156.646C23.9086 156.26 23.4086 156.068 22.7459 156.068C22.0712 156.068 21.5391 156.341 21.1495 156.887C20.7599 157.429 20.5652 158.198 20.5652 159.194C20.5652 160.19 20.77 160.937 21.1796 161.435C21.5933 161.929 22.1174 162.176 22.752 162.176C23.4026 162.176 23.8986 161.963 24.24 161.538C24.4287 161.309 24.5854 160.965 24.7099 160.508H26.5473C26.3866 161.475 25.975 162.263 25.3123 162.869C24.6536 163.476 23.8082 163.779 22.7761 163.779C21.4989 163.779 20.4949 163.369 19.7639 162.55C19.033 161.726 18.6675 160.598 18.6675 159.164Z" fill="#F2F2F2"/>
<circle cx="195.426" cy="159.322" r="10.3415" fill="black"/>
<circle cx="195.426" cy="79.5544" r="10.3415" fill="black"/>
<path d="M191.511 79.4024C191.511 77.8522 191.927 76.6574 192.758 75.818C193.481 75.087 194.401 74.7216 195.517 74.7216C197.011 74.7216 198.104 75.2115 198.795 76.1915C199.176 76.7417 199.381 77.2939 199.409 77.8482H197.554C197.433 77.4224 197.279 77.1011 197.09 76.8843C196.752 76.4987 196.252 76.3059 195.59 76.3059C194.915 76.3059 194.383 76.579 193.993 77.1252C193.604 77.6674 193.409 78.4365 193.409 79.4325C193.409 80.4286 193.614 81.1756 194.023 81.6736C194.437 82.1676 194.961 82.4146 195.596 82.4146C196.246 82.4146 196.742 82.2017 197.084 81.776C197.272 81.5471 197.429 81.2037 197.554 80.7458H199.391C199.23 81.7137 198.819 82.5009 198.156 83.1073C197.497 83.7138 196.652 84.017 195.62 84.017C194.343 84.017 193.339 83.6074 192.608 82.7881C191.877 81.9647 191.511 80.8362 191.511 79.4024Z" fill="#F2F2F2"/>
<path d="M191.511 159.164C191.511 157.614 191.927 156.419 192.758 155.58C193.481 154.849 194.401 154.483 195.517 154.483C197.011 154.483 198.104 154.973 198.795 155.953C199.176 156.503 199.381 157.056 199.409 157.61H197.554C197.433 157.184 197.279 156.863 197.09 156.646C196.752 156.26 196.252 156.068 195.59 156.068C194.915 156.068 194.383 156.341 193.993 156.887C193.604 157.429 193.409 158.198 193.409 159.194C193.409 160.19 193.614 160.937 194.023 161.435C194.437 161.929 194.961 162.176 195.596 162.176C196.246 162.176 196.742 161.963 197.084 161.538C197.272 161.309 197.429 160.965 197.554 160.508H199.391C199.23 161.475 198.819 162.263 198.156 162.869C197.497 163.476 196.652 163.779 195.62 163.779C194.343 163.779 193.339 163.369 192.608 162.55C191.877 161.726 191.511 160.598 191.511 159.164Z" fill="#F2F2F2"/>
<circle cx="364.942" cy="159.322" r="10.3415" fill="black"/>
<circle cx="364.942" cy="79.5544" r="10.3415" fill="black"/>
<path d="M361.001 79.4024C361.001 77.8522 361.417 76.6574 362.249 75.818C362.971 75.087 363.891 74.7216 365.008 74.7216C366.502 74.7216 367.594 75.2115 368.285 76.1915C368.666 76.7417 368.871 77.2939 368.899 77.8482H367.044C366.923 77.4224 366.769 77.1011 366.58 76.8843C366.243 76.4987 365.743 76.3059 365.08 76.3059C364.405 76.3059 363.873 76.579 363.484 77.1252C363.094 77.6674 362.899 78.4365 362.899 79.4325C362.899 80.4286 363.104 81.1756 363.514 81.6736C363.927 82.1676 364.451 82.4146 365.086 82.4146C365.737 82.4146 366.233 82.2017 366.574 81.776C366.763 81.5471 366.919 81.2037 367.044 80.7458H368.881C368.721 81.7137 368.309 82.5009 367.646 83.1073C366.988 83.7138 366.142 84.017 365.11 84.017C363.833 84.017 362.829 83.6074 362.098 82.7881C361.367 81.9647 361.001 80.8362 361.001 79.4024Z" fill="#F2F2F2"/>
<path d="M361.001 159.164C361.001 157.614 361.417 156.419 362.249 155.58C362.971 154.849 363.891 154.483 365.008 154.483C366.502 154.483 367.594 154.973 368.285 155.953C368.666 156.503 368.871 157.056 368.899 157.61H367.044C366.923 157.184 366.769 156.863 366.58 156.646C366.243 156.26 365.743 156.068 365.08 156.068C364.405 156.068 363.873 156.341 363.484 156.887C363.094 157.429 362.899 158.198 362.899 159.194C362.899 160.19 363.104 160.937 363.514 161.435C363.927 161.929 364.451 162.176 365.086 162.176C365.737 162.176 366.233 161.963 366.574 161.538C366.763 161.309 366.919 160.965 367.044 160.508H368.881C368.721 161.475 368.309 162.263 367.646 162.869C366.988 163.476 366.142 163.779 365.11 163.779C363.833 163.779 362.829 163.369 362.098 162.55C361.367 161.726 361.001 160.598 361.001 159.164Z" fill="#F2F2F2"/>
<path d="M92.814 79.4024C92.814 77.8522 93.2297 76.6574 94.061 75.818C94.7839 75.087 95.7036 74.7216 96.8201 74.7216C98.3142 74.7216 99.4066 75.2115 100.097 76.1915C100.479 76.7417 100.684 77.2939 100.712 77.8482H98.8563C98.7359 77.4224 98.5812 77.1011 98.3925 76.8843C98.0551 76.4987 97.5551 76.3059 96.8924 76.3059C96.2177 76.3059 95.6856 76.579 95.296 77.1252C94.9064 77.6674 94.7116 78.4365 94.7116 79.4325C94.7116 80.4286 94.9165 81.1756 95.3261 81.6736C95.7398 82.1676 96.2639 82.4146 96.8985 82.4146C97.5491 82.4146 98.0451 82.2017 98.3865 81.776C98.5752 81.5471 98.7318 81.2037 98.8563 80.7458H100.694C100.533 81.7137 100.121 82.5009 99.4588 83.1073C98.8001 83.7138 97.9547 84.017 96.9226 84.017C95.6454 84.017 94.6414 83.6074 93.9104 82.7881C93.1795 81.9647 92.814 80.8362 92.814 79.4024Z" fill="#F2F2F2"/>
<path d="M162.909 162.206C163.644 162.206 164.226 161.935 164.656 161.393C165.089 160.851 165.306 160.08 165.306 159.08C165.306 158.084 165.089 157.315 164.656 156.773C164.226 156.226 163.644 155.953 162.909 155.953C162.174 155.953 161.587 156.224 161.15 156.766C160.712 157.309 160.493 158.08 160.493 159.08C160.493 160.08 160.712 160.851 161.15 161.393C161.587 161.935 162.174 162.206 162.909 162.206ZM167.162 159.08C167.162 160.674 166.714 161.895 165.818 162.743C165.148 163.433 164.178 163.779 162.909 163.779C161.64 163.779 160.67 163.433 159.999 162.743C159.099 161.895 158.649 160.674 158.649 159.08C158.649 157.453 159.099 156.232 159.999 155.417C160.67 154.726 161.64 154.381 162.909 154.381C164.178 154.381 165.148 154.726 165.818 155.417C166.714 156.232 167.162 157.453 167.162 159.08Z" fill="#F2F2F2"/>
<rect x="541.961" y="69.2129" width="21.5195" height="21.5195" fill="black"/>
<path d="M552.6 82.4447C553.335 82.4447 553.917 82.1736 554.347 81.6314C554.781 81.0892 554.998 80.3181 554.998 79.3181C554.998 78.3221 554.781 77.553 554.347 77.0108C553.917 76.4646 553.335 76.1915 552.6 76.1915C551.865 76.1915 551.279 76.4626 550.841 77.0048C550.403 77.5469 550.184 78.318 550.184 79.3181C550.184 80.3181 550.403 81.0892 550.841 81.6314C551.279 82.1736 551.865 82.4447 552.6 82.4447ZM556.853 79.3181C556.853 80.9125 556.405 82.1334 555.51 82.9808C554.839 83.6716 553.869 84.017 552.6 84.017C551.331 84.017 550.361 83.6716 549.69 82.9808C548.791 82.1334 548.341 80.9125 548.341 79.3181C548.341 77.6915 548.791 76.4706 549.69 75.6553C550.361 74.9645 551.331 74.6191 552.6 74.6191C553.869 74.6191 554.839 74.9645 555.51 75.6553C556.405 76.4706 556.853 77.6915 556.853 79.3181Z" fill="#F2F2F2"/>
<rect x="48.9121" y="148.981" width="21.5195" height="21.5195" fill="#FF0004"/>
<path d="M59.5512 162.206C60.2862 162.206 60.8685 161.935 61.2982 161.393C61.732 160.851 61.9489 160.08 61.9489 159.08C61.9489 158.084 61.732 157.315 61.2982 156.773C60.8685 156.226 60.2862 155.953 59.5512 155.953C58.8162 155.953 58.2299 156.224 57.7921 156.766C57.3544 157.309 57.1355 158.08 57.1355 159.08C57.1355 160.08 57.3544 160.851 57.7921 161.393C58.2299 161.935 58.8162 162.206 59.5512 162.206ZM63.8043 159.08C63.8043 160.674 63.3565 161.895 62.4609 162.743C61.7902 163.433 60.8203 163.779 59.5512 163.779C58.2821 163.779 57.3122 163.433 56.6415 162.743C55.7419 161.895 55.292 160.674 55.292 159.08C55.292 157.453 55.7419 156.232 56.6415 155.417C57.3122 154.726 58.2821 154.381 59.5512 154.381C60.8203 154.381 61.7902 154.726 62.4609 155.417C63.3565 156.232 63.8043 157.453 63.8043 159.08Z" fill="#F2F2F2"/>
<path d="M225.766 82.596C226.501 82.596 227.083 82.325 227.513 81.7828C227.947 81.2406 228.164 80.4695 228.164 79.4694C228.164 78.4734 227.947 77.7043 227.513 77.1621C227.083 76.6159 226.501 76.3428 225.766 76.3428C225.031 76.3428 224.445 76.6139 224.007 77.1561C223.569 77.6983 223.35 78.4694 223.35 79.4694C223.35 80.4695 223.569 81.2406 224.007 81.7828C224.445 82.325 225.031 82.596 225.766 82.596ZM230.019 79.4694C230.019 81.0639 229.571 82.2848 228.676 83.1322C228.005 83.823 227.035 84.1684 225.766 84.1684C224.497 84.1684 223.527 83.823 222.856 83.1322C221.957 82.2848 221.507 81.0639 221.507 79.4694C221.507 77.8429 221.957 76.622 222.856 75.8067C223.527 75.1159 224.497 74.7705 225.766 74.7705C227.035 74.7705 228.005 75.1159 228.676 75.8067C229.571 76.622 230.019 77.8429 230.019 79.4694Z" fill="#F2F2F2"/>
<path d="M262.195 81.4074C262.252 81.813 262.362 82.1162 262.527 82.3171C262.828 82.6825 263.344 82.8653 264.075 82.8653C264.513 82.8653 264.868 82.8171 265.141 82.7207C265.659 82.5359 265.918 82.1926 265.918 81.6905C265.918 81.3974 265.79 81.1704 265.533 81.0098C265.276 80.8532 264.872 80.7146 264.322 80.5941L263.382 80.3833C262.458 80.1744 261.82 79.9475 261.466 79.7025C260.868 79.2929 260.569 78.6523 260.569 77.7808C260.569 76.9856 260.858 76.3249 261.436 75.7988C262.015 75.2727 262.864 75.0096 263.985 75.0096C264.92 75.0096 265.718 75.2586 266.376 75.7566C267.039 76.2506 267.386 76.9695 267.418 77.9133H265.635C265.603 77.3792 265.37 76.9996 264.936 76.7747C264.647 76.6261 264.288 76.5518 263.858 76.5518C263.38 76.5518 262.999 76.6482 262.713 76.841C262.428 77.0338 262.286 77.3029 262.286 77.6482C262.286 77.9655 262.426 78.2025 262.707 78.3591C262.888 78.4635 263.274 78.586 263.864 78.7266L265.394 79.0941C266.065 79.2547 266.571 79.4696 266.912 79.7387C267.442 80.1564 267.708 80.7608 267.708 81.552C267.708 82.3632 267.396 83.038 266.774 83.5761C266.155 84.1103 265.28 84.3774 264.147 84.3774C262.991 84.3774 262.081 84.1143 261.418 83.5882C260.756 83.058 260.424 82.3311 260.424 81.4074H262.195Z" fill="#F2F2F2"/>
<path d="M342.352 79.9766L320.832 69.2168L320.832 90.7363L342.352 79.9766Z" fill="#00FF26"/>
<path d="M325.707 81.4074C325.763 81.813 325.874 82.1162 326.038 82.3171C326.34 82.6825 326.856 82.8653 327.587 82.8653C328.024 82.8653 328.38 82.8171 328.653 82.7207C329.171 82.5359 329.43 82.1926 329.43 81.6905C329.43 81.3974 329.302 81.1704 329.044 81.0098C328.787 80.8532 328.384 80.7146 327.834 80.5941L326.894 80.3833C325.97 80.1744 325.332 79.9475 324.978 79.7025C324.38 79.2929 324.08 78.6523 324.08 77.7808C324.08 76.9856 324.37 76.3249 324.948 75.7988C325.526 75.2727 326.376 75.0096 327.496 75.0096C328.432 75.0096 329.229 75.2586 329.888 75.7566C330.551 76.2506 330.898 76.9695 330.93 77.9133H329.147C329.115 77.3792 328.882 76.9996 328.448 76.7747C328.159 76.6261 327.799 76.5518 327.37 76.5518C326.892 76.5518 326.51 76.6482 326.225 76.841C325.94 77.0338 325.797 77.3029 325.797 77.6482C325.797 77.9655 325.938 78.2025 326.219 78.3591C326.4 78.4635 326.785 78.586 327.376 78.7266L328.906 79.0941C329.577 79.2547 330.083 79.4696 330.424 79.7387C330.954 80.1564 331.219 80.7608 331.219 81.552C331.219 82.3632 330.908 83.038 330.285 83.5761C329.667 84.1103 328.791 84.3774 327.659 84.3774C326.502 84.3774 325.593 84.1143 324.93 83.5882C324.267 83.058 323.936 82.3311 323.936 81.4074H325.707Z" fill="#F2F2F2"/>
<path d="M262.195 160.186C262.252 160.592 262.362 160.895 262.527 161.096C262.828 161.461 263.344 161.644 264.075 161.644C264.513 161.644 264.868 161.596 265.141 161.499C265.659 161.315 265.918 160.971 265.918 160.469C265.918 160.176 265.79 159.949 265.533 159.789C265.276 159.632 264.872 159.493 264.322 159.373L263.382 159.162C262.458 158.953 261.82 158.726 261.466 158.481C260.868 158.072 260.569 157.431 260.569 156.56C260.569 155.764 260.858 155.104 261.436 154.578C262.015 154.051 262.864 153.788 263.985 153.788C264.92 153.788 265.718 154.037 266.376 154.535C267.039 155.029 267.386 155.748 267.418 156.692H265.635C265.603 156.158 265.37 155.778 264.936 155.554C264.647 155.405 264.288 155.331 263.858 155.331C263.38 155.331 262.999 155.427 262.713 155.62C262.428 155.813 262.286 156.082 262.286 156.427C262.286 156.744 262.426 156.981 262.707 157.138C262.888 157.242 263.274 157.365 263.864 157.505L265.394 157.873C266.065 158.034 266.571 158.248 266.912 158.517C267.442 158.935 267.708 159.54 267.708 160.331C267.708 161.142 267.396 161.817 266.774 162.355C266.155 162.889 265.28 163.156 264.147 163.156C262.991 163.156 262.081 162.893 261.418 162.367C260.756 161.837 260.424 161.11 260.424 160.186H262.195Z" fill="#F2F2F2"/>
<path d="M445.76 158.907L424.24 148.147L424.24 169.667L445.76 158.907Z" fill="black"/>
<path d="M429.116 160.186C429.172 160.592 429.283 160.895 429.448 161.096C429.749 161.461 430.265 161.644 430.996 161.644C431.434 161.644 431.789 161.596 432.062 161.499C432.58 161.315 432.839 160.971 432.839 160.469C432.839 160.176 432.711 159.949 432.454 159.789C432.197 159.632 431.793 159.493 431.243 159.373L430.303 159.162C429.379 158.953 428.741 158.726 428.387 158.481C427.789 158.072 427.49 157.431 427.49 156.56C427.49 155.764 427.779 155.104 428.357 154.578C428.935 154.051 429.785 153.788 430.905 153.788C431.841 153.788 432.638 154.037 433.297 154.535C433.96 155.029 434.307 155.748 434.339 156.692H432.556C432.524 156.158 432.291 155.778 431.857 155.554C431.568 155.405 431.209 155.331 430.779 155.331C430.301 155.331 429.919 155.427 429.634 155.62C429.349 155.813 429.207 156.082 429.207 156.427C429.207 156.744 429.347 156.981 429.628 157.138C429.809 157.242 430.195 157.365 430.785 157.505L432.315 157.873C432.986 158.034 433.492 158.248 433.833 158.517C434.363 158.935 434.628 159.54 434.628 160.331C434.628 161.142 434.317 161.817 433.695 162.355C433.076 162.889 432.201 163.156 431.068 163.156C429.911 163.156 429.002 162.893 428.339 162.367C427.676 161.837 427.345 161.11 427.345 160.186H429.116Z" fill="#F2F2F2"/>
<path d="M142.439 158.907L120.92 148.147L120.92 169.667L142.439 158.907Z" fill="black"/>
<path d="M125.795 160.186C125.851 160.592 125.962 160.895 126.126 161.096C126.427 161.461 126.944 161.644 127.674 161.644C128.112 161.644 128.468 161.596 128.741 161.499C129.259 161.315 129.518 160.971 129.518 160.469C129.518 160.176 129.389 159.949 129.132 159.789C128.875 159.632 128.472 159.493 127.921 159.373L126.982 159.162C126.058 158.953 125.419 158.726 125.066 158.481C124.468 158.072 124.168 157.431 124.168 156.56C124.168 155.764 124.458 155.104 125.036 154.578C125.614 154.051 126.464 153.788 127.584 153.788C128.52 153.788 129.317 154.037 129.976 154.535C130.638 155.029 130.986 155.748 131.018 156.692H129.235C129.203 156.158 128.97 155.778 128.536 155.554C128.247 155.405 127.887 155.331 127.458 155.331C126.98 155.331 126.598 155.427 126.313 155.62C126.028 155.813 125.885 156.082 125.885 156.427C125.885 156.744 126.026 156.981 126.307 157.138C126.488 157.242 126.873 157.365 127.464 157.505L128.994 157.873C129.665 158.034 130.171 158.248 130.512 158.517C131.042 158.935 131.307 159.54 131.307 160.331C131.307 161.142 130.996 161.817 130.373 162.355C129.755 162.889 128.879 163.156 127.747 163.156C126.59 163.156 125.68 162.893 125.018 162.367C124.355 161.837 124.024 161.11 124.024 160.186H125.795Z" fill="#F2F2F2"/>
<path d="M389.496 160.186C389.552 160.592 389.663 160.895 389.827 161.096C390.129 161.461 390.645 161.644 391.376 161.644C391.813 161.644 392.169 161.596 392.442 161.499C392.96 161.315 393.219 160.971 393.219 160.469C393.219 160.176 393.091 159.949 392.834 159.789C392.577 159.632 392.173 159.493 391.623 159.373L390.683 159.162C389.759 158.953 389.121 158.726 388.767 158.481C388.169 158.072 387.87 157.431 387.87 156.56C387.87 155.764 388.159 155.104 388.737 154.578C389.315 154.051 390.165 153.788 391.285 153.788C392.221 153.788 393.018 154.037 393.677 154.535C394.34 155.029 394.687 155.748 394.719 156.692H392.936C392.904 156.158 392.671 155.778 392.237 155.554C391.948 155.405 391.589 155.331 391.159 155.331C390.681 155.331 390.299 155.427 390.014 155.62C389.729 155.813 389.586 156.082 389.586 156.427C389.586 156.744 389.727 156.981 390.008 157.138C390.189 157.242 390.574 157.365 391.165 157.505L392.695 157.873C393.366 158.034 393.872 158.248 394.213 158.517C394.743 158.935 395.008 159.54 395.008 160.331C395.008 161.142 394.697 161.817 394.075 162.355C393.456 162.889 392.581 163.156 391.448 163.156C390.291 163.156 389.382 162.893 388.719 162.367C388.056 161.837 387.725 161.11 387.725 160.186H389.496Z" fill="#F2F2F2"/>
<path d="M92.814 159.164C92.814 157.614 93.2297 156.419 94.061 155.58C94.7839 154.849 95.7036 154.483 96.8201 154.483C98.3142 154.483 99.4066 154.973 100.097 155.953C100.479 156.503 100.684 157.056 100.712 157.61H98.8563C98.7359 157.184 98.5812 156.863 98.3925 156.646C98.0551 156.26 97.5551 156.068 96.8924 156.068C96.2177 156.068 95.6856 156.341 95.296 156.887C94.9064 157.429 94.7116 158.198 94.7116 159.194C94.7116 160.19 94.9165 160.937 95.3261 161.435C95.7398 161.929 96.2639 162.176 96.8985 162.176C97.5491 162.176 98.0451 161.963 98.3865 161.538C98.5752 161.309 98.7318 160.965 98.8563 160.508H100.694C100.533 161.475 100.121 162.263 99.4588 162.869C98.8001 163.476 97.9547 163.779 96.9226 163.779C95.6454 163.779 94.6414 163.369 93.9104 162.55C93.1795 161.726 92.814 160.598 92.814 159.164Z" fill="#F2F2F2"/>
<path d="M475.147 79.3209C475.147 77.7706 475.563 76.5758 476.394 75.7364C477.117 75.0055 478.037 74.64 479.153 74.64C480.647 74.64 481.74 75.13 482.43 76.1099C482.812 76.6602 483.017 77.2124 483.045 77.7666H481.189C481.069 77.3409 480.914 77.0196 480.725 76.8027C480.388 76.4172 479.888 76.2244 479.225 76.2244C478.551 76.2244 478.019 76.4975 477.629 77.0437C477.239 77.5859 477.045 78.355 477.045 79.351C477.045 80.347 477.249 81.094 477.659 81.592C478.073 82.086 478.597 82.333 479.231 82.333C479.882 82.333 480.378 82.1202 480.719 81.6944C480.908 81.4655 481.065 81.1221 481.189 80.6643H483.027C482.866 81.6322 482.454 82.4194 481.792 83.0258C481.133 83.6322 480.288 83.9355 479.256 83.9355C477.978 83.9355 476.974 83.5258 476.243 82.7065C475.512 81.8832 475.147 80.7547 475.147 79.3209Z" fill="#F2F2F2"/>
<path d="M475.147 159.089C475.147 157.539 475.563 156.344 476.394 155.504C477.117 154.774 478.037 154.408 479.153 154.408C480.647 154.408 481.74 154.898 482.43 155.878C482.812 156.428 483.017 156.98 483.045 157.535H481.189C481.069 157.109 480.914 156.788 480.725 156.571C480.388 156.185 479.888 155.992 479.225 155.992C478.551 155.992 478.019 156.266 477.629 156.812C477.239 157.354 477.045 158.123 477.045 159.119C477.045 160.115 477.249 160.862 477.659 161.36C478.073 161.854 478.597 162.101 479.231 162.101C479.882 162.101 480.378 161.888 480.719 161.463C480.908 161.234 481.065 160.89 481.189 160.432H483.027C482.866 161.4 482.454 162.187 481.792 162.794C481.133 163.4 480.288 163.704 479.256 163.704C477.978 163.704 476.974 163.294 476.243 162.475C475.512 161.651 475.147 160.523 475.147 159.089Z" fill="#F2F2F2"/>
</g>
</g>
<rect x="0.5" y="1.34473" width="594" height="235.962" stroke="black"/>
<defs>
<clipPath id="clip0_167_2600">
<rect x="1" y="1.84473" width="593" height="234.962" fill="white"/>
</clipPath>
<clipPath id="clip1_167_2600">
<rect width="1187.45" height="235.27" fill="white" transform="translate(1 1.84473)"/>
</clipPath>
</defs>
</svg>
