<svg width="2913" height="1135" viewBox="0 0 2913 1135" fill="none" xmlns="http://www.w3.org/2000/svg">
<path d="M889.139 9.40771L925.243 60.1961" stroke="black" stroke-width="21.7013"/>
<path d="M931.717 7.16406L967.871 58.0222" stroke="black" stroke-width="21.7013"/>
<path d="M909.603 109.865C908.795 171.869 973.631 174.761 1027.72 168.339" stroke="black" stroke-width="21.7013"/>
<path d="M902.096 92.9004L1021.55 94.273L1022.05 56.0146" stroke="black" stroke-width="21.7013"/>
<path d="M894.075 173.664C928.461 157.618 998.614 101.084 1004.14 3.32" stroke="black" stroke-width="21.7013"/>
<path d="M1106.11 117.248C1124.92 117.464 1140.18 133.102 1139.93 152.436C1139.68 171.769 1124.02 187.052 1105.2 186.836C1086.39 186.62 1071.13 170.982 1071.38 151.648C1071.63 132.315 1087.3 117.032 1106.11 117.248Z" stroke="black" stroke-width="21.7013"/>
<path d="M1075.67 97.6299C1074.95 153.194 1129.18 155.742 1174.42 149.95" stroke="black" stroke-width="21.7013"/>
<rect x="10.7086" y="10.9744" width="115.763" height="71.4835" transform="matrix(0.999934 0.0114896 -0.0130285 0.999915 1038.92 9.13229)" stroke="black" stroke-width="21.7013"/>
<path d="M1107.21 91.98L1108.12 21.6895" stroke="black" stroke-width="21.7013"/>
<path d="M1047.34 56.1631L1167.98 57.5493" stroke="black" stroke-width="21.7013"/>
<path d="M1814.33 132.125C1820.2 192.253 1883.3 188.089 1934.99 176.061" stroke="black" stroke-width="27.631"/>
<path d="M1819.73 106.508C1851.53 86.2374 1880.49 52.9144 1876.82 15.4055" stroke="black" stroke-width="27.631"/>
<path d="M1878.25 22.8306L1935.02 96.4035" stroke="black" stroke-width="27.631"/>
<path d="M1846.29 48.5811L1903.06 122.154" stroke="black" stroke-width="27.631"/>
<path d="M1811.74 76.5474L1868.51 150.12" stroke="black" stroke-width="27.631"/>
<path d="M1608.12 11.8525L1510.11 11.8525L1510.11 190.215L1608.12 190.215L1648.86 133.984L1791.64 133.984L1791.64 68.083L1648.86 68.083L1608.12 11.8525Z" fill="black"/>
<path d="M1423.25 190.215L1399.61 101.794L1423.25 11.8525L1313.9 11.8525L1313.9 190.215L1423.25 190.215Z" fill="black"/>
<path d="M1200.75 31.4111C1200.84 32.3828 1201.08 33.1277 1201.48 33.646C1202.22 34.5853 1203.49 35.0549 1205.3 35.0549C1206.38 35.0549 1207.33 34.8228 1208.15 34.3585C1208.97 33.8835 1209.38 33.1547 1209.38 32.1722C1209.38 31.4273 1209.05 30.8605 1208.4 30.4718C1207.98 30.2343 1207.14 29.959 1205.9 29.6459L1203.59 29.0628C1202.11 28.6958 1201.02 28.2855 1200.32 27.832C1199.06 27.0439 1198.44 25.9534 1198.44 24.5607C1198.44 22.9196 1199.02 21.5916 1200.2 20.5768C1201.39 19.5619 1202.98 19.0544 1204.98 19.0544C1207.59 19.0544 1209.48 19.821 1210.63 21.3541C1211.35 22.3258 1211.71 23.3731 1211.68 24.4959H1208.93C1208.88 23.8373 1208.64 23.2381 1208.23 22.6983C1207.57 21.9317 1206.4 21.5484 1204.75 21.5484C1203.65 21.5484 1202.81 21.759 1202.24 22.18C1201.68 22.6011 1201.4 23.1571 1201.4 23.8481C1201.4 24.6039 1201.77 25.2085 1202.52 25.6619C1202.95 25.9318 1203.59 26.1694 1204.43 26.3745L1206.36 26.8442C1208.45 27.3516 1209.85 27.8428 1210.57 28.3179C1211.7 29.0628 1212.27 30.2343 1212.27 31.8321C1212.27 33.3761 1211.68 34.7094 1210.5 35.8323C1209.34 36.9551 1207.55 37.5165 1205.16 37.5165C1202.58 37.5165 1200.75 36.9335 1199.67 35.7675C1198.6 34.5907 1198.03 33.1385 1197.95 31.4111H1200.75ZM1213.28 19.5889H1216.24V36.8525H1213.28V19.5889ZM1213.28 13.0624H1216.24V16.3661H1213.28V13.0624ZM1218.34 19.5079H1221.11V21.9695C1221.93 20.9546 1222.8 20.2259 1223.72 19.7832C1224.64 19.3406 1225.66 19.1192 1226.78 19.1192C1229.24 19.1192 1230.91 19.9776 1231.77 21.6942C1232.25 22.6335 1232.48 23.9777 1232.48 25.7267V36.8525L1229.52 36.8525V25.921C1229.52 24.863 1229.36 24.0101 1229.05 23.3623C1228.53 22.2826 1227.59 21.7428 1226.23 21.7428C1225.54 21.7428 1224.97 21.813 1224.53 21.9533C1223.73 22.1908 1223.03 22.6659 1222.43 23.3785C1221.94 23.9507 1221.62 24.5445 1221.47 25.1599C1221.33 25.7645 1221.26 26.6336 1221.26 27.7673V36.8525H1218.34V19.5079ZM1235.18 33.3221H1238.57V36.8525H1235.18V33.3221Z" fill="black"/>
<path d="M2647.95 118.182C2648.23 139.373 2662.54 186.915 2769.66 186.915" stroke="black" stroke-width="21.6563"/>
<path d="M2682.57 25.7002V119.017" stroke="black" stroke-width="21.6563"/>
<path d="M2721.84 60.5093V153.827" stroke="black" stroke-width="21.6563"/>
<path d="M2760.97 93.644V186.961" stroke="black" stroke-width="21.6563"/>
<path d="M2633.45 186.684L2791.73 186.684" stroke="black" stroke-width="21.6563"/>
<path d="M2256.99 34.5699H2265.52L2278.16 71.7591L2290.7 34.5699H2299.15V78.5562H2293.49V52.5956C2293.49 51.6973 2293.51 50.2101 2293.55 48.1341C2293.59 46.058 2293.61 43.8323 2293.61 41.4568L2281.06 78.5562H2275.16L2262.53 41.4568V42.8042C2262.53 43.8822 2262.55 45.529 2262.59 47.7448C2262.65 49.9406 2262.68 51.5576 2262.68 52.5956V78.5562H2256.99V34.5699ZM2307.34 70.0224C2307.34 71.5794 2307.91 72.8071 2309.05 73.7054C2310.19 74.6037 2311.53 75.0528 2313.09 75.0528C2314.99 75.0528 2316.82 74.6137 2318.6 73.7353C2321.6 72.2781 2323.09 69.8926 2323.09 66.579V62.2372C2322.43 62.6564 2321.59 63.0058 2320.55 63.2852C2319.51 63.5647 2318.49 63.7643 2317.49 63.8841L2314.23 64.3033C2312.27 64.5628 2310.81 64.972 2309.83 65.531C2308.17 66.4692 2307.34 67.9663 2307.34 70.0224ZM2320.4 59.1232C2321.64 58.9635 2322.46 58.4444 2322.88 57.5661C2323.12 57.087 2323.24 56.3983 2323.24 55.5001C2323.24 53.6636 2322.58 52.3361 2321.27 51.5176C2319.97 50.6792 2318.1 50.26 2315.67 50.26C2312.85 50.26 2310.86 51.0186 2309.68 52.5357C2309.02 53.3741 2308.59 54.6217 2308.39 56.2786L2303.36 56.2786C2303.46 52.3261 2304.74 49.5813 2307.19 48.0443C2309.67 46.4872 2312.53 45.7087 2315.79 45.7087C2319.56 45.7087 2322.62 46.4273 2324.98 47.8646C2327.31 49.3019 2328.48 51.5376 2328.48 54.5718V73.0466C2328.48 73.6056 2328.59 74.0547 2328.81 74.3941C2329.05 74.7334 2329.54 74.9031 2330.28 74.9031C2330.52 74.9031 2330.79 74.8931 2331.09 74.8732C2331.39 74.8332 2331.71 74.7833 2332.05 74.7235V78.7059C2331.21 78.9454 2330.57 79.0951 2330.13 79.155C2329.69 79.2149 2329.09 79.2448 2328.33 79.2448C2326.48 79.2448 2325.13 78.5861 2324.29 77.2686C2323.85 76.5699 2323.54 75.5818 2323.36 74.3042C2322.26 75.7415 2320.69 76.9891 2318.63 78.0471C2316.57 79.1051 2314.31 79.6341 2311.83 79.6341C2308.86 79.6341 2306.42 78.7358 2304.53 76.9392C2302.65 75.1227 2301.71 72.857 2301.71 70.1422C2301.71 67.1678 2302.64 64.8622 2304.5 63.2253C2306.35 61.5885 2308.79 60.5804 2311.8 60.2011L2320.4 59.1232ZM2332.93 34.5699H2338.11V60.1113L2351.95 46.4872H2358.83L2346.56 58.4944L2359.52 78.5562H2352.64L2342.63 62.3869L2338.11 66.5191V78.5562H2332.93V34.5699ZM2372.78 45.7686C2375.05 45.7686 2377.26 46.3076 2379.39 47.3855C2381.53 48.4435 2383.16 49.8209 2384.27 51.5176C2385.35 53.1346 2386.07 55.021 2386.43 57.1769C2386.75 58.6541 2386.91 61.0096 2386.91 64.2434H2363.4C2363.5 67.4972 2364.27 70.1122 2365.71 72.0885C2367.15 74.0447 2369.37 75.0229 2372.39 75.0229C2375.2 75.0229 2377.45 74.0946 2379.12 72.2382C2380.08 71.1602 2380.76 69.9126 2381.16 68.4953H2386.46C2386.32 69.6731 2385.85 70.9906 2385.05 72.4478C2384.27 73.885 2383.4 75.0628 2382.42 75.9811C2380.78 77.578 2378.75 78.656 2376.34 79.2149C2375.04 79.5343 2373.57 79.694 2371.94 79.694C2367.95 79.694 2364.56 78.2467 2361.79 75.3523C2359.01 72.4378 2357.63 68.3656 2357.63 63.1355C2357.63 57.9853 2359.02 53.8033 2361.82 50.5894C2364.61 47.3755 2368.26 45.7686 2372.78 45.7686ZM2381.37 59.9616C2381.15 57.626 2380.64 55.7596 2379.84 54.3622C2378.37 51.7672 2375.9 50.4696 2372.45 50.4696C2369.97 50.4696 2367.9 51.3679 2366.22 53.1645C2364.54 54.9411 2363.65 57.2068 2363.55 59.9616L2381.37 59.9616Z" fill="black"/>
<path d="M2257.35 93.2033H2262.83V125.123H2257.35V93.2033ZM2257.35 81.1363H2262.83V87.2447H2257.35V81.1363ZM2267.79 84.1007H2273.24V93.0536H2278.36V97.4552H2273.24V118.385C2273.24 119.503 2273.62 120.252 2274.37 120.631C2274.79 120.851 2275.49 120.96 2276.47 120.96C2276.73 120.96 2277.01 120.96 2277.31 120.96C2277.61 120.941 2277.96 120.911 2278.36 120.871V125.123C2277.74 125.302 2277.09 125.432 2276.41 125.512C2275.75 125.592 2275.03 125.632 2274.25 125.632C2271.74 125.632 2270.03 124.993 2269.13 123.715C2268.24 122.418 2267.79 120.741 2267.79 118.685V97.4552H2263.45V93.0536H2267.79V84.1007ZM2280.77 118.595H2287.03V125.123H2280.77V118.595ZM2293.55 118.595H2299.8V125.123H2293.55V118.595ZM2306.32 118.595H2312.58V125.123H2306.32V118.595ZM2319.1 118.595L2325.35 118.595V125.123L2319.1 125.123V118.595ZM2331.87 118.595H2338.13V125.123H2331.87V118.595Z" fill="black"/>
<path d="M2373.04 110.454L2363.66 88.7792L2357.25 111.674L2373.04 110.454ZM2359.52 81.5756L2367.24 80.979L2389.42 129.966L2381.94 130.544L2375.66 115.843L2355.73 117.383L2351.44 132.901L2344.44 133.442L2359.52 81.5756ZM2388.92 79.3028L2395.75 78.7751L2399.18 123.171L2424.71 121.198L2425.17 127.202L2392.82 129.703L2388.92 79.3028ZM2425.22 76.497L2432.05 75.9693L2435.48 120.365L2461.01 118.392L2461.47 124.396L2429.12 126.897L2425.22 76.497Z" fill="black"/>
<path d="M2331.39 140.72L2361.35 138.404L2361.76 143.697L2337.65 145.562L2338.66 158.679L2359.87 157.04L2360.26 162.186L2339.06 163.825L2340.58 183.472L2334.72 183.924L2331.39 140.72ZM2369.78 137.752L2371.85 164.457C2372.09 167.594 2372.88 170.156 2374.22 172.143C2376.21 175.146 2379.27 176.487 2383.41 176.167C2388.37 175.784 2391.61 173.827 2393.13 170.297C2393.95 168.38 2394.24 165.863 2394 162.745L2391.93 136.04L2397.87 135.581L2399.75 159.845C2400.16 165.158 2399.76 169.302 2398.55 172.275C2396.32 177.693 2391.57 180.684 2384.27 181.248C2376.98 181.812 2371.83 179.587 2368.81 174.573C2367.16 171.821 2366.13 167.788 2365.72 162.475L2363.84 138.211L2369.78 137.752ZM2402.74 135.205L2409.65 134.67L2434.18 167.982L2431.48 132.984L2437.04 132.554L2440.38 175.758L2433.82 176.265L2408.97 143.008L2411.67 177.977L2406.08 178.409L2402.74 135.205ZM2444.44 131.982L2450.41 131.521L2451.51 145.726L2451.51 164.542L2448.51 164.774L2445.53 146.187L2444.44 131.982ZM2447.3 169.069L2453.16 168.616L2453.63 174.734L2447.78 175.186L2447.3 169.069Z" fill="black"/>
<circle cx="2416.19" cy="54.0034" r="22.8005" stroke="black" stroke-width="4.42625"/>
<mask id="path-28-outside-1_162_1864" maskUnits="userSpaceOnUse" x="2407.29" y="40.6636" width="21" height="26" fill="black">
<rect fill="white" x="2407.29" y="40.6636" width="21" height="26"/>
<path d="M2412.61 52.1482H2416.89C2419.44 52.1482 2420.72 50.992 2420.72 48.6797C2420.72 47.683 2420.38 46.8956 2419.7 46.3175C2419.02 45.7394 2418.08 45.4503 2416.86 45.4503H2412.61V52.1482ZM2407.65 65.6636V41.1745H2417.79C2420.38 41.1745 2422.37 41.8423 2423.77 43.1778C2425.16 44.5134 2425.86 46.2078 2425.86 48.2611C2425.86 49.9355 2425.52 51.291 2424.84 52.3276C2424.17 53.3443 2423.37 54.0619 2422.45 54.4805C2423.15 55.0387 2423.64 55.5869 2423.92 56.1251C2424.22 56.6633 2424.47 57.5404 2424.67 58.7564C2425.1 60.989 2426.04 63.2914 2427.48 65.6636H2421.91C2420.78 63.8097 2419.96 61.6269 2419.46 59.1152C2419.26 58.1584 2418.98 57.4607 2418.63 57.0221C2418.27 56.5836 2417.71 56.3643 2416.95 56.3643H2412.61V65.6636H2407.65Z"/>
</mask>
<path d="M2412.61 52.1482H2416.89C2419.44 52.1482 2420.72 50.992 2420.72 48.6797C2420.72 47.683 2420.38 46.8956 2419.7 46.3175C2419.02 45.7394 2418.08 45.4503 2416.86 45.4503H2412.61V52.1482ZM2407.65 65.6636V41.1745H2417.79C2420.38 41.1745 2422.37 41.8423 2423.77 43.1778C2425.16 44.5134 2425.86 46.2078 2425.86 48.2611C2425.86 49.9355 2425.52 51.291 2424.84 52.3276C2424.17 53.3443 2423.37 54.0619 2422.45 54.4805C2423.15 55.0387 2423.64 55.5869 2423.92 56.1251C2424.22 56.6633 2424.47 57.5404 2424.67 58.7564C2425.1 60.989 2426.04 63.2914 2427.48 65.6636H2421.91C2420.78 63.8097 2419.96 61.6269 2419.46 59.1152C2419.26 58.1584 2418.98 57.4607 2418.63 57.0221C2418.27 56.5836 2417.71 56.3643 2416.95 56.3643H2412.61V65.6636H2407.65Z" fill="black"/>
<path d="M2412.61 52.1482H2412.38V52.3874H2412.61V52.1482ZM2412.61 45.4503V45.2111H2412.38V45.4503H2412.61ZM2407.65 65.6636H2407.41V65.9028H2407.65V65.6636ZM2407.65 41.1745V40.9352H2407.41V41.1745H2407.65ZM2424.84 52.3276L2425.04 52.4603L2425.04 52.4585L2424.84 52.3276ZM2422.45 54.4805L2422.35 54.2629L2422 54.4244L2422.3 54.6673L2422.45 54.4805ZM2423.92 56.1251L2423.71 56.2352L2423.71 56.2412L2423.92 56.1251ZM2424.67 58.7564L2424.43 58.7951L2424.43 58.8025L2424.67 58.7564ZM2427.48 65.6636V65.9028H2427.9L2427.68 65.5397L2427.48 65.6636ZM2421.91 65.6636L2421.71 65.7886L2421.78 65.9028H2421.91V65.6636ZM2419.46 59.1152L2419.7 59.0686L2419.7 59.0664L2419.46 59.1152ZM2412.61 56.3643V56.1251H2412.38V56.3643H2412.61ZM2412.61 65.6636V65.9028H2412.85V65.6636H2412.61ZM2412.61 52.1482V52.3874H2416.89V52.1482V51.909H2412.61V52.1482ZM2416.89 52.1482V52.3874C2418.2 52.3874 2419.22 52.0918 2419.92 51.4583C2420.63 50.8208 2420.96 49.8791 2420.96 48.6797H2420.72H2420.48C2420.48 49.7926 2420.17 50.5851 2419.6 51.1038C2419.02 51.6266 2418.14 51.909 2416.89 51.909V52.1482ZM2420.72 48.6797H2420.96C2420.96 47.6223 2420.59 46.7647 2419.86 46.1355L2419.7 46.3175L2419.55 46.4995C2420.16 47.0264 2420.48 47.7437 2420.48 48.6797H2420.72ZM2419.7 46.3175L2419.86 46.1355C2419.12 45.5089 2418.11 45.2111 2416.86 45.2111V45.4503V45.6895C2418.04 45.6895 2418.93 45.9699 2419.55 46.4995L2419.7 46.3175ZM2416.86 45.4503V45.2111H2412.61V45.4503V45.6895H2416.86V45.4503ZM2412.61 45.4503H2412.38V52.1482H2412.61H2412.85V45.4503H2412.61ZM2407.65 65.6636H2407.89V41.1745H2407.65H2407.41V65.6636H2407.65ZM2407.65 41.1745V41.4137H2417.79V41.1745V40.9352H2407.65V41.1745ZM2417.79 41.1745V41.4137C2420.34 41.4137 2422.27 42.0706 2423.6 43.3506L2423.77 43.1778L2423.93 43.005C2422.48 41.6139 2420.42 40.9352 2417.79 40.9352V41.1745ZM2423.77 43.1778L2423.6 43.3506C2424.95 44.638 2425.62 46.2685 2425.62 48.2611H2425.86H2426.1C2426.1 46.1472 2425.38 44.3888 2423.93 43.005L2423.77 43.1778ZM2425.86 48.2611H2425.62C2425.62 49.905 2425.29 51.2105 2424.64 52.1967L2424.84 52.3276L2425.04 52.4585C2425.76 51.3716 2426.1 49.9661 2426.1 48.2611H2425.86ZM2424.84 52.3276L2424.65 52.1949C2423.99 53.1824 2423.22 53.8663 2422.35 54.2629L2422.45 54.4805L2422.55 54.6981C2423.52 54.2574 2424.35 53.5061 2425.04 52.4603L2424.84 52.3276ZM2422.45 54.4805L2422.3 54.6673C2422.99 55.2136 2423.45 55.7373 2423.71 56.2352L2423.92 56.1251L2424.13 56.015C2423.83 55.4365 2423.31 54.8637 2422.6 54.2937L2422.45 54.4805ZM2423.92 56.1251L2423.71 56.2412C2423.99 56.7417 2424.23 57.5847 2424.43 58.7951L2424.67 58.7564L2424.9 58.7177C2424.7 57.4961 2424.45 56.5849 2424.13 56.0089L2423.92 56.1251ZM2424.67 58.7564L2424.43 58.8025C2424.88 61.0679 2425.82 63.3964 2427.27 65.7874L2427.48 65.6636L2427.68 65.5397C2426.26 63.1865 2425.33 60.9102 2424.9 58.7103L2424.67 58.7564ZM2427.48 65.6636V65.4244H2421.91V65.6636V65.9028H2427.48V65.6636ZM2421.91 65.6636L2422.12 65.5386C2421 63.7127 2420.19 61.5574 2419.7 59.0686L2419.46 59.1152L2419.23 59.1618C2419.73 61.6964 2420.56 63.9067 2421.71 65.7886L2421.91 65.6636ZM2419.46 59.1152L2419.7 59.0664C2419.49 58.0956 2419.21 57.3533 2418.81 56.8706L2418.63 57.0221L2418.44 57.1736C2418.76 57.568 2419.03 58.2212 2419.23 59.164L2419.46 59.1152ZM2418.63 57.0221L2418.81 56.8706C2418.39 56.3593 2417.75 56.1251 2416.95 56.1251V56.3643V56.6035C2417.66 56.6035 2418.14 56.8078 2418.44 57.1736L2418.63 57.0221ZM2416.95 56.3643V56.1251H2412.61V56.3643V56.6035H2416.95V56.3643ZM2412.61 56.3643H2412.38V65.6636H2412.61H2412.85V56.3643H2412.61ZM2412.61 65.6636V65.4244H2407.65V65.6636V65.9028H2412.61V65.6636Z" fill="black" mask="url(#path-28-outside-1_162_1864)"/>
<path d="M2322.89 163.915C2323.95 162.724 2323.84 160.903 2322.65 159.848L2303.23 142.654C2302.04 141.599 2300.22 141.709 2299.17 142.9C2298.11 144.092 2298.22 145.913 2299.41 146.968L2316.67 162.251L2301.39 179.506C2300.33 180.698 2300.44 182.519 2301.63 183.574C2302.82 184.629 2304.64 184.518 2305.7 183.327L2322.89 163.915ZM2252.47 166.141L2252.64 169.017L2320.91 164.881L2320.74 162.005L2320.56 159.129L2252.29 163.265L2252.47 166.141Z" fill="black"/>
<path d="M2164.07 40.6665C2078.78 40.6665 2080.83 132.404 2164.07 132.404" stroke="black" stroke-width="21.6563"/>
<path d="M2186.43 32.1143C2176.57 75.148 2171.65 111.6 2239.73 135.655" stroke="black" stroke-width="21.6563"/>
<path d="M2099.38 157.219H2228.67V194.49" stroke="black" stroke-width="21.6563"/>
<circle cx="2223" cy="91.5065" r="10.8281" fill="black" stroke="black" stroke-width="11.8041"/>
<circle cx="2142.14" cy="91.5065" r="10.8281" fill="black" stroke="black" stroke-width="11.8041"/>
<path d="M2469.03 188.545C2478.99 175.188 2501.14 135.316 2510.02 82.6772" stroke="black" stroke-width="21.6563"/>
<path d="M2510.02 190.772C2519.98 177.415 2542.12 137.543 2551.01 84.9043" stroke="black" stroke-width="21.6563"/>
<path d="M2580.38 82.6772V187.464H2627.96" stroke="black" stroke-width="21.6563"/>
<path d="M2462.15 148.141H2619.55" stroke="black" stroke-width="21.6563"/>
<path d="M2462.15 36.0186L2499.33 46.7073" stroke="black" stroke-width="21.6563"/>
<path d="M2622.76 36.0186L2585.58 46.7073" stroke="black" stroke-width="21.6563"/>
<path d="M1229.96 59.5957C1230.05 57.9556 1230.39 56.5283 1230.97 55.3138C1231.57 54.0992 1232.72 52.9955 1234.43 52.0026L1236.99 50.5265C1238.13 49.8616 1238.93 49.2943 1239.39 48.8244C1240.12 48.0886 1240.48 47.2464 1240.48 46.2978C1240.48 45.1896 1240.15 44.312 1239.49 43.6648C1238.82 43.0088 1237.93 42.6808 1236.83 42.6808C1235.19 42.6808 1234.05 43.3013 1233.42 44.5425C1233.08 45.2074 1232.9 46.1294 1232.86 47.3084H1230.43C1230.46 45.6506 1230.76 44.2987 1231.35 43.2526C1232.38 41.4086 1234.22 40.4866 1236.84 40.4866C1239.02 40.4866 1240.61 41.0761 1241.61 42.2552C1242.62 43.4343 1243.13 44.7464 1243.13 46.1914C1243.13 47.7162 1242.59 49.0194 1241.52 50.101C1240.9 50.7304 1239.79 51.4928 1238.18 52.3882L1236.36 53.3989C1235.49 53.8776 1234.81 54.3342 1234.31 54.7686C1233.43 55.5398 1232.87 56.3953 1232.64 57.3351H1243.04V59.5957H1229.96ZM1249.73 40.5531C1252.2 40.5531 1253.98 41.5682 1255.08 43.5983C1255.93 45.1675 1256.36 47.3173 1256.36 50.0478C1256.36 52.6365 1255.97 54.7774 1255.2 56.4707C1254.08 58.8998 1252.26 60.1143 1249.72 60.1143C1247.43 60.1143 1245.73 59.1214 1244.61 57.1356C1243.68 55.4778 1243.22 53.2526 1243.22 50.46C1243.22 48.2969 1243.5 46.4396 1244.06 44.8882C1245.1 41.9981 1246.99 40.5531 1249.73 40.5531ZM1249.71 57.9335C1250.95 57.9335 1251.94 57.3838 1252.67 56.2845C1253.41 55.1852 1253.78 53.1374 1253.78 50.1409C1253.78 47.9778 1253.51 46.2003 1252.98 44.8084C1252.45 43.4077 1251.41 42.7074 1249.88 42.7074C1248.47 42.7074 1247.44 43.3723 1246.78 44.702C1246.13 46.023 1245.81 47.9733 1245.81 50.5531C1245.81 52.4946 1246.02 54.0549 1246.44 55.234C1247.07 57.0336 1248.16 57.9335 1249.71 57.9335ZM1256.47 59.5957C1256.56 57.9556 1256.9 56.5283 1257.48 55.3138C1258.08 54.0992 1259.23 52.9955 1260.94 52.0026L1263.49 50.5265C1264.64 49.8616 1265.44 49.2943 1265.9 48.8244C1266.63 48.0886 1266.99 47.2464 1266.99 46.2978C1266.99 45.1896 1266.66 44.312 1265.99 43.6648C1265.33 43.0088 1264.44 42.6808 1263.33 42.6808C1261.69 42.6808 1260.56 43.3013 1259.93 44.5425C1259.59 45.2074 1259.41 46.1294 1259.37 47.3084H1256.94C1256.96 45.6506 1257.27 44.2987 1257.85 43.2526C1258.89 41.4086 1260.72 40.4866 1263.35 40.4866C1265.53 40.4866 1267.12 41.0761 1268.12 42.2552C1269.13 43.4343 1269.64 44.7464 1269.64 46.1914C1269.64 47.7162 1269.1 49.0194 1268.03 50.101C1267.41 50.7304 1266.29 51.4928 1264.69 52.3882L1262.87 53.3989C1262 53.8776 1261.32 54.3342 1260.82 54.7686C1259.93 55.5398 1259.37 56.3953 1259.14 57.3351L1269.54 57.3351V59.5957L1256.47 59.5957ZM1272.24 54.742C1272.4 56.1072 1273.03 57.0514 1274.14 57.5744C1274.71 57.8404 1275.36 57.9734 1276.11 57.9734C1277.53 57.9734 1278.58 57.5212 1279.26 56.617C1279.94 55.7127 1280.28 54.7109 1280.28 53.6116C1280.28 52.2819 1279.87 51.2535 1279.06 50.5265C1278.25 49.7996 1277.28 49.4361 1276.15 49.4361C1275.32 49.4361 1274.61 49.5957 1274.02 49.9148C1273.43 50.234 1272.93 50.6772 1272.52 51.2446L1270.44 51.1249L1271.89 40.8722H1281.79V43.1861H1273.69L1272.88 48.4787C1273.32 48.1418 1273.74 47.8891 1274.14 47.7207C1274.85 47.4281 1275.67 47.2818 1276.6 47.2818C1278.35 47.2818 1279.83 47.8448 1281.04 48.9707C1282.26 50.0966 1282.86 51.5239 1282.86 53.2526C1282.86 55.0523 1282.3 56.6391 1281.19 58.0133C1280.08 59.3874 1278.31 60.0744 1275.87 60.0744C1274.32 60.0744 1272.94 59.64 1271.75 58.7712C1270.56 57.8936 1269.89 56.5505 1269.75 54.742H1272.24Z" fill="black"/>
<path d="M1948.44 43.7324H2077.63V83.4666H1957.13V96.8043V114.696H2014.15M2087.39 114.696H2014.15M2014.15 114.696V152.572" stroke="black" stroke-width="21.6563"/>
<path d="M2078.56 119.576C2078.56 155.592 2040.73 198.998 1953.97 171.207" stroke="black" stroke-width="21.6563"/>
<path d="M1231.85 169.785C1241.55 160.418 1271.03 126.597 1285.82 84.7604L1191.04 85.5742L1191.77 171.475C1201.46 162.108 1224.55 130.011 1239.34 88.1743" stroke="black" stroke-width="20.5716"/>
<path d="M1723.92 223.071L1724.11 223.14L1849.5 267.959L1974.89 223.14L1975.08 223.071H2803.77V270.155L2802.94 270.402L1918.23 534.232V610.562H1780.77V534.232L896.059 270.402L895.229 270.155V223.071H1723.92Z" fill="black" stroke="black" stroke-width="2.32364"/>
<path d="M1082.04 258.2H1089.22V272.187L1102.37 258.2H1111.66L1097.62 272.281L1112.47 292.583H1103.38L1092.73 277.356L1089.22 280.935V292.583H1082.04V258.2ZM1112.97 258.2H1119.87V281.613H1119.96L1133.58 258.2H1140.85V292.583H1133.95V269.31H1133.86L1120.27 292.583H1112.97V258.2ZM1166.96 269.497C1166.86 269.17 1166.75 268.795 1166.61 268.374C1166.47 267.938 1166.27 267.501 1166.02 267.065C1165.79 266.628 1165.48 266.199 1165.11 265.778C1164.75 265.357 1164.3 264.983 1163.75 264.655C1163.21 264.328 1162.55 264.063 1161.79 263.86C1161.02 263.657 1160.13 263.556 1159.1 263.556C1158.66 263.556 1158.15 263.611 1157.55 263.72C1156.96 263.829 1156.35 264.039 1155.73 264.351C1155.11 264.648 1154.49 265.069 1153.88 265.614C1153.27 266.16 1152.73 266.877 1152.24 267.766C1151.78 268.639 1151.39 269.7 1151.1 270.947C1150.8 272.195 1150.65 273.676 1150.65 275.392C1150.65 277.247 1150.85 278.908 1151.24 280.374C1151.63 281.839 1152.19 283.079 1152.92 284.093C1153.66 285.106 1154.54 285.886 1155.57 286.432C1156.61 286.962 1157.79 287.227 1159.1 287.227C1160.61 287.227 1161.84 286.993 1162.79 286.525C1163.74 286.058 1164.5 285.488 1165.06 284.818C1165.64 284.147 1166.07 283.446 1166.35 282.713C1166.63 281.98 1166.85 281.34 1167 280.795H1174.14C1173.75 282.947 1173.1 284.818 1172.2 286.408C1171.29 287.983 1170.19 289.293 1168.9 290.338C1167.6 291.383 1166.15 292.162 1164.52 292.677C1162.92 293.192 1161.2 293.449 1159.38 293.449C1156.82 293.449 1154.55 293.028 1152.57 292.186C1150.61 291.328 1148.95 290.112 1147.59 288.537C1146.25 286.962 1145.23 285.067 1144.53 282.853C1143.82 280.623 1143.47 278.136 1143.47 275.392C1143.47 273.271 1143.68 271.353 1144.08 269.637C1144.49 267.922 1145.05 266.402 1145.76 265.076C1146.5 263.735 1147.36 262.581 1148.34 261.615C1149.32 260.632 1150.39 259.829 1151.54 259.205C1152.71 258.566 1153.94 258.098 1155.21 257.802C1156.49 257.49 1157.79 257.334 1159.1 257.334C1160.97 257.334 1162.63 257.529 1164.08 257.919C1165.53 258.309 1166.8 258.831 1167.89 259.486C1168.98 260.141 1169.91 260.889 1170.68 261.732C1171.46 262.574 1172.09 263.447 1172.57 264.351C1173.07 265.24 1173.44 266.137 1173.67 267.041C1173.92 267.93 1174.08 268.749 1174.14 269.497H1166.96ZM1197.67 264.117H1187.59L1187.61 269.31C1187.63 272.444 1187.56 275.212 1187.4 277.614C1187.26 279.999 1187.03 282.081 1186.7 283.859C1186.39 285.621 1185.98 287.102 1185.48 288.303C1185 289.504 1184.42 290.471 1183.75 291.203C1183.08 291.921 1182.32 292.435 1181.46 292.747C1180.6 293.059 1179.66 293.215 1178.63 293.215C1177.79 293.215 1177.04 293.16 1176.39 293.051C1175.75 292.958 1175.11 292.778 1174.47 292.513L1174.44 285.941C1174.66 286.05 1174.89 286.143 1175.12 286.221C1175.37 286.284 1175.61 286.338 1175.85 286.385C1176.08 286.416 1176.29 286.44 1176.48 286.455C1176.68 286.471 1176.84 286.479 1176.95 286.479C1177.37 286.479 1177.76 286.424 1178.12 286.315C1178.49 286.19 1178.82 285.933 1179.1 285.543C1179.4 285.153 1179.65 284.592 1179.87 283.859C1180.09 283.126 1180.27 282.151 1180.41 280.935C1180.56 279.719 1180.67 278.214 1180.74 276.421C1180.81 274.627 1180.85 272.483 1180.85 269.988V258.2H1204.85V292.583H1197.67V264.117ZM1206.87 275.392C1206.87 272.819 1207.21 270.433 1207.9 268.234C1208.58 266.035 1209.61 264.133 1210.98 262.527C1212.36 260.905 1214.08 259.634 1216.15 258.714C1218.23 257.794 1220.64 257.334 1223.4 257.334C1225.95 257.334 1228.24 257.794 1230.28 258.714C1232.32 259.634 1234.05 260.905 1235.47 262.527C1236.91 264.133 1238.01 266.035 1238.77 268.234C1239.54 270.433 1239.92 272.819 1239.92 275.392C1239.92 277.949 1239.54 280.335 1238.77 282.549C1238.01 284.748 1236.91 286.658 1235.47 288.28C1234.05 289.886 1232.32 291.149 1230.28 292.069C1228.24 292.989 1225.95 293.449 1223.4 293.449C1220.64 293.449 1218.23 292.989 1216.15 292.069C1214.08 291.149 1212.36 289.886 1210.98 288.28C1209.61 286.658 1208.58 284.748 1207.9 282.549C1207.21 280.335 1206.87 277.949 1206.87 275.392ZM1223.4 287.227C1224.87 287.227 1226.18 286.931 1227.33 286.338C1228.49 285.746 1229.46 284.927 1230.26 283.882C1231.07 282.822 1231.68 281.574 1232.1 280.14C1232.53 278.69 1232.74 277.107 1232.74 275.392C1232.74 273.676 1232.53 272.101 1232.1 270.667C1231.68 269.216 1231.07 267.969 1230.26 266.924C1229.46 265.864 1228.49 265.037 1227.33 264.445C1226.18 263.852 1224.87 263.556 1223.4 263.556C1221.94 263.556 1220.63 263.852 1219.47 264.445C1218.32 265.037 1217.34 265.864 1216.53 266.924C1215.73 267.969 1215.12 269.216 1214.68 270.667C1214.26 272.101 1214.05 273.676 1214.05 275.392C1214.05 277.107 1214.26 278.69 1214.68 280.14C1215.12 281.574 1215.73 282.822 1216.53 283.882C1217.34 284.927 1218.32 285.746 1219.47 286.338C1220.63 286.931 1221.94 287.227 1223.4 287.227ZM1239.76 258.2L1267.92 258.2V264.117H1257.42V292.583H1250.24V264.117L1239.76 264.117V258.2ZM1300.6 258.2H1307.78V292.583H1300.6V258.2ZM1276.74 286.642H1282.82C1283.48 286.642 1284.15 286.596 1284.83 286.502C1285.53 286.408 1286.17 286.206 1286.75 285.894C1287.34 285.582 1287.83 285.122 1288.2 284.514C1288.57 283.89 1288.76 283.064 1288.76 282.034C1288.76 280.958 1288.57 280.116 1288.2 279.508C1287.84 278.885 1287.37 278.417 1286.77 278.105C1286.18 277.793 1285.51 277.598 1284.76 277.52C1284.03 277.442 1283.29 277.403 1282.54 277.403H1276.74V286.642ZM1269.56 258.2H1276.74V271.743H1283.59C1284.11 271.743 1284.76 271.758 1285.56 271.789C1286.37 271.821 1287.23 271.938 1288.15 272.14C1289.07 272.327 1289.99 272.631 1290.91 273.052C1291.83 273.474 1292.67 274.074 1293.42 274.854C1294.17 275.618 1294.77 276.6 1295.24 277.801C1295.71 278.986 1295.94 280.452 1295.94 282.198C1295.94 283.929 1295.71 285.387 1295.24 286.572C1294.77 287.757 1294.17 288.74 1293.44 289.519C1292.72 290.283 1291.92 290.876 1291.03 291.297C1290.16 291.702 1289.3 292.007 1288.46 292.209C1287.63 292.396 1286.87 292.506 1286.17 292.537C1285.48 292.568 1284.97 292.583 1284.65 292.583H1269.56V258.2Z" fill="black"/>
<path d="M1628.28 264.211H1610.03V271.532H1626.78V277.52H1610.03V286.385H1629.12V292.583H1602.99V258.106H1628.28V264.211ZM1637.94 282.175C1637.94 283.531 1638.16 284.654 1638.59 285.543C1639.4 287.18 1640.88 287.999 1643.01 287.999C1644.32 287.999 1645.46 287.555 1646.43 286.666C1647.41 285.761 1647.9 284.467 1647.9 282.783C1647.9 280.553 1647 279.064 1645.19 278.315C1644.16 277.894 1642.54 277.684 1640.32 277.684V272.912C1642.49 272.881 1644 272.67 1644.86 272.281C1646.34 271.626 1647.08 270.3 1647.08 268.304C1647.08 267.01 1646.7 265.957 1645.94 265.147C1645.19 264.336 1644.13 263.93 1642.76 263.93C1641.18 263.93 1640.02 264.429 1639.27 265.427C1638.54 266.425 1638.19 267.758 1638.22 269.427H1632C1632.06 267.743 1632.35 266.145 1632.86 264.632C1633.41 263.306 1634.27 262.082 1635.43 260.96C1636.31 260.164 1637.34 259.556 1638.55 259.135C1639.75 258.714 1641.22 258.504 1642.97 258.504C1646.21 258.504 1648.82 259.346 1650.8 261.03C1652.8 262.698 1653.8 264.944 1653.8 267.766C1653.8 269.762 1653.2 271.446 1652.02 272.819C1651.27 273.676 1650.49 274.261 1649.68 274.573C1650.29 274.573 1651.16 275.095 1652.3 276.14C1654 277.715 1654.85 279.867 1654.85 282.596C1654.85 285.465 1653.85 287.991 1651.85 290.174C1649.87 292.342 1646.93 293.426 1643.04 293.426C1638.23 293.426 1634.9 291.858 1633.03 288.724C1632.04 287.056 1631.5 284.872 1631.39 282.175H1637.94ZM1664.02 281.847C1664.02 283.672 1664.51 285.161 1665.49 286.315C1666.47 287.469 1667.72 288.046 1669.23 288.046C1670.72 288.046 1671.88 287.492 1672.72 286.385C1673.58 285.262 1674.01 283.812 1674.01 282.034C1674.01 280.054 1673.52 278.541 1672.56 277.497C1671.59 276.436 1670.4 275.906 1669 275.906C1667.86 275.906 1666.86 276.249 1665.98 276.935C1664.67 277.949 1664.02 279.586 1664.02 281.847ZM1673.4 267.205C1673.4 266.659 1673.19 266.059 1672.77 265.404C1672.05 264.343 1670.97 263.813 1669.52 263.813C1667.35 263.813 1665.8 265.03 1664.88 267.462C1664.39 268.803 1664.04 270.784 1663.85 273.403C1664.68 272.421 1665.64 271.704 1666.73 271.251C1667.82 270.799 1669.07 270.573 1670.47 270.573C1673.48 270.573 1675.95 271.594 1677.87 273.637C1679.8 275.68 1680.77 278.292 1680.77 281.473C1680.77 284.639 1679.82 287.43 1677.94 289.847C1676.05 292.264 1673.12 293.472 1669.14 293.472C1664.87 293.472 1661.72 291.687 1659.69 288.116C1658.12 285.325 1657.33 281.723 1657.33 277.31C1657.33 274.721 1657.44 272.616 1657.66 270.994C1658.05 268.109 1658.8 265.708 1659.93 263.79C1660.89 262.153 1662.16 260.835 1663.71 259.837C1665.29 258.839 1667.17 258.34 1669.35 258.34C1672.5 258.34 1675.01 259.151 1676.88 260.773C1678.75 262.379 1679.81 264.523 1680.04 267.205H1673.4ZM1689.84 275.953C1689.84 279.851 1690.16 282.837 1690.8 284.911C1691.44 286.97 1692.75 287.999 1694.73 287.999C1696.71 287.999 1698.01 286.97 1698.61 284.911C1699.24 282.837 1699.55 279.851 1699.55 275.953C1699.55 271.867 1699.24 268.842 1698.61 266.877C1698.01 264.913 1696.71 263.93 1694.73 263.93C1692.75 263.93 1691.44 264.913 1690.8 266.877C1690.16 268.842 1689.84 271.867 1689.84 275.953ZM1694.73 258.433C1699.05 258.433 1702.08 259.954 1703.81 262.995C1705.55 266.035 1706.43 270.355 1706.43 275.953C1706.43 281.551 1705.55 285.863 1703.81 288.888C1702.08 291.913 1699.05 293.426 1694.73 293.426C1690.41 293.426 1687.38 291.913 1685.63 288.888C1683.9 285.863 1683.04 281.551 1683.04 275.953C1683.04 270.355 1683.9 266.035 1685.63 262.995C1687.38 259.954 1690.41 258.433 1694.73 258.433Z" fill="black"/>
<path d="M2489.68 271.977H2491.06L2501.31 258.2H2509.49L2497.1 273.895L2509.49 292.583H2500.93L2491.06 277.731H2489.68V292.583H2482.74V277.731H2481.29L2471.32 292.583H2462.76L2475.34 273.895L2463.04 258.2H2471.04L2481.29 271.977H2482.74V258.2H2489.68V271.977ZM2512.47 258.2H2519.37V281.613H2519.46L2533.07 258.2H2540.35V292.583H2533.45V269.31H2533.35L2519.76 292.583H2512.47V258.2ZM2546.71 258.2H2562.34C2564.16 258.2 2565.74 258.449 2567.08 258.948C2568.44 259.447 2569.56 260.172 2570.45 261.123C2571.34 262.075 2572 263.229 2572.44 264.585C2572.88 265.942 2573.09 267.486 2573.09 269.216C2573.09 270.823 2572.84 272.304 2572.32 273.661C2571.81 275.002 2571.06 276.163 2570.08 277.146C2569.11 278.113 2567.93 278.869 2566.52 279.415C2565.12 279.96 2563.53 280.233 2561.75 280.233H2553.89V292.583H2546.71V258.2ZM2553.89 274.292H2560.7C2562.32 274.292 2563.59 273.895 2564.51 273.099C2565.45 272.304 2565.91 271.01 2565.91 269.216C2565.91 268.312 2565.79 267.54 2565.54 266.901C2565.31 266.261 2564.96 265.739 2564.51 265.334C2564.07 264.913 2563.53 264.609 2562.87 264.421C2562.23 264.219 2561.51 264.117 2560.7 264.117H2553.89V274.292ZM2608.74 258.2H2615.92V292.583H2608.74V258.2ZM2584.88 286.642H2590.97C2591.62 286.642 2592.29 286.596 2592.98 286.502C2593.68 286.408 2594.32 286.206 2594.9 285.894C2595.49 285.582 2595.97 285.122 2596.35 284.514C2596.72 283.89 2596.91 283.064 2596.91 282.034C2596.91 280.958 2596.72 280.116 2596.35 279.508C2595.99 278.885 2595.51 278.417 2594.92 278.105C2594.33 277.793 2593.66 277.598 2592.91 277.52C2592.17 277.442 2591.43 277.403 2590.69 277.403H2584.88V286.642ZM2577.7 258.2H2584.88V271.743H2591.74C2592.25 271.743 2592.91 271.758 2593.7 271.789C2594.51 271.821 2595.38 271.938 2596.3 272.14C2597.22 272.327 2598.14 272.631 2599.06 273.052C2599.98 273.474 2600.81 274.074 2601.56 274.854C2602.31 275.618 2602.92 276.6 2603.39 277.801C2603.85 278.986 2604.09 280.452 2604.09 282.198C2604.09 283.929 2603.85 285.387 2603.39 286.572C2602.92 287.757 2602.32 288.74 2601.59 289.519C2600.87 290.283 2600.06 290.876 2599.18 291.297C2598.3 291.702 2597.45 292.007 2596.6 292.209C2595.78 292.396 2595.01 292.506 2594.31 292.537C2593.62 292.568 2593.12 292.583 2592.79 292.583H2577.7V258.2Z" fill="black"/>
<path d="M2723.33 397.965L2740.47 353.354L2723.33 307.977L2802.65 307.977L2802.65 397.965L2723.33 397.965Z" fill="black"/>
<path d="M1883.6 413.576H1865.35V420.897H1882.1V426.885H1865.35V435.75H1884.44V441.948H1858.31V407.471H1883.6V413.576ZM1893.75 425.318C1893.75 429.216 1894.07 432.202 1894.71 434.276C1895.35 436.335 1896.66 437.364 1898.64 437.364C1900.62 437.364 1901.91 436.335 1902.52 434.276C1903.14 432.202 1903.46 429.216 1903.46 425.318C1903.46 421.232 1903.14 418.207 1902.52 416.242C1901.91 414.277 1900.62 413.295 1898.64 413.295C1896.66 413.295 1895.35 414.277 1894.71 416.242C1894.07 418.207 1893.75 421.232 1893.75 425.318ZM1898.64 407.798C1902.96 407.798 1905.98 409.319 1907.71 412.359C1909.46 415.4 1910.33 419.72 1910.33 425.318C1910.33 430.916 1909.46 435.227 1907.71 438.253C1905.98 441.278 1902.96 442.79 1898.64 442.79C1894.32 442.79 1891.29 441.278 1889.54 438.253C1887.81 435.227 1886.94 430.916 1886.94 425.318C1886.94 419.72 1887.81 415.4 1889.54 412.359C1891.29 409.319 1894.32 407.798 1898.64 407.798ZM1912.58 419.961C1912.58 416.328 1913.62 413.389 1915.71 411.143C1917.82 408.882 1920.55 407.751 1923.9 407.751C1929.06 407.751 1932.6 410.036 1934.52 414.605C1935.61 417.193 1936.16 420.601 1936.16 424.826C1936.16 428.928 1935.63 432.35 1934.59 435.095C1932.59 440.319 1928.93 442.931 1923.6 442.931C1921.05 442.931 1918.77 442.182 1916.74 440.685C1914.72 439.173 1913.55 436.974 1913.26 434.089H1919.9C1920.06 435.087 1920.48 435.898 1921.16 436.522C1921.85 437.145 1922.76 437.457 1923.9 437.457C1926.1 437.457 1927.64 436.241 1928.53 433.808C1929.01 432.467 1929.32 430.51 1929.44 427.937C1928.84 428.701 1928.19 429.286 1927.5 429.692C1926.25 430.44 1924.72 430.814 1922.89 430.814C1920.2 430.814 1917.8 429.887 1915.71 428.031C1913.62 426.16 1912.58 423.47 1912.58 419.961ZM1924.34 425.388C1925.26 425.388 1926.13 425.123 1926.94 424.593C1928.45 423.626 1929.21 421.949 1929.21 419.564C1929.21 417.646 1928.76 416.125 1927.85 415.002C1926.96 413.88 1925.74 413.318 1924.18 413.318C1923.04 413.318 1922.07 413.638 1921.26 414.277C1919.98 415.275 1919.34 416.967 1919.34 419.353C1919.34 421.365 1919.74 422.877 1920.56 423.891C1921.38 424.889 1922.64 425.388 1924.34 425.388ZM1940.18 418.558V414.02C1942.29 413.927 1943.76 413.786 1944.6 413.599C1945.94 413.303 1947.03 412.71 1947.88 411.821C1948.45 411.213 1948.89 410.402 1949.19 409.389C1949.36 408.781 1949.44 408.328 1949.44 408.032H1954.99V441.948H1948.16V418.558H1940.18Z" fill="black"/>
<path d="M2015.43 436.802C2018.29 436.802 2020.55 435.75 2022.22 433.645C2023.9 431.54 2024.74 428.546 2024.74 424.663C2024.74 420.796 2023.9 417.809 2022.22 415.704C2020.55 413.583 2018.29 412.523 2015.43 412.523C2012.58 412.523 2010.3 413.576 2008.6 415.681C2006.9 417.786 2006.05 420.78 2006.05 424.663C2006.05 428.546 2006.9 431.54 2008.6 433.645C2010.3 435.75 2012.58 436.802 2015.43 436.802ZM2031.95 424.663C2031.95 430.853 2030.21 435.594 2026.73 438.884C2024.13 441.566 2020.36 442.907 2015.43 442.907C2010.51 442.907 2006.74 441.566 2004.14 438.884C2000.64 435.594 1998.9 430.853 1998.9 424.663C1998.9 418.347 2000.64 413.607 2004.14 410.441C2006.74 407.759 2010.51 406.418 2015.43 406.418C2020.36 406.418 2024.13 407.759 2026.73 410.441C2030.21 413.607 2031.95 418.347 2031.95 424.663ZM2043.11 441.948H2035.95V407.471H2043.11V441.948ZM2048.88 407.471H2056.09V435.75H2073.16V441.948H2048.88V407.471Z" fill="black"/>
<path d="M2178.65 518.987H2243.34V535.019H2197.59V556.002H2237.64V571.848H2197.59V610.102H2178.65V518.987ZM2247.28 518.863H2266.65V574.943C2266.65 581.216 2267.39 585.796 2268.88 588.685C2271.19 593.802 2276.23 596.36 2283.98 596.36C2291.7 596.36 2296.71 593.802 2299.02 588.685C2300.51 585.796 2301.25 581.216 2301.25 574.943V518.863H2320.63V574.943C2320.63 584.641 2319.12 592.193 2316.11 597.598C2310.5 607.502 2299.79 612.454 2283.98 612.454C2268.18 612.454 2257.45 607.502 2251.8 597.598C2248.78 592.193 2247.28 584.641 2247.28 574.943V518.863ZM2329.7 518.863H2349.7L2386.03 582.557V518.863H2403.8V610.102H2384.73L2347.47 545.294V610.102H2329.7V518.863ZM2417.02 519.172H2436.4V542.323L2431.38 584.909H2422.16L2417.02 542.323V519.172ZM2417.45 592.213H2435.9V610.102H2417.45V592.213Z" fill="black"/>
<path d="M2408.66 413.863H2436.08V505.102H2418.32V443.389C2418.32 441.614 2418.34 439.138 2418.38 435.961C2418.42 432.742 2418.44 430.266 2418.44 428.533L2401.17 505.102H2382.66L2365.52 428.533C2365.52 430.266 2365.54 432.742 2365.58 435.961C2365.62 439.138 2365.64 441.614 2365.64 443.389V505.102H2347.88V413.863H2375.61L2392.2 485.604L2408.66 413.863ZM2469.86 470.624H2493.01L2481.62 434.723L2469.86 470.624ZM2471.03 413.863H2492.57L2524.89 505.102H2504.21L2498.33 486.347H2464.72L2458.41 505.102H2438.47L2471.03 413.863ZM2527.96 413.863H2546.71V451.436L2581.93 413.863H2606.57L2569.18 451.436L2608.49 505.102H2583.98L2555.81 465.239L2546.71 474.586V505.102H2527.96V413.863ZM2677.86 430.019H2629.57V449.393H2673.89V465.239H2629.57V488.699H2680.08V505.102H2610.94V413.863H2677.86V430.019ZM2729.93 505.102H2710.99V413.863H2729.93V505.102ZM2805.18 413.863V430.019H2777.88V505.102H2758.69V430.019H2731.27V413.863H2805.18Z" fill="black"/>
<path d="M1161.27 435.669L1365.67 435.669L1365.67 505.417L1153.07 594.02L1153.07 609.435L1130.26 609.435L1130.13 609.435L1108.37 609.435L1108.37 594.02L894.717 505.417L894.717 435.669L1099.12 435.669L1130.19 455.953L1161.27 435.669Z" fill="black"/>
<path d="M2670.38 520.265L2599.28 520.265L2599.28 610.253L2670.38 610.253L2699.94 581.883L2803.52 581.883L2803.52 548.634L2699.94 548.634L2670.38 520.265Z" fill="black"/>
<path d="M2536.27 610.253L2519.12 565.642L2536.27 520.265L2456.95 520.265L2456.95 610.253L2536.27 610.253Z" fill="black"/>
<path d="M925.584 576.682L947.973 576.682L947.973 589.814L929.755 606.496L929.755 609.398L922.188 609.398L922.173 609.398L916.139 609.398L916.139 606.496L896.388 589.814L896.388 576.682L918.776 576.682L922.18 580.501L925.584 576.682Z" fill="black"/>
<path d="M310.001 1064.47C594.172 960.07 861.839 843.664 970.083 848.836C1057.05 852.991 1032.11 890.368 996.443 914.233C971.212 931.116 964.353 993.944 1100.86 952.15C1281.89 896.723 1608.68 780.627 1852.93 703.326" stroke="black" stroke-width="29.8056"/>
<path d="M1680.32 818.732L1686.11 893.783L1781.1 886.451L1775.31 811.4L1742.95 782.514L1735.67 688.111L1700.57 690.82L1707.86 785.222L1680.32 818.732Z" fill="black"/>
<path d="M1786.24 952.968L1740.54 974.703L1691.24 960.299L1697.71 1044.03L1792.7 1036.7L1786.24 952.968Z" fill="black"/>
<rect x="894.719" y="712.847" width="21.0057" height="21.0057" fill="black"/>
<rect x="915.724" y="691.842" width="21.0057" height="21.0057" fill="black"/>
<rect x="915.724" y="733.854" width="21.0057" height="21.0057" fill="black"/>
<rect x="936.728" y="712.847" width="21.0057" height="21.0057" fill="black"/>
<rect x="957.731" y="691.842" width="21.0057" height="21.0057" fill="black"/>
<rect x="978.74" y="712.847" width="21.0057" height="21.0057" fill="black"/>
<rect x="957.731" y="733.854" width="21.0057" height="21.0057" fill="black"/>
<rect x="999.744" y="733.854" width="21.0057" height="21.0057" fill="black"/>
<rect x="999.744" y="691.842" width="21.0057" height="21.0057" fill="black"/>
<rect x="1020.75" y="712.847" width="21.0057" height="21.0057" fill="black"/>
<rect x="1041.76" y="691.842" width="21.0057" height="21.0057" fill="black"/>
<rect x="1041.76" y="733.854" width="21.0057" height="21.0057" fill="black"/>
<rect x="1062.76" y="712.847" width="21.0057" height="21.0057" fill="black"/>
<rect x="1401.83" y="691.842" width="21.0057" height="21.0057" fill="black"/>
<rect x="1422.83" y="712.847" width="21.0057" height="21.0057" fill="black"/>
<rect x="1401.83" y="733.854" width="21.0057" height="21.0057" fill="black"/>
<rect x="1443.84" y="733.854" width="21.0057" height="21.0057" fill="black"/>
<rect x="1443.84" y="691.842" width="21.0057" height="21.0057" fill="black"/>
<rect x="2199.58" y="712.847" width="21.0057" height="21.0057" fill="black"/>
<rect x="2220.58" y="691.842" width="21.0057" height="21.0057" fill="black"/>
<rect x="2220.58" y="733.854" width="21.0057" height="21.0057" fill="black"/>
<rect x="2241.59" y="712.847" width="21.0057" height="21.0057" fill="black"/>
<rect x="2262.59" y="691.842" width="21.0057" height="21.0057" fill="black"/>
<rect x="2283.6" y="712.847" width="21.0057" height="21.0057" fill="black"/>
<rect x="2262.59" y="733.854" width="21.0057" height="21.0057" fill="black"/>
<rect x="2304.61" y="733.854" width="21.0057" height="21.0057" fill="black"/>
<rect x="2304.61" y="691.842" width="21.0057" height="21.0057" fill="black"/>
<rect x="2325.61" y="712.847" width="21.0057" height="21.0057" fill="black"/>
<rect x="2346.62" y="691.842" width="21.0057" height="21.0057" fill="black"/>
<rect x="2346.62" y="733.854" width="21.0057" height="21.0057" fill="black"/>
<rect x="2367.62" y="712.847" width="21.0057" height="21.0057" fill="black"/>
<rect x="2388.63" y="691.842" width="21.0057" height="21.0057" fill="black"/>
<rect x="2409.63" y="712.847" width="21.0057" height="21.0057" fill="black"/>
<rect x="2388.63" y="733.854" width="21.0057" height="21.0057" fill="black"/>
<rect x="2430.64" y="733.854" width="21.0057" height="21.0057" fill="black"/>
<rect x="2430.64" y="691.842" width="21.0057" height="21.0057" fill="black"/>
<rect x="2451.64" y="712.847" width="21.0057" height="21.0057" fill="black"/>
<rect x="2472.65" y="691.842" width="21.0057" height="21.0057" fill="black"/>
<rect x="2472.65" y="733.854" width="21.0057" height="21.0057" fill="black"/>
<rect x="2493.66" y="712.847" width="21.0057" height="21.0057" fill="black"/>
<rect x="2514.67" y="691.842" width="21.0057" height="21.0057" fill="black"/>
<rect x="2535.67" y="712.847" width="21.0057" height="21.0057" fill="black"/>
<rect x="2514.67" y="733.854" width="21.0057" height="21.0057" fill="black"/>
<rect x="2556.68" y="733.854" width="21.0057" height="21.0057" fill="black"/>
<rect x="2556.68" y="691.842" width="21.0057" height="21.0057" fill="black"/>
<rect x="2577.68" y="755.061" width="63.2184" height="63.2184" fill="black"/>
<rect x="2640.9" y="691.842" width="63.2184" height="63.2184" fill="black"/>
<rect x="2640.9" y="818.277" width="63.2184" height="63.2184" fill="black"/>
<rect x="2704.12" y="755.061" width="63.2184" height="63.2184" fill="black"/>
<rect x="2767.33" y="691.842" width="63.2184" height="63.2184" fill="black"/>
<rect x="2767.33" y="818.277" width="63.2184" height="63.2184" fill="black"/>
<path d="M1989.54 846.2L1977.09 920.439L2071.06 936.192L2083.5 861.953L2059.05 826.127L2074.71 732.747L2039.99 726.926L2024.34 820.307L1989.54 846.2Z" fill="black"/>
<path d="M2060.03 1001.99L2010.44 1012.08L1966.06 986.235L1952.18 1069.06L2046.14 1084.81L2060.03 1001.99Z" fill="black"/>
<path d="M697.98 1032.72C745.236 1012.97 826.662 948.428 868.166 982.911C890.717 1001.65 845.683 1027.15 887.203 1047.1C919.517 1062.62 1050.37 1061.92 1215.04 1012.36C1357.31 969.549 1736.98 837.487 1911.24 778.835" stroke="black" stroke-width="29.8056"/>
<path d="M1873.55 864.877L1865.55 939.725L1960.29 949.846L1968.28 874.997L1941.74 840.693L1951.8 746.545L1916.8 742.806L1906.74 836.954L1873.55 864.877Z" fill="black"/>
<path d="M1953.2 1016.18L1904.31 1029.22L1858.47 1006.06L1849.55 1089.57L1944.28 1099.69L1953.2 1016.18Z" fill="black"/>
<path d="M1512.26 865.325L1504.7 940.219L1599.49 949.785L1607.05 874.891L1580.31 840.743L1589.81 746.538L1554.79 743.003L1545.28 837.208L1512.26 865.325Z" fill="black"/>
<path d="M1592.79 1016.16L1543.98 1029.48L1498 1006.6L1489.57 1090.15L1584.36 1099.72L1592.79 1016.16Z" fill="black"/>
<path d="M2104.01 878.171L2104.11 953.446L2199.39 953.318L2199.29 878.044L2169.21 846.793L2169.08 752.11L2133.88 752.157L2134.01 846.841L2104.01 878.171Z" fill="black"/>
<path d="M2199.48 1020.03L2152.27 1038.25L2104.2 1020.16L2104.31 1104.14L2199.59 1104.01L2199.48 1020.03Z" fill="black"/>
<path d="M276.261 900.813L205.055 833.016L77.9215 859.236L39.2366 949.625L18.6531 965.904L35.7275 1048.96L318.672 990.703L301.598 907.652L276.261 900.813Z" fill="black" stroke="black" stroke-width="2.58649"/>
<path d="M63.7864 1096.74L49.5957 1042.97L89.9734 1034.67L101.156 1089.06L63.7864 1096.74Z" fill="black"/>
<path d="M307.239 1046.69L299.065 991.679L258.688 999.98L269.87 1054.37L307.239 1046.69Z" fill="black"/>
<path d="M2413.83 910.707L2347.32 945.962L2391.94 1030.14L2458.45 994.886L2472.03 953.693L2555.68 909.349L2539.2 878.246L2455.54 922.591L2413.83 910.707Z" fill="black"/>
<path d="M2332.99 1061.39L2294.83 1028.16L2288.37 977.207L2214.17 1016.54L2258.79 1100.72L2332.99 1061.39Z" fill="black"/>
<rect width="63.2184" height="63.2184" transform="matrix(-1 0 0 1 2767.43 881.45)" fill="black"/>
<rect width="63.2184" height="63.2184" transform="matrix(-1 0 0 1 2704.21 944.669)" fill="black"/>
<rect width="63.2184" height="63.2184" transform="matrix(-1 0 0 1 2767.43 1007.89)" fill="black"/>
<rect width="63.2184" height="63.2184" transform="matrix(-1 0 0 1 2640.99 1007.89)" fill="black"/>
<rect width="63.2184" height="63.2184" transform="matrix(-1 0 0 1 2640.99 881.45)" fill="black"/>
<rect width="63.2184" height="63.2184" transform="matrix(-1 0 0 1 2830.64 944.669)" fill="black"/>
<rect x="2640.9" y="1071.06" width="63.2184" height="63.2184" fill="black"/>
<rect x="2767.33" y="1071.06" width="63.2184" height="63.2184" fill="black"/>
</svg>
