<svg width="551" height="472" viewBox="0 0 551 472" fill="none" xmlns="http://www.w3.org/2000/svg">
<path d="M78.6665 78.6665H472V236L394.12 314.666L314.667 393.333H235.213L157.333 314.666L78.6665 236V78.6665Z" fill="white"/>
<rect y="78.6665" width="78.6667" height="78.6667" fill="black"/>
<rect x="78.6665" width="78.6667" height="78.6667" fill="black"/>
<rect x="157.333" width="78.6667" height="78.6667" fill="black"/>
<rect x="236" y="78.6665" width="78.6667" height="78.6667" fill="black"/>
<rect x="314.667" width="78.6667" height="78.6667" fill="black"/>
<rect x="393.333" width="78.6667" height="78.6667" fill="black"/>
<rect y="157.333" width="78.6667" height="78.6667" fill="black"/>
<rect x="157.333" y="314.667" width="78.6667" height="78.6667" fill="black"/>
<rect x="236" y="393.333" width="78.6667" height="78.6667" fill="black"/>
<rect x="472" y="78.6665" width="78.6667" height="78.6667" fill="black"/>
<rect x="472" y="157.333" width="78.6667" height="78.6667" fill="black"/>
<rect x="78.6665" y="236" width="78.6667" height="78.6667" fill="black"/>
<rect x="393.333" y="236" width="78.6667" height="78.6667" fill="black"/>
<rect x="314.667" y="314.667" width="78.6667" height="78.6667" fill="black"/>
</svg>
