<svg width="1404" height="980" viewBox="0 0 1404 980" fill="none" xmlns="http://www.w3.org/2000/svg">
<path d="M1.6163 966.775V965.159H8.08148V963.543H1.6163V961.927H0L0 957.078H3.23259V961.927H8.08148V957.078H11.3141V965.159H9.69778V966.775H1.6163ZM15.3225 965.159V963.543H13.7062V957.078H16.9388V963.543H21.7877V957.078H25.0203V965.159H15.3225ZM27.4124 965.159V953.845H30.645V960.31H33.8776V958.694H35.4939V957.078H38.7265V958.694H37.1102V960.31H35.4939V961.927H37.1102V963.543H38.7265V965.159H35.4939V963.543H33.8776V961.927H30.645V965.159H27.4124ZM45.9675 955.461V953.845H49.2001V955.461H45.9675ZM42.7349 965.159V963.543H45.9675V958.694H44.3512V957.078H49.2001V963.543H52.4326V965.159H42.7349Z" fill="black"/>
<path d="M1387.99 967.927V965.502H1390.42V963.078H1385.57V960.653H1390.42V958.229H1387.99V955.804H1392.84V958.229H1395.27V955.804H1400.12V958.229H1397.69V960.653H1402.54V963.078H1397.69V965.502H1400.12V967.927H1395.27V965.502H1392.84V967.927H1387.99Z" fill="black"/>
<path d="M644.899 927.509L700.661 318.37V975.957C663.501 977.158 644.899 952.912 644.899 927.509Z" fill="black"/>
<path d="M1023.46 292.913L700.459 326.451L1049.15 326.451C1049.79 304.101 1036.93 292.913 1023.46 292.913Z" fill="black"/>
<path d="M1023.46 363.828L700.459 330.492H1049.15C1049.79 352.707 1036.93 363.828 1023.46 363.828Z" fill="black"/>
<path d="M377.643 292.913L700.459 326.451L351.968 326.451C351.332 304.101 364.181 292.913 377.643 292.913Z" fill="black"/>
<path d="M377.643 363.828L700.459 330.492H351.968C351.332 352.707 364.181 363.828 377.643 363.828Z" fill="black"/>
<path d="M445.892 534.18L697.818 329.442L451.326 575.934C435.153 560.661 436.37 543.702 445.892 534.18Z" fill="black"/>
<path d="M496.03 584.317L700.767 332.391L454.275 578.883C469.548 595.056 486.508 593.839 496.03 584.317Z" fill="black"/>
<path d="M955.046 534.18L703.121 329.442L949.613 575.934C965.786 560.661 964.568 543.702 955.046 534.18Z" fill="black"/>
<path d="M904.909 584.317L700.172 332.391L946.663 578.883C931.39 595.056 914.431 593.839 904.909 584.317Z" fill="black"/>
<path d="M755.817 927.509L700.459 318.37V975.957C737.35 977.158 755.817 952.912 755.817 927.509Z" fill="black"/>
<path d="M663.284 29.3107L700.257 347.261V4.02234C675.618 3.39571 663.284 16.0511 663.284 29.3107Z" fill="black"/>
<path d="M737.028 29.3107L700.257 347.261V4.02234C724.761 3.39571 737.028 16.0511 737.028 29.3107Z" fill="black"/>
<path d="M644.899 927.509L700.661 318.37V975.957C663.501 977.158 644.899 952.912 644.899 927.509Z" fill="black"/>
<path d="M1023.46 292.913L700.459 326.451L1049.15 326.451C1049.79 304.101 1036.93 292.913 1023.46 292.913Z" fill="black"/>
<path d="M1023.46 363.828L700.459 330.492H1049.15C1049.79 352.707 1036.93 363.828 1023.46 363.828Z" fill="black"/>
<path d="M377.643 292.913L700.459 326.451L351.968 326.451C351.332 304.101 364.181 292.913 377.643 292.913Z" fill="black"/>
<path d="M377.643 363.828L700.459 330.492H351.968C351.332 352.707 364.181 363.828 377.643 363.828Z" fill="black"/>
<path d="M445.892 534.18L697.818 329.442L451.326 575.934C435.153 560.661 436.37 543.702 445.892 534.18Z" fill="black"/>
<path d="M496.03 584.317L700.767 332.391L454.275 578.883C469.548 595.056 486.508 593.839 496.03 584.317Z" fill="black"/>
<path d="M955.046 534.18L703.121 329.442L949.613 575.934C965.786 560.661 964.568 543.702 955.046 534.18Z" fill="black"/>
<path d="M904.909 584.317L700.172 332.391L946.663 578.883C931.39 595.056 914.431 593.839 904.909 584.317Z" fill="black"/>
<path d="M755.817 927.509L700.459 318.37V975.957C737.35 977.158 755.817 952.912 755.817 927.509Z" fill="black"/>
<path d="M663.284 29.3107L700.257 347.261V4.02234C675.618 3.39571 663.284 16.0511 663.284 29.3107Z" fill="black"/>
<path d="M737.028 29.3107L700.257 347.261V4.02234C724.761 3.39571 737.028 16.0511 737.028 29.3107Z" fill="black"/>
<path d="M700.459 326.451L1023.46 292.913C1036.93 292.913 1049.79 304.101 1049.15 326.451L700.459 326.451ZM700.459 326.451L377.643 292.913C364.181 292.913 351.332 304.101 351.968 326.451L700.459 326.451ZM700.459 330.492L1023.46 363.828C1036.93 363.828 1049.79 352.707 1049.15 330.492H700.459ZM700.459 330.492L377.643 363.828C364.181 363.828 351.332 352.707 351.968 330.492H700.459ZM700.257 347.261L663.284 29.3107C663.284 16.0511 675.618 3.39571 700.257 4.02234M700.257 347.261V4.02234M700.257 347.261L737.028 29.3107C737.028 16.0511 724.761 3.39571 700.257 4.02234M700.661 318.37L644.899 927.509C644.899 952.912 663.501 977.158 700.661 975.957V318.37ZM697.818 329.442L445.892 534.18C436.37 543.702 435.153 560.661 451.326 575.934L697.818 329.442ZM700.767 332.391L496.03 584.317C486.508 593.839 469.548 595.056 454.275 578.883L700.767 332.391ZM703.121 329.442L955.046 534.18C964.568 543.702 965.786 560.661 949.613 575.934L703.121 329.442ZM700.172 332.391L904.909 584.317C914.431 593.839 931.39 595.056 946.663 578.883L700.172 332.391ZM700.459 318.37L755.817 927.509C755.817 952.912 737.35 977.158 700.459 975.957V318.37Z" stroke="black" stroke-width="7.27333"/>
</svg>
