<svg width="300" height="688" viewBox="0 0 300 688" fill="none" xmlns="http://www.w3.org/2000/svg">
<path d="M87.252 546.125L116.501 568.142L113.437 575.983" stroke="black" stroke-width="18.3897"/>
<path d="M123.151 542.068L156.312 583.255" stroke="black" stroke-width="18.3897"/>
<path d="M109.647 630.053C112.108 682.541 167.099 681.7 212.526 673.526" stroke="black" stroke-width="18.3897"/>
<path d="M102.439 616.085L192.639 622.902L197.65 609.42" stroke="black" stroke-width="18.3897"/>
<path d="M98.6014 678.762C143.594 658.124 154.19 644.117 171.891 599.127" stroke="black" stroke-width="18.3897"/>
<path d="M60.911 97.7503V82.0022H65.4104V91.0011H67.6602V88.7514H69.9099V86.5017H72.1596V82.0022H76.659V97.7503H72.1596V91.0011H69.9099V93.2508H67.6602V95.5006H65.4104V97.7503H60.911ZM80.9785 97.7503V95.5006H78.7288V93.2508H83.2282V95.5006H89.9774V93.2508H85.478V91.0011H89.9774V88.7514H83.2282V91.0011H78.7288V88.7514H80.9785V86.5017H92.2271V88.7514H94.4768V91.0011H92.2271V93.2508H94.4768V95.5006H92.2271V97.7503H80.9785ZM96.5466 97.7503V86.5017H101.046V91.0011H107.795V86.5017H112.295V97.7503H107.795V93.2508H101.046V97.7503H96.5466ZM116.614 97.7503V95.5006H114.364V93.2508H116.614V91.0011H125.613V88.7514H116.614V86.5017H127.863V88.7514H130.112V97.7503H116.614ZM118.864 95.5006H125.613V93.2508H118.864V95.5006ZM143.431 97.7503V93.2508H134.432V91.0011H132.182V86.5017H136.682V91.0011H143.431V86.5017H147.93V97.7503H143.431ZM152.25 97.7503V95.5006H150V93.2508H152.25V91.0011H161.249V88.7514H152.25V86.5017H163.498V88.7514H165.748V97.7503H152.25ZM154.499 95.5006H161.249V93.2508H154.499V95.5006ZM183.566 86.5017V97.7503H179.066V88.7514H174.567V95.5006H172.317V97.7503H167.818V93.2508H170.068V91.0011H172.317V86.5017H183.566ZM185.636 97.7503V86.5017H190.135V91.0011H199.134V93.2508H201.384V95.5006H199.134V97.7503H185.636ZM190.135 95.5006H196.884V93.2508H190.135V95.5006ZM203.453 97.7503V86.5017H207.953V91.0011H214.702V86.5017H219.201V97.7503H214.702V93.2508H207.953V97.7503H203.453ZM223.521 97.7503V95.5006H221.271V88.7514H223.521V86.5017H234.77V88.7514H237.019V95.5006H234.77V97.7503H223.521ZM225.771 95.5006H232.52V88.7514H225.771V95.5006ZM72.0696 115.75V113.501H69.8199V106.751H72.0696V104.502H83.3182V106.751H85.568V113.501H83.3182V115.75H72.0696ZM74.3193 113.501H81.0685V106.751H74.3193V113.501ZM89.8874 115.75V113.501H87.6377V106.751H89.8874V104.502H101.136V106.751H103.386V109.001H98.8863V106.751H92.1371V113.501H98.8863V111.251H103.386V113.501H101.136V115.75H89.8874ZM105.455 115.75V104.502H109.955V109.001H116.704V104.502H121.204V115.75H116.704V111.251H109.955V115.75H105.455ZM125.523 115.75V113.501H123.273V106.751H125.523V104.502H136.772V106.751H139.021V113.501H136.772V115.75H125.523ZM127.773 113.501H134.522V106.751H127.773V113.501ZM141.091 115.75V104.502H154.589V106.751H156.839V109.001H154.589V111.251H156.839V113.501H154.589V115.75H141.091ZM145.591 109.001H152.34V106.751H145.591V109.001ZM145.591 113.501H152.34V111.251H145.591V113.501ZM158.909 115.75V104.502H163.408V109.001H170.158V104.502H174.657V115.75H170.158V111.251H163.408V115.75H158.909ZM176.727 115.75V104.502H181.226V109.001H185.726V115.75H176.727ZM187.975 115.75V104.502H192.475V115.75H187.975ZM181.226 113.501H183.476V111.251H181.226V113.501ZM201.294 106.751V109.001H199.044V115.75H194.545V104.502H199.044V106.751H201.294ZM210.293 104.502V115.75H205.793V109.001H203.543V106.751H205.793V104.502H210.293ZM201.294 109.001H203.543V113.501H201.294V109.001ZM216.862 111.251H219.111V113.501H216.862V115.75H212.362V104.502H216.862V111.251ZM228.11 104.502V115.75H223.611V109.001H221.361V106.751H223.611V104.502H228.11ZM219.111 109.001H221.361V111.251H219.111V109.001ZM98.8863 136V133.75H87.6377V122.502H92.1371V131.501H96.6366V122.502H101.136V131.501H103.386V136H98.8863ZM105.455 133.75V122.502H118.954V124.751H121.204V127.001H118.954V129.251H121.204V131.501H118.954V133.75H105.455ZM109.955 127.001H116.704V124.751H109.955V127.001ZM109.955 131.501H116.704V129.251H109.955V131.501ZM125.523 133.75V131.501H123.273V124.751H125.523V122.502H136.772V124.751H139.021V129.251H127.773V131.501H136.772V133.75H125.523ZM127.773 127.001H134.522V124.751H127.773V127.001ZM147.84 133.75V124.751H143.341V122.502H156.839V124.751H152.34V133.75H147.84ZM161.159 133.75V131.501H158.909V129.251H161.159V127.001H170.158V124.751H161.159V122.502H172.407V124.751H174.657V133.75H161.159ZM163.408 131.501H170.158V129.251H163.408V131.501ZM183.476 124.751V127.001H181.226V133.75H176.727V122.502H181.226V124.751H183.476ZM192.475 122.502V133.75H187.975V127.001H185.726V124.751H187.975V122.502H192.475ZM183.476 127.001H185.726V131.501H183.476V127.001ZM199.044 129.251H201.294V131.501H199.044V133.75H194.545V122.502H199.044V129.251ZM210.293 122.502V133.75H205.793V127.001H203.543V124.751H205.793V122.502H210.293ZM201.294 127.001H203.543V129.251H201.294V127.001ZM9.7073 151.75V149.501H7.45758V147.251H9.7073V145.001H18.7062V142.751H9.7073V140.502H20.9559V142.751H23.2056V151.75H9.7073ZM11.957 149.501H18.7062V147.251H11.957V149.501ZM38.7737 136.002V138.252H27.5251V136.002H38.7737ZM29.7748 147.251H32.0246V149.501H29.7748V151.75H25.2754V140.502H29.7748V147.251ZM41.0234 140.502V151.75H36.524V145.001H34.2743V142.751H36.524V140.502H41.0234ZM32.0246 145.001H34.2743V147.251H32.0246V145.001ZM58.8412 149.501H61.091V154H56.5915V151.75H47.5926V154H43.0932V149.501H45.3429V147.251H47.5926V140.502H58.8412V149.501ZM49.8424 149.501H54.3418V142.751H49.8424V149.501ZM63.1607 151.75V149.501H60.911V142.751H63.1607V140.502H74.4093V142.751H76.659V147.251H65.4104V149.501H74.4093V151.75H63.1607ZM65.4104 145.001H72.1596V142.751H65.4104V145.001ZM78.7288 151.75V140.502H83.2282V145.001H89.9774V140.502H94.4768V151.75H89.9774V147.251H83.2282V151.75H78.7288ZM103.296 151.75V142.751H98.7963V140.502H112.295V142.751H107.795V151.75H103.296ZM118.864 147.251H121.114V149.501H118.864V151.75H114.364V140.502H118.864V147.251ZM130.112 140.502V151.75H125.613V145.001H123.363V142.751H125.613V140.502H130.112ZM121.114 145.001H123.363V147.251H121.114V145.001ZM141.181 142.751H143.431V145.001H145.681V147.251H147.93V151.75H143.431V147.251H136.682V151.75H132.182V140.502H136.682V145.001H141.181V142.751ZM147.93 140.502V142.751H143.431V140.502H147.93ZM154.499 147.251H156.749V149.501H154.499V151.75H150V140.502H154.499V147.251ZM165.748 140.502V151.75H161.249V145.001H158.999V142.751H161.249V140.502H165.748ZM156.749 145.001H158.999V147.251H156.749V145.001ZM201.384 149.501H203.633V154H199.134V151.75H190.135V154H185.636V149.501H187.885V147.251H190.135V140.502H201.384V149.501ZM192.385 149.501H196.884V142.751H192.385V149.501ZM205.703 151.75V149.501H203.453V142.751H205.703V140.502H216.952V142.751H219.201V149.501H216.952V151.75H205.703ZM207.953 149.501H214.702V142.751H207.953V149.501ZM237.019 140.502V151.75H232.52V142.751H228.02V149.501H225.771V151.75H221.271V147.251H223.521V145.001H225.771V140.502H237.019ZM239.089 151.75V147.251H241.339V145.001H239.089V140.502H243.588V145.001H245.838V140.502H248.088V145.001H250.338V140.502H254.837V145.001H252.587V147.251H254.837V151.75H250.338V147.251H248.088V151.75H245.838V147.251H243.588V151.75H239.089ZM256.907 151.75V140.502H261.406V145.001H268.155V140.502H272.655V151.75H268.155V147.251H261.406V151.75H256.907ZM274.725 151.75V140.502H279.224V145.001H283.723V151.75H274.725ZM285.973 151.75V140.502H290.473V151.75H285.973ZM279.224 149.501H281.474V147.251H279.224V149.501ZM76.659 154.002V156.252H65.4104V160.751H67.6602V163.001H65.4104V167.501H72.1596V160.751H67.6602V158.502H74.4093V160.751H76.659V167.501H74.4093V169.75H63.1607V167.501H60.911V156.252H63.1607V154.002H76.659ZM78.7288 169.75V158.502H83.2282V163.001H87.7277V169.75H78.7288ZM89.9774 169.75V158.502H94.4768V169.75H89.9774ZM83.2282 167.501H85.478V165.251H83.2282V167.501ZM112.295 158.502V169.75H107.795V160.751H103.296V167.501H101.046V169.75H96.5466V165.251H98.7963V163.001H101.046V158.502H112.295ZM118.864 165.251H121.114V167.501H118.864V169.75H114.364V158.502H118.864V165.251ZM130.112 158.502V169.75H125.613V163.001H123.363V160.751H125.613V158.502H130.112ZM121.114 163.001H123.363V165.251H121.114V163.001ZM165.748 154.002V156.252H154.499V160.751H156.749V163.001H154.499V167.501H161.249V160.751H156.749V158.502H163.498V160.751H165.748V167.501H163.498V169.75H152.25V167.501H150V156.252H152.25V154.002H165.748ZM167.818 169.75V158.502H172.317V163.001H176.817V169.75H167.818ZM179.066 169.75V158.502H183.566V169.75H179.066ZM172.317 167.501H174.567V165.251H172.317V167.501ZM192.385 169.75V160.751H187.885V158.502H201.384V160.751H196.884V169.75H192.385ZM203.453 169.75V158.502H207.953V163.001H216.952V165.251H219.201V167.501H216.952V169.75H203.453ZM207.953 167.501H214.702V165.251H207.953V167.501ZM225.771 160.751V156.252H230.27V160.751H225.771ZM225.771 167.501V163.001H230.27V167.501H225.771ZM7.3676 187.75V183.251H9.61732V181.001H7.3676V176.502H11.867V181.001H14.1168V176.502H16.3665V181.001H18.6162V176.502H23.1157V181.001H20.8659V183.251H23.1157V187.75H18.6162V183.251H16.3665V187.75H14.1168V183.251H11.867V187.75H7.3676ZM27.4351 187.75V185.501H25.1854V178.751H27.4351V176.502H38.6837V178.751H40.9335V183.251H29.6848V185.501H38.6837V187.75H27.4351ZM29.6848 181.001H36.434V178.751H29.6848V181.001ZM58.7513 176.502V187.75H54.2518V178.751H49.7524V185.501H47.5026V187.75H43.0032V183.251H45.2529V181.001H47.5026V176.502H58.7513ZM67.5702 187.75V178.751H63.0707V176.502H76.5691V178.751H72.0696V187.75H67.5702ZM78.6388 187.75V176.502H83.1383V181.001H87.6377V187.75H78.6388ZM89.8874 187.75V176.502H94.3869V187.75H89.8874ZM83.1383 185.501H85.388V183.251H83.1383V185.501ZM109.955 172.002V174.252H98.7063V172.002H109.955ZM100.956 183.251H103.206V185.501H100.956V187.75H96.4566V176.502H100.956V183.251ZM112.205 176.502V187.75H107.705V181.001H105.456V178.751H107.705V176.502H112.205ZM103.206 181.001H105.456V183.251H103.206V181.001ZM121.024 185.501V181.001H116.524V178.751H121.024V174.252H125.523V178.751H130.022V181.001H125.523V185.501H121.024ZM143.341 187.75V183.251H134.342V181.001H132.092V176.502H136.592V181.001H143.341V176.502H147.84V187.75H143.341ZM152.16 187.75V185.501H149.91V178.751H152.16V176.502H163.408V178.751H165.658V183.251H154.409V185.501H163.408V187.75H152.16ZM154.409 181.001H161.159V178.751H154.409V181.001ZM183.476 178.751V185.501H181.226V187.75H172.227V190H167.728V176.502H172.227V178.751H174.477V181.001H172.227V185.501H178.976V178.751H174.477V176.502H181.226V178.751H183.476ZM185.546 187.75V176.502H190.045V181.001H196.794V176.502H201.294V187.75H196.794V183.251H190.045V187.75H185.546ZM203.363 187.75V176.502H207.863V181.001H212.362V187.75H203.363ZM214.612 187.75V176.502H219.111V187.75H214.612ZM207.863 185.501H210.113V183.251H207.863V185.501ZM234.68 172.002V174.252H223.431V172.002H234.68ZM225.681 183.251H227.93V185.501H225.681V187.75H221.181V176.502H225.681V183.251ZM236.929 176.502V187.75H232.43V181.001H230.18V178.751H232.43V176.502H236.929ZM227.93 181.001H230.18V183.251H227.93V181.001ZM245.748 185.501V181.001H241.249V178.751H245.748V174.252H250.248V178.751H254.747V181.001H250.248V185.501H245.748ZM259.067 187.75V176.502H272.565V181.001H270.315V178.751H263.566V187.75H259.067ZM276.884 187.75V185.501H274.635V178.751H276.884V176.502H288.133V178.751H290.383V185.501H288.133V187.75H276.884ZM279.134 185.501H285.883V178.751H279.134V185.501ZM23.2056 194.502V205.75H18.7062V196.751H14.2067V203.501H11.957V205.75H7.45758V201.251H9.7073V199.001H11.957V194.502H23.2056ZM27.5251 208V205.75H36.524V203.501H27.5251V201.251H25.2754V194.502H29.7748V201.251H36.524V194.502H41.0234V205.75H38.7737V208H27.5251ZM58.8412 190.002V192.252H47.5926V196.751H49.8424V199.001H47.5926V203.501H54.3418V196.751H49.8424V194.502H56.5915V196.751H58.8412V203.501H56.5915V205.75H45.3429V203.501H43.0932V192.252H45.3429V190.002H58.8412ZM63.1607 205.75V203.501H60.911V196.751H63.1607V194.502H74.4093V196.751H76.659V203.501H74.4093V205.75H63.1607ZM65.4104 203.501H72.1596V196.751H65.4104V203.501ZM92.2271 190.002V192.252H80.9785V190.002H92.2271ZM83.2282 201.251H85.478V203.501H83.2282V205.75H78.7288V194.502H83.2282V201.251ZM94.4768 194.502V205.75H89.9774V199.001H87.7277V196.751H89.9774V194.502H94.4768ZM85.478 199.001H87.7277V201.251H85.478V199.001ZM101.046 205.75V201.251H105.545V205.75H101.046ZM132.182 205.75V190.002H147.93V205.75H143.431V192.252H136.682V205.75H132.182ZM152.25 205.75V203.501H150V196.751H152.25V194.502H163.498V196.751H165.748V203.501H163.498V205.75H152.25ZM154.499 203.501H161.249V196.751H154.499V203.501ZM170.068 205.75V203.501H167.818V196.751H170.068V194.502H181.316V196.751H183.566V199.001H179.066V196.751H172.317V203.501H179.066V201.251H183.566V203.501H181.316V205.75H170.068ZM201.384 194.502V205.75H196.884V196.751H192.385V203.501H190.135V205.75H185.636V201.251H187.885V199.001H190.135V194.502H201.384ZM205.703 205.75V203.501H203.453V196.751H205.703V194.502H216.952V196.751H219.201V201.251H207.953V203.501H216.952V205.75H205.703ZM207.953 199.001H214.702V196.751H207.953V199.001ZM237.019 203.501H239.269V208H234.77V205.75H225.771V208H221.271V203.501H223.521V201.251H225.771V194.502H237.019V203.501ZM228.02 203.501H232.52V196.751H228.02V203.501ZM239.089 205.75V194.502H243.588V199.001H250.338V194.502H254.837V205.75H250.338V201.251H243.588V205.75H239.089ZM261.406 201.251H263.656V203.501H261.406V205.75H256.907V194.502H261.406V201.251ZM272.655 194.502V205.75H268.155V199.001H265.906V196.751H268.155V194.502H272.655ZM263.656 199.001H265.906V201.251H263.656V199.001ZM288.223 190.002V192.252H276.974V190.002H288.223ZM279.224 201.251H281.474V203.501H279.224V205.75H274.725V194.502H279.224V201.251ZM290.473 194.502V205.75H285.973V199.001H283.723V196.751H285.973V194.502H290.473ZM281.474 199.001H283.723V201.251H281.474V199.001ZM49.9323 208.002V210.252H38.6837V214.751H40.9335V217.001H38.6837V221.501H45.4329V214.751H40.9335V212.502H47.6826V214.751H49.9323V221.501H47.6826V223.75H36.434V221.501H34.1843V210.252H36.434V208.002H49.9323ZM52.0021 223.75V212.502H56.5015V217.001H61.001V223.75H52.0021ZM63.2507 223.75V212.502H67.7501V223.75H63.2507ZM56.5015 221.501H58.7513V219.251H56.5015V221.501ZM85.568 212.502V223.75H81.0685V214.751H76.5691V221.501H74.3193V223.75H69.8199V219.251H72.0696V217.001H74.3193V212.502H85.568ZM107.705 223.75V221.501H105.455V214.751H107.705V212.502H118.954V214.751H121.204V221.501H118.954V223.75H107.705ZM109.955 221.501H116.704V214.751H109.955V221.501ZM130.022 223.75V214.751H125.523V212.502H139.021V214.751H134.522V223.75H130.022ZM150.09 214.751H152.34V217.001H154.589V219.251H156.839V223.75H152.34V219.251H145.591V223.75H141.091V212.502H145.591V217.001H150.09V214.751ZM156.839 212.502V214.751H152.34V212.502H156.839ZM163.408 219.251H165.658V221.501H163.408V223.75H158.909V212.502H163.408V219.251ZM174.657 212.502V223.75H170.158V217.001H167.908V214.751H170.158V212.502H174.657ZM165.658 217.001H167.908V219.251H165.658V217.001ZM176.727 223.75V212.502H181.226V217.001H187.975V212.502H192.475V223.75H187.975V219.251H181.226V223.75H176.727ZM196.794 226V223.75H205.793V221.501H196.794V219.251H194.544V212.502H199.044V219.251H205.793V212.502H210.293V223.75H208.043V226H196.794ZM219.111 223.75V214.751H214.612V212.502H228.11V214.751H223.611V223.75H219.111ZM247.998 223.75V212.502H261.496V214.751H263.746V217.001H261.496V219.251H263.746V221.501H261.496V223.75H247.998ZM252.497 217.001H259.247V214.751H252.497V217.001ZM252.497 221.501H259.247V219.251H252.497V221.501ZM16.3665 241.75V230.502H32.1145V241.75H27.6151V232.751H20.8659V241.75H16.3665ZM49.9323 232.751V239.501H47.6826V241.75H38.6837V244H34.1843V230.502H38.6837V232.751H40.9335V235.001H38.6837V239.501H45.4329V232.751H40.9335V230.502H47.6826V232.751H49.9323ZM54.2518 241.75V239.501H52.0021V232.751H54.2518V230.502H65.5004V232.751H67.7501V239.501H65.5004V241.75H54.2518ZM56.5015 239.501H63.2507V232.751H56.5015V239.501ZM81.0685 244V241.75H69.8199V230.502H74.3193V239.501H78.8188V230.502H83.3182V239.501H85.568V244H81.0685ZM89.8874 241.75V239.501H87.6377V232.751H89.8874V230.502H101.136V232.751H103.386V237.251H92.1371V239.501H101.136V241.75H89.8874ZM92.1371 235.001H98.8863V232.751H92.1371V235.001ZM107.705 241.75V239.501H105.455V232.751H107.705V230.502H118.954V232.751H121.204V235.001H116.704V232.751H109.955V239.501H116.704V237.251H121.204V239.501H118.954V241.75H107.705ZM125.523 241.75V239.501H123.273V232.751H125.523V230.502H136.772V232.751H139.021V235.001H134.522V232.751H127.773V239.501H134.522V237.251H139.021V239.501H136.772V241.75H125.523ZM143.341 241.75V239.501H141.091V232.751H143.341V230.502H154.589V232.751H156.839V237.251H145.591V239.501H154.589V241.75H143.341ZM145.591 235.001H152.34V232.751H145.591V235.001ZM192.475 232.751V239.501H190.225V241.75H181.226V244H176.727V230.502H181.226V232.751H183.476V235.001H181.226V239.501H187.975V232.751H183.476V230.502H190.225V232.751H192.475ZM196.794 241.75V239.501H194.545V237.251H196.794V235.001H205.793V232.751H196.794V230.502H208.043V232.751H210.293V241.75H196.794ZM199.044 239.501H205.793V237.251H199.044V239.501ZM228.11 226.002V228.252H216.862V232.751H219.111V235.001H216.862V239.501H223.611V232.751H219.111V230.502H225.861V232.751H228.11V239.501H225.861V241.75H214.612V239.501H212.362V228.252H214.612V226.002H228.11ZM232.43 241.75V239.501H230.18V232.751H232.43V230.502H243.678V232.751H245.928V239.501H243.678V241.75H232.43ZM234.68 239.501H241.429V232.751H234.68V239.501ZM254.747 241.75V232.751H250.248V230.502H263.746V232.751H259.247V241.75H254.747ZM265.816 241.75V230.502H270.315V235.001H274.815V241.75H265.816ZM277.064 241.75V230.502H281.564V241.75H277.064ZM270.315 239.501H272.565V237.251H270.315V239.501ZM78.7288 259.75V248.502H92.2271V250.751H94.4768V253.001H92.2271V255.251H94.4768V257.501H92.2271V259.75H78.7288ZM83.2282 253.001H89.9774V250.751H83.2282V253.001ZM83.2282 257.501H89.9774V255.251H83.2282V257.501ZM114.364 259.75V248.502H130.112V259.75H125.613V250.751H118.864V259.75H114.364ZM134.432 259.75V257.501H132.182V250.751H134.432V248.502H145.681V250.751H147.93V257.501H145.681V259.75H134.432ZM136.682 257.501H143.431V250.751H136.682V257.501ZM165.748 248.502V259.75H161.249V250.751H156.749V257.501H154.499V259.75H150V255.251H152.25V253.001H154.499V248.502H165.748ZM167.818 259.75V248.502H172.317V253.001H181.316V255.251H183.566V257.501H181.316V259.75H167.818ZM172.317 257.501H179.066V255.251H172.317V257.501ZM187.885 259.75V257.501H185.636V255.251H190.135V257.501H196.884V255.251H192.385V253.001H196.884V250.751H190.135V253.001H185.636V250.751H187.885V248.502H199.134V250.751H201.384V253.001H199.134V255.251H201.384V257.501H199.134V259.75H187.885ZM205.703 262V259.75H214.702V257.501H205.703V255.251H203.453V248.502H207.953V255.251H214.702V248.502H219.201V259.75H216.952V262H205.703ZM18.6162 277.75V275.501H16.3665V273.251H20.8659V275.501H27.6151V273.251H23.1157V271.001H27.6151V268.751H20.8659V271.001H16.3665V268.751H18.6162V266.502H29.8648V268.751H32.1145V271.001H29.8648V273.251H32.1145V275.501H29.8648V277.75H18.6162ZM36.434 277.75V275.501H34.1843V273.251H36.434V271.001H45.4329V268.751H36.434V266.502H47.6826V268.751H49.9323V277.75H36.434ZM38.6837 275.501H45.4329V273.251H38.6837V275.501ZM52.0021 277.75V266.502H67.7501V277.75H63.2507V268.751H56.5015V277.75H52.0021ZM72.0696 277.75V275.501H69.8199V268.751H72.0696V266.502H83.3182V268.751H85.568V275.501H83.3182V277.75H72.0696ZM74.3193 275.501H81.0685V268.751H74.3193V275.501ZM94.3869 268.751V271.001H92.1371V277.75H87.6377V266.502H92.1371V268.751H94.3869ZM103.386 266.502V277.75H98.8863V271.001H96.6366V268.751H98.8863V266.502H103.386ZM94.3869 271.001H96.6366V275.501H94.3869V271.001ZM109.955 273.251H112.205V275.501H109.955V277.75H105.455V266.502H109.955V273.251ZM121.204 266.502V277.75H116.704V271.001H114.454V268.751H116.704V266.502H121.204ZM112.205 271.001H114.454V273.251H112.205V271.001ZM123.273 277.75V266.502H127.773V271.001H134.522V266.502H139.021V277.75H134.522V273.251H127.773V277.75H123.273ZM143.341 277.75V275.501H141.091V273.251H143.341V271.001H152.34V268.751H143.341V266.502H154.589V268.751H156.839V277.75H143.341ZM145.591 275.501H152.34V273.251H145.591V275.501ZM158.909 277.75V266.502H161.159V271.001H163.408V268.751H165.658V266.502H172.407V268.751H174.657V275.501H172.407V277.75H165.658V275.501H163.408V273.251H161.159V277.75H158.909ZM167.908 275.501H170.158V268.751H167.908V275.501ZM190.225 280V277.75H176.727V266.502H181.226V275.501H183.476V266.502H185.726V275.501H187.975V266.502H192.475V275.501H194.724V280H190.225ZM196.794 277.75V275.501H194.545V268.751H196.794V266.502H208.043V268.751H210.293V273.251H199.044V275.501H208.043V277.75H196.794ZM199.044 271.001H205.793V268.751H199.044V271.001ZM214.612 277.75V266.502H228.11V271.001H225.861V268.751H219.111V277.75H214.612ZM232.43 277.75V275.501H230.18V268.751H232.43V266.502H243.678V268.751H245.928V275.501H243.678V277.75H232.43ZM234.68 275.501H241.429V268.751H234.68V275.501ZM250.248 277.75V275.501H247.998V268.751H250.248V266.502H261.496V268.751H263.746V271.001H259.247V268.751H252.497V275.501H259.247V273.251H263.746V275.501H261.496V277.75H250.248ZM265.816 277.75V273.251H268.065V271.001H265.816V268.751H268.065V266.502H281.564V277.75H277.064V273.251H270.315V277.75H265.816ZM270.315 271.001H277.064V268.751H270.315V271.001ZM36.434 295.75V293.501H34.1843V286.751H36.434V284.502H47.6826V286.751H49.9323V289.001H45.4329V286.751H38.6837V293.501H45.4329V291.251H49.9323V293.501H47.6826V295.75H36.434ZM58.7513 295.75V286.751H54.2518V284.502H67.7501V286.751H63.2507V295.75H58.7513ZM74.3193 291.251H76.5691V293.501H74.3193V295.75H69.8199V284.502H74.3193V291.251ZM85.568 284.502V295.75H81.0685V289.001H78.8188V286.751H81.0685V284.502H85.568ZM76.5691 289.001H78.8188V291.251H76.5691V289.001ZM103.386 284.502V295.75H98.8863V286.751H94.3869V293.501H92.1371V295.75H87.6377V291.251H89.8874V289.001H92.1371V284.502H103.386ZM105.455 295.75V291.251H107.705V289.001H105.455V286.751H107.705V284.502H121.204V295.75H116.704V291.251H109.955V295.75H105.455ZM109.955 289.001H116.704V286.751H109.955V289.001ZM125.523 298V295.75H127.773V291.251H132.272V295.75H130.022V298H125.523ZM161.159 295.75V293.501H158.909V286.751H161.159V284.502H172.407V286.751H174.657V293.501H172.407V295.75H161.159ZM163.408 293.501H170.158V286.751H163.408V293.501ZM192.475 293.501H194.724V298H190.225V295.75H181.226V298H176.727V293.501H178.976V291.251H181.226V284.502H192.475V293.501ZM183.476 293.501H187.975V286.751H183.476V293.501ZM194.544 295.75V284.502H199.044V289.001H205.793V284.502H210.293V295.75H205.793V291.251H199.044V295.75H194.544ZM214.612 295.75V293.501H212.362V291.251H214.612V289.001H223.611V286.751H214.612V284.502H225.861V286.751H228.11V295.75H214.612ZM216.862 293.501H223.611V291.251H216.862V293.501ZM239.179 286.751H241.429V289.001H243.678V291.251H245.928V295.75H241.429V291.251H234.68V295.75H230.18V284.502H234.68V289.001H239.179V286.751ZM245.928 284.502V286.751H241.429V284.502H245.928ZM250.248 295.75V293.501H247.998V286.751H250.248V284.502H261.496V286.751H263.746V293.501H261.496V295.75H250.248ZM252.497 293.501H259.247V286.751H252.497V293.501ZM7.45758 313.75V302.502H11.957V307.001H18.7062V302.502H23.2056V313.75H18.7062V309.251H11.957V313.75H7.45758ZM27.5251 313.75V311.501H25.2754V304.751H27.5251V302.502H38.7737V304.751H41.0234V309.251H29.7748V311.501H38.7737V313.75H27.5251ZM29.7748 307.001H36.524V304.751H29.7748V307.001ZM52.0921 304.751H54.3418V307.001H56.5915V309.251H58.8412V313.75H54.3418V309.251H47.5926V313.75H43.0932V302.502H47.5926V307.001H52.0921V304.751ZM58.8412 302.502V304.751H54.3418V302.502H58.8412ZM63.1607 313.75V311.501H60.911V304.751H63.1607V302.502H74.4093V304.751H76.659V311.501H74.4093V313.75H63.1607ZM65.4104 311.501H72.1596V304.751H65.4104V311.501ZM85.478 313.75V304.751H80.9785V302.502H94.4768V304.751H89.9774V313.75H85.478ZM98.7963 313.75V311.501H96.5466V304.751H98.7963V302.502H110.045V304.751H112.295V311.501H110.045V313.75H98.7963ZM101.046 311.501H107.795V304.751H101.046V311.501ZM130.112 304.751V311.501H127.863V313.75H118.864V316H114.364V302.502H118.864V304.751H121.114V307.001H118.864V311.501H125.613V304.751H121.114V302.502H127.863V304.751H130.112ZM132.182 313.75V302.502H136.682V307.001H141.181V313.75H132.182ZM143.431 313.75V302.502H147.93V313.75H143.431ZM136.682 311.501H138.931V309.251H136.682V311.501ZM152.25 313.75V311.501H150V304.751H152.25V302.502H163.498V304.751H165.748V309.251H154.499V311.501H163.498V313.75H152.25ZM154.499 307.001H161.249V304.751H154.499V307.001ZM187.885 313.75V311.501H185.636V304.751H187.885V302.502H199.134V304.751H201.384V311.501H199.134V313.75H187.885ZM190.135 311.501H196.884V304.751H190.135V311.501ZM219.201 298.002V300.252H207.953V304.751H210.203V307.001H207.953V311.501H214.702V304.751H210.203V302.502H216.952V304.751H219.201V311.501H216.952V313.75H205.703V311.501H203.453V300.252H205.703V298.002H219.201ZM237.019 304.751V311.501H234.77V313.75H225.771V316H221.271V302.502H225.771V304.751H228.02V307.001H225.771V311.501H232.52V304.751H228.02V302.502H234.77V304.751H237.019ZM241.339 313.75V311.501H239.089V309.251H241.339V307.001H250.338V304.751H241.339V302.502H252.587V304.751H254.837V313.75H241.339ZM243.588 311.501H250.338V309.251H243.588V311.501ZM259.157 313.75V311.501H256.907V309.251H261.406V311.501H268.155V309.251H263.656V307.001H268.155V304.751H261.406V307.001H256.907V304.751H259.157V302.502H270.405V304.751H272.655V307.001H270.405V309.251H272.655V311.501H270.405V313.75H259.157ZM274.725 313.75V302.502H279.224V307.001H283.723V313.75H274.725ZM285.973 313.75V302.502H290.473V313.75H285.973ZM279.224 311.501H281.474V309.251H279.224V311.501ZM36.434 331.75V329.501H34.1843V322.751H36.434V320.502H47.6826V322.751H49.9323V325.001H45.4329V322.751H38.6837V329.501H45.4329V327.251H49.9323V329.501H47.6826V331.75H36.434ZM72.0696 331.75V329.501H69.8199V327.251H74.3193V329.501H81.0685V327.251H76.5691V325.001H81.0685V322.751H74.3193V325.001H69.8199V322.751H72.0696V320.502H83.3182V322.751H85.568V329.501H83.3182V331.75H72.0696ZM94.3869 331.75V322.751H89.8874V320.502H103.386V322.751H98.8863V331.75H94.3869ZM109.955 327.251H112.205V329.501H109.955V331.75H105.455V320.502H109.955V327.251ZM121.204 320.502V331.75H116.704V325.001H114.454V322.751H116.704V320.502H121.204ZM112.205 325.001H114.454V327.251H112.205V325.001ZM130.022 322.751V325.001H127.773V331.75H123.273V320.502H127.773V322.751H130.022ZM139.021 320.502V331.75H134.522V325.001H132.272V322.751H134.522V320.502H139.021ZM130.022 325.001H132.272V329.501H130.022V325.001ZM170.158 334V331.75H158.909V320.502H163.408V329.501H167.908V320.502H172.407V329.501H174.657V334H170.158ZM176.727 331.75V320.502H190.225V322.751H192.475V325.001H190.225V327.251H192.475V329.501H190.225V331.75H176.727ZM181.226 325.001H187.975V322.751H181.226V325.001ZM181.226 329.501H187.975V327.251H181.226V329.501ZM196.794 331.75V329.501H194.544V322.751H196.794V320.502H208.043V322.751H210.293V327.251H199.044V329.501H208.043V331.75H196.794ZM199.044 325.001H205.793V322.751H199.044V325.001ZM219.111 331.75V322.751H214.612V320.502H228.11V322.751H223.611V331.75H219.111ZM232.43 331.75V329.501H230.18V322.751H232.43V320.502H243.678V322.751H245.928V329.501H243.678V331.75H232.43ZM234.68 329.501H241.429V322.751H234.68V329.501ZM254.747 322.751V325.001H252.497V331.75H247.998V320.502H252.497V322.751H254.747ZM263.746 320.502V331.75H259.247V325.001H256.997V322.751H259.247V320.502H263.746ZM254.747 325.001H256.997V329.501H254.747V325.001ZM27.5251 349.75V347.501H25.2754V340.751H27.5251V338.502H38.7737V340.751H41.0234V343.001H36.524V340.751H29.7748V347.501H36.524V345.251H41.0234V347.501H38.7737V349.75H27.5251ZM58.8412 338.502V349.75H54.3418V340.751H49.8424V347.501H47.5926V349.75H43.0932V345.251H45.3429V343.001H47.5926V338.502H58.8412ZM65.4104 345.251H67.6602V347.501H65.4104V349.75H60.911V338.502H65.4104V345.251ZM76.659 338.502V349.75H72.1596V343.001H69.9099V340.751H72.1596V338.502H76.659ZM67.6602 343.001H69.9099V345.251H67.6602V343.001ZM78.7288 349.75V338.502H83.2282V347.501H85.478V338.502H87.7277V347.501H89.9774V338.502H94.4768V349.75H78.7288ZM105.545 340.751H107.795V343.001H110.045V345.251H112.295V349.75H107.795V345.251H101.046V349.75H96.5466V338.502H101.046V343.001H105.545V340.751ZM112.295 338.502V340.751H107.795V338.502H112.295ZM116.614 349.75V347.501H114.364V340.751H116.614V338.502H127.863V340.751H130.112V347.501H127.863V349.75H116.614ZM118.864 347.501H125.613V340.751H118.864V347.501ZM138.931 340.751V343.001H136.682V349.75H132.182V338.502H136.682V340.751H138.931ZM147.93 338.502V349.75H143.431V343.001H141.181V340.751H143.431V338.502H147.93ZM138.931 343.001H141.181V347.501H138.931V343.001ZM170.068 349.75V347.501H167.818V340.751H170.068V338.502H181.316V340.751H183.566V343.001H179.066V340.751H172.317V347.501H179.066V345.251H183.566V347.501H181.316V349.75H170.068ZM190.135 345.251H192.385V347.501H190.135V349.75H185.636V338.502H190.135V345.251ZM201.384 338.502V349.75H196.884V343.001H194.634V340.751H196.884V338.502H201.384ZM192.385 343.001H194.634V345.251H192.385V343.001ZM219.201 338.502V349.75H214.702V340.751H210.203V347.501H207.953V349.75H203.453V345.251H205.703V343.001H207.953V338.502H219.201ZM221.271 349.75V338.502H225.771V343.001H234.77V345.251H237.019V347.501H234.77V349.75H221.271ZM225.771 347.501H232.52V345.251H225.771V347.501ZM239.089 349.75V338.502H243.588V343.001H250.338V338.502H254.837V349.75H250.338V345.251H243.588V349.75H239.089ZM259.157 349.75V347.501H256.907V340.751H259.157V338.502H270.405V340.751H272.655V347.501H270.405V349.75H259.157ZM261.406 347.501H268.155V340.751H261.406V347.501ZM45.3429 367.75V365.501H43.0932V363.251H47.5926V365.501H54.3418V363.251H49.8424V361.001H54.3418V358.751H47.5926V361.001H43.0932V358.751H45.3429V356.502H56.5915V358.751H58.8412V361.001H56.5915V363.251H58.8412V365.501H56.5915V367.75H45.3429ZM63.1607 367.75V365.501H60.911V363.251H63.1607V361.001H72.1596V358.751H63.1607V356.502H74.4093V358.751H76.659V367.75H63.1607ZM65.4104 365.501H72.1596V363.251H65.4104V365.501ZM78.7288 367.75V356.502H94.4768V367.75H89.9774V358.751H83.2282V367.75H78.7288ZM98.7963 367.75V365.501H96.5466V363.251H98.7963V361.001H107.795V358.751H98.7963V356.502H110.045V358.751H112.295V367.75H98.7963ZM101.046 365.501H107.795V363.251H101.046V365.501ZM130.112 356.502V367.75H125.613V358.751H121.114V365.501H118.864V367.75H114.364V363.251H116.614V361.001H118.864V356.502H130.112ZM136.682 363.251H138.931V365.501H136.682V367.75H132.182V356.502H136.682V363.251ZM147.93 356.502V367.75H143.431V361.001H141.181V358.751H143.431V356.502H147.93ZM138.931 361.001H141.181V363.251H138.931V361.001ZM174.567 358.751V361.001H172.317V367.75H167.818V356.502H172.317V358.751H174.567ZM183.566 356.502V367.75H179.066V361.001H176.817V358.751H179.066V356.502H183.566ZM174.567 361.001H176.817V365.501H174.567V361.001ZM185.636 367.75V356.502H190.135V361.001H196.884V356.502H201.384V367.75H196.884V363.251H190.135V367.75H185.636ZM205.703 367.75V365.501H203.453V358.751H205.703V356.502H216.952V358.751H219.201V363.251H207.953V365.501H216.952V367.75H205.703ZM207.953 361.001H214.702V358.751H207.953V361.001ZM239.089 367.75V356.502H252.587V358.751H254.837V361.001H252.587V363.251H254.837V365.501H252.587V367.75H239.089ZM243.588 361.001H250.338V358.751H243.588V361.001ZM243.588 365.501H250.338V363.251H243.588V365.501ZM34.1843 385.75V374.502H49.9323V385.75H45.4329V376.751H38.6837V385.75H34.1843ZM54.2518 385.75V383.501H52.0021V381.251H54.2518V379.001H63.2507V376.751H54.2518V374.502H65.5004V376.751H67.7501V385.75H54.2518ZM56.5015 383.501H63.2507V381.251H56.5015V383.501ZM76.5691 376.751V379.001H74.3193V385.75H69.8199V374.502H74.3193V376.751H76.5691ZM85.568 374.502V385.75H81.0685V379.001H78.8188V376.751H81.0685V374.502H85.568ZM76.5691 379.001H78.8188V383.501H76.5691V379.001ZM87.6377 385.75V381.251H89.8874V379.001H87.6377V376.751H89.8874V374.502H103.386V385.75H98.8863V381.251H92.1371V385.75H87.6377ZM92.1371 379.001H98.8863V376.751H92.1371V379.001ZM112.205 385.75V376.751H107.705V374.502H121.204V376.751H116.704V385.75H112.205ZM123.273 385.75V374.502H127.773V379.001H136.772V381.251H139.021V383.501H136.772V385.75H123.273ZM127.773 383.501H134.522V381.251H127.773V383.501ZM163.408 381.251H165.658V383.501H163.408V385.75H158.909V374.502H163.408V381.251ZM174.657 374.502V385.75H170.158V379.001H167.908V376.751H170.158V374.502H174.657ZM165.658 379.001H167.908V381.251H165.658V379.001ZM201.294 376.751V379.001H199.044V385.75H194.544V374.502H199.044V376.751H201.294ZM210.293 374.502V385.75H205.793V379.001H203.543V376.751H205.793V374.502H210.293ZM201.294 379.001H203.543V383.501H201.294V379.001ZM212.362 385.75V374.502H216.862V379.001H223.611V374.502H228.11V385.75H223.611V381.251H216.862V385.75H212.362ZM232.43 385.75V383.501H230.18V376.751H232.43V374.502H243.678V376.751H245.928V383.501H243.678V385.75H232.43ZM234.68 383.501H241.429V376.751H234.68V383.501ZM247.998 385.75V374.502H250.248V379.001H252.497V376.751H254.747V374.502H261.496V376.751H263.746V383.501H261.496V385.75H254.747V383.501H252.497V381.251H250.248V385.75H247.998ZM256.997 383.501H259.247V376.751H256.997V383.501ZM58.8412 388.002V390.252H47.5926V394.751H49.8424V397.001H47.5926V401.501H54.3418V394.751H49.8424V392.502H56.5915V394.751H58.8412V401.501H56.5915V403.75H45.3429V401.501H43.0932V390.252H45.3429V388.002H58.8412ZM60.911 403.75V392.502H65.4104V397.001H69.9099V403.75H60.911ZM72.1596 403.75V392.502H76.659V403.75H72.1596ZM65.4104 401.501H67.6602V399.251H65.4104V401.501ZM94.4768 392.502V403.75H89.9774V394.751H85.478V401.501H83.2282V403.75H78.7288V399.251H80.9785V397.001H83.2282V392.502H94.4768ZM98.7963 403.75V401.501H96.5466V394.751H98.7963V392.502H110.045V394.751H112.295V401.501H110.045V403.75H98.7963ZM101.046 401.501H107.795V394.751H101.046V401.501ZM132.182 403.75V392.502H147.93V403.75H143.431V394.751H136.682V403.75H132.182ZM165.748 394.751V401.501H163.498V403.75H154.499V406H150V392.502H154.499V394.751H156.749V397.001H154.499V401.501H161.249V394.751H156.749V392.502H163.498V394.751H165.748ZM172.317 399.251H174.567V401.501H172.317V403.75H167.818V392.502H172.317V399.251ZM183.566 392.502V403.75H179.066V397.001H176.817V394.751H179.066V392.502H183.566ZM174.567 397.001H176.817V399.251H174.567V397.001ZM185.636 403.75V392.502H190.135V397.001H196.884V392.502H201.384V403.75H196.884V399.251H190.135V403.75H185.636ZM203.453 403.75V399.251H205.703V397.001H203.453V394.751H205.703V392.502H219.201V403.75H214.702V399.251H207.953V403.75H203.453ZM207.953 397.001H214.702V394.751H207.953V397.001ZM228.02 403.75V394.751H223.521V392.502H237.019V394.751H232.52V403.75H228.02ZM241.339 403.75V401.501H239.089V394.751H241.339V392.502H252.587V394.751H254.837V401.501H252.587V403.75H241.339ZM243.588 401.501H250.338V394.751H243.588V401.501ZM23.2056 412.751V419.501H20.9559V421.75H11.957V424H7.45758V410.502H11.957V412.751H14.2067V415.001H11.957V419.501H18.7062V412.751H14.2067V410.502H20.9559V412.751H23.2056ZM27.5251 421.75V419.501H25.2754V412.751H27.5251V410.502H38.7737V412.751H41.0234V417.251H29.7748V419.501H38.7737V421.75H27.5251ZM29.7748 415.001H36.524V412.751H29.7748V415.001ZM43.0932 421.75V410.502H47.5926V419.501H49.8424V410.502H52.0921V419.501H54.3418V410.502H58.8412V421.75H43.0932ZM63.1607 421.75V419.501H60.911V412.751H63.1607V410.502H74.4093V412.751H76.659V417.251H65.4104V419.501H74.4093V421.75H63.1607ZM65.4104 415.001H72.1596V412.751H65.4104V415.001ZM78.7288 421.75V410.502H83.2282V415.001H89.9774V410.502H94.4768V421.75H89.9774V417.251H83.2282V421.75H78.7288ZM101.046 417.251H103.296V419.501H101.046V421.75H96.5466V410.502H101.046V417.251ZM112.295 410.502V421.75H107.795V415.001H105.545V412.751H107.795V410.502H112.295ZM103.296 415.001H105.545V417.251H103.296V415.001ZM116.614 421.75V419.501H114.364V412.751H116.614V410.502H127.863V412.751H130.112V417.251H118.864V419.501H127.863V421.75H116.614ZM118.864 415.001H125.613V412.751H118.864V415.001ZM150 421.75V410.502H165.748V421.75H161.249V412.751H154.499V421.75H150ZM170.068 421.75V419.501H167.818V412.751H170.068V410.502H181.316V412.751H183.566V419.501H181.316V421.75H170.068ZM172.317 419.501H179.066V412.751H172.317V419.501ZM194.634 412.751H196.884V415.001H199.134V417.251H201.384V421.75H196.884V417.251H190.135V421.75H185.636V410.502H190.135V415.001H194.634V412.751ZM201.384 410.502V412.751H196.884V410.502H201.384ZM205.703 421.75V419.501H203.453V417.251H205.703V415.001H214.702V412.751H205.703V410.502H216.952V412.751H219.201V421.75H205.703ZM207.953 419.501H214.702V417.251H207.953V419.501ZM223.521 421.75V419.501H221.271V417.251H225.771V419.501H232.52V417.251H228.02V415.001H232.52V412.751H225.771V415.001H221.271V412.751H223.521V410.502H234.77V412.751H237.019V415.001H234.77V417.251H237.019V419.501H234.77V421.75H223.521ZM241.339 421.75V419.501H239.089V417.251H241.339V415.001H250.338V412.751H241.339V410.502H252.587V412.751H254.837V421.75H241.339ZM243.588 419.501H250.338V417.251H243.588V419.501ZM263.656 421.75V412.751H259.157V410.502H272.655V412.751H268.155V421.75H263.656ZM274.725 421.75V410.502H279.224V415.001H288.223V417.251H290.473V419.501H288.223V421.75H274.725ZM279.224 419.501H285.973V417.251H279.224V419.501ZM14.2067 439.75V430.751H9.7073V428.502H23.2056V430.751H18.7062V439.75H14.2067ZM41.0234 430.751V437.501H38.7737V439.75H29.7748V442H25.2754V428.502H29.7748V430.751H32.0246V433.001H29.7748V437.501H36.524V430.751H32.0246V428.502H38.7737V430.751H41.0234ZM45.3429 439.75V437.501H43.0932V430.751H45.3429V428.502H56.5915V430.751H58.8412V435.251H47.5926V437.501H56.5915V439.75H45.3429ZM47.5926 433.001H54.3418V430.751H47.5926V433.001ZM67.6602 439.75V430.751H63.1607V428.502H76.659V430.751H72.1596V439.75H67.6602ZM83.2282 435.251H85.478V437.501H83.2282V439.75H78.7288V428.502H83.2282V435.251ZM94.4768 428.502V439.75H89.9774V433.001H87.7277V430.751H89.9774V428.502H94.4768ZM85.478 433.001H87.7277V435.251H85.478V433.001ZM110.045 424.002V426.252H98.7963V424.002H110.045ZM101.046 435.251H103.296V437.501H101.046V439.75H96.5466V428.502H101.046V435.251ZM112.295 428.502V439.75H107.795V433.001H105.545V430.751H107.795V428.502H112.295ZM103.296 433.001H105.545V435.251H103.296V433.001ZM143.431 442V439.75H132.182V428.502H136.682V437.501H141.181V428.502H145.681V437.501H147.93V442H143.431ZM150 439.75V428.502H163.498V430.751H165.748V433.001H163.498V435.251H165.748V437.501H163.498V439.75H150ZM154.499 433.001H161.249V430.751H154.499V433.001ZM154.499 437.501H161.249V435.251H154.499V437.501ZM170.068 439.75V437.501H167.818V430.751H170.068V428.502H181.316V430.751H183.566V435.251H172.317V437.501H181.316V439.75H170.068ZM172.317 433.001H179.066V430.751H172.317V433.001ZM192.385 439.75V430.751H187.885V428.502H201.384V430.751H196.884V439.75H192.385ZM205.703 442V439.75H207.953V435.251H212.452V439.75H210.203V442H205.703ZM248.088 430.751H250.338V433.001H252.587V435.251H254.837V439.75H250.338V435.251H243.588V439.75H239.089V428.502H243.588V433.001H248.088V430.751ZM254.837 428.502V430.751H250.338V428.502H254.837ZM259.157 439.75V437.501H256.907V435.251H259.157V433.001H268.155V430.751H259.157V428.502H270.405V430.751H272.655V439.75H259.157ZM261.406 437.501H268.155V435.251H261.406V437.501ZM283.723 430.751H285.973V433.001H288.223V435.251H290.473V439.75H285.973V435.251H279.224V439.75H274.725V428.502H279.224V433.001H283.723V430.751ZM290.473 428.502V430.751H285.973V428.502H290.473ZM27.5251 457.75V455.501H25.2754V453.251H27.5251V451.001H36.524V448.751H27.5251V446.502H38.7737V448.751H41.0234V457.75H27.5251ZM29.7748 455.501H36.524V453.251H29.7748V455.501ZM58.8412 446.502V457.75H54.3418V448.751H49.8424V455.501H47.5926V457.75H43.0932V453.251H45.3429V451.001H47.5926V446.502H58.8412ZM60.911 457.75V446.502H65.4104V451.001H74.4093V453.251H76.659V455.501H74.4093V457.75H60.911ZM65.4104 455.501H72.1596V453.251H65.4104V455.501ZM85.478 457.75V448.751H80.9785V446.502H94.4768V448.751H89.9774V457.75H85.478ZM98.7963 457.75V455.501H96.5466V448.751H98.7963V446.502H110.045V448.751H112.295V453.251H101.046V455.501H110.045V457.75H98.7963ZM101.046 451.001H107.795V448.751H101.046V451.001ZM130.112 448.751V455.501H127.863V457.75H118.864V460H114.364V446.502H118.864V448.751H121.114V451.001H118.864V455.501H125.613V448.751H121.114V446.502H127.863V448.751H130.112ZM132.182 457.75V446.502H136.682V451.001H143.431V446.502H147.93V457.75H143.431V453.251H136.682V457.75H132.182ZM152.25 457.75V455.501H150V453.251H152.25V451.001H161.249V448.751H152.25V446.502H163.498V448.751H165.748V457.75H152.25ZM154.499 455.501H161.249V453.251H154.499V455.501ZM174.567 457.75V448.751H170.068V446.502H183.566V448.751H179.066V457.75H174.567ZM190.135 453.251H192.385V455.501H190.135V457.75H185.636V446.502H190.135V453.251ZM201.384 446.502V457.75H196.884V451.001H194.634V448.751H196.884V446.502H201.384ZM192.385 451.001H194.634V453.251H192.385V451.001ZM203.453 457.75V446.502H216.952V448.751H219.201V451.001H216.952V453.251H219.201V455.501H216.952V457.75H203.453ZM207.953 451.001H214.702V448.751H207.953V451.001ZM207.953 455.501H214.702V453.251H207.953V455.501ZM221.271 457.75V446.502H225.771V451.001H232.52V446.502H237.019V457.75H232.52V453.251H225.771V457.75H221.271ZM239.089 457.75V446.502H243.588V451.001H248.088V457.75H239.089ZM250.338 457.75V446.502H254.837V457.75H250.338ZM243.588 455.501H245.838V453.251H243.588V455.501ZM270.405 442.002V444.252H259.157V442.002H270.405ZM261.406 453.251H263.656V455.501H261.406V457.75H256.907V446.502H261.406V453.251ZM272.655 446.502V457.75H268.155V451.001H265.906V448.751H268.155V446.502H272.655ZM263.656 451.001H265.906V453.251H263.656V451.001ZM36.524 478V475.75H25.2754V464.502H29.7748V473.501H34.2743V464.502H38.7737V473.501H41.0234V478H36.524ZM43.0932 475.75V464.502H56.5915V466.751H58.8412V469.001H56.5915V471.251H58.8412V473.501H56.5915V475.75H43.0932ZM47.5926 469.001H54.3418V466.751H47.5926V469.001ZM47.5926 473.501H54.3418V471.251H47.5926V473.501ZM63.1607 475.75V473.501H60.911V466.751H63.1607V464.502H74.4093V466.751H76.659V471.251H65.4104V473.501H74.4093V475.75H63.1607ZM65.4104 469.001H72.1596V466.751H65.4104V469.001ZM85.478 475.75V466.751H80.9785V464.502H94.4768V466.751H89.9774V475.75H85.478ZM116.614 475.75V473.501H114.364V471.251H116.614V469.001H125.613V466.751H116.614V464.502H127.863V466.751H130.112V475.75H116.614ZM118.864 473.501H125.613V471.251H118.864V473.501ZM145.681 460.002V462.252H134.432V460.002H145.681ZM136.682 471.251H138.931V473.501H136.682V475.75H132.182V464.502H136.682V471.251ZM147.93 464.502V475.75H143.431V469.001H141.181V466.751H143.431V464.502H147.93ZM138.931 469.001H141.181V471.251H138.931V469.001ZM165.748 473.501H167.998V478H163.498V475.75H154.499V478H150V473.501H152.25V471.251H154.499V464.502H165.748V473.501ZM156.749 473.501H161.249V466.751H156.749V473.501ZM170.068 475.75V473.501H167.818V466.751H170.068V464.502H181.316V466.751H183.566V471.251H172.317V473.501H181.316V475.75H170.068ZM172.317 469.001H179.066V466.751H172.317V469.001ZM185.636 475.75V464.502H190.135V469.001H196.884V464.502H201.384V475.75H196.884V471.251H190.135V475.75H185.636ZM210.203 475.75V466.751H205.703V464.502H219.201V466.751H214.702V475.75H210.203ZM225.771 471.251H228.02V473.501H225.771V475.75H221.271V464.502H225.771V471.251ZM237.019 464.502V475.75H232.52V469.001H230.27V466.751H232.52V464.502H237.019ZM228.02 469.001H230.27V471.251H228.02V469.001ZM248.088 466.751H250.338V469.001H252.587V471.251H254.837V475.75H250.338V471.251H243.588V475.75H239.089V464.502H243.588V469.001H248.088V466.751ZM254.837 464.502V466.751H250.338V464.502H254.837ZM261.406 471.251H263.656V473.501H261.406V475.75H256.907V464.502H261.406V471.251ZM272.655 464.502V475.75H268.155V469.001H265.906V466.751H268.155V464.502H272.655ZM263.656 469.001H265.906V471.251H263.656V469.001ZM34.1843 493.75V482.502H38.6837V487.001H45.4329V482.502H49.9323V493.75H45.4329V489.251H38.6837V493.75H34.1843ZM54.2518 493.75V491.501H52.0021V489.251H54.2518V487.001H63.2507V484.751H54.2518V482.502H65.5004V484.751H67.7501V493.75H54.2518ZM56.5015 491.501H63.2507V489.251H56.5015V491.501ZM87.6377 493.75V482.502H92.1371V487.001H98.8863V482.502H103.386V493.75H98.8863V489.251H92.1371V493.75H87.6377ZM107.705 493.75V491.501H105.455V484.751H107.705V482.502H118.954V484.751H121.204V489.251H109.955V491.501H118.954V493.75H107.705ZM109.955 487.001H116.704V484.751H109.955V487.001ZM125.523 493.75V491.501H123.273V484.751H125.523V482.502H136.772V484.751H139.021V487.001H134.522V484.751H127.773V491.501H134.522V489.251H139.021V491.501H136.772V493.75H125.523ZM150.09 484.751H152.34V487.001H154.589V489.251H156.839V493.75H152.34V489.251H145.591V493.75H141.091V482.502H145.591V487.001H150.09V484.751ZM156.839 482.502V484.751H152.34V482.502H156.839ZM161.159 493.75V491.501H158.909V484.751H161.159V482.502H172.407V484.751H174.657V491.501H172.407V493.75H161.159ZM163.408 491.501H170.158V484.751H163.408V491.501ZM192.475 482.502V493.75H187.975V484.751H183.476V491.501H181.226V493.75H176.727V489.251H178.976V487.001H181.226V482.502H192.475ZM194.544 493.75V482.502H199.044V487.001H208.043V489.251H210.293V491.501H208.043V493.75H194.544ZM199.044 491.501H205.793V489.251H199.044V491.501ZM221.361 484.751H223.611V487.001H225.861V489.251H228.11V493.75H223.611V489.251H216.862V493.75H212.362V482.502H216.862V487.001H221.361V484.751ZM228.11 482.502V484.751H223.611V482.502H228.11ZM234.68 489.251H236.929V491.501H234.68V493.75H230.18V482.502H234.68V489.251ZM245.928 482.502V493.75H241.429V487.001H239.179V484.751H241.429V482.502H245.928ZM236.929 487.001H239.179V489.251H236.929V487.001ZM247.998 493.75V491.501H250.248V489.251H252.497V487.001H250.248V484.751H247.998V482.502H252.497V484.751H254.747V487.001H256.997V484.751H259.247V482.502H263.746V484.751H261.496V487.001H259.247V489.251H261.496V491.501H263.746V493.75H259.247V491.501H256.997V489.251H254.747V491.501H252.497V493.75H247.998ZM60.821 511.75V500.502H65.3204V505.001H72.0696V500.502H76.5691V511.75H72.0696V507.251H65.3204V511.75H60.821ZM80.8885 511.75V509.501H78.6388V502.751H80.8885V500.502H92.1371V502.751H94.3869V509.501H92.1371V511.75H80.8885ZM83.1382 509.501H89.8874V502.751H83.1382V509.501ZM98.7063 511.75V509.501H96.4566V502.751H98.7063V500.502H109.955V502.751H112.205V505.001H107.705V502.751H100.956V509.501H107.705V507.251H112.205V509.501H109.955V511.75H98.7063ZM118.774 507.251H121.024V509.501H118.774V511.75H114.274V500.502H118.774V507.251ZM130.022 500.502V511.75H125.523V505.001H123.273V502.751H125.523V500.502H130.022ZM121.024 505.001H123.273V507.251H121.024V505.001ZM138.841 511.75V502.751H134.342V500.502H147.84V502.751H143.341V511.75H138.841ZM152.16 511.75V509.501H149.91V502.751H152.16V500.502H163.408V502.751H165.658V507.251H154.409V509.501H163.408V511.75H152.16ZM154.409 505.001H161.159V502.751H154.409V505.001ZM183.476 500.502V511.75H178.976V502.751H174.477V509.501H172.227V511.75H167.728V507.251H169.978V505.001H172.227V500.502H183.476ZM185.546 511.75V507.251H187.795V505.001H185.546V502.751H187.795V500.502H201.294V511.75H196.794V507.251H190.045V511.75H185.546ZM190.045 505.001H196.794V502.751H190.045V505.001ZM203.363 511.75V509.501H205.613V507.251H207.863V505.001H205.613V502.751H203.363V500.502H207.863V502.751H210.113V505.001H212.362V502.751H214.612V500.502H219.111V502.751H216.862V505.001H214.612V507.251H216.862V509.501H219.111V511.75H214.612V509.501H212.362V507.251H210.113V509.501H207.863V511.75H203.363ZM225.681 511.75V507.251H230.18V511.75H225.681Z" fill="black"/>
<path d="M130.801 1.83789L130.989 1.90527L150 8.65332L169.011 1.90527L169.199 1.83789H298.162V10.7695L297.33 11.0156L161.582 51.2207V63.1621H138.418V51.2207L2.66992 11.0156L1.83789 10.7695V1.83789H130.801Z" fill="black" stroke="black" stroke-width="2.32364"/>
</svg>
