<svg width="685" height="42" viewBox="0 0 685 42" fill="none" xmlns="http://www.w3.org/2000/svg">
<path d="M524.01 1.30135L458.882 1.19745L454.165 15.4924L458.912 31.3469L524.041 31.4508L530.178 21.742L575.972 21.6176L575.942 10.3038L530.148 10.4282L524.01 1.30135Z" fill="black"/>
<path d="M447.404 31.7049L447.388 15.4815L447.373 1.17906L405.696 1.1126L405.828 11.3392L412.615 19.7574L421.915 31.6642L447.404 31.7049Z" fill="black"/>
<path d="M375.832 5.20898L382.046 9.10331L381.569 10.7207" stroke="black" stroke-width="3.68381"/>
<path d="M382.928 3.78564L390.251 11.4392" stroke="black" stroke-width="3.68381"/>
<path d="M381.737 21.5776C383.125 32.0117 394.086 30.9038 403.013 28.4957" stroke="black" stroke-width="3.68381"/>
<path d="M380.059 18.9125L398.179 18.7312L398.949 15.9545" stroke="black" stroke-width="3.68381"/>
<path d="M380.365 31.4883C388.992 26.6001 390.868 23.6233 393.631 14.3411" stroke="black" stroke-width="3.68381"/>
<mask id="path-7-outside-1_160_13" maskUnits="userSpaceOnUse" x="0" y="0.959473" width="378" height="33" fill="black">
<rect fill="white" y="0.959473" width="378" height="33"/>
<path d="M20.8195 3.29018L27.0435 3.29018L17.2602 31.9595L11.6002 31.9595L1.91415 3.29018L8.3132 3.29018L14.5372 25.0547L20.8195 3.29018ZM32.5028 31.9595H26.5511L26.5511 3.29018L32.5028 3.29018V31.9595ZM38.8567 23.1097C39.0382 24.4194 39.3948 25.3983 39.9264 26.0467C40.8989 27.2266 42.5652 27.8166 44.9251 27.8166C46.3385 27.8166 47.486 27.661 48.3677 27.3498C50.0404 26.7534 50.8768 25.6447 50.8768 24.0239C50.8768 23.0773 50.4619 22.3447 49.632 21.826C48.8021 21.3203 47.499 20.873 45.7225 20.484L42.6883 19.8032C39.706 19.129 37.6443 18.3963 36.5032 17.6054C34.5712 16.2828 33.6052 14.2146 33.6052 11.4008C33.6052 8.83343 34.5388 6.70041 36.406 5.00178C38.2732 3.30315 41.0156 2.45383 44.6333 2.45383C47.6546 2.45383 50.2285 3.25776 52.355 4.86563C54.4945 6.46053 55.6161 8.78156 55.7198 11.8287L49.9626 11.8287C49.8589 10.1042 49.1068 8.87881 47.7064 8.15268C46.7728 7.67291 45.6123 7.43303 44.2249 7.43303C42.6819 7.43303 41.45 7.74423 40.5294 8.36663C39.6088 8.98903 39.1484 9.8578 39.1484 10.9729C39.1484 11.9973 39.6023 12.7623 40.5099 13.268C41.0934 13.6052 42.3382 14.0006 44.2443 14.4545L49.1846 15.6409C51.3501 16.1596 52.9839 16.8533 54.086 17.7221C55.7976 19.0706 56.6534 21.0221 56.6534 23.5765C56.6534 26.1958 55.6485 28.3742 53.6387 30.1117C51.6418 31.8363 48.8151 32.6986 45.1585 32.6986C41.4241 32.6986 38.4871 31.8493 36.3476 30.1506C34.2081 28.439 33.1384 26.0921 33.1384 23.1097L38.8567 23.1097ZM57.503 3.29018L63.5909 3.29018V20.9119C63.5909 22.8828 63.8243 24.3221 64.2911 25.2298C65.0172 26.8376 66.5991 27.6416 69.0369 27.6416C71.4616 27.6416 73.0371 26.8376 73.7632 25.2298C74.23 24.3221 74.4634 22.8828 74.4634 20.9119V3.29018L80.5513 3.29018V20.9119C80.5513 23.959 80.078 26.3319 79.1314 28.0306C77.3679 31.1426 74.0031 32.6986 69.0369 32.6986C64.0706 32.6986 60.6993 31.1426 58.9229 28.0306C57.9763 26.3319 57.503 23.959 57.503 20.9119V3.29018ZM90.5423 21.1258H97.8166L94.2378 9.84483L90.5423 21.1258ZM90.9119 3.29018L97.6805 3.29018L107.833 31.9595H101.337L99.4893 26.0661H88.928L86.9441 31.9595H80.6812L90.9119 3.29018ZM107.905 3.29018L113.896 3.29018V26.8052L128.094 26.8052V31.9595L107.905 31.9595V3.29018ZM141.288 8.26938V14.5906H148.329C149.587 14.5906 150.605 14.3572 151.383 13.8904C152.174 13.4107 152.569 12.5678 152.569 11.3619C152.569 10.0264 152.05 9.14463 151.013 8.71673C150.118 8.4185 148.977 8.26938 147.59 8.26938L141.288 8.26938ZM141.288 19.3364V26.9803L148.329 26.9803C149.587 26.9803 150.566 26.8117 151.266 26.4746C152.537 25.8522 153.172 24.6592 153.172 22.8958C153.172 21.4046 152.556 20.3802 151.324 19.8227C150.637 19.5115 149.671 19.3494 148.426 19.3364L141.288 19.3364ZM149.496 3.29018C153.01 3.34205 155.5 4.35993 156.965 6.34383C157.847 7.5627 158.287 9.02145 158.287 10.7201C158.287 12.4706 157.847 13.8775 156.965 14.9407C156.472 15.5372 155.746 16.0818 154.786 16.5745C156.252 17.1062 157.354 17.949 158.093 19.103C158.845 20.2571 159.221 21.6575 159.221 23.3042C159.221 25.0029 158.793 26.5264 157.937 27.875C157.393 28.7697 156.712 29.5217 155.895 30.1312C154.974 30.8314 153.885 31.3111 152.627 31.5705C151.383 31.8298 150.028 31.9595 148.562 31.9595L135.57 31.9595V3.29018L149.496 3.29018ZM166.664 8.26938V15.9716L173.452 15.9716C174.801 15.9716 175.812 15.816 176.486 15.5048C177.679 14.9602 178.276 13.8839 178.276 12.2761C178.276 10.5385 177.699 9.37155 176.545 8.77508C175.896 8.43795 174.924 8.26938 173.627 8.26938L166.664 8.26938ZM174.872 3.29018C176.882 3.32908 178.425 3.57545 179.501 4.02928C180.59 4.48311 181.511 5.1509 182.263 6.03263C182.885 6.75876 183.378 7.5627 183.741 8.44443C184.104 9.32616 184.286 10.3311 184.286 11.4592C184.286 12.8207 183.942 14.1627 183.255 15.4853C182.568 16.795 181.433 17.7221 179.851 18.2667C181.174 18.7983 182.107 19.5569 182.652 20.5423C183.21 21.5148 183.488 23.006 183.488 25.0158V26.9414C183.488 28.251 183.54 29.1392 183.644 29.606C183.8 30.3451 184.163 30.8897 184.733 31.2398V31.9595H178.14C177.958 31.3241 177.828 30.8119 177.751 30.4229C177.595 29.619 177.511 28.7956 177.498 27.9528L177.459 25.2881C177.433 23.4598 177.096 22.241 176.448 21.6315C175.812 21.0221 174.613 20.7174 172.849 20.7174L166.664 20.7174V31.9595H160.81V3.29018L174.872 3.29018ZM207.075 8.36663H191.904V14.4545L205.83 14.4545V19.4337H191.904V26.8052H207.775V31.9595L186.05 31.9595V3.29018L207.075 3.29018V8.36663ZM216.697 21.1258H223.971L220.392 9.84483L216.697 21.1258ZM217.066 3.29018L223.835 3.29018L233.988 31.9595L227.491 31.9595L225.644 26.0661H215.082L213.098 31.9595L206.835 31.9595L217.066 3.29018ZM234.156 3.29018L240.05 3.29018V15.0963L251.117 3.29018L258.858 3.29018L247.11 15.0963L259.461 31.9595L251.759 31.9595L242.909 19.4337L240.05 22.3706V31.9595H234.156V3.29018ZM265.076 8.26938V26.9803H270.599C273.426 26.9803 275.397 25.5864 276.512 22.7985C277.122 21.2685 277.426 19.4466 277.426 17.3331C277.426 14.4156 276.966 12.1788 276.045 10.6228C275.138 9.05386 273.322 8.26938 270.599 8.26938H265.076ZM271.611 3.29018C273.387 3.31611 274.866 3.52358 276.045 3.91258C278.055 4.57388 279.683 5.78626 280.927 7.54973C281.926 8.97606 282.607 10.5191 282.97 12.1788C283.333 13.8386 283.514 15.4205 283.514 16.9246C283.514 20.7368 282.749 23.9655 281.219 26.6107C279.145 30.1766 275.942 31.9595 271.611 31.9595H259.26V3.29018L271.611 3.29018ZM297.143 27.6805C299.515 27.6805 301.396 26.8052 302.783 25.0547C304.183 23.3042 304.884 20.8146 304.884 17.5859C304.884 14.3702 304.183 11.8871 302.783 10.1366C301.396 8.37311 299.515 7.49138 297.143 7.49138C294.77 7.49138 292.876 8.36663 291.463 10.1171C290.05 11.8676 289.343 14.3572 289.343 17.5859C289.343 20.8146 290.05 23.3042 291.463 25.0547C292.876 26.8052 294.77 27.6805 297.143 27.6805ZM310.874 17.5859C310.874 22.7337 309.428 26.6756 306.537 29.4115C304.371 31.6418 301.24 32.7569 297.143 32.7569C293.045 32.7569 289.914 31.6418 287.748 29.4115C284.844 26.6756 283.391 22.7337 283.391 17.5859C283.391 12.3344 284.844 8.39256 287.748 5.76033C289.914 3.53006 293.045 2.41493 297.143 2.41493C301.24 2.41493 304.371 3.53006 306.537 5.76033C309.428 8.39256 310.874 12.3344 310.874 17.5859ZM315.789 3.29018L319.582 19.706L320.398 24.2767L321.235 19.8032L324.463 3.29018L330.785 3.29018L334.188 19.706L335.064 24.2767L335.939 19.881L339.771 3.29018L345.858 3.29018L337.787 31.9595H332.068L328.606 15.1936L327.595 9.65033L326.584 15.1936L323.121 31.9595L317.559 31.9595L309.429 3.29018L315.789 3.29018ZM345.813 3.29018L352.096 3.29018L363.513 23.3042V3.29018L369.095 3.29018V31.9595L363.104 31.9595L351.396 11.5953V31.9595H345.813V3.29018ZM370.567 26.1634H376.46V31.9595H370.567V26.1634Z"/>
</mask>
<path d="M20.8195 3.29018L27.0435 3.29018L17.2602 31.9595L11.6002 31.9595L1.91415 3.29018L8.3132 3.29018L14.5372 25.0547L20.8195 3.29018ZM32.5028 31.9595H26.5511L26.5511 3.29018L32.5028 3.29018V31.9595ZM38.8567 23.1097C39.0382 24.4194 39.3948 25.3983 39.9264 26.0467C40.8989 27.2266 42.5652 27.8166 44.9251 27.8166C46.3385 27.8166 47.486 27.661 48.3677 27.3498C50.0404 26.7534 50.8768 25.6447 50.8768 24.0239C50.8768 23.0773 50.4619 22.3447 49.632 21.826C48.8021 21.3203 47.499 20.873 45.7225 20.484L42.6883 19.8032C39.706 19.129 37.6443 18.3963 36.5032 17.6054C34.5712 16.2828 33.6052 14.2146 33.6052 11.4008C33.6052 8.83343 34.5388 6.70041 36.406 5.00178C38.2732 3.30315 41.0156 2.45383 44.6333 2.45383C47.6546 2.45383 50.2285 3.25776 52.355 4.86563C54.4945 6.46053 55.6161 8.78156 55.7198 11.8287L49.9626 11.8287C49.8589 10.1042 49.1068 8.87881 47.7064 8.15268C46.7728 7.67291 45.6123 7.43303 44.2249 7.43303C42.6819 7.43303 41.45 7.74423 40.5294 8.36663C39.6088 8.98903 39.1484 9.8578 39.1484 10.9729C39.1484 11.9973 39.6023 12.7623 40.5099 13.268C41.0934 13.6052 42.3382 14.0006 44.2443 14.4545L49.1846 15.6409C51.3501 16.1596 52.9839 16.8533 54.086 17.7221C55.7976 19.0706 56.6534 21.0221 56.6534 23.5765C56.6534 26.1958 55.6485 28.3742 53.6387 30.1117C51.6418 31.8363 48.8151 32.6986 45.1585 32.6986C41.4241 32.6986 38.4871 31.8493 36.3476 30.1506C34.2081 28.439 33.1384 26.0921 33.1384 23.1097L38.8567 23.1097ZM57.503 3.29018L63.5909 3.29018V20.9119C63.5909 22.8828 63.8243 24.3221 64.2911 25.2298C65.0172 26.8376 66.5991 27.6416 69.0369 27.6416C71.4616 27.6416 73.0371 26.8376 73.7632 25.2298C74.23 24.3221 74.4634 22.8828 74.4634 20.9119V3.29018L80.5513 3.29018V20.9119C80.5513 23.959 80.078 26.3319 79.1314 28.0306C77.3679 31.1426 74.0031 32.6986 69.0369 32.6986C64.0706 32.6986 60.6993 31.1426 58.9229 28.0306C57.9763 26.3319 57.503 23.959 57.503 20.9119V3.29018ZM90.5423 21.1258H97.8166L94.2378 9.84483L90.5423 21.1258ZM90.9119 3.29018L97.6805 3.29018L107.833 31.9595H101.337L99.4893 26.0661H88.928L86.9441 31.9595H80.6812L90.9119 3.29018ZM107.905 3.29018L113.896 3.29018V26.8052L128.094 26.8052V31.9595L107.905 31.9595V3.29018ZM141.288 8.26938V14.5906H148.329C149.587 14.5906 150.605 14.3572 151.383 13.8904C152.174 13.4107 152.569 12.5678 152.569 11.3619C152.569 10.0264 152.05 9.14463 151.013 8.71673C150.118 8.4185 148.977 8.26938 147.59 8.26938L141.288 8.26938ZM141.288 19.3364V26.9803L148.329 26.9803C149.587 26.9803 150.566 26.8117 151.266 26.4746C152.537 25.8522 153.172 24.6592 153.172 22.8958C153.172 21.4046 152.556 20.3802 151.324 19.8227C150.637 19.5115 149.671 19.3494 148.426 19.3364L141.288 19.3364ZM149.496 3.29018C153.01 3.34205 155.5 4.35993 156.965 6.34383C157.847 7.5627 158.287 9.02145 158.287 10.7201C158.287 12.4706 157.847 13.8775 156.965 14.9407C156.472 15.5372 155.746 16.0818 154.786 16.5745C156.252 17.1062 157.354 17.949 158.093 19.103C158.845 20.2571 159.221 21.6575 159.221 23.3042C159.221 25.0029 158.793 26.5264 157.937 27.875C157.393 28.7697 156.712 29.5217 155.895 30.1312C154.974 30.8314 153.885 31.3111 152.627 31.5705C151.383 31.8298 150.028 31.9595 148.562 31.9595L135.57 31.9595V3.29018L149.496 3.29018ZM166.664 8.26938V15.9716L173.452 15.9716C174.801 15.9716 175.812 15.816 176.486 15.5048C177.679 14.9602 178.276 13.8839 178.276 12.2761C178.276 10.5385 177.699 9.37155 176.545 8.77508C175.896 8.43795 174.924 8.26938 173.627 8.26938L166.664 8.26938ZM174.872 3.29018C176.882 3.32908 178.425 3.57545 179.501 4.02928C180.59 4.48311 181.511 5.1509 182.263 6.03263C182.885 6.75876 183.378 7.5627 183.741 8.44443C184.104 9.32616 184.286 10.3311 184.286 11.4592C184.286 12.8207 183.942 14.1627 183.255 15.4853C182.568 16.795 181.433 17.7221 179.851 18.2667C181.174 18.7983 182.107 19.5569 182.652 20.5423C183.21 21.5148 183.488 23.006 183.488 25.0158V26.9414C183.488 28.251 183.54 29.1392 183.644 29.606C183.8 30.3451 184.163 30.8897 184.733 31.2398V31.9595H178.14C177.958 31.3241 177.828 30.8119 177.751 30.4229C177.595 29.619 177.511 28.7956 177.498 27.9528L177.459 25.2881C177.433 23.4598 177.096 22.241 176.448 21.6315C175.812 21.0221 174.613 20.7174 172.849 20.7174L166.664 20.7174V31.9595H160.81V3.29018L174.872 3.29018ZM207.075 8.36663H191.904V14.4545L205.83 14.4545V19.4337H191.904V26.8052H207.775V31.9595L186.05 31.9595V3.29018L207.075 3.29018V8.36663ZM216.697 21.1258H223.971L220.392 9.84483L216.697 21.1258ZM217.066 3.29018L223.835 3.29018L233.988 31.9595L227.491 31.9595L225.644 26.0661H215.082L213.098 31.9595L206.835 31.9595L217.066 3.29018ZM234.156 3.29018L240.05 3.29018V15.0963L251.117 3.29018L258.858 3.29018L247.11 15.0963L259.461 31.9595L251.759 31.9595L242.909 19.4337L240.05 22.3706V31.9595H234.156V3.29018ZM265.076 8.26938V26.9803H270.599C273.426 26.9803 275.397 25.5864 276.512 22.7985C277.122 21.2685 277.426 19.4466 277.426 17.3331C277.426 14.4156 276.966 12.1788 276.045 10.6228C275.138 9.05386 273.322 8.26938 270.599 8.26938H265.076ZM271.611 3.29018C273.387 3.31611 274.866 3.52358 276.045 3.91258C278.055 4.57388 279.683 5.78626 280.927 7.54973C281.926 8.97606 282.607 10.5191 282.97 12.1788C283.333 13.8386 283.514 15.4205 283.514 16.9246C283.514 20.7368 282.749 23.9655 281.219 26.6107C279.145 30.1766 275.942 31.9595 271.611 31.9595H259.26V3.29018L271.611 3.29018ZM297.143 27.6805C299.515 27.6805 301.396 26.8052 302.783 25.0547C304.183 23.3042 304.884 20.8146 304.884 17.5859C304.884 14.3702 304.183 11.8871 302.783 10.1366C301.396 8.37311 299.515 7.49138 297.143 7.49138C294.77 7.49138 292.876 8.36663 291.463 10.1171C290.05 11.8676 289.343 14.3572 289.343 17.5859C289.343 20.8146 290.05 23.3042 291.463 25.0547C292.876 26.8052 294.77 27.6805 297.143 27.6805ZM310.874 17.5859C310.874 22.7337 309.428 26.6756 306.537 29.4115C304.371 31.6418 301.24 32.7569 297.143 32.7569C293.045 32.7569 289.914 31.6418 287.748 29.4115C284.844 26.6756 283.391 22.7337 283.391 17.5859C283.391 12.3344 284.844 8.39256 287.748 5.76033C289.914 3.53006 293.045 2.41493 297.143 2.41493C301.24 2.41493 304.371 3.53006 306.537 5.76033C309.428 8.39256 310.874 12.3344 310.874 17.5859ZM315.789 3.29018L319.582 19.706L320.398 24.2767L321.235 19.8032L324.463 3.29018L330.785 3.29018L334.188 19.706L335.064 24.2767L335.939 19.881L339.771 3.29018L345.858 3.29018L337.787 31.9595H332.068L328.606 15.1936L327.595 9.65033L326.584 15.1936L323.121 31.9595L317.559 31.9595L309.429 3.29018L315.789 3.29018ZM345.813 3.29018L352.096 3.29018L363.513 23.3042V3.29018L369.095 3.29018V31.9595L363.104 31.9595L351.396 11.5953V31.9595H345.813V3.29018ZM370.567 26.1634H376.46V31.9595H370.567V26.1634Z" fill="black"/>
<path d="M20.8195 3.29018V2.40648H20.1548L19.9705 3.0451L20.8195 3.29018ZM27.0435 3.29018L27.8799 3.57558L28.2788 2.40648H27.0435V3.29018ZM17.2602 31.9595V32.8432H17.8924L18.0965 32.2449L17.2602 31.9595ZM11.6002 31.9595L10.763 32.2423L10.966 32.8432H11.6002V31.9595ZM1.91415 3.29018L1.91415 2.40648H0.682805L1.07694 3.57304L1.91415 3.29018ZM8.3132 3.29018L9.16284 3.04721L8.97961 2.40648L8.3132 2.40648V3.29018ZM14.5372 25.0547L13.6875 25.2977L14.5332 28.255L15.3862 25.2998L14.5372 25.0547ZM20.8195 3.29018V4.17389H27.0435V3.29018V2.40648L20.8195 2.40648V3.29018ZM27.0435 3.29018L26.2072 3.00478L16.4238 31.6741L17.2602 31.9595L18.0965 32.2449L27.8799 3.57558L27.0435 3.29018ZM17.2602 31.9595V31.0758L11.6002 31.0758V31.9595V32.8432H17.2602V31.9595ZM11.6002 31.9595L12.4375 31.6766L2.75136 3.00732L1.91415 3.29018L1.07694 3.57304L10.763 32.2423L11.6002 31.9595ZM1.91415 3.29018V4.17389L8.3132 4.17389V3.29018V2.40648L1.91415 2.40648L1.91415 3.29018ZM8.3132 3.29018L7.46355 3.53315L13.6875 25.2977L14.5372 25.0547L15.3868 24.8118L9.16284 3.04721L8.3132 3.29018ZM14.5372 25.0547L15.3862 25.2998L21.6686 3.53526L20.8195 3.29018L19.9705 3.0451L13.6882 24.8096L14.5372 25.0547ZM32.5028 31.9595V32.8432H33.3865V31.9595H32.5028ZM26.5511 31.9595H25.6674V32.8432H26.5511V31.9595ZM26.5511 3.29018V2.40648L25.6674 2.40648V3.29018H26.5511ZM32.5028 3.29018L33.3865 3.29018V2.40648H32.5028V3.29018ZM32.5028 31.9595V31.0758H26.5511V31.9595V32.8432H32.5028V31.9595ZM26.5511 31.9595H27.4348L27.4348 3.29018L26.5511 3.29018H25.6674L25.6674 31.9595H26.5511ZM26.5511 3.29018V4.17389L32.5028 4.17389V3.29018V2.40648L26.5511 2.40648V3.29018ZM32.5028 3.29018H31.6191L31.6191 31.9595H32.5028H33.3865L33.3865 3.29018L32.5028 3.29018ZM38.8567 23.1097L39.732 22.9884L39.6264 22.226H38.8567L38.8567 23.1097ZM39.9264 26.0467L39.2431 26.607L39.2445 26.6087L39.9264 26.0467ZM48.3677 27.3498L48.6619 28.1832L48.6646 28.1822L48.3677 27.3498ZM49.632 21.826L50.1004 21.0766L50.0918 21.0714L49.632 21.826ZM45.7225 20.484L45.5291 21.3463L45.5335 21.3472L45.7225 20.484ZM42.6883 19.8032L42.4935 20.6652L42.4949 20.6655L42.6883 19.8032ZM36.5032 17.6054L37.0067 16.8791L37.0024 16.8762L36.5032 17.6054ZM52.355 4.86563L51.822 5.57054L51.8268 5.57414L52.355 4.86563ZM55.7198 11.8287V12.7124H56.6341L56.603 11.7987L55.7198 11.8287ZM49.9626 11.8287L49.0805 11.8818L49.1305 12.7124H49.9626V11.8287ZM47.7064 8.15268L48.1132 7.36816L48.1104 7.36668L47.7064 8.15268ZM40.5099 13.268L40.9521 12.5028L40.94 12.4961L40.5099 13.268ZM44.2443 14.4545L44.4507 13.5952L44.449 13.5948L44.2443 14.4545ZM49.1846 15.6409L48.9783 16.5002L48.9788 16.5003L49.1846 15.6409ZM54.086 17.7221L53.539 18.4161L53.5391 18.4162L54.086 17.7221ZM53.6387 30.1117L54.2163 30.7805L54.2166 30.7802L53.6387 30.1117ZM36.3476 30.1506L35.7956 30.8407L35.7982 30.8427L36.3476 30.1506ZM33.1384 23.1097L33.1384 22.226H32.2547V23.1097H33.1384ZM38.8567 23.1097L37.9814 23.2311C38.1735 24.6171 38.5649 25.7799 39.2431 26.607L39.9264 26.0467L40.6098 25.4863C40.2247 25.0168 39.903 24.2216 39.732 22.9884L38.8567 23.1097ZM39.9264 26.0467L39.2445 26.6087C40.4591 28.0824 42.4458 28.7003 44.9251 28.7003V27.8166V26.9329C42.6846 26.9329 41.3388 26.3709 40.6084 25.4846L39.9264 26.0467ZM44.9251 27.8166V28.7003C46.3927 28.7003 47.6503 28.5402 48.6619 28.1832L48.3677 27.3498L48.0736 26.5165C47.3217 26.7819 46.2842 26.9329 44.9251 26.9329V27.8166ZM48.3677 27.3498L48.6646 28.1822C49.6185 27.842 50.4074 27.3291 50.955 26.6032C51.5074 25.8709 51.7605 24.993 51.7605 24.0239H50.8768H49.9931C49.9931 24.6756 49.828 25.1624 49.544 25.5388C49.2553 25.9215 48.7897 26.2612 48.0709 26.5175L48.3677 27.3498ZM50.8768 24.0239H51.7605C51.7605 22.7603 51.178 21.7502 50.1003 21.0766L49.632 21.826L49.1636 22.5754C49.7457 22.9392 49.9931 23.3943 49.9931 24.0239H50.8768ZM49.632 21.826L50.0918 21.0714C49.1344 20.488 47.7155 20.0157 45.9116 19.6207L45.7225 20.484L45.5335 21.3472C47.2824 21.7302 48.4698 22.1527 49.1721 22.5807L49.632 21.826ZM45.7225 20.484L45.916 19.6217L42.8818 18.941L42.6883 19.8032L42.4949 20.6655L45.5291 21.3462L45.7225 20.484ZM42.6883 19.8032L42.8832 18.9413C39.9104 18.2692 37.9962 17.565 37.0067 16.8791L36.5032 17.6054L35.9998 18.3317C37.2924 19.2276 39.5017 19.9888 42.4935 20.6652L42.6883 19.8032ZM36.5032 17.6054L37.0024 16.8762C35.3617 15.753 34.4889 13.9902 34.4889 11.4008H33.6052H32.7215C32.7215 14.439 33.7808 16.8126 36.0041 18.3346L36.5032 17.6054ZM33.6052 11.4008H34.4889C34.4889 9.07745 35.3211 7.18339 37.0007 5.65546L36.406 5.00178L35.8113 4.3481C33.7565 6.21744 32.7215 8.58941 32.7215 11.4008H33.6052ZM36.406 5.00178L37.0007 5.65546C38.6467 4.15805 41.1411 3.33754 44.6333 3.33754V2.45383V1.57013C40.8902 1.57013 37.8997 2.44825 35.8113 4.3481L36.406 5.00178ZM44.6333 2.45383V3.33754C47.489 3.33754 49.8691 4.0939 51.822 5.57053L52.355 4.86563L52.888 4.16073C50.5878 2.42163 47.8201 1.57013 44.6333 1.57013V2.45383ZM52.355 4.86563L51.8268 5.57414C53.7187 6.98442 54.7406 9.03682 54.8366 11.8588L55.7198 11.8287L56.603 11.7987C56.4916 8.52631 55.2703 5.93664 52.8831 4.15712L52.355 4.86563ZM55.7198 11.8287V10.945L49.9626 10.945V11.8287V12.7124L55.7198 12.7124V11.8287ZM49.9626 11.8287L50.8447 11.7757C50.7245 9.77629 49.8201 8.25319 48.1132 7.36817L47.7064 8.15268L47.2997 8.93719C48.3936 9.50444 48.9933 10.432 49.0805 11.8818L49.9626 11.8287ZM47.7064 8.15268L48.1104 7.36668C47.0182 6.80542 45.7094 6.54932 44.2249 6.54932V7.43303V8.31674C45.5153 8.31674 46.5275 8.5404 47.3025 8.93868L47.7064 8.15268ZM44.2249 7.43303V6.54932C42.5717 6.54932 41.1479 6.88177 40.0344 7.63453L40.5294 8.36663L41.0243 9.09873C41.7521 8.60669 42.792 8.31674 44.2249 8.31674V7.43303ZM40.5294 8.36663L40.0344 7.63453C38.8697 8.42197 38.2647 9.56558 38.2647 10.9729H39.1484L40.0321 10.9729C40.0321 10.15 40.3478 9.55609 41.0243 9.09873L40.5294 8.36663ZM39.1484 10.9729H38.2647C38.2647 11.6193 38.4093 12.2273 38.7288 12.7658C39.0479 13.3038 39.5127 13.7241 40.0798 14.04L40.5099 13.268L40.94 12.4961C40.5995 12.3063 40.3836 12.0912 40.2488 11.8641C40.1145 11.6376 40.0321 11.3509 40.0321 10.9729L39.1484 10.9729ZM40.5099 13.268L40.0678 14.0332C40.781 14.4452 42.1528 14.8649 44.0397 15.3142L44.2443 14.4545L44.449 13.5948C42.5237 13.1364 41.4059 12.7651 40.952 12.5029L40.5099 13.268ZM44.2443 14.4545L44.038 15.3138L48.9783 16.5002L49.1846 15.6409L49.391 14.7817L44.4507 13.5952L44.2443 14.4545ZM49.1846 15.6409L48.9788 16.5003C51.0848 17.0048 52.579 17.6594 53.539 18.4161L54.086 17.7221L54.6331 17.0281C53.3887 16.0472 51.6153 15.3144 49.3905 14.7815L49.1846 15.6409ZM54.086 17.7221L53.5391 18.4162C55.0001 19.5673 55.7697 21.2405 55.7697 23.5765L56.6534 23.5765H57.5371C57.5371 20.8037 56.5952 18.574 54.6329 17.0279L54.086 17.7221ZM56.6534 23.5765L55.7697 23.5765C55.7697 25.9349 54.8796 27.8708 53.0607 29.4432L53.6387 30.1117L54.2166 30.7802C56.4174 28.8776 57.5371 26.4567 57.5371 23.5765H56.6534ZM53.6387 30.1117L53.0611 29.4429C51.2773 30.9835 48.6846 31.8149 45.1585 31.8149V32.6986V33.5823C48.9456 33.5823 52.0064 32.6891 54.2163 30.7805L53.6387 30.1117ZM45.1585 32.6986V31.8149C41.551 31.8149 38.8317 30.9944 36.8971 29.4585L36.3476 30.1506L35.7982 30.8427C38.1426 32.7041 41.2971 33.5823 45.1585 33.5823V32.6986ZM36.3476 30.1506L36.8997 29.4606C34.9902 27.9329 34.0221 25.8508 34.0221 23.1097H33.1384H32.2547C32.2547 26.3333 33.4261 28.9451 35.7956 30.8407L36.3476 30.1506ZM33.1384 23.1097V23.9934L38.8567 23.9934V23.1097L38.8567 22.226L33.1384 22.226L33.1384 23.1097ZM57.503 3.29018V2.40648H56.6193V3.29018H57.503ZM63.5909 3.29018H64.4746V2.40648L63.5909 2.40648V3.29018ZM64.2911 25.2298L65.0964 24.8661L65.0872 24.8456L65.0769 24.8256L64.2911 25.2298ZM73.7632 25.2298L72.9773 24.8256L72.9671 24.8456L72.9578 24.8661L73.7632 25.2298ZM74.4634 3.29018V2.40648H73.5797V3.29018L74.4634 3.29018ZM80.5513 3.29018H81.435V2.40648H80.5513V3.29018ZM79.1314 28.0306L79.9003 28.4663L79.9033 28.4607L79.1314 28.0306ZM58.9229 28.0306L58.1509 28.4608L58.1554 28.4687L58.9229 28.0306ZM57.503 3.29018V4.17389L63.5909 4.17389V3.29018V2.40648L57.503 2.40648V3.29018ZM63.5909 3.29018L62.7072 3.29018V20.9119H63.5909H64.4746V3.29018H63.5909ZM63.5909 20.9119H62.7072C62.7072 22.9157 62.9383 24.5317 63.5052 25.6339L64.2911 25.2298L65.0769 24.8256C64.7102 24.1125 64.4746 22.8499 64.4746 20.9119H63.5909ZM64.2911 25.2298L63.4857 25.5935C64.4094 27.639 66.4077 28.5253 69.0369 28.5253V27.6416V26.7579C66.7905 26.7579 65.625 26.0363 65.0964 24.8661L64.2911 25.2298ZM69.0369 27.6416V28.5253C71.6557 28.5253 73.6456 27.6372 74.5686 25.5935L73.7632 25.2298L72.9578 24.8661C72.4285 26.0381 71.2675 26.7579 69.0369 26.7579V27.6416ZM73.7632 25.2298L74.5491 25.6339C75.1159 24.5317 75.3471 22.9157 75.3471 20.9119H74.4634H73.5797C73.5797 22.8499 73.3441 24.1125 72.9773 24.8256L73.7632 25.2298ZM74.4634 20.9119H75.3471V3.29018H74.4634L73.5797 3.29018V20.9119H74.4634ZM74.4634 3.29018V4.17389H80.5513V3.29018V2.40648L74.4634 2.40648V3.29018ZM80.5513 3.29018L79.6675 3.29018V20.9119H80.5513H81.435V3.29018H80.5513ZM80.5513 20.9119H79.6675C79.6675 23.8859 79.2025 26.0875 78.3595 27.6004L79.1314 28.0306L79.9033 28.4607C80.9534 26.5764 81.435 24.0322 81.435 20.9119H80.5513ZM79.1314 28.0306L78.3626 27.5949C76.8143 30.3271 73.8239 31.8149 69.0369 31.8149V32.6986V33.5823C74.1823 33.5823 77.9216 31.958 79.9002 28.4663L79.1314 28.0306ZM69.0369 32.6986V31.8149C64.2502 31.8149 61.2514 30.3272 59.6903 27.5925L58.9229 28.0306L58.1554 28.4687C60.1472 31.9579 63.891 33.5823 69.0369 33.5823V32.6986ZM58.9229 28.0306L59.6948 27.6004C58.8517 26.0875 58.3867 23.8859 58.3867 20.9119H57.503H56.6193C56.6193 24.0322 57.1009 26.5764 58.1509 28.4607L58.9229 28.0306ZM57.503 20.9119H58.3867V3.29018L57.503 3.29018H56.6193V20.9119H57.503ZM90.5423 21.1258L89.7025 20.8507L89.3229 22.0095H90.5423V21.1258ZM97.8166 21.1258V22.0095H99.0241L98.659 20.8586L97.8166 21.1258ZM94.2378 9.84483L95.0802 9.57761L94.2513 6.96495L93.398 9.56972L94.2378 9.84483ZM90.9119 3.29018V2.40648H90.2889L90.0796 2.99317L90.9119 3.29018ZM97.6805 3.29018L98.5135 2.99518L98.305 2.40648H97.6805V3.29018ZM107.833 31.9595V32.8432H109.084L108.666 31.6645L107.833 31.9595ZM101.337 31.9595L100.494 32.2239L100.688 32.8432H101.337V31.9595ZM99.4893 26.0661L100.333 25.8017L100.138 25.1824H99.4893V26.0661ZM88.928 26.0661V25.1824H88.293L88.0905 25.7842L88.928 26.0661ZM86.9441 31.9595V32.8432H87.579L87.7816 32.2414L86.9441 31.9595ZM80.6812 31.9595L79.8489 31.6625L79.4275 32.8432H80.6812V31.9595ZM90.5423 21.1258V22.0095H97.8166V21.1258V20.2421H90.5423V21.1258ZM97.8166 21.1258L98.659 20.8586L95.0802 9.57761L94.2378 9.84483L93.3955 10.1121L96.9743 21.393L97.8166 21.1258ZM94.2378 9.84483L93.398 9.56972L89.7025 20.8507L90.5423 21.1258L91.3821 21.4009L95.0776 10.1199L94.2378 9.84483ZM90.9119 3.29018V4.17389L97.6805 4.17389V3.29018V2.40648L90.9119 2.40648V3.29018ZM97.6805 3.29018L96.8475 3.58518L107 32.2545L107.833 31.9595L108.666 31.6645L98.5135 2.99518L97.6805 3.29018ZM107.833 31.9595V31.0758H101.337V31.9595V32.8432H107.833V31.9595ZM101.337 31.9595L102.18 31.6951L100.333 25.8017L99.4893 26.0661L98.6461 26.3305L100.494 32.2239L101.337 31.9595ZM99.4893 26.0661V25.1824H88.928V26.0661V26.9498H99.4893V26.0661ZM88.928 26.0661L88.0905 25.7842L86.1066 31.6775L86.9441 31.9595L87.7816 32.2414L89.7655 26.3481L88.928 26.0661ZM86.9441 31.9595V31.0758H80.6812V31.9595V32.8432H86.9441V31.9595ZM80.6812 31.9595L81.5135 32.2565L91.7442 3.58719L90.9119 3.29018L90.0796 2.99317L79.8489 31.6625L80.6812 31.9595ZM107.905 3.29018V2.40648H107.021V3.29018L107.905 3.29018ZM113.896 3.29018H114.779V2.40648H113.896V3.29018ZM113.896 26.8052H113.012V27.6889H113.896V26.8052ZM128.094 26.8052H128.978V25.9215H128.094V26.8052ZM128.094 31.9595V32.8432H128.978V31.9595H128.094ZM107.905 31.9595H107.021V32.8432H107.905V31.9595ZM107.905 3.29018V4.17389H113.896V3.29018V2.40648L107.905 2.40648V3.29018ZM113.896 3.29018H113.012V26.8052H113.896H114.779V3.29018H113.896ZM113.896 26.8052V27.6889L128.094 27.6889V26.8052V25.9215L113.896 25.9215V26.8052ZM128.094 26.8052H127.21V31.9595H128.094H128.978V26.8052H128.094ZM128.094 31.9595V31.0758L107.905 31.0758V31.9595V32.8432L128.094 32.8432V31.9595ZM107.905 31.9595H108.789V3.29018H107.905L107.021 3.29018V31.9595H107.905ZM141.288 8.26938V7.38567H140.404V8.26938H141.288ZM141.288 14.5906H140.404V15.4743H141.288V14.5906ZM151.383 13.8904L151.837 14.6482L151.841 14.646L151.383 13.8904ZM151.013 8.71673L151.35 7.8998L151.322 7.88809L151.293 7.87837L151.013 8.71673ZM141.288 19.3364V18.4527H140.404V19.3364H141.288ZM141.288 26.9803H140.404V27.864H141.288V26.9803ZM151.266 26.4746L151.649 27.2708L151.655 27.2682L151.266 26.4746ZM151.324 19.8227L150.96 20.6277L150.96 20.6278L151.324 19.8227ZM148.426 19.3364L148.435 18.4527H148.426V19.3364ZM149.496 3.29018L149.509 2.40648H149.496V3.29018ZM156.965 6.34383L157.681 5.82585L157.676 5.81883L156.965 6.34383ZM156.965 14.9407L156.285 14.3766L156.284 14.3779L156.965 14.9407ZM154.786 16.5745L154.383 15.7884L152.58 16.7141L154.485 17.4052L154.786 16.5745ZM158.093 19.103L157.349 19.5796L157.353 19.5855L158.093 19.103ZM157.937 27.875L157.191 27.4015L157.187 27.4084L157.182 27.4155L157.937 27.875ZM155.895 30.1312L155.367 29.4228L155.36 29.4278L155.895 30.1312ZM152.627 31.5705L152.449 30.705L152.447 30.7053L152.627 31.5705ZM135.57 31.9595H134.686V32.8432H135.57V31.9595ZM135.57 3.29018V2.40648H134.686V3.29018L135.57 3.29018ZM141.288 8.26938H140.404V14.5906H141.288H142.172V8.26938L141.288 8.26938ZM141.288 14.5906V15.4743H148.329V14.5906V13.7069H141.288V14.5906ZM148.329 14.5906V15.4743C149.688 15.4743 150.879 15.2233 151.837 14.6482L151.383 13.8904L150.928 13.1327C150.331 13.4912 149.486 13.7069 148.329 13.7069V14.5906ZM151.383 13.8904L151.841 14.646C152.976 13.9576 153.453 12.7701 153.453 11.3619H152.569H151.685C151.685 12.3656 151.371 12.8638 150.924 13.1349L151.383 13.8904ZM152.569 11.3619H153.453C153.453 10.5836 153.302 9.86302 152.942 9.2509C152.575 8.62785 152.029 8.17964 151.35 7.8998L151.013 8.71673L150.676 9.53366C151.035 9.68172 151.266 9.88832 151.418 10.147C151.577 10.4166 151.685 10.8047 151.685 11.3619H152.569ZM151.013 8.71673L151.293 7.87837C150.276 7.53954 149.032 7.38567 147.59 7.38567V8.26938V9.15309C148.923 9.15309 149.961 9.29745 150.734 9.55509L151.013 8.71673ZM147.59 8.26938V7.38567L141.288 7.38567V8.26938V9.15309H147.59V8.26938ZM141.288 19.3364H140.404V26.9803H141.288H142.172V19.3364H141.288ZM141.288 26.9803V27.864L148.329 27.864V26.9803V26.0966L141.288 26.0966V26.9803ZM148.329 26.9803V27.864C149.647 27.864 150.778 27.6904 151.649 27.2708L151.266 26.4746L150.883 25.6784C150.354 25.933 149.527 26.0966 148.329 26.0966V26.9803ZM151.266 26.4746L151.655 27.2682C153.309 26.458 154.056 24.8966 154.056 22.8958H153.172H152.288C152.288 24.4218 151.765 25.2463 150.877 25.681L151.266 26.4746ZM153.172 22.8958H154.056C154.056 22.0292 153.876 21.2337 153.467 20.5538C153.055 19.8681 152.446 19.3603 151.689 19.0176L151.324 19.8227L150.96 20.6278C151.435 20.8426 151.749 21.1257 151.953 21.4645C152.16 21.8089 152.288 22.2712 152.288 22.8958H153.172ZM151.324 19.8227L151.689 19.0177C150.84 18.6334 149.733 18.4663 148.435 18.4528L148.426 19.3364L148.417 20.2201C149.609 20.2325 150.434 20.3895 150.96 20.6277L151.324 19.8227ZM148.426 19.3364V18.4527L141.288 18.4527V19.3364V20.2201L148.426 20.2201V19.3364ZM149.496 3.29018L149.483 4.17379C152.845 4.22341 155.014 5.19031 156.254 6.86884L156.965 6.34383L157.676 5.81883C155.985 3.52956 153.175 2.46068 149.509 2.40657L149.496 3.29018ZM156.965 6.34383L156.249 6.86179C157.008 7.91085 157.404 9.18239 157.404 10.7201H158.287H159.171C159.171 8.8605 158.685 7.21455 157.681 5.82587L156.965 6.34383ZM158.287 10.7201H157.404C157.404 12.3209 157.003 13.5105 156.285 14.3766L156.965 14.9407L157.645 15.5048C158.69 14.2444 159.171 12.6202 159.171 10.7201H158.287ZM156.965 14.9407L156.284 14.3779C155.891 14.853 155.275 15.3303 154.383 15.7884L154.786 16.5745L155.19 17.3606C156.217 16.8332 157.053 16.2213 157.646 15.5035L156.965 14.9407ZM154.786 16.5745L154.485 17.4052C155.794 17.8802 156.728 18.6111 157.349 19.5796L158.093 19.103L158.837 18.6264C157.979 17.2869 156.709 16.3321 155.088 15.7438L154.786 16.5745ZM158.093 19.103L157.353 19.5855C157.994 20.57 158.337 21.7948 158.337 23.3042H159.221H160.105C160.105 21.5201 159.696 19.9441 158.833 18.6205L158.093 19.103ZM159.221 23.3042H158.337C158.337 24.8463 157.951 26.2036 157.191 27.4015L157.937 27.875L158.683 28.3485C159.635 26.8492 160.105 25.1594 160.105 23.3042H159.221ZM157.937 27.875L157.182 27.4155C156.695 28.2162 156.09 28.883 155.367 29.4229L155.895 30.1312L156.424 30.8395C157.334 30.1605 158.09 29.3231 158.692 28.3345L157.937 27.875ZM155.895 30.1312L155.36 29.4278C154.556 30.0395 153.592 30.4694 152.449 30.705L152.627 31.5705L152.806 32.436C154.179 32.1529 155.393 31.6232 156.43 30.8346L155.895 30.1312ZM152.627 31.5705L152.447 30.7053C151.27 30.9506 149.976 31.0758 148.562 31.0758V31.9595V32.8432C150.079 32.8432 151.495 32.709 152.808 32.4356L152.627 31.5705ZM148.562 31.9595V31.0758L135.57 31.0758V31.9595V32.8432L148.562 32.8432V31.9595ZM135.57 31.9595H136.454V3.29018H135.57L134.686 3.29018V31.9595H135.57ZM135.57 3.29018V4.17389L149.496 4.17389V3.29018V2.40648L135.57 2.40648V3.29018ZM166.664 8.26938V7.38567H165.78V8.26938H166.664ZM166.664 15.9716H165.78V16.8553H166.664V15.9716ZM176.486 15.5048L176.119 14.7009L176.116 14.7024L176.486 15.5048ZM176.545 8.77508L176.137 9.55912L176.139 9.56013L176.545 8.77508ZM174.872 3.29018L174.889 2.40664L174.881 2.40648H174.872V3.29018ZM179.501 4.02928L179.158 4.84356L179.161 4.84501L179.501 4.02928ZM182.263 6.03263L181.591 6.60611L181.592 6.60774L182.263 6.03263ZM183.255 15.4853L184.038 15.896L184.039 15.8928L183.255 15.4853ZM179.851 18.2667L179.564 17.4311L177.322 18.2026L179.522 19.0866L179.851 18.2667ZM182.652 20.5423L181.878 20.9698L181.885 20.9819L182.652 20.5423ZM183.644 29.606L184.509 29.424L184.507 29.4143L183.644 29.606ZM184.733 31.2398H185.617V30.7453L185.195 30.4866L184.733 31.2398ZM184.733 31.9595V32.8432H185.617V31.9595H184.733ZM178.14 31.9595L177.29 32.2022L177.473 32.8432H178.14V31.9595ZM177.751 30.4229L176.883 30.5908L176.884 30.5962L177.751 30.4229ZM177.498 27.9528L176.614 27.9657L176.614 27.9664L177.498 27.9528ZM177.459 25.2881L176.575 25.3007L176.575 25.301L177.459 25.2881ZM176.448 21.6315L175.836 22.2693L175.842 22.2754L176.448 21.6315ZM166.664 20.7174V19.8337H165.78V20.7174H166.664ZM166.664 31.9595V32.8432H167.548V31.9595L166.664 31.9595ZM160.81 31.9595H159.926V32.8432H160.81V31.9595ZM160.81 3.29018V2.40648H159.926V3.29018H160.81ZM166.664 8.26938H165.78V15.9716H166.664H167.548V8.26938H166.664ZM166.664 15.9716V16.8553H173.452V15.9716V15.0879L166.664 15.0879V15.9716ZM173.452 15.9716V16.8553C174.841 16.8553 176.007 16.6994 176.857 16.3071L176.486 15.5048L176.116 14.7024C175.617 14.9326 174.761 15.0879 173.452 15.0879V15.9716ZM176.486 15.5048L176.853 16.3087C177.61 15.9633 178.205 15.4322 178.601 14.7175C178.991 14.0142 179.16 13.1853 179.16 12.2761H178.276H177.392C177.392 12.9747 177.262 13.4879 177.056 13.8608C176.855 14.2223 176.556 14.5016 176.119 14.7009L176.486 15.5048ZM178.276 12.2761H179.16C179.16 10.3376 178.498 8.7897 176.951 7.99003L176.545 8.77508L176.139 9.56013C176.9 9.95339 177.392 10.7395 177.392 12.2761H178.276ZM176.545 8.77508L176.952 7.99104C176.115 7.55564 174.972 7.38567 173.627 7.38567V8.26938V9.15309C174.876 9.15309 175.678 9.32025 176.137 9.55912L176.545 8.77508ZM173.627 8.26938V7.38567L166.664 7.38567V8.26938V9.15309L173.627 9.15309V8.26938ZM174.872 3.29018L174.855 4.17372C176.822 4.21179 178.234 4.45388 179.158 4.84355L179.501 4.02928L179.845 3.21501C178.616 2.69702 176.942 2.44638 174.889 2.40664L174.872 3.29018ZM179.501 4.02928L179.161 4.84501C180.125 5.24638 180.931 5.83213 181.591 6.60611L182.263 6.03263L182.935 5.45915C182.091 4.46966 181.056 3.71985 179.841 3.21355L179.501 4.02928ZM182.263 6.03263L181.592 6.60774C182.154 7.26281 182.597 7.98623 182.924 8.7809L183.741 8.44443L184.558 8.10796C184.159 7.13916 183.617 6.25472 182.934 5.45752L182.263 6.03263ZM183.741 8.44443L182.924 8.7809C183.236 9.53825 183.402 10.4258 183.402 11.4592H184.286H185.17C185.17 10.2364 184.973 9.11407 184.558 8.10796L183.741 8.44443ZM184.286 11.4592H183.402C183.402 12.6657 183.099 13.869 182.471 15.0779L183.255 15.4853L184.039 15.8928C184.785 14.4565 185.17 12.9756 185.17 11.4592H184.286ZM183.255 15.4853L182.472 15.0747C181.904 16.1582 180.963 16.9495 179.564 17.4311L179.851 18.2667L180.139 19.1023C181.904 18.4947 183.232 17.4317 184.038 15.896L183.255 15.4853ZM179.851 18.2667L179.522 19.0866C180.707 19.563 181.456 20.2053 181.879 20.9698L182.652 20.5423L183.426 20.1149C182.759 18.9084 181.641 18.0336 180.181 17.4467L179.851 18.2667ZM182.652 20.5423L181.885 20.9819C182.327 21.7521 182.605 23.0552 182.605 25.0158H183.488H184.372C184.372 22.9567 184.092 21.2775 183.419 20.1028L182.652 20.5423ZM183.488 25.0158H182.605V26.9414H183.488H184.372V25.0158H183.488ZM183.488 26.9414H182.605C182.605 28.241 182.654 29.2227 182.781 29.7977L183.644 29.606L184.507 29.4143C184.427 29.0557 184.372 28.261 184.372 26.9414H183.488ZM183.644 29.606L182.779 29.7881C182.978 30.7312 183.466 31.499 184.271 31.993L184.733 31.2398L185.195 30.4866C184.859 30.2804 184.621 29.959 184.509 29.424L183.644 29.606ZM184.733 31.2398H183.849V31.9595H184.733H185.617V31.2398H184.733ZM184.733 31.9595V31.0758H178.14V31.9595V32.8432H184.733V31.9595ZM178.14 31.9595L178.989 31.7167C178.811 31.0914 178.688 30.605 178.617 30.2496L177.751 30.4229L176.884 30.5962C176.969 31.0188 177.106 31.5569 177.29 32.2022L178.14 31.9595ZM177.751 30.4229L178.618 30.255C178.473 29.5034 178.394 28.7317 178.381 27.9392L177.498 27.9528L176.614 27.9664C176.628 28.8595 176.717 29.7346 176.883 30.5908L177.751 30.4229ZM177.498 27.9528L178.381 27.9399L178.343 25.2752L177.459 25.2881L176.575 25.301L176.614 27.9657L177.498 27.9528ZM177.459 25.2881L178.343 25.2756C178.329 24.3164 178.234 23.4737 178.038 22.7672C177.844 22.064 177.535 21.4406 177.053 20.9876L176.448 21.6315L175.842 22.2754C176.009 22.4319 176.192 22.7226 176.335 23.2383C176.477 23.7507 176.563 24.4316 176.575 25.3007L177.459 25.2881ZM176.448 21.6315L177.059 20.9938C176.158 20.129 174.644 19.8337 172.849 19.8337V20.7174V21.6011C174.582 21.6011 175.467 21.9152 175.836 22.2693L176.448 21.6315ZM172.849 20.7174V19.8337L166.664 19.8337V20.7174V21.6011L172.849 21.6011V20.7174ZM166.664 20.7174H165.78V31.9595H166.664L167.548 31.9595V20.7174L166.664 20.7174ZM166.664 31.9595V31.0758H160.81V31.9595V32.8432H166.664V31.9595ZM160.81 31.9595H161.693V3.29018H160.81H159.926V31.9595H160.81ZM160.81 3.29018V4.17389L174.872 4.17389V3.29018V2.40648L160.81 2.40648V3.29018ZM207.075 8.36663V9.25034H207.959V8.36663H207.075ZM191.904 8.36663V7.48292L191.02 7.48292V8.36663L191.904 8.36663ZM191.904 14.4545H191.02V15.3382H191.904V14.4545ZM205.83 14.4545H206.714V13.5708H205.83V14.4545ZM205.83 19.4337V20.3174H206.714V19.4337H205.83ZM191.904 19.4337V18.55H191.02V19.4337H191.904ZM191.904 26.8052H191.02V27.6889H191.904V26.8052ZM207.775 26.8052H208.659V25.9215H207.775V26.8052ZM207.775 31.9595V32.8432H208.659V31.9595H207.775ZM186.05 31.9595H185.166V32.8432H186.05V31.9595ZM186.05 3.29018V2.40648L185.166 2.40648V3.29018H186.05ZM207.075 3.29018H207.959V2.40648L207.075 2.40648V3.29018ZM207.075 8.36663V7.48292L191.904 7.48292V8.36663V9.25034L207.075 9.25034V8.36663ZM191.904 8.36663L191.02 8.36663V14.4545H191.904H192.788V8.36663H191.904ZM191.904 14.4545V15.3382L205.83 15.3382V14.4545V13.5708L191.904 13.5708V14.4545ZM205.83 14.4545L204.947 14.4545V19.4337H205.83H206.714V14.4545H205.83ZM205.83 19.4337V18.55H191.904V19.4337V20.3174H205.83V19.4337ZM191.904 19.4337H191.02V26.8052H191.904H192.788V19.4337H191.904ZM191.904 26.8052V27.6889H207.775V26.8052V25.9215H191.904V26.8052ZM207.775 26.8052H206.892V31.9595H207.775H208.659V26.8052H207.775ZM207.775 31.9595V31.0758L186.05 31.0758V31.9595V32.8432H207.775V31.9595ZM186.05 31.9595H186.933V3.29018H186.05H185.166V31.9595H186.05ZM186.05 3.29018V4.17389L207.075 4.17389V3.29018V2.40648L186.05 2.40648V3.29018ZM207.075 3.29018L206.191 3.29018V8.36663H207.075H207.959V3.29018H207.075ZM216.697 21.1258L215.857 20.8507L215.477 22.0095H216.697V21.1258ZM223.971 21.1258V22.0095H225.178L224.813 20.8586L223.971 21.1258ZM220.392 9.84483L221.234 9.57761L220.406 6.96495L219.552 9.56972L220.392 9.84483ZM217.066 3.29018V2.40648H216.443L216.234 2.99317L217.066 3.29018ZM223.835 3.29018L224.668 2.99518L224.459 2.40648L223.835 2.40648V3.29018ZM233.988 31.9595V32.8432H235.238L234.821 31.6645L233.988 31.9595ZM227.491 31.9595L226.648 32.2239L226.842 32.8432H227.491V31.9595ZM225.644 26.0661L226.487 25.8017L226.293 25.1824H225.644V26.0661ZM215.082 26.0661V25.1824H214.447L214.245 25.7842L215.082 26.0661ZM213.098 31.9595V32.8432H213.733L213.936 32.2414L213.098 31.9595ZM206.835 31.9595L206.003 31.6625L205.582 32.8432H206.835V31.9595ZM216.697 21.1258V22.0095H223.971V21.1258V20.2421H216.697V21.1258ZM223.971 21.1258L224.813 20.8586L221.234 9.57761L220.392 9.84483L219.55 10.1121L223.128 21.393L223.971 21.1258ZM220.392 9.84483L219.552 9.56972L215.857 20.8507L216.697 21.1258L217.536 21.4009L221.232 10.1199L220.392 9.84483ZM217.066 3.29018V4.17389L223.835 4.17389V3.29018V2.40648L217.066 2.40648V3.29018ZM223.835 3.29018L223.002 3.58518L233.155 32.2545L233.988 31.9595L234.821 31.6645L224.668 2.99518L223.835 3.29018ZM233.988 31.9595V31.0758L227.491 31.0758V31.9595V32.8432L233.988 32.8432V31.9595ZM227.491 31.9595L228.335 31.6951L226.487 25.8017L225.644 26.0661L224.8 26.3305L226.648 32.2239L227.491 31.9595ZM225.644 26.0661V25.1824H215.082V26.0661V26.9498H225.644V26.0661ZM215.082 26.0661L214.245 25.7842L212.261 31.6775L213.098 31.9595L213.936 32.2414L215.92 26.3481L215.082 26.0661ZM213.098 31.9595V31.0758L206.835 31.0758V31.9595V32.8432L213.098 32.8432V31.9595ZM206.835 31.9595L207.668 32.2565L217.898 3.58719L217.066 3.29018L216.234 2.99317L206.003 31.6625L206.835 31.9595ZM234.156 3.29018V2.40648H233.273V3.29018H234.156ZM240.05 3.29018H240.933V2.40648L240.05 2.40648V3.29018ZM240.05 15.0963H239.166V17.3312L240.694 15.7007L240.05 15.0963ZM251.117 3.29018V2.40648H250.734L250.472 2.68581L251.117 3.29018ZM258.858 3.29018L259.484 3.91351L260.984 2.40648H258.858V3.29018ZM247.11 15.0963L246.484 14.473L245.951 15.0088L246.397 15.6185L247.11 15.0963ZM259.461 31.9595V32.8432H261.203L260.174 31.4373L259.461 31.9595ZM251.759 31.9595L251.037 32.4694L251.301 32.8432H251.759V31.9595ZM242.909 19.4337L243.631 18.9238L243.017 18.0555L242.276 18.8172L242.909 19.4337ZM240.05 22.3706L239.417 21.7542L239.166 22.0115V22.3706H240.05ZM240.05 31.9595V32.8432H240.933V31.9595H240.05ZM234.156 31.9595H233.273V32.8432H234.156V31.9595ZM234.156 3.29018V4.17389L240.05 4.17389V3.29018V2.40648L234.156 2.40648V3.29018ZM240.05 3.29018L239.166 3.29018V15.0963H240.05H240.933V3.29018H240.05ZM240.05 15.0963L240.694 15.7007L251.762 3.89455L251.117 3.29018L250.472 2.68581L239.405 14.492L240.05 15.0963ZM251.117 3.29018V4.17389H258.858V3.29018V2.40648L251.117 2.40648V3.29018ZM258.858 3.29018L258.231 2.66686L246.484 14.473L247.11 15.0963L247.737 15.7197L259.484 3.91351L258.858 3.29018ZM247.11 15.0963L246.397 15.6185L258.748 32.4816L259.461 31.9595L260.174 31.4373L247.823 14.5742L247.11 15.0963ZM259.461 31.9595V31.0758L251.759 31.0758V31.9595V32.8432H259.461V31.9595ZM251.759 31.9595L252.48 31.4495L243.631 18.9238L242.909 19.4337L242.187 19.9436L251.037 32.4694L251.759 31.9595ZM242.909 19.4337L242.276 18.8172L239.417 21.7542L240.05 22.3706L240.683 22.9871L243.542 20.0501L242.909 19.4337ZM240.05 22.3706H239.166V31.9595H240.05H240.933V22.3706H240.05ZM240.05 31.9595V31.0758H234.156V31.9595V32.8432H240.05V31.9595ZM234.156 31.9595H235.04V3.29018L234.156 3.29018H233.273V31.9595H234.156ZM265.076 8.26938V7.38567H264.192V8.26938H265.076ZM265.076 26.9803H264.192V27.864H265.076V26.9803ZM276.512 22.7985L277.333 23.1267L277.333 23.1255L276.512 22.7985ZM276.045 10.6228L275.281 11.0654L275.285 11.0728L276.045 10.6228ZM271.611 3.29018L271.624 2.40648H271.611V3.29018ZM276.045 3.91258L275.769 4.75186L275.769 4.75202L276.045 3.91258ZM280.927 7.54973L281.651 7.04295L281.649 7.04011L280.927 7.54973ZM281.219 26.6107L281.983 27.0551L281.984 27.0532L281.219 26.6107ZM259.26 31.9595H258.376V32.8432H259.26V31.9595ZM259.26 3.29018V2.40648L258.376 2.40648V3.29018L259.26 3.29018ZM265.076 8.26938H264.192V26.9803H265.076H265.959V8.26938H265.076ZM265.076 26.9803V27.864H270.599V26.9803V26.0966H265.076V26.9803ZM270.599 26.9803V27.864C272.163 27.864 273.549 27.476 274.708 26.6563C275.863 25.8394 276.727 24.6403 277.333 23.1267L276.512 22.7985L275.692 22.4703C275.182 23.7446 274.503 24.6363 273.687 25.2133C272.875 25.7876 271.862 26.0966 270.599 26.0966V26.9803ZM276.512 22.7985L277.333 23.1255C277.994 21.4665 278.31 19.5283 278.31 17.3331H277.426L276.543 17.3331C276.543 19.365 276.249 21.0704 275.691 22.4715L276.512 22.7985ZM277.426 17.3331H278.31C278.31 14.3448 277.842 11.9246 276.806 10.1728L276.045 10.6228L275.285 11.0728C276.09 12.4331 276.543 14.4864 276.543 17.3331L277.426 17.3331ZM276.045 10.6228L276.81 10.1803C275.674 8.21644 273.466 7.38567 270.599 7.38567V8.26938V9.15309C273.179 9.15309 274.601 9.89129 275.281 11.0653L276.045 10.6228ZM270.599 8.26938V7.38567L265.076 7.38567V8.26938V9.15309H270.599V8.26938ZM271.611 3.29018L271.598 4.17379C273.32 4.19893 274.702 4.40015 275.769 4.75186L276.045 3.91258L276.322 3.07331C275.029 2.64702 273.455 2.4333 271.624 2.40657L271.611 3.29018ZM276.045 3.91258L275.769 4.75202C277.595 5.35277 279.068 6.44743 280.205 8.05935L280.927 7.54973L281.649 7.04011C280.298 5.12509 278.516 3.79499 276.322 3.07315L276.045 3.91258ZM280.927 7.54973L280.203 8.0565C281.137 9.38954 281.769 10.8249 282.106 12.3677L282.97 12.1788L283.833 11.99C283.444 10.2132 282.715 8.56259 281.651 7.04296L280.927 7.54973ZM282.97 12.1788L282.106 12.3677C282.458 13.9732 282.631 15.4915 282.631 16.9246L283.514 16.9246H284.398C284.398 15.3494 284.208 13.7039 283.833 11.99L282.97 12.1788ZM283.514 16.9246L282.631 16.9246C282.631 20.6195 281.889 23.687 280.454 26.1683L281.219 26.6107L281.984 27.0532C283.609 24.244 284.398 20.8542 284.398 16.9246H283.514ZM281.219 26.6107L280.455 26.1663C278.548 29.444 275.646 31.0758 271.611 31.0758V31.9595V32.8432C276.237 32.8432 279.741 30.9092 281.983 27.0551L281.219 26.6107ZM271.611 31.9595V31.0758H259.26V31.9595V32.8432H271.611V31.9595ZM259.26 31.9595H260.144V3.29018H259.26L258.376 3.29018V31.9595H259.26ZM259.26 3.29018V4.17389L271.611 4.17389V3.29018V2.40648L259.26 2.40648V3.29018ZM302.783 25.0547L302.093 24.5027L302.09 24.5058L302.783 25.0547ZM302.783 10.1366L302.088 10.683L302.093 10.6886L302.783 10.1366ZM306.537 29.4115L305.929 28.7696L305.916 28.7825L305.903 28.7959L306.537 29.4115ZM287.748 29.4115L288.382 28.7959L288.368 28.7818L288.354 28.7683L287.748 29.4115ZM287.748 5.76033L288.342 6.41515L288.363 6.39618L288.382 6.37592L287.748 5.76033ZM306.537 5.76033L305.903 6.37592L305.922 6.39548L305.942 6.41382L306.537 5.76033ZM297.143 27.6805V28.5642C299.766 28.5642 301.909 27.5804 303.476 25.6036L302.783 25.0547L302.09 24.5058C300.882 26.0301 299.265 26.7968 297.143 26.7968V27.6805ZM302.783 25.0547L303.473 25.6068C305.044 23.6435 305.767 20.9293 305.767 17.5859H304.884H304C304 20.6999 303.323 22.9649 302.093 24.5027L302.783 25.0547ZM304.884 17.5859H305.767C305.767 14.2545 305.043 11.5472 303.473 9.58453L302.783 10.1366L302.093 10.6886C303.324 12.2269 304 14.4859 304 17.5859H304.884ZM302.783 10.1366L303.478 9.59016C301.912 7.59995 299.768 6.60767 297.143 6.60767V7.49138V8.37509C299.262 8.37509 300.879 9.14628 302.088 10.683L302.783 10.1366ZM297.143 7.49138V6.60767C294.519 6.60767 292.367 7.59095 290.776 9.56198L291.463 10.1171L292.151 10.6723C293.386 9.14231 295.02 8.37509 297.143 8.37509V7.49138ZM291.463 10.1171L290.776 9.56198C289.19 11.5255 288.459 14.241 288.459 17.5859H289.343H290.227C290.227 14.4735 290.909 12.2098 292.151 10.6723L291.463 10.1171ZM289.343 17.5859H288.459C288.459 20.9309 289.19 23.6464 290.776 25.6099L291.463 25.0547L292.151 24.4996C290.909 22.9621 290.227 20.6984 290.227 17.5859H289.343ZM291.463 25.0547L290.776 25.6099C292.367 27.5809 294.519 28.5642 297.143 28.5642V27.6805V26.7968C295.02 26.7968 293.386 26.0295 292.151 24.4996L291.463 25.0547ZM310.874 17.5859H309.99C309.99 22.5658 308.597 26.2459 305.929 28.7696L306.537 29.4115L307.144 30.0534C310.26 27.1052 311.758 22.9015 311.758 17.5859H310.874ZM306.537 29.4115L305.903 28.7959C303.952 30.8053 301.08 31.8732 297.143 31.8732V32.7569V33.6406C301.4 33.6406 304.791 32.4783 307.171 30.0271L306.537 29.4115ZM297.143 32.7569V31.8732C293.205 31.8732 290.333 30.8053 288.382 28.7959L287.748 29.4115L287.114 30.0271C289.494 32.4783 292.885 33.6406 297.143 33.6406V32.7569ZM287.748 29.4115L288.354 28.7683C285.675 26.2443 284.275 22.5647 284.275 17.5859H283.391H282.508C282.508 22.9027 284.013 27.1068 287.142 30.0548L287.748 29.4115ZM283.391 17.5859H284.275C284.275 12.4951 285.679 8.8283 288.342 6.41515L287.748 5.76033L287.155 5.10552C284.008 7.95683 282.508 12.1738 282.508 17.5859H283.391ZM287.748 5.76033L288.382 6.37592C290.333 4.36658 293.205 3.29864 297.143 3.29864V2.41493V1.53123C292.885 1.53123 289.494 2.69355 287.114 5.14474L287.748 5.76033ZM297.143 2.41493V3.29864C301.08 3.29864 303.952 4.36658 305.903 6.37592L306.537 5.76033L307.171 5.14474C304.791 2.69355 301.4 1.53123 297.143 1.53123V2.41493ZM306.537 5.76033L305.942 6.41382C308.593 8.82669 309.99 12.4939 309.99 17.5859H310.874H311.758C311.758 12.1749 310.264 7.95844 307.132 5.10684L306.537 5.76033ZM315.789 3.29018L316.65 3.09125L316.492 2.40648H315.789V3.29018ZM319.582 19.706L320.451 19.5505L320.448 19.5287L320.443 19.507L319.582 19.706ZM320.398 24.2767L319.529 24.4322L321.267 24.4391L320.398 24.2767ZM321.235 19.8032L320.367 19.6336L320.366 19.6408L321.235 19.8032ZM324.463 3.29018V2.40648H323.736L323.596 3.12061L324.463 3.29018ZM330.785 3.29018L331.65 3.11076L331.504 2.40648H330.785V3.29018ZM334.188 19.706L335.057 19.5398L335.054 19.5266L334.188 19.706ZM335.064 24.2767L334.196 24.4429L335.93 24.4493L335.064 24.2767ZM335.939 19.881L335.078 19.6822L335.075 19.6953L335.072 19.7085L335.939 19.881ZM339.771 3.29018V2.40648H339.068L338.91 3.09132L339.771 3.29018ZM345.858 3.29018L346.709 3.52967L347.025 2.40648L345.858 2.40648V3.29018ZM337.787 31.9595V32.8432H338.456L338.637 32.199L337.787 31.9595ZM332.068 31.9595L331.203 32.1382L331.349 32.8432H332.068V31.9595ZM328.606 15.1936L327.737 15.3522L327.739 15.3623L327.741 15.3723L328.606 15.1936ZM327.595 9.65033L328.464 9.49171L326.726 9.49171L327.595 9.65033ZM326.584 15.1936L327.449 15.3723L327.451 15.3623L327.453 15.3522L326.584 15.1936ZM323.121 31.9595V32.8432H323.841L323.987 32.1382L323.121 31.9595ZM317.559 31.9595L316.709 32.2006L316.891 32.8432H317.559V31.9595ZM309.429 3.29018V2.40648H308.259L308.578 3.53128L309.429 3.29018ZM315.789 3.29018L314.928 3.48911L318.721 19.9049L319.582 19.706L320.443 19.507L316.65 3.09125L315.789 3.29018ZM319.582 19.706L318.712 19.8615L319.529 24.4322L320.398 24.2767L321.268 24.1212L320.451 19.5505L319.582 19.706ZM320.398 24.2767L321.267 24.4391L322.103 19.9656L321.235 19.8032L320.366 19.6408L319.53 24.1143L320.398 24.2767ZM321.235 19.8032L322.102 19.9728L325.331 3.45976L324.463 3.29018L323.596 3.12061L320.368 19.6337L321.235 19.8032ZM324.463 3.29018V4.17389L330.785 4.17389V3.29018V2.40648L324.463 2.40648V3.29018ZM330.785 3.29018L329.919 3.4696L333.323 19.8854L334.188 19.706L335.054 19.5266L331.65 3.11076L330.785 3.29018ZM334.188 19.706L333.321 19.8722L334.196 24.4429L335.064 24.2767L335.932 24.1105L335.056 19.5398L334.188 19.706ZM335.064 24.2767L335.93 24.4493L336.806 20.0536L335.939 19.881L335.072 19.7085L334.197 24.1042L335.064 24.2767ZM335.939 19.881L336.8 20.0799L340.632 3.48904L339.771 3.29018L338.91 3.09132L335.078 19.6822L335.939 19.881ZM339.771 3.29018V4.17389H345.858V3.29018V2.40648L339.771 2.40648V3.29018ZM345.858 3.29018L345.008 3.05069L336.936 31.72L337.787 31.9595L338.637 32.199L346.709 3.52967L345.858 3.29018ZM337.787 31.9595V31.0758H332.068V31.9595V32.8432H337.787V31.9595ZM332.068 31.9595L332.934 31.7808L329.472 15.0149L328.606 15.1936L327.741 15.3723L331.203 32.1382L332.068 31.9595ZM328.606 15.1936L329.476 15.035L328.464 9.49171L327.595 9.65033L326.726 9.80895L327.737 15.3522L328.606 15.1936ZM327.595 9.65033L326.726 9.49171L325.714 15.035L326.584 15.1936L327.453 15.3522L328.464 9.80895L327.595 9.65033ZM326.584 15.1936L325.718 15.0149L322.256 31.7808L323.121 31.9595L323.987 32.1382L327.449 15.3723L326.584 15.1936ZM323.121 31.9595V31.0758L317.559 31.0758V31.9595V32.8432L323.121 32.8432V31.9595ZM317.559 31.9595L318.409 31.7184L310.279 3.04909L309.429 3.29018L308.578 3.53128L316.709 32.2006L317.559 31.9595ZM309.429 3.29018V4.17389L315.789 4.17389V3.29018V2.40648L309.429 2.40648V3.29018ZM345.813 3.29018V2.40648L344.93 2.40648V3.29018H345.813ZM352.096 3.29018L352.863 2.8523L352.609 2.40648L352.096 2.40648V3.29018ZM363.513 23.3042L362.745 23.7421L364.397 26.6368V23.3042H363.513ZM363.513 3.29018V2.40648L362.629 2.40648V3.29018H363.513ZM369.095 3.29018L369.979 3.29018V2.40648H369.095V3.29018ZM369.095 31.9595V32.8432H369.979V31.9595H369.095ZM363.104 31.9595L362.338 32.4L362.593 32.8432H363.104V31.9595ZM351.396 11.5953L352.162 11.1548L350.512 8.2855V11.5953H351.396ZM351.396 31.9595V32.8432H352.279V31.9595H351.396ZM345.813 31.9595H344.93V32.8432H345.813V31.9595ZM345.813 3.29018V4.17389L352.096 4.17389V3.29018V2.40648L345.813 2.40648V3.29018ZM352.096 3.29018L351.328 3.72806L362.745 23.7421L363.513 23.3042L364.28 22.8663L352.863 2.8523L352.096 3.29018ZM363.513 23.3042H364.397V3.29018L363.513 3.29018H362.629V23.3042H363.513ZM363.513 3.29018V4.17389H369.095V3.29018V2.40648L363.513 2.40648V3.29018ZM369.095 3.29018H368.211V31.9595H369.095H369.979V3.29018L369.095 3.29018ZM369.095 31.9595V31.0758L363.104 31.0758V31.9595V32.8432H369.095V31.9595ZM363.104 31.9595L363.871 31.519L352.162 11.1548L351.396 11.5953L350.629 12.0358L362.338 32.4L363.104 31.9595ZM351.396 11.5953H350.512V31.9595H351.396H352.279V11.5953H351.396ZM351.396 31.9595V31.0758H345.813V31.9595V32.8432H351.396V31.9595ZM345.813 31.9595H346.697V3.29018H345.813H344.93V31.9595H345.813ZM370.567 26.1634V25.2797H369.683V26.1634H370.567ZM376.46 26.1634H377.344V25.2797H376.46V26.1634ZM376.46 31.9595V32.8432H377.344V31.9595H376.46ZM370.567 31.9595H369.683V32.8432H370.567V31.9595ZM370.567 26.1634V27.0471H376.46V26.1634V25.2797H370.567V26.1634ZM376.46 26.1634H375.577V31.9595H376.46H377.344V26.1634H376.46ZM376.46 31.9595V31.0758H370.567V31.9595V32.8432H376.46V31.9595ZM370.567 31.9595H371.451V26.1634H370.567H369.683V31.9595H370.567Z" fill="black" mask="url(#path-7-outside-1_160_13)"/>
</svg>
