<svg width="403" height="82" viewBox="0 0 403 82" fill="none" xmlns="http://www.w3.org/2000/svg">
<mask id="path-1-outside-1_137_480" maskUnits="userSpaceOnUse" x="74" y="11" width="255" height="56" fill="black">
<rect fill="white" x="74" y="11" width="255" height="56"/>
<path d="M76.5179 13.5865L111.597 13.5865V22.2809L86.79 22.2809V33.6608H108.509V42.2544H86.79L86.79 63H76.5179L76.5179 13.5865ZM170.281 13.5194L181.124 13.5194L200.829 48.0618V13.5194L210.463 13.5194V63H200.124L179.916 27.8533V63H170.281V13.5194ZM238.26 25.5371C242.042 25.5371 245.13 26.533 247.525 28.5247C249.942 30.4941 251.15 33.7727 251.15 38.3604V63L241.348 63V40.7438C241.348 38.8192 241.091 37.3422 240.576 36.3127C239.636 34.4328 237.846 33.4929 235.205 33.4929C231.96 33.4929 229.733 34.8692 228.525 37.6219C227.898 39.0765 227.585 40.934 227.585 43.1943V63H218.051V26.477H227.283V31.8145C228.514 29.9346 229.677 28.5807 230.774 27.7526C232.743 26.2756 235.239 25.5371 238.26 25.5371ZM273.072 33.3251C270.856 33.3251 269.133 34.0188 267.902 35.4063C266.694 36.7939 265.933 38.6737 265.62 41.0459H280.491C280.334 38.5171 279.562 36.6036 278.174 35.3056C276.809 33.9853 275.109 33.3251 273.072 33.3251ZM273.072 25.4364C276.116 25.4364 278.857 26.007 281.296 27.1484C283.736 28.2897 285.75 30.0913 287.339 32.553C288.771 34.7238 289.7 37.2414 290.125 40.106C290.371 41.7844 290.472 44.2014 290.427 47.3569L265.385 47.3569C265.519 51.0271 266.672 53.6007 268.842 55.0777C270.163 55.9953 271.752 56.4541 273.609 56.4541C275.578 56.4541 277.179 55.8946 278.409 54.7756C279.081 54.1714 279.674 53.3322 280.189 52.2579L289.957 52.2579C289.711 54.4287 288.581 56.6331 286.567 58.871C283.434 62.4293 279.047 64.2085 273.408 64.2085C268.753 64.2085 264.646 62.7091 261.088 59.7102C257.53 56.7114 255.75 51.8327 255.75 45.0742C255.75 38.7409 257.351 33.8846 260.551 30.5053C263.773 27.126 267.947 25.4364 273.072 25.4364ZM305.3 63H295.732V13.5194L305.3 13.5194V63ZM316.379 13.6873L326.886 13.6873V26.242L324.167 49.3374H319.165L316.379 26.242V13.6873ZM316.614 53.2986H326.617V63H316.614V53.2986Z"/>
</mask>
<path d="M76.5179 13.5865L111.597 13.5865V22.2809L86.79 22.2809V33.6608H108.509V42.2544H86.79L86.79 63H76.5179L76.5179 13.5865ZM170.281 13.5194L181.124 13.5194L200.829 48.0618V13.5194L210.463 13.5194V63H200.124L179.916 27.8533V63H170.281V13.5194ZM238.26 25.5371C242.042 25.5371 245.13 26.533 247.525 28.5247C249.942 30.4941 251.15 33.7727 251.15 38.3604V63L241.348 63V40.7438C241.348 38.8192 241.091 37.3422 240.576 36.3127C239.636 34.4328 237.846 33.4929 235.205 33.4929C231.96 33.4929 229.733 34.8692 228.525 37.6219C227.898 39.0765 227.585 40.934 227.585 43.1943V63H218.051V26.477H227.283V31.8145C228.514 29.9346 229.677 28.5807 230.774 27.7526C232.743 26.2756 235.239 25.5371 238.26 25.5371ZM273.072 33.3251C270.856 33.3251 269.133 34.0188 267.902 35.4063C266.694 36.7939 265.933 38.6737 265.62 41.0459H280.491C280.334 38.5171 279.562 36.6036 278.174 35.3056C276.809 33.9853 275.109 33.3251 273.072 33.3251ZM273.072 25.4364C276.116 25.4364 278.857 26.007 281.296 27.1484C283.736 28.2897 285.75 30.0913 287.339 32.553C288.771 34.7238 289.7 37.2414 290.125 40.106C290.371 41.7844 290.472 44.2014 290.427 47.3569L265.385 47.3569C265.519 51.0271 266.672 53.6007 268.842 55.0777C270.163 55.9953 271.752 56.4541 273.609 56.4541C275.578 56.4541 277.179 55.8946 278.409 54.7756C279.081 54.1714 279.674 53.3322 280.189 52.2579L289.957 52.2579C289.711 54.4287 288.581 56.6331 286.567 58.871C283.434 62.4293 279.047 64.2085 273.408 64.2085C268.753 64.2085 264.646 62.7091 261.088 59.7102C257.53 56.7114 255.75 51.8327 255.75 45.0742C255.75 38.7409 257.351 33.8846 260.551 30.5053C263.773 27.126 267.947 25.4364 273.072 25.4364ZM305.3 63H295.732V13.5194L305.3 13.5194V63ZM316.379 13.6873L326.886 13.6873V26.242L324.167 49.3374H319.165L316.379 26.242V13.6873ZM316.614 53.2986H326.617V63H316.614V53.2986Z" fill="black"/>
<path d="M76.5179 13.5865V11.5092H74.4406V13.5865H76.5179ZM111.597 13.5865H113.675V11.5092H111.597V13.5865ZM111.597 22.2809V24.3582H113.675V22.2809H111.597ZM86.79 22.2809V20.2036H84.7127V22.2809H86.79ZM86.79 33.6608H84.7127V35.7381H86.79V33.6608ZM108.509 33.6608L110.586 33.6608V31.5834H108.509V33.6608ZM108.509 42.2544L108.509 44.3317L110.586 44.3317L110.586 42.2544L108.509 42.2544ZM86.79 42.2544V40.1771H84.7127V42.2544H86.79ZM86.79 63V65.0773H88.8673V63H86.79ZM76.5179 63H74.4406V65.0773H76.5179V63ZM76.5179 13.5865V15.6639L111.597 15.6639V13.5865V11.5092L76.5179 11.5092V13.5865ZM111.597 13.5865H109.52V22.2809H111.597H113.675V13.5865H111.597ZM111.597 22.2809V20.2036L86.79 20.2036V22.2809V24.3582L111.597 24.3582V22.2809ZM86.79 22.2809H84.7127V33.6608H86.79H88.8673V22.2809H86.79ZM86.79 33.6608V35.7381H108.509V33.6608V31.5834L86.79 31.5834V33.6608ZM108.509 33.6608H106.432V42.2544H108.509L110.586 42.2544V33.6608L108.509 33.6608ZM108.509 42.2544V40.1771H86.79V42.2544L86.79 44.3317H108.509L108.509 42.2544ZM86.79 42.2544H84.7127L84.7127 63H86.79H88.8673L88.8673 42.2544H86.79ZM86.79 63V60.9227H76.5179V63V65.0773H86.79V63ZM76.5179 63H78.5952L78.5952 13.5865H76.5179H74.4406L74.4406 63H76.5179ZM170.281 13.5194V11.4421H168.204V13.5194H170.281ZM181.124 13.5194L182.928 12.4901L182.331 11.4421L181.124 11.4421V13.5194ZM200.829 48.0618L199.025 49.0911L202.906 55.8957V48.0618H200.829ZM200.829 13.5194V11.4421H198.752V13.5194H200.829ZM210.463 13.5194H212.541V11.4421H210.463V13.5194ZM210.463 63V65.0773H212.541V63H210.463ZM200.124 63L198.323 64.0355L198.922 65.0773H200.124V63ZM179.916 27.8533L181.716 26.8179L177.838 20.0729V27.8533H179.916ZM179.916 63V65.0773H181.993V63H179.916ZM170.281 63H168.204V65.0773H170.281V63ZM170.281 13.5194V15.5967L181.124 15.5967V13.5194V11.4421L170.281 11.4421V13.5194ZM181.124 13.5194L179.32 14.5487L199.025 49.0911L200.829 48.0618L202.633 47.0325L182.928 12.4901L181.124 13.5194ZM200.829 48.0618H202.906V13.5194H200.829H198.752V48.0618L200.829 48.0618ZM200.829 13.5194V15.5967L210.463 15.5967V13.5194V11.4421L200.829 11.4421V13.5194ZM210.463 13.5194H208.386V63H210.463H212.541V13.5194H210.463ZM210.463 63V60.9227H200.124V63V65.0773H210.463V63ZM200.124 63L201.925 61.9645L181.716 26.8179L179.916 27.8533L178.115 28.8888L198.323 64.0355L200.124 63ZM179.916 27.8533H177.838V63H179.916H181.993V27.8533H179.916ZM179.916 63V60.9227H170.281V63V65.0773H179.916V63ZM170.281 63H172.359V13.5194L170.281 13.5194H168.204V63H170.281ZM247.525 28.5247L246.196 30.1218L246.204 30.1285L246.213 30.1351L247.525 28.5247ZM251.15 63V65.0773H253.227V63H251.15ZM241.348 63H239.271V65.0773H241.348V63ZM240.576 36.3127L238.718 37.2417L240.576 36.3127ZM228.525 37.6219L226.623 36.7868L226.62 36.7934L226.617 36.8001L228.525 37.6219ZM227.585 63V65.0773H229.662V63H227.585ZM218.051 63H215.974V65.0773H218.051V63ZM218.051 26.477V24.3997H215.974V26.477H218.051ZM227.283 26.477H229.36V24.3997H227.283V26.477ZM227.283 31.8145H225.205V38.7793L229.021 32.9524L227.283 31.8145ZM230.774 27.7526L229.527 26.0908L229.522 26.0948L230.774 27.7526ZM238.26 25.5371V27.6144C241.664 27.6144 244.25 28.503 246.196 30.1218L247.525 28.5247L248.853 26.9276C246.01 24.5629 242.419 23.4598 238.26 23.4598V25.5371ZM247.525 28.5247L246.213 30.1351C247.951 31.5518 249.073 34.094 249.073 38.3604H251.15H253.227C253.227 33.4513 251.932 29.4364 248.837 26.9143L247.525 28.5247ZM251.15 38.3604H249.073V63H251.15H253.227V38.3604H251.15ZM251.15 63V60.9227L241.348 60.9227V63V65.0773H251.15V63ZM241.348 63L243.425 63V40.7438L241.348 40.7438H239.271V63H241.348ZM241.348 40.7438L243.425 40.7438C243.425 38.6866 243.159 36.8335 242.434 35.3837L240.576 36.3127L238.718 37.2417C239.022 37.8508 239.271 38.9518 239.271 40.7438H241.348ZM240.576 36.3127L242.434 35.3837C241.046 32.6076 238.391 31.4156 235.205 31.4156V33.4929V35.5702C237.3 35.5702 238.226 36.2581 238.718 37.2417L240.576 36.3127ZM235.205 33.4929V31.4156C233.289 31.4156 231.521 31.8236 230.009 32.7581C228.486 33.6993 227.37 35.084 226.623 36.7868L228.525 37.6219L230.427 38.457C230.888 37.4071 231.489 36.7273 232.193 36.2922C232.908 35.8504 233.876 35.5702 235.205 35.5702V33.4929ZM228.525 37.6219L226.617 36.8001C225.841 38.6002 225.507 40.763 225.507 43.1943H227.585H229.662C229.662 41.1051 229.955 39.5529 230.433 38.4437L228.525 37.6219ZM227.585 43.1943H225.507V63H227.585H229.662V43.1943H227.585ZM227.585 63V60.9227H218.051V63V65.0773L227.585 65.0773V63ZM218.051 63H220.129V26.477H218.051H215.974V63H218.051ZM218.051 26.477V28.5543H227.283V26.477V24.3997H218.051V26.477ZM227.283 26.477H225.205V31.8145H227.283H229.36V26.477H227.283ZM227.283 31.8145L229.021 32.9524C230.193 31.1621 231.202 30.032 232.026 29.4104L230.774 27.7526L229.522 26.0948C228.152 27.1293 226.834 28.7071 225.545 30.6765L227.283 31.8145ZM230.774 27.7526L232.02 29.4145C233.555 28.2637 235.584 27.6144 238.26 27.6144V25.5371V23.4598C234.893 23.4598 231.932 24.2875 229.527 26.0908L230.774 27.7526ZM267.902 35.4063L266.348 34.0278L266.342 34.0349L266.336 34.042L267.902 35.4063ZM265.62 41.0459L263.56 40.7739L263.25 43.1232H265.62V41.0459ZM280.491 41.0459V43.1232H282.701L282.564 40.9175L280.491 41.0459ZM278.174 35.3056L276.73 36.7988L276.743 36.8108L276.755 36.8226L278.174 35.3056ZM287.339 32.553L285.593 33.6795L285.599 33.6883L285.605 33.697L287.339 32.553ZM290.125 40.106L292.18 39.8045L292.18 39.801L290.125 40.106ZM290.427 47.3569V49.4342H292.475L292.504 47.3863L290.427 47.3569ZM265.385 47.3569V45.2796H263.23L263.309 47.4328L265.385 47.3569ZM268.842 55.0777L270.028 53.3719L270.019 53.366L270.011 53.3603L268.842 55.0777ZM278.409 54.7756L277.02 53.2315L277.012 53.2385L278.409 54.7756ZM280.189 52.2579V50.1806H278.881L278.315 51.3603L280.189 52.2579ZM289.957 52.2579L292.021 52.492L292.283 50.1806H289.957V52.2579ZM286.567 58.871L285.023 57.4814L285.015 57.4898L285.008 57.4982L286.567 58.871ZM261.088 59.7102L259.749 61.2987L261.088 59.7102ZM260.551 30.5053L259.047 29.0716L259.043 29.0769L260.551 30.5053ZM273.072 33.3251V31.2477C270.389 31.2477 268.05 32.1094 266.348 34.0278L267.902 35.4063L269.456 36.7849C270.216 35.9283 271.324 35.4024 273.072 35.4024V33.3251ZM267.902 35.4063L266.336 34.042C264.79 35.8175 263.911 38.1172 263.56 40.7739L265.62 41.0459L267.679 41.3179C267.955 39.2303 268.598 37.7703 269.469 36.7707L267.902 35.4063ZM265.62 41.0459V43.1232H280.491V41.0459V38.9686H265.62V41.0459ZM280.491 41.0459L282.564 40.9175C282.386 38.0401 281.483 35.5563 279.594 33.7886L278.174 35.3056L276.755 36.8226C277.641 37.651 278.282 38.9941 278.417 41.1744L280.491 41.0459ZM278.174 35.3056L279.619 33.8125C277.836 32.0886 275.605 31.2477 273.072 31.2477V33.3251V35.4024C274.612 35.4024 275.782 35.8819 276.73 36.7988L278.174 35.3056ZM273.072 25.4364V27.5137C275.851 27.5137 278.286 28.0334 280.416 29.0299L281.296 27.1484L282.177 25.2668C279.428 23.9807 276.38 23.3591 273.072 23.3591V25.4364ZM281.296 27.1484L280.416 29.0299C282.471 29.9914 284.197 31.5158 285.593 33.6795L287.339 32.553L289.084 31.4265C287.303 28.6667 285.001 26.5881 282.177 25.2668L281.296 27.1484ZM287.339 32.553L285.605 33.697C286.852 35.5875 287.684 37.8119 288.07 40.411L290.125 40.106L292.18 39.801C291.715 36.671 290.69 33.8601 289.073 31.409L287.339 32.553ZM290.125 40.106L288.07 40.4074C288.292 41.9201 288.394 44.2057 288.35 47.3274L290.427 47.3569L292.504 47.3863C292.55 44.1971 292.451 41.6488 292.18 39.8045L290.125 40.106ZM290.427 47.3569V45.2796L265.385 45.2796V47.3569V49.4342L290.427 49.4342V47.3569ZM265.385 47.3569L263.309 47.4328C263.457 51.4818 264.759 54.8122 267.674 56.7952L268.842 55.0777L270.011 53.3603C268.584 52.3892 267.581 50.5723 267.461 47.2809L265.385 47.3569ZM268.842 55.0777L267.657 56.7836C269.377 57.979 271.396 58.5314 273.609 58.5314V56.4541V54.3767C272.108 54.3767 270.948 54.0115 270.028 53.3719L268.842 55.0777ZM273.609 56.4541V58.5314C275.995 58.5314 278.125 57.8415 279.807 56.3127L278.409 54.7756L277.012 53.2385C276.232 53.9476 275.162 54.3767 273.609 54.3767V56.4541ZM278.409 54.7756L279.799 56.3197C280.726 55.4858 281.465 54.4008 282.062 53.1556L280.189 52.2579L278.315 51.3603C277.882 52.2635 277.436 52.857 277.02 53.2316L278.409 54.7756ZM280.189 52.2579V54.3353L289.957 54.3353V52.2579V50.1806L280.189 50.1806V52.2579ZM289.957 52.2579L287.893 52.0239C287.711 53.6294 286.854 55.4464 285.023 57.4814L286.567 58.871L288.111 60.2607C290.308 57.8198 291.711 55.2281 292.021 52.492L289.957 52.2579ZM286.567 58.871L285.008 57.4982C282.344 60.5234 278.574 62.1312 273.408 62.1312V64.2085V66.2858C279.52 66.2858 284.523 64.3353 288.126 60.2438L286.567 58.871ZM273.408 64.2085V62.1312C269.243 62.1312 265.61 60.8048 262.427 58.1218L261.088 59.7102L259.749 61.2987C263.682 64.6133 268.263 66.2858 273.408 66.2858V64.2085ZM261.088 59.7102L262.427 58.1218C259.518 55.6704 257.828 51.5053 257.828 45.0742H255.75H253.673C253.673 52.1601 255.541 57.7524 259.749 61.2987L261.088 59.7102ZM255.75 45.0742H257.828C257.828 39.0772 259.339 34.8056 262.059 31.9337L260.551 30.5053L259.043 29.0769C255.362 32.9635 253.673 38.4045 253.673 45.0742H255.75ZM260.551 30.5053L262.054 31.9389C264.844 29.0131 268.454 27.5137 273.072 27.5137V25.4364V23.3591C267.44 23.3591 262.703 25.2389 259.047 29.0717L260.551 30.5053ZM305.3 63V65.0773H307.377V63H305.3ZM295.732 63H293.655V65.0773H295.732V63ZM295.732 13.5194V11.4421H293.655V13.5194H295.732ZM305.3 13.5194H307.377V11.4421H305.3V13.5194ZM305.3 63V60.9227H295.732V63V65.0773H305.3V63ZM295.732 63H297.81V13.5194H295.732H293.655V63H295.732ZM295.732 13.5194V15.5967L305.3 15.5967V13.5194V11.4421L295.732 11.4421V13.5194ZM305.3 13.5194L303.222 13.5194V63H305.3H307.377V13.5194H305.3ZM316.379 13.6873V11.6099L314.301 11.6099V13.6873L316.379 13.6873ZM326.886 13.6873H328.963V11.6099H326.886V13.6873ZM326.886 26.242L328.949 26.4849L328.963 26.3639V26.242H326.886ZM324.167 49.3374V51.4148H326.014L326.23 49.5803L324.167 49.3374ZM319.165 49.3374L317.102 49.5863L317.323 51.4148H319.165V49.3374ZM316.379 26.242H314.301V26.3669L314.316 26.4908L316.379 26.242ZM316.614 53.2986V51.2213H314.536V53.2986H316.614ZM326.617 53.2986H328.694V51.2213H326.617V53.2986ZM326.617 63V65.0773H328.694V63H326.617ZM316.614 63H314.536V65.0773H316.614V63ZM316.379 13.6873V15.7646L326.886 15.7646V13.6873V11.6099L316.379 11.6099V13.6873ZM326.886 13.6873L324.808 13.6873V26.242H326.886H328.963V13.6873H326.886ZM326.886 26.242L324.823 25.9991L322.104 49.0946L324.167 49.3374L326.23 49.5803L328.949 26.4849L326.886 26.242ZM324.167 49.3374V47.2601H319.165V49.3374V51.4148H324.167V49.3374ZM319.165 49.3374L321.227 49.0886L318.441 25.9932L316.379 26.242L314.316 26.4908L317.102 49.5863L319.165 49.3374ZM316.379 26.242H318.456V13.6873H316.379L314.301 13.6873V26.242H316.379ZM316.614 53.2986V55.3759H326.617V53.2986V51.2213H316.614V53.2986ZM326.617 53.2986H324.54V63H326.617H328.694V53.2986H326.617ZM326.617 63V60.9227H316.614V63V65.0773H326.617V63ZM316.614 63H318.691V53.2986H316.614H314.536V63H316.614Z" fill="black" mask="url(#path-1-outside-1_137_480)"/>
<path d="M342.574 5.89014C343.059 5.89021 343.491 6.00187 343.861 6.23096H343.86C344.233 6.459 344.522 6.77979 344.725 7.18896C344.928 7.59877 345.026 8.07285 345.026 8.60596C345.026 9.13863 344.924 9.61139 344.718 10.021L344.719 10.022C344.516 10.4306 344.23 10.7518 343.861 10.98C343.736 11.0574 343.603 11.1195 343.464 11.1704L345.354 14.5278L345.486 14.7622H343.229L343.184 14.6802L341.356 11.3218H340.658V14.7622H338.779V5.89014H342.574ZM340.658 9.45459H342.448C342.646 9.45456 342.794 9.38241 342.907 9.23779L342.908 9.23682C343.029 9.08707 343.098 8.88151 343.102 8.60596L343.09 8.41162C343.065 8.23051 343.004 8.08714 342.914 7.9751L342.913 7.97314C342.8 7.82923 342.651 7.75735 342.448 7.75732H340.658V9.45459Z" fill="black" stroke="black" stroke-width="0.314046"/>
<circle cx="341.855" cy="10.3107" r="7.61356" stroke="black" stroke-width="1.87762"/>
<path d="M144.001 12.0645L164.428 12.0645L164.428 33.4011L146.032 60.5059L146.032 65.2214L140.902 65.2214L140.889 65.2214L135.699 65.2214L135.699 60.5059L117.363 33.4011L117.363 12.0645L137.79 12.0645L140.895 18.2695L144.001 12.0645Z" fill="black"/>
</svg>
