<svg width="1980" height="320" viewBox="0 0 1980 320" fill="none" xmlns="http://www.w3.org/2000/svg">
<g clip-path="url(#clip0_208_3976)">
<rect width="1980" height="320" fill="url(#paint0_linear_208_3976)"/>
<path d="M27.6362 290.241C27.6362 289.326 27.3265 288.508 26.7069 287.785C26.1021 287.047 25.2613 286.678 24.1845 286.678C22.5028 286.678 21.0425 287.674 19.8034 289.666C18.579 291.642 17.9669 293.612 17.9669 295.573C17.9669 297.019 18.284 298.125 18.9183 298.892C19.5526 299.645 20.3492 300.021 21.308 300.021C23.2994 300.021 24.8483 298.863 25.9546 296.547C27.0757 294.216 27.6362 292.114 27.6362 290.241ZM23.233 310.951C17.067 310.951 12.3172 309.026 8.98343 305.176C6.31348 302.093 4.9785 298.531 4.9785 294.489C4.9785 289.68 6.60113 285.594 9.84637 282.231C13.4456 278.484 18.2766 276.611 24.3394 276.611C29.5907 276.611 33.7211 277.938 36.7303 280.594C39.5478 283.101 40.9565 286.354 40.9565 290.352C40.9565 293.715 39.946 296.591 37.9251 298.981C35.919 301.356 33.6694 302.543 31.1765 302.543C29.7161 302.543 28.6393 302.197 27.946 301.503C27.2527 300.795 26.906 299.947 26.906 298.959C26.906 298.797 26.9208 298.627 26.9503 298.45C26.9798 298.273 27.0167 298.088 27.0609 297.897C26.2791 299.593 25.2908 300.795 24.096 301.503C22.9011 302.197 21.6694 302.543 20.4008 302.543C18.5864 302.543 17.1113 301.887 15.9755 300.574C14.8544 299.261 14.2938 297.572 14.2938 295.507C14.2938 292.572 15.2527 289.983 17.1703 287.741C19.1027 285.498 21.1752 284.377 23.3879 284.377C24.8925 284.377 26.1316 284.812 27.1052 285.683C28.0935 286.553 28.6172 287.6 28.6762 288.825L29.7825 285.107H33.0351L30.0923 294.799C29.871 295.551 29.7088 296.156 29.6055 296.613C29.5022 297.071 29.4506 297.476 29.4506 297.83C29.4506 298.494 29.6498 298.981 30.048 299.291C30.4611 299.586 30.9257 299.733 31.442 299.733C33.1236 299.733 34.6283 298.856 35.9559 297.1C37.2982 295.345 37.9694 293.051 37.9694 290.219C37.9694 286.796 36.7745 284.112 34.3849 282.165C31.9952 280.203 28.7794 279.222 24.7376 279.222C19.1322 279.222 14.847 280.859 11.882 284.134C9.34484 286.922 8.07624 290.425 8.07624 294.644C8.07624 298.332 9.28583 301.43 11.705 303.937C14.5372 306.902 18.5717 308.385 23.8083 308.385C26.257 308.385 28.536 308.001 30.6455 307.234C32.7549 306.452 34.6873 305.405 36.4426 304.092L37.903 306.084C36.5754 307.264 34.5914 308.37 31.9509 309.403C29.3105 310.435 26.4045 310.951 23.233 310.951ZM50.3603 287.564V284.51C53.2368 284.23 55.2429 283.765 56.3788 283.116C57.5146 282.452 58.3628 280.896 58.9234 278.447H62.0653V310H57.817V287.564H50.3603ZM72.2215 287.564V284.51C75.098 284.23 77.1041 283.765 78.2399 283.116C79.3758 282.452 80.224 280.896 80.7845 278.447H83.9265V310H79.6782V287.564H72.2215ZM103.066 277.496V282.43L107.89 280.749L108.775 283.205L103.951 284.776L106.938 288.935L104.748 290.506L101.849 286.192L98.9284 290.506L96.6715 288.935L99.7028 284.776L94.835 283.205L95.72 280.749L100.499 282.474V277.496H103.066ZM123.71 290.13C125.112 289.142 126.078 288.338 126.609 287.718C127.479 286.715 127.914 285.602 127.914 284.377C127.914 283.418 127.597 282.592 126.963 281.899C126.329 281.206 125.473 280.859 124.396 280.859C122.759 280.859 121.623 281.405 120.989 282.497C120.664 283.057 120.502 283.669 120.502 284.333C120.502 285.233 120.745 286.096 121.232 286.922C121.734 287.748 122.56 288.817 123.71 290.13ZM122.692 307.256C124.33 307.256 125.739 306.88 126.919 306.128C128.099 305.376 129.006 304.535 129.64 303.605L122.294 294.644C120.214 296.031 118.857 297.093 118.223 297.83C117.249 298.937 116.763 300.286 116.763 301.88C116.763 303.605 117.389 304.933 118.643 305.862C119.912 306.792 121.262 307.256 122.692 307.256ZM120.082 291.923C118.71 290.344 117.788 289.017 117.316 287.94C116.858 286.863 116.63 285.823 116.63 284.82C116.63 282.725 117.338 280.992 118.754 279.62C120.17 278.233 122.066 277.54 124.44 277.54C126.697 277.54 128.46 278.182 129.729 279.465C130.997 280.749 131.632 282.283 131.632 284.068C131.632 286.147 130.975 287.969 129.662 289.533C128.895 290.447 127.612 291.502 125.812 292.697L131.742 299.777C132.141 298.597 132.413 297.72 132.561 297.144C132.723 296.554 132.885 295.736 133.048 294.688H136.831C136.581 296.768 136.079 298.767 135.327 300.685C134.574 302.588 134.198 303.355 134.198 302.986L139.973 310H134.84L131.787 306.283C130.577 307.596 129.471 308.554 128.468 309.159C126.712 310.221 124.691 310.752 122.405 310.752C119.027 310.752 116.571 309.845 115.037 308.031C113.503 306.202 112.735 304.144 112.735 301.857C112.735 299.394 113.48 297.336 114.97 295.684C115.885 294.681 117.589 293.427 120.082 291.923ZM154.82 277.496L162.631 296.591H159.024L153.139 281.943L147.275 296.591H143.646L151.413 277.496H154.82ZM189.913 290.241C189.913 289.326 189.604 288.508 188.984 287.785C188.379 287.047 187.538 286.678 186.462 286.678C184.78 286.678 183.32 287.674 182.08 289.666C180.856 291.642 180.244 293.612 180.244 295.573C180.244 297.019 180.561 298.125 181.195 298.892C181.83 299.645 182.626 300.021 183.585 300.021C185.576 300.021 187.125 298.863 188.232 296.547C189.353 294.216 189.913 292.114 189.913 290.241ZM185.51 310.951C179.344 310.951 174.594 309.026 171.261 305.176C168.591 302.093 167.256 298.531 167.256 294.489C167.256 289.68 168.878 285.594 172.123 282.231C175.723 278.484 180.554 276.611 186.616 276.611C191.868 276.611 195.998 277.938 199.007 280.594C201.825 283.101 203.234 286.354 203.234 290.352C203.234 293.715 202.223 296.591 200.202 298.981C198.196 301.356 195.947 302.543 193.454 302.543C191.993 302.543 190.916 302.197 190.223 301.503C189.53 300.795 189.183 299.947 189.183 298.959C189.183 298.797 189.198 298.627 189.227 298.45C189.257 298.273 189.294 298.088 189.338 297.897C188.556 299.593 187.568 300.795 186.373 301.503C185.178 302.197 183.946 302.543 182.678 302.543C180.863 302.543 179.388 301.887 178.253 300.574C177.131 299.261 176.571 297.572 176.571 295.507C176.571 292.572 177.53 289.983 179.447 287.741C181.38 285.498 183.452 284.377 185.665 284.377C187.17 284.377 188.409 284.812 189.382 285.683C190.371 286.553 190.894 287.6 190.953 288.825L192.06 285.107H195.312L192.369 294.799C192.148 295.551 191.986 296.156 191.883 296.613C191.779 297.071 191.728 297.476 191.728 297.83C191.728 298.494 191.927 298.981 192.325 299.291C192.738 299.586 193.203 299.733 193.719 299.733C195.401 299.733 196.905 298.856 198.233 297.1C199.575 295.345 200.246 293.051 200.246 290.219C200.246 286.796 199.052 284.112 196.662 282.165C194.272 280.203 191.057 279.222 187.015 279.222C181.409 279.222 177.124 280.859 174.159 284.134C171.622 286.922 170.353 290.425 170.353 294.644C170.353 298.332 171.563 301.43 173.982 303.937C176.814 306.902 180.849 308.385 186.085 308.385C188.534 308.385 190.813 308.001 192.923 307.234C195.032 306.452 196.964 305.405 198.72 304.092L200.18 306.084C198.852 307.264 196.868 308.37 194.228 309.403C191.588 310.435 188.682 310.951 185.51 310.951ZM239.189 294.6C241.314 294.6 243.128 295.352 244.633 296.857C246.137 298.361 246.89 300.176 246.89 302.3C246.89 304.424 246.137 306.238 244.633 307.743C243.128 309.248 241.314 310 239.189 310C237.051 310 235.229 309.248 233.724 307.743C232.22 306.238 231.467 304.424 231.467 302.3C231.467 300.176 232.22 298.361 233.724 296.857C235.229 295.352 237.051 294.6 239.189 294.6ZM235.981 278.447H238.437L220.714 310.841H218.258L235.981 278.447ZM217.461 291.546C218.73 291.546 219.806 291.104 220.692 290.219C221.591 289.319 222.041 288.242 222.041 286.988C222.041 285.734 221.591 284.665 220.692 283.78C219.806 282.88 218.73 282.43 217.461 282.43C216.207 282.43 215.13 282.873 214.231 283.758C213.345 284.643 212.903 285.72 212.903 286.988C212.903 288.242 213.345 289.319 214.231 290.219C215.13 291.104 216.207 291.546 217.461 291.546ZM217.461 279.266C219.6 279.266 221.422 280.026 222.926 281.545C224.431 283.05 225.183 284.864 225.183 286.988C225.183 289.112 224.431 290.927 222.926 292.431C221.422 293.936 219.6 294.688 217.461 294.688C215.337 294.688 213.522 293.936 212.018 292.431C210.513 290.927 209.761 289.112 209.761 286.988C209.761 284.864 210.513 283.05 212.018 281.545C213.522 280.026 215.337 279.266 217.461 279.266ZM239.189 306.858C240.443 306.858 241.513 306.415 242.398 305.53C243.298 304.631 243.748 303.554 243.748 302.3C243.748 301.046 243.298 299.977 242.398 299.092C241.513 298.192 240.443 297.742 239.189 297.742C237.921 297.742 236.837 298.192 235.937 299.092C235.052 299.977 234.609 301.046 234.609 302.3C234.609 303.554 235.052 304.631 235.937 305.53C236.837 306.415 237.921 306.858 239.189 306.858ZM279.504 294.6C281.628 294.6 283.443 295.352 284.947 296.857C286.452 298.361 287.204 300.176 287.204 302.3C287.204 304.424 286.452 306.238 284.947 307.743C283.443 309.248 281.628 310 279.504 310C277.365 310 275.544 309.248 274.039 307.743C272.534 306.238 271.782 304.424 271.782 302.3C271.782 300.176 272.534 298.361 274.039 296.857C275.544 295.352 277.365 294.6 279.504 294.6ZM276.296 278.447H278.752L261.028 310.841H258.572L276.296 278.447ZM257.776 291.546C259.044 291.546 260.121 291.104 261.006 290.219C261.906 289.319 262.356 288.242 262.356 286.988C262.356 285.734 261.906 284.665 261.006 283.78C260.121 282.88 259.044 282.43 257.776 282.43C256.522 282.43 255.445 282.873 254.545 283.758C253.66 284.643 253.218 285.72 253.218 286.988C253.218 288.242 253.66 289.319 254.545 290.219C255.445 291.104 256.522 291.546 257.776 291.546ZM257.776 279.266C259.915 279.266 261.737 280.026 263.241 281.545C264.746 283.05 265.498 284.864 265.498 286.988C265.498 289.112 264.746 290.927 263.241 292.431C261.737 293.936 259.915 294.688 257.776 294.688C255.652 294.688 253.837 293.936 252.333 292.431C250.828 290.927 250.076 289.112 250.076 286.988C250.076 284.864 250.828 283.05 252.333 281.545C253.837 280.026 255.652 279.266 257.776 279.266ZM279.504 306.858C280.758 306.858 281.828 306.415 282.713 305.53C283.612 304.631 284.062 303.554 284.062 302.3C284.062 301.046 283.612 299.977 282.713 299.092C281.828 298.192 280.758 297.742 279.504 297.742C278.236 297.742 277.151 298.192 276.252 299.092C275.367 299.977 274.924 301.046 274.924 302.3C274.924 303.554 275.367 304.631 276.252 305.53C277.151 306.415 278.236 306.858 279.504 306.858ZM302.759 277.496L310.57 296.591H306.963L301.078 281.943L295.214 296.591H291.585L299.352 277.496H302.759ZM323.16 290.13C324.562 289.142 325.528 288.338 326.059 287.718C326.929 286.715 327.364 285.602 327.364 284.377C327.364 283.418 327.047 282.592 326.413 281.899C325.779 281.206 324.923 280.859 323.846 280.859C322.209 280.859 321.073 281.405 320.439 282.497C320.114 283.057 319.952 283.669 319.952 284.333C319.952 285.233 320.195 286.096 320.682 286.922C321.184 287.748 322.01 288.817 323.16 290.13ZM322.142 307.256C323.78 307.256 325.188 306.88 326.369 306.128C327.549 305.376 328.456 304.535 329.09 303.605L321.744 294.644C319.664 296.031 318.307 297.093 317.673 297.83C316.699 298.937 316.212 300.286 316.212 301.88C316.212 303.605 316.839 304.933 318.093 305.862C319.362 306.792 320.712 307.256 322.142 307.256ZM319.531 291.923C318.16 290.344 317.238 289.017 316.766 287.94C316.308 286.863 316.08 285.823 316.08 284.82C316.08 282.725 316.788 280.992 318.204 279.62C319.62 278.233 321.515 277.54 323.89 277.54C326.147 277.54 327.91 278.182 329.179 279.465C330.447 280.749 331.082 282.283 331.082 284.068C331.082 286.147 330.425 287.969 329.112 289.533C328.345 290.447 327.062 291.502 325.262 292.697L331.192 299.777C331.59 298.597 331.863 297.72 332.011 297.144C332.173 296.554 332.335 295.736 332.498 294.688H336.281C336.031 296.768 335.529 298.767 334.777 300.685C334.024 302.588 333.648 303.355 333.648 302.986L339.423 310H334.29L331.236 306.283C330.027 307.596 328.921 308.554 327.917 309.159C326.162 310.221 324.141 310.752 321.855 310.752C318.477 310.752 316.021 309.845 314.487 308.031C312.952 306.202 312.185 304.144 312.185 301.857C312.185 299.394 312.93 297.336 314.42 295.684C315.335 294.681 317.038 293.427 319.531 291.923ZM345.685 277.496H350.177V288.183L349.093 302.256H346.836L345.685 288.183V277.496ZM345.685 305.398H350.088V310H345.685V305.398ZM363.01 277.496V282.43L367.834 280.749L368.719 283.205L363.895 284.776L366.883 288.935L364.692 290.506L361.793 286.192L358.873 290.506L356.616 288.935L359.647 284.776L354.779 283.205L355.664 280.749L360.444 282.474V277.496H363.01ZM372.281 319.249C374.627 314.676 376.139 311.342 376.817 309.248C377.85 306.076 378.366 302.359 378.366 298.096C378.366 293.833 377.769 289.931 376.574 286.391C375.836 284.208 374.383 281.066 372.215 276.965H374.892C377.164 280.594 378.536 282.836 379.008 283.691C379.495 284.532 380.018 285.698 380.579 287.187C381.287 289.031 381.789 290.853 382.084 292.653C382.393 294.452 382.548 296.186 382.548 297.852C382.548 302.219 381.855 306.113 380.468 309.535C379.598 311.733 377.791 314.971 375.047 319.249H372.281ZM413.437 290.241C413.437 289.326 413.127 288.508 412.508 287.785C411.903 287.047 411.062 286.678 409.985 286.678C408.304 286.678 406.843 287.674 405.604 289.666C404.38 291.642 403.768 293.612 403.768 295.573C403.768 297.019 404.085 298.125 404.719 298.892C405.353 299.645 406.15 300.021 407.109 300.021C409.1 300.021 410.649 298.863 411.755 296.547C412.877 294.216 413.437 292.114 413.437 290.241ZM409.034 310.951C402.868 310.951 398.118 309.026 394.784 305.176C392.114 302.093 390.779 298.531 390.779 294.489C390.779 289.68 392.402 285.594 395.647 282.231C399.246 278.484 404.077 276.611 410.14 276.611C415.392 276.611 419.522 277.938 422.531 280.594C425.349 283.101 426.757 286.354 426.757 290.352C426.757 293.715 425.747 296.591 423.726 298.981C421.72 301.356 419.47 302.543 416.977 302.543C415.517 302.543 414.44 302.197 413.747 301.503C413.054 300.795 412.707 299.947 412.707 298.959C412.707 298.797 412.722 298.627 412.751 298.45C412.781 298.273 412.818 298.088 412.862 297.897C412.08 299.593 411.092 300.795 409.897 301.503C408.702 302.197 407.47 302.543 406.202 302.543C404.387 302.543 402.912 301.887 401.776 300.574C400.655 299.261 400.095 297.572 400.095 295.507C400.095 292.572 401.054 289.983 402.971 287.741C404.904 285.498 406.976 284.377 409.189 284.377C410.693 284.377 411.932 284.812 412.906 285.683C413.894 286.553 414.418 287.6 414.477 288.825L415.583 285.107H418.836L415.893 294.799C415.672 295.551 415.51 296.156 415.406 296.613C415.303 297.071 415.251 297.476 415.251 297.83C415.251 298.494 415.451 298.981 415.849 299.291C416.262 299.586 416.727 299.733 417.243 299.733C418.924 299.733 420.429 298.856 421.757 297.1C423.099 295.345 423.77 293.051 423.77 290.219C423.77 286.796 422.575 284.112 420.186 282.165C417.796 280.203 414.58 279.222 410.538 279.222C404.933 279.222 400.648 280.859 397.683 284.134C395.146 286.922 393.877 290.425 393.877 294.644C393.877 298.332 395.087 301.43 397.506 303.937C400.338 306.902 404.373 308.385 409.609 308.385C412.058 308.385 414.337 308.001 416.446 307.234C418.556 306.452 420.488 305.405 422.243 304.092L423.704 306.084C422.376 307.264 420.392 308.37 417.752 309.403C415.111 310.435 412.205 310.951 409.034 310.951ZM459.461 290.241C459.461 289.326 459.151 288.508 458.531 287.785C457.926 287.047 457.086 286.678 456.009 286.678C454.327 286.678 452.867 287.674 451.628 289.666C450.403 291.642 449.791 293.612 449.791 295.573C449.791 297.019 450.108 298.125 450.743 298.892C451.377 299.645 452.174 300.021 453.132 300.021C455.124 300.021 456.673 298.863 457.779 296.547C458.9 294.216 459.461 292.114 459.461 290.241ZM455.057 310.951C448.891 310.951 444.142 309.026 440.808 305.176C438.138 302.093 436.803 298.531 436.803 294.489C436.803 289.68 438.425 285.594 441.671 282.231C445.27 278.484 450.101 276.611 456.164 276.611C461.415 276.611 465.545 277.938 468.555 280.594C471.372 283.101 472.781 286.354 472.781 290.352C472.781 293.715 471.77 296.591 469.749 298.981C467.743 301.356 465.494 302.543 463.001 302.543C461.54 302.543 460.464 302.197 459.77 301.503C459.077 300.795 458.73 299.947 458.73 298.959C458.73 298.797 458.745 298.627 458.775 298.45C458.804 298.273 458.841 298.088 458.885 297.897C458.103 299.593 457.115 300.795 455.92 301.503C454.725 302.197 453.494 302.543 452.225 302.543C450.411 302.543 448.936 301.887 447.8 300.574C446.679 299.261 446.118 297.572 446.118 295.507C446.118 292.572 447.077 289.983 448.995 287.741C450.927 285.498 453 284.377 455.212 284.377C456.717 284.377 457.956 284.812 458.93 285.683C459.918 286.553 460.442 287.6 460.501 288.825L461.607 285.107H464.859L461.917 294.799C461.695 295.551 461.533 296.156 461.43 296.613C461.327 297.071 461.275 297.476 461.275 297.83C461.275 298.494 461.474 298.981 461.872 299.291C462.285 299.586 462.75 299.733 463.266 299.733C464.948 299.733 466.453 298.856 467.78 297.1C469.123 295.345 469.794 293.051 469.794 290.219C469.794 286.796 468.599 284.112 466.209 282.165C463.82 280.203 460.604 279.222 456.562 279.222C450.957 279.222 446.671 280.859 443.706 284.134C441.169 286.922 439.901 290.425 439.901 294.644C439.901 298.332 441.11 301.43 443.529 303.937C446.362 306.902 450.396 308.385 455.633 308.385C458.081 308.385 460.36 308.001 462.47 307.234C464.579 306.452 466.512 305.405 468.267 304.092L469.727 306.084C468.4 307.264 466.416 308.37 463.775 309.403C461.135 310.435 458.229 310.951 455.057 310.951ZM478.512 297.587H483.667L485.747 289.975H480.614L481.3 287.409H486.433L489.066 277.496H492.363L489.686 287.409H494.576L497.297 277.496H500.55L497.872 287.409H503.006L502.32 289.975H497.187L495.085 297.587H500.24L499.554 300.154H494.465L491.743 310H488.491L491.168 300.154H486.234L483.601 310H480.304L482.981 300.154H477.848L478.512 297.587ZM491.788 297.587L493.89 289.975H489L486.964 297.587H491.788ZM504.643 319.249C506.989 314.676 508.501 311.342 509.179 309.248C510.212 306.076 510.728 302.359 510.728 298.096C510.728 293.833 510.131 289.931 508.936 286.391C508.198 284.208 506.745 281.066 504.577 276.965H507.254C509.526 280.594 510.898 282.836 511.37 283.691C511.857 284.532 512.38 285.698 512.941 287.187C513.649 289.031 514.15 290.853 514.445 292.653C514.755 294.452 514.91 296.186 514.91 297.852C514.91 302.219 514.217 306.113 512.83 309.535C511.96 311.733 510.153 314.971 507.409 319.249H504.643ZM531.571 276.965C529.256 281.464 527.751 284.776 527.058 286.9C526.01 290.13 525.487 293.862 525.487 298.096C525.487 302.374 526.084 306.283 527.279 309.823C528.016 312.006 529.469 315.148 531.638 319.249H528.96C526.807 315.886 525.472 313.739 524.956 312.81C524.439 311.881 523.879 310.62 523.274 309.026C522.448 306.843 521.873 304.513 521.548 302.034C521.386 300.751 521.305 299.527 521.305 298.361C521.305 293.995 521.991 290.108 523.362 286.701C524.233 284.532 526.047 281.287 528.806 276.965H531.571ZM546.197 290.13C547.599 289.142 548.565 288.338 549.096 287.718C549.966 286.715 550.401 285.602 550.401 284.377C550.401 283.418 550.084 282.592 549.45 281.899C548.815 281.206 547.96 280.859 546.883 280.859C545.246 280.859 544.11 281.405 543.476 282.497C543.151 283.057 542.989 283.669 542.989 284.333C542.989 285.233 543.232 286.096 543.719 286.922C544.221 287.748 545.047 288.817 546.197 290.13ZM545.179 307.256C546.817 307.256 548.225 306.88 549.406 306.128C550.586 305.376 551.493 304.535 552.127 303.605L544.781 294.644C542.701 296.031 541.344 297.093 540.71 297.83C539.736 298.937 539.249 300.286 539.249 301.88C539.249 303.605 539.876 304.933 541.13 305.862C542.399 306.792 543.748 307.256 545.179 307.256ZM542.568 291.923C541.197 290.344 540.275 289.017 539.803 287.94C539.345 286.863 539.117 285.823 539.117 284.82C539.117 282.725 539.825 280.992 541.241 279.62C542.657 278.233 544.552 277.54 546.927 277.54C549.184 277.54 550.947 278.182 552.216 279.465C553.484 280.749 554.119 282.283 554.119 284.068C554.119 286.147 553.462 287.969 552.149 289.533C551.382 290.447 550.099 291.502 548.299 292.697L554.229 299.777C554.627 298.597 554.9 297.72 555.048 297.144C555.21 296.554 555.372 295.736 555.535 294.688H559.318C559.068 296.768 558.566 298.767 557.814 300.685C557.061 302.588 556.685 303.355 556.685 302.986L562.46 310H557.327L554.273 306.283C553.064 307.596 551.957 308.554 550.954 309.159C549.199 310.221 547.178 310.752 544.892 310.752C541.514 310.752 539.058 309.845 537.524 308.031C535.989 306.202 535.222 304.144 535.222 301.857C535.222 299.394 535.967 297.336 537.457 295.684C538.372 294.681 540.075 293.427 542.568 291.923ZM576.997 307.699C579.52 307.581 581.261 306.659 582.219 304.933C582.721 304.048 582.972 303.023 582.972 301.857C582.972 300.013 582.293 298.612 580.936 297.653C580.154 297.093 578.841 296.562 576.997 296.06V307.699ZM569.497 286.347C569.497 287.807 569.976 288.95 570.935 289.776C571.908 290.602 573.214 291.178 574.851 291.502V281.103C572.919 281.176 571.54 281.766 570.714 282.873C569.902 283.979 569.497 285.137 569.497 286.347ZM565.514 286.612C565.514 284.37 566.332 282.349 567.97 280.549C569.622 278.75 571.93 277.835 574.895 277.806V274.863H576.997V277.761C579.933 277.968 582.183 278.838 583.746 280.372C585.324 281.892 586.151 283.905 586.224 286.413H582.352C582.249 285.292 581.946 284.326 581.445 283.514C580.516 282.024 579.033 281.243 576.997 281.169V291.923C580.42 292.881 582.743 293.781 583.967 294.622C585.959 296.009 586.954 298.059 586.954 300.773C586.954 304.697 585.679 307.485 583.127 309.137C581.71 310.052 579.667 310.656 576.997 310.951V315.244H574.895V310.951C570.603 310.671 567.69 309.152 566.155 306.393C565.315 304.903 564.894 302.89 564.894 300.353H568.811C568.929 302.374 569.246 303.849 569.762 304.778C570.677 306.445 572.373 307.382 574.851 307.588V295.529C571.665 294.924 569.312 293.914 567.793 292.498C566.273 291.082 565.514 289.12 565.514 286.612ZM602.532 277.496L610.342 296.591H606.736L600.85 281.943L594.986 296.591H591.358L599.124 277.496H602.532ZM665.681 277.496H670.173V288.183L669.089 302.256H666.832L665.681 288.183V277.496ZM665.681 305.398H670.084V310H665.681V305.398ZM686.879 277.496L694.689 296.591H691.083L685.197 281.943L679.333 296.591H675.705L683.471 277.496H686.879ZM708.164 277.496L715.975 296.591H712.369L706.483 281.943L700.619 296.591H696.99L704.757 277.496H708.164ZM867.631 297.587H872.787L874.867 289.975H869.733L870.419 287.409H875.553L878.186 277.496H881.483L878.805 287.409H883.695L886.417 277.496H889.67L886.992 287.409H892.126L891.44 289.975H886.306L884.204 297.587H889.36L888.674 300.154H883.585L880.863 310H877.611L880.288 300.154H875.354L872.721 310H869.424L872.101 300.154H866.968L867.631 297.587ZM880.907 297.587L883.009 289.975H878.119L876.084 297.587H880.907ZM902.149 277.496V282.43L906.973 280.749L907.858 283.205L903.034 284.776L906.021 288.935L903.831 290.506L900.932 286.192L898.011 290.506L895.754 288.935L898.786 284.776L893.918 283.205L894.803 280.749L899.582 282.474V277.496H902.149ZM915.093 277.496H919.585V288.183L918.501 302.256H916.244L915.093 288.183V277.496ZM915.093 305.398H919.496V310H915.093V305.398ZM935.405 290.13C936.807 289.142 937.773 288.338 938.304 287.718C939.174 286.715 939.61 285.602 939.61 284.377C939.61 283.418 939.292 282.592 938.658 281.899C938.024 281.206 937.168 280.859 936.091 280.859C934.454 280.859 933.318 281.405 932.684 282.497C932.359 283.057 932.197 283.669 932.197 284.333C932.197 285.233 932.44 286.096 932.927 286.922C933.429 287.748 934.255 288.817 935.405 290.13ZM934.388 307.256C936.025 307.256 937.434 306.88 938.614 306.128C939.794 305.376 940.701 304.535 941.335 303.605L933.989 294.644C931.909 296.031 930.552 297.093 929.918 297.83C928.944 298.937 928.458 300.286 928.458 301.88C928.458 303.605 929.085 304.933 930.338 305.862C931.607 306.792 932.957 307.256 934.388 307.256ZM931.777 291.923C930.405 290.344 929.483 289.017 929.011 287.94C928.554 286.863 928.325 285.823 928.325 284.82C928.325 282.725 929.033 280.992 930.449 279.62C931.865 278.233 933.761 277.54 936.136 277.54C938.393 277.54 940.155 278.182 941.424 279.465C942.693 280.749 943.327 282.283 943.327 284.068C943.327 286.147 942.67 287.969 941.358 289.533C940.59 290.447 939.307 291.502 937.508 292.697L943.437 299.777C943.836 298.597 944.109 297.72 944.256 297.144C944.418 296.554 944.581 295.736 944.743 294.688H948.527C948.276 296.768 947.774 298.767 947.022 300.685C946.27 302.588 945.894 303.355 945.894 302.986L951.669 310H946.535L943.482 306.283C942.272 307.596 941.166 308.554 940.163 309.159C938.407 310.221 936.386 310.752 934.1 310.752C930.722 310.752 928.266 309.845 926.732 308.031C925.198 306.202 924.431 304.144 924.431 301.857C924.431 299.394 925.176 297.336 926.665 295.684C927.58 294.681 929.284 293.427 931.777 291.923ZM953.35 297.587H958.506L960.586 289.975H955.452L956.138 287.409H961.272L963.905 277.496H967.202L964.524 287.409H969.414L972.136 277.496H975.388L972.711 287.409H977.844L977.159 289.975H972.025L969.923 297.587H975.079L974.393 300.154H969.304L966.582 310H963.329L966.007 300.154H961.072L958.439 310H955.142L957.82 300.154H952.686L953.35 297.587ZM966.626 297.587L968.728 289.975H963.838L961.803 297.587H966.626ZM991.74 277.496L999.551 296.591H995.944L990.058 281.943L984.195 296.591H980.566L988.332 277.496H991.74ZM1030.09 294.6C1032.21 294.6 1034.02 295.352 1035.53 296.857C1037.03 298.361 1037.79 300.176 1037.79 302.3C1037.79 304.424 1037.03 306.238 1035.53 307.743C1034.02 309.248 1032.21 310 1030.09 310C1027.95 310 1026.12 309.248 1024.62 307.743C1023.12 306.238 1022.36 304.424 1022.36 302.3C1022.36 300.176 1023.12 298.361 1024.62 296.857C1026.12 295.352 1027.95 294.6 1030.09 294.6ZM1026.88 278.447H1029.33L1011.61 310.841H1009.15L1026.88 278.447ZM1008.36 291.546C1009.63 291.546 1010.7 291.104 1011.59 290.219C1012.49 289.319 1012.94 288.242 1012.94 286.988C1012.94 285.734 1012.49 284.665 1011.59 283.78C1010.7 282.88 1009.63 282.43 1008.36 282.43C1007.1 282.43 1006.03 282.873 1005.13 283.758C1004.24 284.643 1003.8 285.72 1003.8 286.988C1003.8 288.242 1004.24 289.319 1005.13 290.219C1006.03 291.104 1007.1 291.546 1008.36 291.546ZM1008.36 279.266C1010.5 279.266 1012.32 280.026 1013.82 281.545C1015.33 283.05 1016.08 284.864 1016.08 286.988C1016.08 289.112 1015.33 290.927 1013.82 292.431C1012.32 293.936 1010.5 294.688 1008.36 294.688C1006.23 294.688 1004.42 293.936 1002.91 292.431C1001.41 290.927 1000.66 289.112 1000.66 286.988C1000.66 284.864 1001.41 283.05 1002.91 281.545C1004.42 280.026 1006.23 279.266 1008.36 279.266ZM1030.09 306.858C1031.34 306.858 1032.41 306.415 1033.29 305.53C1034.19 304.631 1034.64 303.554 1034.64 302.3C1034.64 301.046 1034.19 299.977 1033.29 299.092C1032.41 298.192 1031.34 297.742 1030.09 297.742C1028.82 297.742 1027.73 298.192 1026.83 299.092C1025.95 299.977 1025.51 301.046 1025.51 302.3C1025.51 303.554 1025.95 304.631 1026.83 305.53C1027.73 306.415 1028.82 306.858 1030.09 306.858ZM1053.03 307.699C1055.55 307.581 1057.29 306.659 1058.25 304.933C1058.75 304.048 1059.01 303.023 1059.01 301.857C1059.01 300.013 1058.33 298.612 1056.97 297.653C1056.19 297.093 1054.87 296.562 1053.03 296.06V307.699ZM1045.53 286.347C1045.53 287.807 1046.01 288.95 1046.97 289.776C1047.94 290.602 1049.25 291.178 1050.88 291.502V281.103C1048.95 281.176 1047.57 281.766 1046.75 282.873C1045.94 283.979 1045.53 285.137 1045.53 286.347ZM1041.55 286.612C1041.55 284.37 1042.37 282.349 1044 280.549C1045.66 278.75 1047.96 277.835 1050.93 277.806V274.863H1053.03V277.761C1055.97 277.968 1058.22 278.838 1059.78 280.372C1061.36 281.892 1062.18 283.905 1062.26 286.413H1058.39C1058.28 285.292 1057.98 284.326 1057.48 283.514C1056.55 282.024 1055.07 281.243 1053.03 281.169V291.923C1056.45 292.881 1058.78 293.781 1060 294.622C1061.99 296.009 1062.99 298.059 1062.99 300.773C1062.99 304.697 1061.71 307.485 1059.16 309.137C1057.74 310.052 1055.7 310.656 1053.03 310.951V315.244H1050.93V310.951C1046.64 310.671 1043.72 309.152 1042.19 306.393C1041.35 304.903 1040.93 302.89 1040.93 300.353H1044.84C1044.96 302.374 1045.28 303.849 1045.8 304.778C1046.71 306.445 1048.41 307.382 1050.88 307.588V295.529C1047.7 294.924 1045.35 293.914 1043.83 292.498C1042.31 291.082 1041.55 289.12 1041.55 286.612ZM1069.98 277.496H1074.47V288.183L1073.39 302.256H1071.13L1069.98 288.183V277.496ZM1069.98 305.398H1074.38V310H1069.98V305.398ZM1169.09 277.496H1174.29L1190.7 303.827V277.496H1194.89V310H1189.95L1173.29 283.691V310H1169.09V277.496ZM1206.61 277.496V297.587C1206.61 299.947 1207.05 301.909 1207.94 303.473C1209.25 305.833 1211.47 307.013 1214.58 307.013C1218.31 307.013 1220.85 305.737 1222.19 303.185C1222.91 301.798 1223.27 299.932 1223.27 297.587V277.496H1227.74V295.75C1227.74 299.748 1227.2 302.824 1226.13 304.977C1224.15 308.901 1220.42 310.863 1214.93 310.863C1209.44 310.863 1205.72 308.901 1203.76 304.977C1202.68 302.824 1202.14 299.748 1202.14 295.75V277.496H1206.61ZM1258.23 277.496V281.368H1247.28V310H1242.81V281.368H1231.86V277.496H1258.23ZM1276.33 276.655C1279.39 276.655 1282.03 277.245 1284.25 278.425C1287.49 280.122 1289.46 283.094 1290.18 287.342H1285.83C1285.29 284.967 1284.2 283.241 1282.53 282.165C1280.86 281.073 1278.76 280.527 1276.22 280.527C1273.21 280.527 1270.68 281.656 1268.61 283.913C1266.56 286.17 1265.54 289.533 1265.54 294.002C1265.54 297.867 1266.38 301.017 1268.08 303.451C1269.78 305.87 1272.54 307.079 1276.38 307.079C1279.31 307.079 1281.74 306.231 1283.66 304.535C1285.59 302.824 1286.58 300.065 1286.62 296.259H1276.44V292.608H1290.72V310H1287.88L1286.82 305.818C1285.33 307.455 1284.01 308.591 1282.86 309.226C1280.93 310.317 1278.47 310.863 1275.49 310.863C1271.64 310.863 1268.33 309.616 1265.56 307.124C1262.53 303.996 1261.02 299.704 1261.02 294.246C1261.02 288.803 1262.5 284.473 1265.45 281.257C1268.25 278.189 1271.88 276.655 1276.33 276.655ZM1314.24 296.68L1309.3 282.32L1304.06 296.68H1314.24ZM1307 277.496H1311.98L1323.77 310H1318.95L1315.65 300.264H1302.8L1299.28 310H1294.76L1307 277.496ZM1324.95 296.591L1350.81 286.457V290.44L1329.66 298.428L1350.81 306.438V310.42L1324.95 300.264V296.591ZM1362.56 310.863C1358.81 310.863 1356.09 309.838 1354.4 307.787C1352.71 305.722 1351.87 303.214 1351.87 300.264H1356.03C1356.21 302.315 1356.59 303.805 1357.18 304.734C1358.22 306.401 1360.08 307.234 1362.78 307.234C1364.88 307.234 1366.56 306.674 1367.83 305.553C1369.1 304.431 1369.73 302.986 1369.73 301.216C1369.73 299.033 1369.06 297.506 1367.72 296.635C1366.39 295.765 1364.54 295.33 1362.16 295.33C1361.9 295.33 1361.62 295.337 1361.34 295.352C1361.08 295.352 1360.81 295.36 1360.53 295.374V291.856C1360.94 291.9 1361.29 291.93 1361.57 291.945C1361.85 291.959 1362.15 291.967 1362.47 291.967C1363.96 291.967 1365.19 291.731 1366.15 291.259C1367.83 290.433 1368.67 288.958 1368.67 286.833C1368.67 285.255 1368.11 284.038 1366.99 283.182C1365.87 282.327 1364.56 281.899 1363.07 281.899C1360.41 281.899 1358.58 282.784 1357.56 284.554C1357 285.528 1356.68 286.914 1356.61 288.714H1352.67C1352.67 286.354 1353.14 284.348 1354.09 282.696C1355.71 279.745 1358.56 278.27 1362.65 278.27C1365.88 278.27 1368.38 278.993 1370.15 280.439C1371.92 281.87 1372.81 283.95 1372.81 286.678C1372.81 288.626 1372.28 290.204 1371.23 291.414C1370.59 292.166 1369.74 292.756 1368.71 293.184C1370.38 293.641 1371.68 294.526 1372.61 295.839C1373.55 297.137 1374.02 298.73 1374.02 300.618C1374.02 303.642 1373.03 306.106 1371.04 308.009C1369.04 309.911 1366.22 310.863 1362.56 310.863ZM1482.16 277.496H1486.65V288.183L1485.56 302.256H1483.31L1482.16 288.183V277.496ZM1482.16 305.398H1486.56V310H1482.16V305.398ZM1503.35 277.496L1511.16 296.591H1507.56L1501.67 281.943L1495.81 296.591H1492.18L1499.95 277.496H1503.35ZM1538.45 290.241C1538.45 289.326 1538.14 288.508 1537.52 287.785C1536.91 287.047 1536.07 286.678 1534.99 286.678C1533.31 286.678 1531.85 287.674 1530.61 289.666C1529.39 291.642 1528.78 293.612 1528.78 295.573C1528.78 297.019 1529.09 298.125 1529.73 298.892C1530.36 299.645 1531.16 300.021 1532.12 300.021C1534.11 300.021 1535.66 298.863 1536.76 296.547C1537.89 294.216 1538.45 292.114 1538.45 290.241ZM1534.04 310.951C1527.88 310.951 1523.13 309.026 1519.79 305.176C1517.12 302.093 1515.79 298.531 1515.79 294.489C1515.79 289.68 1517.41 285.594 1520.66 282.231C1524.26 278.484 1529.09 276.611 1535.15 276.611C1540.4 276.611 1544.53 277.938 1547.54 280.594C1550.36 283.101 1551.77 286.354 1551.77 290.352C1551.77 293.715 1550.76 296.591 1548.73 298.981C1546.73 301.356 1544.48 302.543 1541.99 302.543C1540.53 302.543 1539.45 302.197 1538.76 301.503C1538.06 300.795 1537.72 299.947 1537.72 298.959C1537.72 298.797 1537.73 298.627 1537.76 298.45C1537.79 298.273 1537.83 298.088 1537.87 297.897C1537.09 299.593 1536.1 300.795 1534.91 301.503C1533.71 302.197 1532.48 302.543 1531.21 302.543C1529.4 302.543 1527.92 301.887 1526.79 300.574C1525.66 299.261 1525.1 297.572 1525.1 295.507C1525.1 292.572 1526.06 289.983 1527.98 287.741C1529.91 285.498 1531.99 284.377 1534.2 284.377C1535.7 284.377 1536.94 284.812 1537.92 285.683C1538.9 286.553 1539.43 287.6 1539.49 288.825L1540.59 285.107H1543.84L1540.9 294.799C1540.68 295.551 1540.52 296.156 1540.42 296.613C1540.31 297.071 1540.26 297.476 1540.26 297.83C1540.26 298.494 1540.46 298.981 1540.86 299.291C1541.27 299.586 1541.74 299.733 1542.25 299.733C1543.93 299.733 1545.44 298.856 1546.77 297.1C1548.11 295.345 1548.78 293.051 1548.78 290.219C1548.78 286.796 1547.58 284.112 1545.19 282.165C1542.8 280.203 1539.59 279.222 1535.55 279.222C1529.94 279.222 1525.66 280.859 1522.69 284.134C1520.15 286.922 1518.89 290.425 1518.89 294.644C1518.89 298.332 1520.1 301.43 1522.51 303.937C1525.35 306.902 1529.38 308.385 1534.62 308.385C1537.07 308.385 1539.35 308.001 1541.46 307.234C1543.56 306.452 1545.5 305.405 1547.25 304.092L1548.71 306.084C1547.39 307.264 1545.4 308.37 1542.76 309.403C1540.12 310.435 1537.21 310.951 1534.04 310.951ZM1569.78 290.13C1571.18 289.142 1572.15 288.338 1572.68 287.718C1573.55 286.715 1573.98 285.602 1573.98 284.377C1573.98 283.418 1573.66 282.592 1573.03 281.899C1572.4 281.206 1571.54 280.859 1570.46 280.859C1568.83 280.859 1567.69 281.405 1567.06 282.497C1566.73 283.057 1566.57 283.669 1566.57 284.333C1566.57 285.233 1566.81 286.096 1567.3 286.922C1567.8 287.748 1568.63 288.817 1569.78 290.13ZM1568.76 307.256C1570.4 307.256 1571.81 306.88 1572.99 306.128C1574.17 305.376 1575.07 304.535 1575.71 303.605L1568.36 294.644C1566.28 296.031 1564.92 297.093 1564.29 297.83C1563.32 298.937 1562.83 300.286 1562.83 301.88C1562.83 303.605 1563.46 304.933 1564.71 305.862C1565.98 306.792 1567.33 307.256 1568.76 307.256ZM1566.15 291.923C1564.78 290.344 1563.85 289.017 1563.38 287.94C1562.93 286.863 1562.7 285.823 1562.7 284.82C1562.7 282.725 1563.4 280.992 1564.82 279.62C1566.24 278.233 1568.13 277.54 1570.51 277.54C1572.76 277.54 1574.53 278.182 1575.8 279.465C1577.06 280.749 1577.7 282.283 1577.7 284.068C1577.7 286.147 1577.04 287.969 1575.73 289.533C1574.96 290.447 1573.68 291.502 1571.88 292.697L1577.81 299.777C1578.21 298.597 1578.48 297.72 1578.63 297.144C1578.79 296.554 1578.95 295.736 1579.11 294.688H1582.9C1582.65 296.768 1582.15 298.767 1581.39 300.685C1580.64 302.588 1580.27 303.355 1580.27 302.986L1586.04 310H1580.91L1577.85 306.283C1576.64 307.596 1575.54 308.554 1574.53 309.159C1572.78 310.221 1570.76 310.752 1568.47 310.752C1565.09 310.752 1562.64 309.845 1561.1 308.031C1559.57 306.202 1558.8 304.144 1558.8 301.857C1558.8 299.394 1559.55 297.336 1561.04 295.684C1561.95 294.681 1563.66 293.427 1566.15 291.923ZM1600.47 276.965C1598.15 281.464 1596.65 284.776 1595.95 286.9C1594.91 290.13 1594.38 293.862 1594.38 298.096C1594.38 302.374 1594.98 306.283 1596.17 309.823C1596.91 312.006 1598.37 315.148 1600.53 319.249H1597.86C1595.7 315.886 1594.37 313.739 1593.85 312.81C1593.33 311.881 1592.77 310.62 1592.17 309.026C1591.34 306.843 1590.77 304.513 1590.44 302.034C1590.28 300.751 1590.2 299.527 1590.2 298.361C1590.2 293.995 1590.89 290.108 1592.26 286.701C1593.13 284.532 1594.94 281.287 1597.7 276.965H1600.47ZM1603.72 319.249C1606.07 314.676 1607.58 311.342 1608.26 309.248C1609.29 306.076 1609.8 302.359 1609.8 298.096C1609.8 293.833 1609.21 289.931 1608.01 286.391C1607.27 284.208 1605.82 281.066 1603.65 276.965H1606.33C1608.6 280.594 1609.97 282.836 1610.45 283.691C1610.93 284.532 1611.46 285.698 1612.02 287.187C1612.73 289.031 1613.23 290.853 1613.52 292.653C1613.83 294.452 1613.99 296.186 1613.99 297.852C1613.99 302.219 1613.29 306.113 1611.91 309.535C1611.04 311.733 1609.23 314.971 1606.49 319.249H1603.72ZM1619.27 300.309V296.591H1628.92V286.878H1632.71V296.591H1642.35V300.309H1632.71V310H1628.92V300.309H1619.27ZM1645.74 300.309V296.591H1655.39V286.878H1659.17V296.591H1668.82V300.309H1659.17V310H1655.39V300.309H1645.74ZM1670.17 315.664V313.43H1695.37V315.664H1670.17ZM1949.21 319.249C1951.55 314.676 1953.06 311.342 1953.74 309.248C1954.77 306.076 1955.29 302.359 1955.29 298.096C1955.29 293.833 1954.69 289.931 1953.5 286.391C1952.76 284.208 1951.31 281.066 1949.14 276.965H1951.82C1954.09 280.594 1955.46 282.836 1955.93 283.691C1956.42 284.532 1956.94 285.698 1957.5 287.187C1958.21 289.031 1958.71 290.853 1959.01 292.653C1959.32 294.452 1959.47 296.186 1959.47 297.852C1959.47 302.219 1958.78 306.113 1957.39 309.535C1956.52 311.733 1954.72 314.971 1951.97 319.249H1949.21ZM1967.97 277.496H1972.46V288.183L1971.38 302.256H1969.12L1967.97 288.183V277.496ZM1967.97 305.398H1972.37V310H1967.97V305.398ZM1985.29 277.496V282.43L1990.12 280.749L1991 283.205L1986.18 284.776L1989.17 288.935L1986.98 290.506L1984.08 286.192L1981.16 290.506L1978.9 288.935L1981.93 284.776L1977.06 283.205L1977.95 280.749L1982.73 282.474V277.496H1985.29ZM2006.4 276.965C2004.09 281.464 2002.58 284.776 2001.89 286.9C2000.84 290.13 2000.32 293.862 2000.32 298.096C2000.32 302.374 2000.92 306.283 2002.11 309.823C2002.85 312.006 2004.3 315.148 2006.47 319.249H2003.79C2001.64 315.886 2000.3 313.739 1999.79 312.81C1999.27 311.881 1998.71 310.62 1998.11 309.026C1997.28 306.843 1996.7 304.513 1996.38 302.034C1996.22 300.751 1996.14 299.527 1996.14 298.361C1996.14 293.995 1996.82 290.108 1998.19 286.701C1999.06 284.532 2000.88 281.287 2003.64 276.965H2006.4Z" fill="#FFEA00"/>
</g>
<defs>
<linearGradient id="paint0_linear_208_3976" x1="950.188" y1="-0.00118532" x2="949.377" y2="390.459" gradientUnits="userSpaceOnUse">
<stop stop-color="white" stop-opacity="0"/>
<stop offset="1" stop-color="#FFF36E"/>
</linearGradient>
<clipPath id="clip0_208_3976">
<rect width="1980" height="320" fill="white"/>
</clipPath>
</defs>
</svg>
