<svg width="1980" height="320" viewBox="0 0 1980 320" fill="none" xmlns="http://www.w3.org/2000/svg">
<g clip-path="url(#clip0_166_1923)">
<rect width="1980" height="320" fill="url(#paint0_linear_166_1923)"/>
<path d="M27.6362 290.241C27.6362 289.326 27.3265 288.508 26.7069 287.785C26.1021 287.047 25.2613 286.678 24.1845 286.678C22.5028 286.678 21.0425 287.674 19.8034 289.666C18.579 291.642 17.9669 293.612 17.9669 295.573C17.9669 297.019 18.284 298.125 18.9183 298.892C19.5526 299.645 20.3492 300.021 21.308 300.021C23.2994 300.021 24.8483 298.863 25.9546 296.547C27.0757 294.216 27.6362 292.114 27.6362 290.241ZM23.233 310.951C17.067 310.951 12.3172 309.026 8.98343 305.176C6.31348 302.093 4.9785 298.531 4.9785 294.489C4.9785 289.68 6.60113 285.594 9.84637 282.231C13.4456 278.484 18.2766 276.611 24.3394 276.611C29.5907 276.611 33.7211 277.938 36.7303 280.594C39.5478 283.101 40.9565 286.354 40.9565 290.352C40.9565 293.715 39.946 296.591 37.9251 298.981C35.919 301.356 33.6694 302.543 31.1765 302.543C29.7161 302.543 28.6393 302.197 27.946 301.503C27.2527 300.795 26.906 299.947 26.906 298.959C26.906 298.797 26.9208 298.627 26.9503 298.45C26.9798 298.273 27.0167 298.088 27.0609 297.897C26.2791 299.593 25.2908 300.795 24.096 301.503C22.9011 302.197 21.6694 302.543 20.4008 302.543C18.5864 302.543 17.1113 301.887 15.9755 300.574C14.8544 299.261 14.2938 297.572 14.2938 295.507C14.2938 292.572 15.2527 289.983 17.1703 287.741C19.1027 285.498 21.1752 284.377 23.3879 284.377C24.8925 284.377 26.1316 284.812 27.1052 285.683C28.0935 286.553 28.6172 287.6 28.6762 288.825L29.7825 285.107H33.0351L30.0923 294.799C29.871 295.551 29.7088 296.156 29.6055 296.613C29.5022 297.071 29.4506 297.476 29.4506 297.83C29.4506 298.494 29.6498 298.981 30.048 299.291C30.4611 299.586 30.9257 299.733 31.442 299.733C33.1236 299.733 34.6283 298.856 35.9559 297.1C37.2982 295.345 37.9694 293.051 37.9694 290.219C37.9694 286.796 36.7745 284.112 34.3849 282.165C31.9952 280.203 28.7794 279.222 24.7376 279.222C19.1322 279.222 14.847 280.859 11.882 284.134C9.34484 286.922 8.07624 290.425 8.07624 294.644C8.07624 298.332 9.28583 301.43 11.705 303.937C14.5372 306.902 18.5717 308.385 23.8083 308.385C26.257 308.385 28.536 308.001 30.6455 307.234C32.7549 306.452 34.6873 305.405 36.4426 304.092L37.903 306.084C36.5754 307.264 34.5914 308.37 31.9509 309.403C29.3105 310.435 26.4045 310.951 23.233 310.951ZM50.3603 287.564V284.51C53.2368 284.23 55.2429 283.765 56.3788 283.116C57.5146 282.452 58.3628 280.896 58.9234 278.447H62.0653V310H57.817V287.564H50.3603ZM72.2215 287.564V284.51C75.098 284.23 77.1041 283.765 78.2399 283.116C79.3758 282.452 80.224 280.896 80.7845 278.447H83.9265V310H79.6782V287.564H72.2215ZM103.066 277.496V282.43L107.89 280.749L108.775 283.205L103.951 284.776L106.938 288.935L104.748 290.506L101.849 286.192L98.9284 290.506L96.6715 288.935L99.7028 284.776L94.835 283.205L95.72 280.749L100.499 282.474V277.496H103.066ZM123.71 290.13C125.112 289.142 126.078 288.338 126.609 287.718C127.479 286.715 127.914 285.602 127.914 284.377C127.914 283.418 127.597 282.592 126.963 281.899C126.329 281.206 125.473 280.859 124.396 280.859C122.759 280.859 121.623 281.405 120.989 282.497C120.664 283.057 120.502 283.669 120.502 284.333C120.502 285.233 120.745 286.096 121.232 286.922C121.734 287.748 122.56 288.817 123.71 290.13ZM122.692 307.256C124.33 307.256 125.739 306.88 126.919 306.128C128.099 305.376 129.006 304.535 129.64 303.605L122.294 294.644C120.214 296.031 118.857 297.093 118.223 297.83C117.249 298.937 116.763 300.286 116.763 301.88C116.763 303.605 117.389 304.933 118.643 305.862C119.912 306.792 121.262 307.256 122.692 307.256ZM120.082 291.923C118.71 290.344 117.788 289.017 117.316 287.94C116.858 286.863 116.63 285.823 116.63 284.82C116.63 282.725 117.338 280.992 118.754 279.62C120.17 278.233 122.066 277.54 124.44 277.54C126.697 277.54 128.46 278.182 129.729 279.465C130.997 280.749 131.632 282.283 131.632 284.068C131.632 286.147 130.975 287.969 129.662 289.533C128.895 290.447 127.612 291.502 125.812 292.697L131.742 299.777C132.141 298.597 132.413 297.72 132.561 297.144C132.723 296.554 132.885 295.736 133.048 294.688H136.831C136.581 296.768 136.079 298.767 135.327 300.685C134.574 302.588 134.198 303.355 134.198 302.986L139.973 310H134.84L131.787 306.283C130.577 307.596 129.471 308.554 128.468 309.159C126.712 310.221 124.691 310.752 122.405 310.752C119.027 310.752 116.571 309.845 115.037 308.031C113.503 306.202 112.735 304.144 112.735 301.857C112.735 299.394 113.48 297.336 114.97 295.684C115.885 294.681 117.589 293.427 120.082 291.923ZM154.82 277.496L162.631 296.591H159.024L153.139 281.943L147.275 296.591H143.646L151.413 277.496H154.82ZM189.913 290.241C189.913 289.326 189.604 288.508 188.984 287.785C188.379 287.047 187.538 286.678 186.462 286.678C184.78 286.678 183.32 287.674 182.08 289.666C180.856 291.642 180.244 293.612 180.244 295.573C180.244 297.019 180.561 298.125 181.195 298.892C181.83 299.645 182.626 300.021 183.585 300.021C185.576 300.021 187.125 298.863 188.232 296.547C189.353 294.216 189.913 292.114 189.913 290.241ZM185.51 310.951C179.344 310.951 174.594 309.026 171.261 305.176C168.591 302.093 167.256 298.531 167.256 294.489C167.256 289.68 168.878 285.594 172.123 282.231C175.723 278.484 180.554 276.611 186.616 276.611C191.868 276.611 195.998 277.938 199.007 280.594C201.825 283.101 203.234 286.354 203.234 290.352C203.234 293.715 202.223 296.591 200.202 298.981C198.196 301.356 195.947 302.543 193.454 302.543C191.993 302.543 190.916 302.197 190.223 301.503C189.53 300.795 189.183 299.947 189.183 298.959C189.183 298.797 189.198 298.627 189.227 298.45C189.257 298.273 189.294 298.088 189.338 297.897C188.556 299.593 187.568 300.795 186.373 301.503C185.178 302.197 183.946 302.543 182.678 302.543C180.863 302.543 179.388 301.887 178.253 300.574C177.131 299.261 176.571 297.572 176.571 295.507C176.571 292.572 177.53 289.983 179.447 287.741C181.38 285.498 183.452 284.377 185.665 284.377C187.17 284.377 188.409 284.812 189.382 285.683C190.371 286.553 190.894 287.6 190.953 288.825L192.06 285.107H195.312L192.369 294.799C192.148 295.551 191.986 296.156 191.883 296.613C191.779 297.071 191.728 297.476 191.728 297.83C191.728 298.494 191.927 298.981 192.325 299.291C192.738 299.586 193.203 299.733 193.719 299.733C195.401 299.733 196.905 298.856 198.233 297.1C199.575 295.345 200.246 293.051 200.246 290.219C200.246 286.796 199.052 284.112 196.662 282.165C194.272 280.203 191.057 279.222 187.015 279.222C181.409 279.222 177.124 280.859 174.159 284.134C171.622 286.922 170.353 290.425 170.353 294.644C170.353 298.332 171.563 301.43 173.982 303.937C176.814 306.902 180.849 308.385 186.085 308.385C188.534 308.385 190.813 308.001 192.923 307.234C195.032 306.452 196.964 305.405 198.72 304.092L200.18 306.084C198.852 307.264 196.868 308.37 194.228 309.403C191.588 310.435 188.682 310.951 185.51 310.951ZM239.189 294.6C241.314 294.6 243.128 295.352 244.633 296.857C246.137 298.361 246.89 300.176 246.89 302.3C246.89 304.424 246.137 306.238 244.633 307.743C243.128 309.248 241.314 310 239.189 310C237.051 310 235.229 309.248 233.724 307.743C232.22 306.238 231.467 304.424 231.467 302.3C231.467 300.176 232.22 298.361 233.724 296.857C235.229 295.352 237.051 294.6 239.189 294.6ZM235.981 278.447H238.437L220.714 310.841H218.258L235.981 278.447ZM217.461 291.546C218.73 291.546 219.806 291.104 220.692 290.219C221.591 289.319 222.041 288.242 222.041 286.988C222.041 285.734 221.591 284.665 220.692 283.78C219.806 282.88 218.73 282.43 217.461 282.43C216.207 282.43 215.13 282.873 214.231 283.758C213.345 284.643 212.903 285.72 212.903 286.988C212.903 288.242 213.345 289.319 214.231 290.219C215.13 291.104 216.207 291.546 217.461 291.546ZM217.461 279.266C219.6 279.266 221.422 280.026 222.926 281.545C224.431 283.05 225.183 284.864 225.183 286.988C225.183 289.112 224.431 290.927 222.926 292.431C221.422 293.936 219.6 294.688 217.461 294.688C215.337 294.688 213.522 293.936 212.018 292.431C210.513 290.927 209.761 289.112 209.761 286.988C209.761 284.864 210.513 283.05 212.018 281.545C213.522 280.026 215.337 279.266 217.461 279.266ZM239.189 306.858C240.443 306.858 241.513 306.415 242.398 305.53C243.298 304.631 243.748 303.554 243.748 302.3C243.748 301.046 243.298 299.977 242.398 299.092C241.513 298.192 240.443 297.742 239.189 297.742C237.921 297.742 236.837 298.192 235.937 299.092C235.052 299.977 234.609 301.046 234.609 302.3C234.609 303.554 235.052 304.631 235.937 305.53C236.837 306.415 237.921 306.858 239.189 306.858ZM279.504 294.6C281.628 294.6 283.443 295.352 284.947 296.857C286.452 298.361 287.204 300.176 287.204 302.3C287.204 304.424 286.452 306.238 284.947 307.743C283.443 309.248 281.628 310 279.504 310C277.365 310 275.544 309.248 274.039 307.743C272.534 306.238 271.782 304.424 271.782 302.3C271.782 300.176 272.534 298.361 274.039 296.857C275.544 295.352 277.365 294.6 279.504 294.6ZM276.296 278.447H278.752L261.028 310.841H258.572L276.296 278.447ZM257.776 291.546C259.044 291.546 260.121 291.104 261.006 290.219C261.906 289.319 262.356 288.242 262.356 286.988C262.356 285.734 261.906 284.665 261.006 283.78C260.121 282.88 259.044 282.43 257.776 282.43C256.522 282.43 255.445 282.873 254.545 283.758C253.66 284.643 253.218 285.72 253.218 286.988C253.218 288.242 253.66 289.319 254.545 290.219C255.445 291.104 256.522 291.546 257.776 291.546ZM257.776 279.266C259.915 279.266 261.737 280.026 263.241 281.545C264.746 283.05 265.498 284.864 265.498 286.988C265.498 289.112 264.746 290.927 263.241 292.431C261.737 293.936 259.915 294.688 257.776 294.688C255.652 294.688 253.837 293.936 252.333 292.431C250.828 290.927 250.076 289.112 250.076 286.988C250.076 284.864 250.828 283.05 252.333 281.545C253.837 280.026 255.652 279.266 257.776 279.266ZM279.504 306.858C280.758 306.858 281.828 306.415 282.713 305.53C283.612 304.631 284.062 303.554 284.062 302.3C284.062 301.046 283.612 299.977 282.713 299.092C281.828 298.192 280.758 297.742 279.504 297.742C278.236 297.742 277.151 298.192 276.252 299.092C275.367 299.977 274.924 301.046 274.924 302.3C274.924 303.554 275.367 304.631 276.252 305.53C277.151 306.415 278.236 306.858 279.504 306.858ZM302.759 277.496L310.57 296.591H306.963L301.078 281.943L295.214 296.591H291.585L299.352 277.496H302.759ZM323.16 290.13C324.562 289.142 325.528 288.338 326.059 287.718C326.929 286.715 327.364 285.602 327.364 284.377C327.364 283.418 327.047 282.592 326.413 281.899C325.779 281.206 324.923 280.859 323.846 280.859C322.209 280.859 321.073 281.405 320.439 282.497C320.114 283.057 319.952 283.669 319.952 284.333C319.952 285.233 320.195 286.096 320.682 286.922C321.184 287.748 322.01 288.817 323.16 290.13ZM322.142 307.256C323.78 307.256 325.188 306.88 326.369 306.128C327.549 305.376 328.456 304.535 329.09 303.605L321.744 294.644C319.664 296.031 318.307 297.093 317.673 297.83C316.699 298.937 316.212 300.286 316.212 301.88C316.212 303.605 316.839 304.933 318.093 305.862C319.362 306.792 320.712 307.256 322.142 307.256ZM319.531 291.923C318.16 290.344 317.238 289.017 316.766 287.94C316.308 286.863 316.08 285.823 316.08 284.82C316.08 282.725 316.788 280.992 318.204 279.62C319.62 278.233 321.515 277.54 323.89 277.54C326.147 277.54 327.91 278.182 329.179 279.465C330.447 280.749 331.082 282.283 331.082 284.068C331.082 286.147 330.425 287.969 329.112 289.533C328.345 290.447 327.062 291.502 325.262 292.697L331.192 299.777C331.59 298.597 331.863 297.72 332.011 297.144C332.173 296.554 332.335 295.736 332.498 294.688H336.281C336.031 296.768 335.529 298.767 334.777 300.685C334.024 302.588 333.648 303.355 333.648 302.986L339.423 310H334.29L331.236 306.283C330.027 307.596 328.921 308.554 327.917 309.159C326.162 310.221 324.141 310.752 321.855 310.752C318.477 310.752 316.021 309.845 314.487 308.031C312.952 306.202 312.185 304.144 312.185 301.857C312.185 299.394 312.93 297.336 314.42 295.684C315.335 294.681 317.038 293.427 319.531 291.923ZM345.685 277.496H350.177V288.183L349.093 302.256H346.836L345.685 288.183V277.496ZM345.685 305.398H350.088V310H345.685V305.398ZM363.01 277.496V282.43L367.834 280.749L368.719 283.205L363.895 284.776L366.883 288.935L364.692 290.506L361.793 286.192L358.873 290.506L356.616 288.935L359.647 284.776L354.779 283.205L355.664 280.749L360.444 282.474V277.496H363.01ZM372.281 319.249C374.627 314.676 376.139 311.342 376.817 309.248C377.85 306.076 378.366 302.359 378.366 298.096C378.366 293.833 377.769 289.931 376.574 286.391C375.836 284.208 374.383 281.066 372.215 276.965H374.892C377.164 280.594 378.536 282.836 379.008 283.691C379.495 284.532 380.018 285.698 380.579 287.187C381.287 289.031 381.789 290.853 382.084 292.653C382.393 294.452 382.548 296.186 382.548 297.852C382.548 302.219 381.855 306.113 380.468 309.535C379.598 311.733 377.791 314.971 375.047 319.249H372.281ZM413.437 290.241C413.437 289.326 413.127 288.508 412.508 287.785C411.903 287.047 411.062 286.678 409.985 286.678C408.304 286.678 406.843 287.674 405.604 289.666C404.38 291.642 403.768 293.612 403.768 295.573C403.768 297.019 404.085 298.125 404.719 298.892C405.353 299.645 406.15 300.021 407.109 300.021C409.1 300.021 410.649 298.863 411.755 296.547C412.877 294.216 413.437 292.114 413.437 290.241ZM409.034 310.951C402.868 310.951 398.118 309.026 394.784 305.176C392.114 302.093 390.779 298.531 390.779 294.489C390.779 289.68 392.402 285.594 395.647 282.231C399.246 278.484 404.077 276.611 410.14 276.611C415.392 276.611 419.522 277.938 422.531 280.594C425.349 283.101 426.757 286.354 426.757 290.352C426.757 293.715 425.747 296.591 423.726 298.981C421.72 301.356 419.47 302.543 416.977 302.543C415.517 302.543 414.44 302.197 413.747 301.503C413.054 300.795 412.707 299.947 412.707 298.959C412.707 298.797 412.722 298.627 412.751 298.45C412.781 298.273 412.818 298.088 412.862 297.897C412.08 299.593 411.092 300.795 409.897 301.503C408.702 302.197 407.47 302.543 406.202 302.543C404.387 302.543 402.912 301.887 401.776 300.574C400.655 299.261 400.095 297.572 400.095 295.507C400.095 292.572 401.054 289.983 402.971 287.741C404.904 285.498 406.976 284.377 409.189 284.377C410.693 284.377 411.932 284.812 412.906 285.683C413.894 286.553 414.418 287.6 414.477 288.825L415.583 285.107H418.836L415.893 294.799C415.672 295.551 415.51 296.156 415.406 296.613C415.303 297.071 415.251 297.476 415.251 297.83C415.251 298.494 415.451 298.981 415.849 299.291C416.262 299.586 416.727 299.733 417.243 299.733C418.924 299.733 420.429 298.856 421.757 297.1C423.099 295.345 423.77 293.051 423.77 290.219C423.77 286.796 422.575 284.112 420.186 282.165C417.796 280.203 414.58 279.222 410.538 279.222C404.933 279.222 400.648 280.859 397.683 284.134C395.146 286.922 393.877 290.425 393.877 294.644C393.877 298.332 395.087 301.43 397.506 303.937C400.338 306.902 404.373 308.385 409.609 308.385C412.058 308.385 414.337 308.001 416.446 307.234C418.556 306.452 420.488 305.405 422.243 304.092L423.704 306.084C422.376 307.264 420.392 308.37 417.752 309.403C415.111 310.435 412.205 310.951 409.034 310.951ZM459.461 290.241C459.461 289.326 459.151 288.508 458.531 287.785C457.926 287.047 457.086 286.678 456.009 286.678C454.327 286.678 452.867 287.674 451.628 289.666C450.403 291.642 449.791 293.612 449.791 295.573C449.791 297.019 450.108 298.125 450.743 298.892C451.377 299.645 452.174 300.021 453.132 300.021C455.124 300.021 456.673 298.863 457.779 296.547C458.9 294.216 459.461 292.114 459.461 290.241ZM455.057 310.951C448.891 310.951 444.142 309.026 440.808 305.176C438.138 302.093 436.803 298.531 436.803 294.489C436.803 289.68 438.425 285.594 441.671 282.231C445.27 278.484 450.101 276.611 456.164 276.611C461.415 276.611 465.545 277.938 468.555 280.594C471.372 283.101 472.781 286.354 472.781 290.352C472.781 293.715 471.77 296.591 469.749 298.981C467.743 301.356 465.494 302.543 463.001 302.543C461.54 302.543 460.464 302.197 459.77 301.503C459.077 300.795 458.73 299.947 458.73 298.959C458.73 298.797 458.745 298.627 458.775 298.45C458.804 298.273 458.841 298.088 458.885 297.897C458.103 299.593 457.115 300.795 455.92 301.503C454.725 302.197 453.494 302.543 452.225 302.543C450.411 302.543 448.936 301.887 447.8 300.574C446.679 299.261 446.118 297.572 446.118 295.507C446.118 292.572 447.077 289.983 448.995 287.741C450.927 285.498 453 284.377 455.212 284.377C456.717 284.377 457.956 284.812 458.93 285.683C459.918 286.553 460.442 287.6 460.501 288.825L461.607 285.107H464.859L461.917 294.799C461.695 295.551 461.533 296.156 461.43 296.613C461.327 297.071 461.275 297.476 461.275 297.83C461.275 298.494 461.474 298.981 461.872 299.291C462.285 299.586 462.75 299.733 463.266 299.733C464.948 299.733 466.453 298.856 467.78 297.1C469.123 295.345 469.794 293.051 469.794 290.219C469.794 286.796 468.599 284.112 466.209 282.165C463.82 280.203 460.604 279.222 456.562 279.222C450.957 279.222 446.671 280.859 443.706 284.134C441.169 286.922 439.901 290.425 439.901 294.644C439.901 298.332 441.11 301.43 443.529 303.937C446.362 306.902 450.396 308.385 455.633 308.385C458.081 308.385 460.36 308.001 462.47 307.234C464.579 306.452 466.512 305.405 468.267 304.092L469.727 306.084C468.4 307.264 466.416 308.37 463.775 309.403C461.135 310.435 458.229 310.951 455.057 310.951ZM478.512 297.587H483.667L485.747 289.975H480.614L481.3 287.409H486.433L489.066 277.496H492.363L489.686 287.409H494.576L497.297 277.496H500.55L497.872 287.409H503.006L502.32 289.975H497.187L495.085 297.587H500.24L499.554 300.154H494.465L491.743 310H488.491L491.168 300.154H486.234L483.601 310H480.304L482.981 300.154H477.848L478.512 297.587ZM491.788 297.587L493.89 289.975H489L486.964 297.587H491.788ZM504.643 319.249C506.989 314.676 508.501 311.342 509.179 309.248C510.212 306.076 510.728 302.359 510.728 298.096C510.728 293.833 510.131 289.931 508.936 286.391C508.198 284.208 506.745 281.066 504.577 276.965H507.254C509.526 280.594 510.898 282.836 511.37 283.691C511.857 284.532 512.38 285.698 512.941 287.187C513.649 289.031 514.15 290.853 514.445 292.653C514.755 294.452 514.91 296.186 514.91 297.852C514.91 302.219 514.217 306.113 512.83 309.535C511.96 311.733 510.153 314.971 507.409 319.249H504.643ZM531.571 276.965C529.256 281.464 527.751 284.776 527.058 286.9C526.01 290.13 525.487 293.862 525.487 298.096C525.487 302.374 526.084 306.283 527.279 309.823C528.016 312.006 529.469 315.148 531.638 319.249H528.96C526.807 315.886 525.472 313.739 524.956 312.81C524.439 311.881 523.879 310.62 523.274 309.026C522.448 306.843 521.873 304.513 521.548 302.034C521.386 300.751 521.305 299.527 521.305 298.361C521.305 293.995 521.991 290.108 523.362 286.701C524.233 284.532 526.047 281.287 528.806 276.965H531.571ZM546.197 290.13C547.599 289.142 548.565 288.338 549.096 287.718C549.966 286.715 550.401 285.602 550.401 284.377C550.401 283.418 550.084 282.592 549.45 281.899C548.815 281.206 547.96 280.859 546.883 280.859C545.246 280.859 544.11 281.405 543.476 282.497C543.151 283.057 542.989 283.669 542.989 284.333C542.989 285.233 543.232 286.096 543.719 286.922C544.221 287.748 545.047 288.817 546.197 290.13ZM545.179 307.256C546.817 307.256 548.225 306.88 549.406 306.128C550.586 305.376 551.493 304.535 552.127 303.605L544.781 294.644C542.701 296.031 541.344 297.093 540.71 297.83C539.736 298.937 539.249 300.286 539.249 301.88C539.249 303.605 539.876 304.933 541.13 305.862C542.399 306.792 543.748 307.256 545.179 307.256ZM542.568 291.923C541.197 290.344 540.275 289.017 539.803 287.94C539.345 286.863 539.117 285.823 539.117 284.82C539.117 282.725 539.825 280.992 541.241 279.62C542.657 278.233 544.552 277.54 546.927 277.54C549.184 277.54 550.947 278.182 552.216 279.465C553.484 280.749 554.119 282.283 554.119 284.068C554.119 286.147 553.462 287.969 552.149 289.533C551.382 290.447 550.099 291.502 548.299 292.697L554.229 299.777C554.627 298.597 554.9 297.72 555.048 297.144C555.21 296.554 555.372 295.736 555.535 294.688H559.318C559.068 296.768 558.566 298.767 557.814 300.685C557.061 302.588 556.685 303.355 556.685 302.986L562.46 310H557.327L554.273 306.283C553.064 307.596 551.957 308.554 550.954 309.159C549.199 310.221 547.178 310.752 544.892 310.752C541.514 310.752 539.058 309.845 537.524 308.031C535.989 306.202 535.222 304.144 535.222 301.857C535.222 299.394 535.967 297.336 537.457 295.684C538.372 294.681 540.075 293.427 542.568 291.923ZM576.997 307.699C579.52 307.581 581.261 306.659 582.219 304.933C582.721 304.048 582.972 303.023 582.972 301.857C582.972 300.013 582.293 298.612 580.936 297.653C580.154 297.093 578.841 296.562 576.997 296.06V307.699ZM569.497 286.347C569.497 287.807 569.976 288.95 570.935 289.776C571.908 290.602 573.214 291.178 574.851 291.502V281.103C572.919 281.176 571.54 281.766 570.714 282.873C569.902 283.979 569.497 285.137 569.497 286.347ZM565.514 286.612C565.514 284.37 566.332 282.349 567.97 280.549C569.622 278.75 571.93 277.835 574.895 277.806V274.863H576.997V277.761C579.933 277.968 582.183 278.838 583.746 280.372C585.324 281.892 586.151 283.905 586.224 286.413H582.352C582.249 285.292 581.946 284.326 581.445 283.514C580.516 282.024 579.033 281.243 576.997 281.169V291.923C580.42 292.881 582.743 293.781 583.967 294.622C585.959 296.009 586.954 298.059 586.954 300.773C586.954 304.697 585.679 307.485 583.127 309.137C581.71 310.052 579.667 310.656 576.997 310.951V315.244H574.895V310.951C570.603 310.671 567.69 309.152 566.155 306.393C565.315 304.903 564.894 302.89 564.894 300.353H568.811C568.929 302.374 569.246 303.849 569.762 304.778C570.677 306.445 572.373 307.382 574.851 307.588V295.529C571.665 294.924 569.312 293.914 567.793 292.498C566.273 291.082 565.514 289.12 565.514 286.612ZM602.532 277.496L610.342 296.591H606.736L600.85 281.943L594.986 296.591H591.358L599.124 277.496H602.532ZM665.681 277.496H670.173V288.183L669.089 302.256H666.832L665.681 288.183V277.496ZM665.681 305.398H670.084V310H665.681V305.398ZM686.879 277.496L694.689 296.591H691.083L685.197 281.943L679.333 296.591H675.705L683.471 277.496H686.879ZM708.164 277.496L715.975 296.591H712.369L706.483 281.943L700.619 296.591H696.99L704.757 277.496H708.164ZM867.631 297.587H872.787L874.867 289.975H869.733L870.419 287.409H875.553L878.186 277.496H881.483L878.805 287.409H883.695L886.417 277.496H889.67L886.992 287.409H892.126L891.44 289.975H886.306L884.204 297.587H889.36L888.674 300.154H883.585L880.863 310H877.611L880.288 300.154H875.354L872.721 310H869.424L872.101 300.154H866.968L867.631 297.587ZM880.907 297.587L883.009 289.975H878.119L876.084 297.587H880.907ZM902.149 277.496V282.43L906.973 280.749L907.858 283.205L903.034 284.776L906.021 288.935L903.831 290.506L900.932 286.192L898.011 290.506L895.754 288.935L898.786 284.776L893.918 283.205L894.803 280.749L899.582 282.474V277.496H902.149ZM915.093 277.496H919.585V288.183L918.501 302.256H916.244L915.093 288.183V277.496ZM915.093 305.398H919.496V310H915.093V305.398ZM935.405 290.13C936.807 289.142 937.773 288.338 938.304 287.718C939.174 286.715 939.61 285.602 939.61 284.377C939.61 283.418 939.292 282.592 938.658 281.899C938.024 281.206 937.168 280.859 936.091 280.859C934.454 280.859 933.318 281.405 932.684 282.497C932.359 283.057 932.197 283.669 932.197 284.333C932.197 285.233 932.44 286.096 932.927 286.922C933.429 287.748 934.255 288.817 935.405 290.13ZM934.388 307.256C936.025 307.256 937.434 306.88 938.614 306.128C939.794 305.376 940.701 304.535 941.335 303.605L933.989 294.644C931.909 296.031 930.552 297.093 929.918 297.83C928.944 298.937 928.458 300.286 928.458 301.88C928.458 303.605 929.085 304.933 930.338 305.862C931.607 306.792 932.957 307.256 934.388 307.256ZM931.777 291.923C930.405 290.344 929.483 289.017 929.011 287.94C928.554 286.863 928.325 285.823 928.325 284.82C928.325 282.725 929.033 280.992 930.449 279.62C931.865 278.233 933.761 277.54 936.136 277.54C938.393 277.54 940.155 278.182 941.424 279.465C942.693 280.749 943.327 282.283 943.327 284.068C943.327 286.147 942.67 287.969 941.358 289.533C940.59 290.447 939.307 291.502 937.508 292.697L943.437 299.777C943.836 298.597 944.109 297.72 944.256 297.144C944.418 296.554 944.581 295.736 944.743 294.688H948.527C948.276 296.768 947.774 298.767 947.022 300.685C946.27 302.588 945.894 303.355 945.894 302.986L951.669 310H946.535L943.482 306.283C942.272 307.596 941.166 308.554 940.163 309.159C938.407 310.221 936.386 310.752 934.1 310.752C930.722 310.752 928.266 309.845 926.732 308.031C925.198 306.202 924.431 304.144 924.431 301.857C924.431 299.394 925.176 297.336 926.665 295.684C927.58 294.681 929.284 293.427 931.777 291.923ZM953.35 297.587H958.506L960.586 289.975H955.452L956.138 287.409H961.272L963.905 277.496H967.202L964.524 287.409H969.414L972.136 277.496H975.388L972.711 287.409H977.844L977.159 289.975H972.025L969.923 297.587H975.079L974.393 300.154H969.304L966.582 310H963.329L966.007 300.154H961.072L958.439 310H955.142L957.82 300.154H952.686L953.35 297.587ZM966.626 297.587L968.728 289.975H963.838L961.803 297.587H966.626ZM991.74 277.496L999.551 296.591H995.944L990.058 281.943L984.195 296.591H980.566L988.332 277.496H991.74ZM1030.09 294.6C1032.21 294.6 1034.02 295.352 1035.53 296.857C1037.03 298.361 1037.79 300.176 1037.79 302.3C1037.79 304.424 1037.03 306.238 1035.53 307.743C1034.02 309.248 1032.21 310 1030.09 310C1027.95 310 1026.12 309.248 1024.62 307.743C1023.12 306.238 1022.36 304.424 1022.36 302.3C1022.36 300.176 1023.12 298.361 1024.62 296.857C1026.12 295.352 1027.95 294.6 1030.09 294.6ZM1026.88 278.447H1029.33L1011.61 310.841H1009.15L1026.88 278.447ZM1008.36 291.546C1009.63 291.546 1010.7 291.104 1011.59 290.219C1012.49 289.319 1012.94 288.242 1012.94 286.988C1012.94 285.734 1012.49 284.665 1011.59 283.78C1010.7 282.88 1009.63 282.43 1008.36 282.43C1007.1 282.43 1006.03 282.873 1005.13 283.758C1004.24 284.643 1003.8 285.72 1003.8 286.988C1003.8 288.242 1004.24 289.319 1005.13 290.219C1006.03 291.104 1007.1 291.546 1008.36 291.546ZM1008.36 279.266C1010.5 279.266 1012.32 280.026 1013.82 281.545C1015.33 283.05 1016.08 284.864 1016.08 286.988C1016.08 289.112 1015.33 290.927 1013.82 292.431C1012.32 293.936 1010.5 294.688 1008.36 294.688C1006.23 294.688 1004.42 293.936 1002.91 292.431C1001.41 290.927 1000.66 289.112 1000.66 286.988C1000.66 284.864 1001.41 283.05 1002.91 281.545C1004.42 280.026 1006.23 279.266 1008.36 279.266ZM1030.09 306.858C1031.34 306.858 1032.41 306.415 1033.29 305.53C1034.19 304.631 1034.64 303.554 1034.64 302.3C1034.64 301.046 1034.19 299.977 1033.29 299.092C1032.41 298.192 1031.34 297.742 1030.09 297.742C1028.82 297.742 1027.73 298.192 1026.83 299.092C1025.95 299.977 1025.51 301.046 1025.51 302.3C1025.51 303.554 1025.95 304.631 1026.83 305.53C1027.73 306.415 1028.82 306.858 1030.09 306.858ZM1053.03 307.699C1055.55 307.581 1057.29 306.659 1058.25 304.933C1058.75 304.048 1059.01 303.023 1059.01 301.857C1059.01 300.013 1058.33 298.612 1056.97 297.653C1056.19 297.093 1054.87 296.562 1053.03 296.06V307.699ZM1045.53 286.347C1045.53 287.807 1046.01 288.95 1046.97 289.776C1047.94 290.602 1049.25 291.178 1050.88 291.502V281.103C1048.95 281.176 1047.57 281.766 1046.75 282.873C1045.94 283.979 1045.53 285.137 1045.53 286.347ZM1041.55 286.612C1041.55 284.37 1042.37 282.349 1044 280.549C1045.66 278.75 1047.96 277.835 1050.93 277.806V274.863H1053.03V277.761C1055.97 277.968 1058.22 278.838 1059.78 280.372C1061.36 281.892 1062.18 283.905 1062.26 286.413H1058.39C1058.28 285.292 1057.98 284.326 1057.48 283.514C1056.55 282.024 1055.07 281.243 1053.03 281.169V291.923C1056.45 292.881 1058.78 293.781 1060 294.622C1061.99 296.009 1062.99 298.059 1062.99 300.773C1062.99 304.697 1061.71 307.485 1059.16 309.137C1057.74 310.052 1055.7 310.656 1053.03 310.951V315.244H1050.93V310.951C1046.64 310.671 1043.72 309.152 1042.19 306.393C1041.35 304.903 1040.93 302.89 1040.93 300.353H1044.84C1044.96 302.374 1045.28 303.849 1045.8 304.778C1046.71 306.445 1048.41 307.382 1050.88 307.588V295.529C1047.7 294.924 1045.35 293.914 1043.83 292.498C1042.31 291.082 1041.55 289.12 1041.55 286.612ZM1069.98 277.496H1074.47V288.183L1073.39 302.256H1071.13L1069.98 288.183V277.496ZM1069.98 305.398H1074.38V310H1069.98V305.398ZM1156.47 277.496H1161.67L1178.09 303.827V277.496H1182.27V310H1177.34L1160.68 283.691V310H1156.47V277.496ZM1194 277.496V297.587C1194 299.947 1194.44 301.909 1195.33 303.473C1196.64 305.833 1198.85 307.013 1201.97 307.013C1205.7 307.013 1208.23 305.737 1209.58 303.185C1210.3 301.798 1210.66 299.932 1210.66 297.587V277.496H1215.13V295.75C1215.13 299.748 1214.59 302.824 1213.52 304.977C1211.54 308.901 1207.81 310.863 1202.32 310.863C1196.83 310.863 1193.11 308.901 1191.15 304.977C1190.07 302.824 1189.53 299.748 1189.53 295.75V277.496H1194ZM1245.62 277.496V281.368H1234.67V310H1230.2V281.368H1219.25V277.496H1245.62ZM1263.72 276.655C1266.77 276.655 1269.42 277.245 1271.64 278.425C1274.87 280.122 1276.85 283.094 1277.57 287.342H1273.21C1272.68 284.967 1271.58 283.241 1269.92 282.165C1268.25 281.073 1266.15 280.527 1263.61 280.527C1260.6 280.527 1258.06 281.656 1256 283.913C1253.95 286.17 1252.92 289.533 1252.92 294.002C1252.92 297.867 1253.77 301.017 1255.47 303.451C1257.16 305.87 1259.93 307.079 1263.77 307.079C1266.7 307.079 1269.13 306.231 1271.05 304.535C1272.98 302.824 1273.97 300.065 1274.01 296.259H1263.83V292.608H1278.1V310H1275.27L1274.21 305.818C1272.72 307.455 1271.4 308.591 1270.25 309.226C1268.32 310.317 1265.86 310.863 1262.88 310.863C1259.03 310.863 1255.72 309.616 1252.95 307.124C1249.92 303.996 1248.41 299.704 1248.41 294.246C1248.41 288.803 1249.88 284.473 1252.83 281.257C1255.64 278.189 1259.27 276.655 1263.72 276.655ZM1301.62 296.68L1296.69 282.32L1291.45 296.68H1301.62ZM1294.39 277.496H1299.37L1311.16 310H1306.34L1303.04 300.264H1290.18L1286.67 310H1282.15L1294.39 277.496ZM1311.71 315.664V313.43H1336.92V315.664H1311.71ZM1352.87 306.238C1354.36 306.238 1355.58 306.084 1356.54 305.774C1358.25 305.199 1359.66 304.092 1360.75 302.455C1361.62 301.142 1362.24 299.46 1362.63 297.41C1362.85 296.186 1362.96 295.05 1362.96 294.002C1362.96 289.975 1362.16 286.848 1360.55 284.621C1358.95 282.393 1356.38 281.28 1352.83 281.28H1345.01V306.238H1352.87ZM1340.59 277.496H1353.75C1358.22 277.496 1361.69 279.082 1364.15 282.253C1366.35 285.115 1367.45 288.781 1367.45 293.25C1367.45 296.702 1366.8 299.822 1365.5 302.61C1363.22 307.537 1359.29 310 1353.71 310H1340.59V277.496ZM1389.82 296.68L1384.89 282.32L1379.64 296.68H1389.82ZM1382.59 277.496H1387.56L1399.36 310H1394.53L1391.24 300.264H1378.38L1374.86 310H1370.35L1382.59 277.496ZM1400.57 297.587H1405.73L1407.81 289.975H1402.68L1403.36 287.409H1408.5L1411.13 277.496H1414.43L1411.75 287.409H1416.64L1419.36 277.496H1422.61L1419.94 287.409H1425.07L1424.38 289.975H1419.25L1417.15 297.587H1422.3L1421.62 300.154H1416.53L1413.81 310H1410.55L1413.23 300.154H1408.3L1405.66 310H1402.37L1405.04 300.154H1399.91L1400.57 297.587ZM1413.85 297.587L1415.95 289.975H1411.06L1409.03 297.587H1413.85ZM1442.64 276.655C1445.69 276.655 1448.33 277.245 1450.56 278.425C1453.79 280.122 1455.77 283.094 1456.49 287.342H1452.13C1451.6 284.967 1450.5 283.241 1448.83 282.165C1447.17 281.073 1445.06 280.527 1442.53 280.527C1439.52 280.527 1436.98 281.656 1434.92 283.913C1432.86 286.17 1431.84 289.533 1431.84 294.002C1431.84 297.867 1432.69 301.017 1434.38 303.451C1436.08 305.87 1438.85 307.079 1442.68 307.079C1445.62 307.079 1448.04 306.231 1449.96 304.535C1451.89 302.824 1452.88 300.065 1452.93 296.259H1442.75V292.608H1457.02V310H1454.19L1453.13 305.818C1451.64 307.455 1450.32 308.591 1449.16 309.226C1447.23 310.317 1444.78 310.863 1441.8 310.863C1437.95 310.863 1434.64 309.616 1431.86 307.124C1428.84 303.996 1427.33 299.704 1427.33 294.246C1427.33 288.803 1428.8 284.473 1431.75 281.257C1434.55 278.189 1438.18 276.655 1442.64 276.655ZM1477.89 276.611C1483.62 276.611 1487.87 278.455 1490.63 282.143C1492.78 285.019 1493.86 288.699 1493.86 293.184C1493.86 298.037 1492.63 302.071 1490.17 305.287C1487.27 309.063 1483.15 310.951 1477.8 310.951C1472.8 310.951 1468.87 309.299 1466 305.995C1463.45 302.809 1462.18 298.782 1462.18 293.914C1462.18 289.518 1463.27 285.757 1465.45 282.629C1468.25 278.617 1472.4 276.611 1477.89 276.611ZM1478.33 307.013C1482.21 307.013 1485.01 305.626 1486.74 302.853C1488.48 300.065 1489.35 296.864 1489.35 293.25C1489.35 289.43 1488.34 286.354 1486.34 284.023C1484.35 281.693 1481.62 280.527 1478.15 280.527C1474.79 280.527 1472.04 281.685 1469.92 284.001C1467.8 286.302 1466.73 289.702 1466.73 294.202C1466.73 297.801 1467.64 300.84 1469.46 303.318C1471.28 305.781 1474.24 307.013 1478.33 307.013ZM1523.31 290.241C1523.31 289.326 1523 288.508 1522.38 287.785C1521.78 287.047 1520.94 286.678 1519.86 286.678C1518.18 286.678 1516.72 287.674 1515.48 289.666C1514.25 291.642 1513.64 293.612 1513.64 295.573C1513.64 297.019 1513.96 298.125 1514.59 298.892C1515.23 299.645 1516.02 300.021 1516.98 300.021C1518.97 300.021 1520.52 298.863 1521.63 296.547C1522.75 294.216 1523.31 292.114 1523.31 290.241ZM1518.91 310.951C1512.74 310.951 1507.99 309.026 1504.66 305.176C1501.99 302.093 1500.65 298.531 1500.65 294.489C1500.65 289.68 1502.28 285.594 1505.52 282.231C1509.12 278.484 1513.95 276.611 1520.01 276.611C1525.27 276.611 1529.4 277.938 1532.41 280.594C1535.22 283.101 1536.63 286.354 1536.63 290.352C1536.63 293.715 1535.62 296.591 1533.6 298.981C1531.59 301.356 1529.34 302.543 1526.85 302.543C1525.39 302.543 1524.31 302.197 1523.62 301.503C1522.93 300.795 1522.58 299.947 1522.58 298.959C1522.58 298.797 1522.6 298.627 1522.63 298.45C1522.65 298.273 1522.69 298.088 1522.74 297.897C1521.95 299.593 1520.97 300.795 1519.77 301.503C1518.58 302.197 1517.34 302.543 1516.08 302.543C1514.26 302.543 1512.79 301.887 1511.65 300.574C1510.53 299.261 1509.97 297.572 1509.97 295.507C1509.97 292.572 1510.93 289.983 1512.85 287.741C1514.78 285.498 1516.85 284.377 1519.06 284.377C1520.57 284.377 1521.81 284.812 1522.78 285.683C1523.77 286.553 1524.29 287.6 1524.35 288.825L1525.46 285.107H1528.71L1525.77 294.799C1525.55 295.551 1525.38 296.156 1525.28 296.613C1525.18 297.071 1525.13 297.476 1525.13 297.83C1525.13 298.494 1525.32 298.981 1525.72 299.291C1526.14 299.586 1526.6 299.733 1527.12 299.733C1528.8 299.733 1530.3 298.856 1531.63 297.1C1532.97 295.345 1533.64 293.051 1533.64 290.219C1533.64 286.796 1532.45 284.112 1530.06 282.165C1527.67 280.203 1524.45 279.222 1520.41 279.222C1514.81 279.222 1510.52 280.859 1507.56 284.134C1505.02 286.922 1503.75 290.425 1503.75 294.644C1503.75 298.332 1504.96 301.43 1507.38 303.937C1510.21 306.902 1514.25 308.385 1519.48 308.385C1521.93 308.385 1524.21 308.001 1526.32 307.234C1528.43 306.452 1530.36 305.405 1532.12 304.092L1533.58 306.084C1532.25 307.264 1530.27 308.37 1527.63 309.403C1524.99 310.435 1522.08 310.951 1518.91 310.951ZM1568.8 277.496V281.368H1557.85V310H1553.38V281.368H1542.43V277.496H1568.8ZM1570.02 296.591L1595.89 286.457V290.44L1574.73 298.428L1595.89 306.438V310.42L1570.02 300.264V296.591ZM1607.64 310.863C1603.89 310.863 1601.17 309.838 1599.47 307.787C1597.79 305.722 1596.95 303.214 1596.95 300.264H1601.11C1601.29 302.315 1601.67 303.805 1602.26 304.734C1603.29 306.401 1605.16 307.234 1607.86 307.234C1609.95 307.234 1611.63 306.674 1612.9 305.553C1614.17 304.431 1614.81 302.986 1614.81 301.216C1614.81 299.033 1614.13 297.506 1612.79 296.635C1611.46 295.765 1609.61 295.33 1607.24 295.33C1606.97 295.33 1606.7 295.337 1606.42 295.352C1606.15 295.352 1605.88 295.36 1605.6 295.374V291.856C1606.01 291.9 1606.36 291.93 1606.64 291.945C1606.92 291.959 1607.22 291.967 1607.55 291.967C1609.04 291.967 1610.26 291.731 1611.22 291.259C1612.9 290.433 1613.74 288.958 1613.74 286.833C1613.74 285.255 1613.18 284.038 1612.06 283.182C1610.94 282.327 1609.63 281.899 1608.15 281.899C1605.49 281.899 1603.65 282.784 1602.64 284.554C1602.07 285.528 1601.76 286.914 1601.68 288.714H1597.75C1597.75 286.354 1598.22 284.348 1599.16 282.696C1600.78 279.745 1603.64 278.27 1607.72 278.27C1610.96 278.27 1613.46 278.993 1615.23 280.439C1617 281.87 1617.88 283.95 1617.88 286.678C1617.88 288.626 1617.36 290.204 1616.31 291.414C1615.66 292.166 1614.82 292.756 1613.79 293.184C1615.45 293.641 1616.75 294.526 1617.68 295.839C1618.63 297.137 1619.1 298.73 1619.1 300.618C1619.1 303.642 1618.1 306.106 1616.11 308.009C1614.12 309.911 1611.29 310.863 1607.64 310.863ZM1727.23 277.496H1731.72V288.183L1730.64 302.256H1728.38L1727.23 288.183V277.496ZM1727.23 305.398H1731.63V310H1727.23V305.398ZM1748.43 277.496L1756.24 296.591H1752.63L1746.75 281.943L1740.88 296.591H1737.25L1745.02 277.496H1748.43ZM1783.52 290.241C1783.52 289.326 1783.21 288.508 1782.59 287.785C1781.99 287.047 1781.15 286.678 1780.07 286.678C1778.39 286.678 1776.93 287.674 1775.69 289.666C1774.46 291.642 1773.85 293.612 1773.85 295.573C1773.85 297.019 1774.17 298.125 1774.8 298.892C1775.44 299.645 1776.23 300.021 1777.19 300.021C1779.18 300.021 1780.73 298.863 1781.84 296.547C1782.96 294.216 1783.52 292.114 1783.52 290.241ZM1779.12 310.951C1772.95 310.951 1768.2 309.026 1764.87 305.176C1762.2 302.093 1760.86 298.531 1760.86 294.489C1760.86 289.68 1762.49 285.594 1765.73 282.231C1769.33 278.484 1774.16 276.611 1780.22 276.611C1785.48 276.611 1789.61 277.938 1792.62 280.594C1795.43 283.101 1796.84 286.354 1796.84 290.352C1796.84 293.715 1795.83 296.591 1793.81 298.981C1791.8 301.356 1789.55 302.543 1787.06 302.543C1785.6 302.543 1784.52 302.197 1783.83 301.503C1783.14 300.795 1782.79 299.947 1782.79 298.959C1782.79 298.797 1782.81 298.627 1782.84 298.45C1782.86 298.273 1782.9 298.088 1782.95 297.897C1782.16 299.593 1781.18 300.795 1779.98 301.503C1778.79 302.197 1777.55 302.543 1776.29 302.543C1774.47 302.543 1773 301.887 1771.86 300.574C1770.74 299.261 1770.18 297.572 1770.18 295.507C1770.18 292.572 1771.14 289.983 1773.06 287.741C1774.99 285.498 1777.06 284.377 1779.27 284.377C1780.78 284.377 1782.02 284.812 1782.99 285.683C1783.98 286.553 1784.5 287.6 1784.56 288.825L1785.67 285.107H1788.92L1785.98 294.799C1785.76 295.551 1785.59 296.156 1785.49 296.613C1785.39 297.071 1785.34 297.476 1785.34 297.83C1785.34 298.494 1785.53 298.981 1785.93 299.291C1786.35 299.586 1786.81 299.733 1787.33 299.733C1789.01 299.733 1790.51 298.856 1791.84 297.1C1793.18 295.345 1793.85 293.051 1793.85 290.219C1793.85 286.796 1792.66 284.112 1790.27 282.165C1787.88 280.203 1784.66 279.222 1780.62 279.222C1775.02 279.222 1770.73 280.859 1767.77 284.134C1765.23 286.922 1763.96 290.425 1763.96 294.644C1763.96 298.332 1765.17 301.43 1767.59 303.937C1770.42 306.902 1774.46 308.385 1779.69 308.385C1782.14 308.385 1784.42 308.001 1786.53 307.234C1788.64 306.452 1790.57 305.405 1792.33 304.092L1793.79 306.084C1792.46 307.264 1790.48 308.37 1787.84 309.403C1785.2 310.435 1782.29 310.951 1779.12 310.951ZM1814.85 290.13C1816.25 289.142 1817.22 288.338 1817.75 287.718C1818.62 286.715 1819.06 285.602 1819.06 284.377C1819.06 283.418 1818.74 282.592 1818.11 281.899C1817.47 281.206 1816.62 280.859 1815.54 280.859C1813.9 280.859 1812.77 281.405 1812.13 282.497C1811.81 283.057 1811.64 283.669 1811.64 284.333C1811.64 285.233 1811.89 286.096 1812.37 286.922C1812.88 287.748 1813.7 288.817 1814.85 290.13ZM1813.83 307.256C1815.47 307.256 1816.88 306.88 1818.06 306.128C1819.24 305.376 1820.15 304.535 1820.78 303.605L1813.44 294.644C1811.36 296.031 1810 297.093 1809.37 297.83C1808.39 298.937 1807.9 300.286 1807.9 301.88C1807.9 303.605 1808.53 304.933 1809.79 305.862C1811.05 306.792 1812.4 307.256 1813.83 307.256ZM1811.22 291.923C1809.85 290.344 1808.93 289.017 1808.46 287.94C1808 286.863 1807.77 285.823 1807.77 284.82C1807.77 282.725 1808.48 280.992 1809.9 279.62C1811.31 278.233 1813.21 277.54 1815.58 277.54C1817.84 277.54 1819.6 278.182 1820.87 279.465C1822.14 280.749 1822.77 282.283 1822.77 284.068C1822.77 286.147 1822.12 287.969 1820.8 289.533C1820.04 290.447 1818.75 291.502 1816.95 292.697L1822.88 299.777C1823.28 298.597 1823.56 297.72 1823.7 297.144C1823.87 296.554 1824.03 295.736 1824.19 294.688H1827.97C1827.72 296.768 1827.22 298.767 1826.47 300.685C1825.72 302.588 1825.34 303.355 1825.34 302.986L1831.12 310H1825.98L1822.93 306.283C1821.72 307.596 1820.61 308.554 1819.61 309.159C1817.85 310.221 1815.83 310.752 1813.55 310.752C1810.17 310.752 1807.71 309.845 1806.18 308.031C1804.64 306.202 1803.88 304.144 1803.88 301.857C1803.88 299.394 1804.62 297.336 1806.11 295.684C1807.03 294.681 1808.73 293.427 1811.22 291.923ZM1845.54 276.965C1843.23 281.464 1841.72 284.776 1841.03 286.9C1839.98 290.13 1839.46 293.862 1839.46 298.096C1839.46 302.374 1840.05 306.283 1841.25 309.823C1841.99 312.006 1843.44 315.148 1845.61 319.249H1842.93C1840.78 315.886 1839.44 313.739 1838.93 312.81C1838.41 311.881 1837.85 310.62 1837.24 309.026C1836.42 306.843 1835.84 304.513 1835.52 302.034C1835.36 300.751 1835.28 299.527 1835.28 298.361C1835.28 293.995 1835.96 290.108 1837.33 286.701C1838.2 284.532 1840.02 281.287 1842.78 276.965H1845.54ZM1848.79 319.249C1851.14 314.676 1852.65 311.342 1853.33 309.248C1854.36 306.076 1854.88 302.359 1854.88 298.096C1854.88 293.833 1854.28 289.931 1853.09 286.391C1852.35 284.208 1850.9 281.066 1848.73 276.965H1851.41C1853.68 280.594 1855.05 282.836 1855.52 283.691C1856.01 284.532 1856.53 285.698 1857.09 287.187C1857.8 289.031 1858.3 290.853 1858.6 292.653C1858.91 294.452 1859.06 296.186 1859.06 297.852C1859.06 302.219 1858.37 306.113 1856.98 309.535C1856.11 311.733 1854.3 314.971 1851.56 319.249H1848.79ZM1864.35 300.309V296.591H1874V286.878H1877.78V296.591H1887.43V300.309H1877.78V310H1874V300.309H1864.35ZM1890.81 300.309V296.591H1900.46V286.878H1904.24V296.591H1913.89V300.309H1904.24V310H1900.46V300.309H1890.81ZM1915.24 315.664V313.43H1940.44V315.664H1915.24ZM1.57099 371.249C3.91642 366.676 5.42841 363.342 6.10696 361.248C7.13954 358.076 7.65583 354.359 7.65583 350.096C7.65583 345.833 7.05841 341.931 5.86357 338.391C5.12601 336.208 3.67303 333.066 1.50461 328.965H4.18194C6.45362 332.594 7.82547 334.836 8.29751 335.691C8.78429 336.532 9.30796 337.698 9.8685 339.187C10.5766 341.031 11.0781 342.853 11.3731 344.653C11.6829 346.452 11.8378 348.186 11.8378 349.852C11.8378 354.219 11.1445 358.113 9.75787 361.535C8.88755 363.733 7.08054 366.971 4.33683 371.249H1.57099ZM20.3344 329.496H24.8261V340.183L23.7419 354.256H21.485L20.3344 340.183V329.496ZM20.3344 357.398H24.7376V362H20.3344V357.398ZM37.6596 329.496V334.43L42.4832 332.749L43.3683 335.205L38.5447 336.776L41.5318 340.935L39.3412 342.506L36.4426 338.192L33.5219 342.506L31.265 340.935L34.2964 336.776L29.4285 335.205L30.3136 332.749L35.0929 334.474V329.496H37.6596ZM58.7685 328.965C56.4525 333.464 54.9479 336.776 54.2546 338.9C53.2073 342.13 52.6836 345.862 52.6836 350.096C52.6836 354.374 53.2811 358.283 54.4759 361.823C55.2134 364.006 56.6664 367.148 58.8348 371.249H56.1575C54.0039 367.886 52.6689 365.739 52.1526 364.81C51.6363 363.881 51.0758 362.62 50.471 361.026C49.6449 358.843 49.0696 356.513 48.7451 354.034C48.5828 352.751 48.5017 351.527 48.5017 350.361C48.5017 345.995 49.1876 342.108 50.5595 338.701C51.4298 336.532 53.2442 333.287 56.0026 328.965H58.7685Z" fill="#F5A3CC"/>
</g>
<defs>
<linearGradient id="paint0_linear_166_1923" x1="950.188" y1="-0.00118532" x2="949.377" y2="390.459" gradientUnits="userSpaceOnUse">
<stop stop-color="white" stop-opacity="0"/>
<stop offset="1" stop-color="#FF9BCD"/>
</linearGradient>
<clipPath id="clip0_166_1923">
<rect width="1980" height="320" fill="white"/>
</clipPath>
</defs>
</svg>
