<svg width="469" height="29" viewBox="0 0 469 29" fill="none" xmlns="http://www.w3.org/2000/svg">
<path d="M358.949 1.09591L314.375 1.0248L311.146 10.8082L314.396 21.6591L358.97 21.7302L363.17 15.0855L394.512 15.0004L394.491 7.25722L363.149 7.34233L358.949 1.09591Z" fill="black"/>
<path d="M306.519 21.9041L306.508 10.8008L306.498 1.01221L277.974 0.966724L278.065 7.96583L282.709 13.7273L289.075 21.8763L306.519 21.9041Z" fill="black"/>
<path d="M257.536 3.77051L261.789 6.43579L261.462 7.54274" stroke="black" stroke-width="2.5212"/>
<path d="M262.392 2.79639L267.404 8.03447" stroke="black" stroke-width="2.5212"/>
<path d="M261.577 14.9731C262.527 22.1142 270.029 21.356 276.138 19.7079" stroke="black" stroke-width="2.5212"/>
<path d="M260.429 13.1493L272.83 13.0252L273.357 11.1248" stroke="black" stroke-width="2.5212"/>
<path d="M260.638 21.7559C266.542 18.4104 267.826 16.3731 269.717 10.0204" stroke="black" stroke-width="2.5212"/>
<mask id="path-7-outside-1_160_13" maskUnits="userSpaceOnUse" x="0" y="0.861816" width="259" height="23" fill="black">
<rect fill="white" y="0.861816" width="259" height="23"/>
<path d="M14.5645 2.24053L18.8242 2.24053L12.1285 21.8618L8.25482 21.8618L1.62564 2.24053L6.00516 2.24053L10.2649 17.1362L14.5645 2.24053ZM22.5605 21.8618H18.4872L18.4872 2.24053L22.5605 2.24053L22.5605 21.8618ZM26.9092 15.805C27.0334 16.7014 27.2774 17.3714 27.6413 17.8151C28.3069 18.6227 29.4472 19.0264 31.0624 19.0264C32.0297 19.0264 32.8151 18.92 33.4185 18.707C34.5633 18.2987 35.1357 17.54 35.1357 16.4307C35.1357 15.7829 34.8517 15.2815 34.2838 14.9265C33.7158 14.5804 32.8239 14.2742 31.6081 14.008L29.5315 13.5421C27.4904 13.0806 26.0794 12.5792 25.2984 12.0379C23.9762 11.1327 23.315 9.71721 23.315 7.79146C23.315 6.03433 23.954 4.57449 25.2319 3.41195C26.5098 2.2494 28.3867 1.66813 30.8627 1.66813C32.9304 1.66813 34.692 2.21834 36.1474 3.31877C37.6117 4.41032 38.3793 5.99883 38.4503 8.08432L34.5101 8.08432C34.4391 6.90402 33.9244 6.06539 32.9659 5.56843C32.327 5.24007 31.5327 5.0759 30.5832 5.0759C29.5271 5.0759 28.684 5.28888 28.0539 5.71485C27.4239 6.14083 27.1088 6.73541 27.1088 7.49861C27.1088 8.19968 27.4194 8.72327 28.0406 9.06938C28.44 9.30011 29.2919 9.57078 30.5965 9.88138L33.9776 10.6934C35.4596 11.0484 36.5778 11.5231 37.3321 12.1177C38.5035 13.0407 39.0893 14.3763 39.0893 16.1245C39.0893 17.9171 38.4015 19.408 37.026 20.5972C35.6593 21.7775 33.7247 22.3677 31.2221 22.3677C28.6663 22.3677 26.6562 21.7864 25.192 20.6238C23.7277 19.4524 22.9955 17.8462 22.9955 15.805H26.9092ZM39.6707 2.24053L43.8372 2.24053V14.3008C43.8372 15.6497 43.997 16.6348 44.3165 17.256C44.8134 18.3564 45.8961 18.9066 47.5645 18.9066C49.224 18.9066 50.3022 18.3564 50.7992 17.256C51.1187 16.6348 51.2784 15.6497 51.2784 14.3008V2.24053L55.4449 2.24053V14.3008C55.4449 16.3863 55.121 18.0103 54.4732 19.1729C53.2663 21.3027 50.9634 22.3677 47.5645 22.3677C44.1656 22.3677 41.8582 21.3027 40.6425 19.1729C39.9946 18.0103 39.6707 16.3863 39.6707 14.3008V2.24053ZM62.2828 14.4473H67.2614L64.812 6.72654L62.2828 14.4473ZM62.5358 2.24053L67.1682 2.24053L74.1168 21.8618H69.6708L68.4062 17.8284H61.178L59.8202 21.8618L55.5339 21.8618L62.5358 2.24053ZM74.1658 2.24053L78.2658 2.24053V18.3342L87.9833 18.3342V21.8618L74.1658 21.8618V2.24053ZM97.0133 5.6483V9.97456H101.832C102.693 9.97456 103.39 9.81482 103.922 9.49535C104.463 9.16699 104.734 8.59016 104.734 7.76484C104.734 6.85078 104.379 6.24732 103.669 5.95446C103.057 5.75035 102.276 5.6483 101.326 5.6483L97.0133 5.6483ZM97.0133 13.2226V18.454L101.832 18.454C102.693 18.454 103.363 18.3387 103.842 18.1079C104.712 17.682 105.147 16.8655 105.147 15.6586C105.147 14.6381 104.725 13.937 103.882 13.5554C103.412 13.3424 102.751 13.2315 101.899 13.2226H97.0133ZM102.631 2.24053C105.036 2.27603 106.74 2.97267 107.742 4.33045C108.346 5.16464 108.648 6.16301 108.648 7.32556C108.648 8.5236 108.346 9.48647 107.742 10.2142C107.405 10.6224 106.908 10.9951 106.252 11.3323C107.254 11.6962 108.009 12.273 108.515 13.0629C109.029 13.8527 109.287 14.8111 109.287 15.9382C109.287 17.1007 108.994 18.1434 108.408 19.0664C108.035 19.6787 107.569 20.1934 107.01 20.6105C106.38 21.0897 105.635 21.4181 104.774 21.5956C103.922 21.7731 102.995 21.8618 101.992 21.8618L93.0997 21.8618V2.24053L102.631 2.24053ZM114.381 5.6483V10.9197L119.026 10.9197C119.949 10.9197 120.642 10.8132 121.103 10.6002C121.919 10.2275 122.328 9.49091 122.328 8.39048C122.328 7.20132 121.933 6.40262 121.143 5.9944C120.699 5.76366 120.034 5.6483 119.146 5.6483H114.381ZM119.998 2.24053C121.374 2.26715 122.43 2.43577 123.166 2.74637C123.912 3.05697 124.542 3.514 125.057 4.11746C125.483 4.61443 125.82 5.16464 126.068 5.7681C126.317 6.37156 126.441 7.05933 126.441 7.8314C126.441 8.76321 126.206 9.68171 125.735 10.5869C125.265 11.4832 124.489 12.1177 123.406 12.4905C124.311 12.8543 124.95 13.3735 125.323 14.0479C125.704 14.7135 125.895 15.734 125.895 17.1096V18.4274C125.895 19.3237 125.931 19.9316 126.002 20.2511C126.108 20.757 126.357 21.1297 126.747 21.3693V21.8618L122.235 21.8618C122.11 21.427 122.022 21.0764 121.968 20.8102C121.862 20.26 121.804 19.6965 121.795 19.1196L121.769 17.2959C121.751 16.0447 121.52 15.2105 121.076 14.7934C120.642 14.3763 119.821 14.1677 118.614 14.1677L114.381 14.1677V21.8618H110.374V2.24053L119.998 2.24053ZM142.038 5.71485L131.655 5.71485V9.88138L141.186 9.88138V13.2892L131.655 13.2892V18.3342H142.517V21.8618H127.648V2.24053L142.038 2.24053V5.71485ZM148.623 14.4473L153.601 14.4473L151.152 6.72654L148.623 14.4473ZM148.876 2.24053L153.508 2.24053L160.457 21.8618H156.011L154.746 17.8284H147.518L146.16 21.8618L141.874 21.8618L148.876 2.24053ZM160.572 2.24053L164.606 2.24053V10.3207L172.18 2.24053L177.478 2.24053L169.438 10.3207L177.891 21.8618H172.619L166.563 13.2892L164.606 15.2992V21.8618H160.572V2.24053ZM181.734 5.6483V18.454H185.514C187.449 18.454 188.798 17.5001 189.561 15.5921C189.978 14.5449 190.186 13.298 190.186 11.8515C190.186 9.85476 189.871 8.32393 189.241 7.259C188.62 6.1852 187.378 5.6483 185.514 5.6483H181.734ZM186.206 2.24053C187.422 2.25828 188.434 2.40027 189.241 2.6665C190.617 3.11909 191.731 3.94885 192.583 5.15577C193.266 6.13195 193.732 7.188 193.98 8.32393C194.229 9.45985 194.353 10.5425 194.353 11.572C194.353 14.181 193.829 16.3908 192.782 18.2011C191.362 20.6416 189.17 21.8618 186.206 21.8618H177.753V2.24053L186.206 2.24053ZM203.68 18.9333C205.304 18.9333 206.591 18.3342 207.541 17.1362C208.499 15.9382 208.978 14.2343 208.978 12.0245C208.978 9.8237 208.499 8.12425 207.541 6.92621C206.591 5.71929 205.304 5.11583 203.68 5.11583C202.056 5.11583 200.76 5.71485 199.793 6.9129C198.826 8.11094 198.342 9.81482 198.342 12.0245C198.342 14.2343 198.826 15.9382 199.793 17.1362C200.76 18.3342 202.056 18.9333 203.68 18.9333ZM213.078 12.0245C213.078 15.5477 212.089 18.2455 210.11 20.118C208.628 21.6444 206.484 22.4076 203.68 22.4076C200.876 22.4076 198.733 21.6444 197.251 20.118C195.263 18.2455 194.269 15.5477 194.269 12.0245C194.269 8.43042 195.263 5.7326 197.251 3.9311C198.733 2.4047 200.876 1.64151 203.68 1.64151C206.484 1.64151 208.628 2.4047 210.11 3.9311C212.089 5.7326 213.078 8.43042 213.078 12.0245ZM216.442 2.24053L219.037 13.4755L219.597 16.6037L220.169 13.5421L222.379 2.24053L226.705 2.24053L229.035 13.4755L229.634 16.6037L230.233 13.5953L232.855 2.24053L237.021 2.24053L231.497 21.8618H227.584L225.214 10.3872L224.522 6.59342L223.83 10.3872L221.46 21.8618H217.653L212.089 2.24053L216.442 2.24053ZM236.991 2.24053L241.29 2.24053L249.104 15.9382V2.24053L252.925 2.24053V21.8618H248.825L240.811 7.92458V21.8618H236.991V2.24053ZM253.932 17.895L257.965 17.895V21.8618L253.932 21.8618V17.895Z"/>
</mask>
<path d="M14.5645 2.24053L18.8242 2.24053L12.1285 21.8618L8.25482 21.8618L1.62564 2.24053L6.00516 2.24053L10.2649 17.1362L14.5645 2.24053ZM22.5605 21.8618H18.4872L18.4872 2.24053L22.5605 2.24053L22.5605 21.8618ZM26.9092 15.805C27.0334 16.7014 27.2774 17.3714 27.6413 17.8151C28.3069 18.6227 29.4472 19.0264 31.0624 19.0264C32.0297 19.0264 32.8151 18.92 33.4185 18.707C34.5633 18.2987 35.1357 17.54 35.1357 16.4307C35.1357 15.7829 34.8517 15.2815 34.2838 14.9265C33.7158 14.5804 32.8239 14.2742 31.6081 14.008L29.5315 13.5421C27.4904 13.0806 26.0794 12.5792 25.2984 12.0379C23.9762 11.1327 23.315 9.71721 23.315 7.79146C23.315 6.03433 23.954 4.57449 25.2319 3.41195C26.5098 2.2494 28.3867 1.66813 30.8627 1.66813C32.9304 1.66813 34.692 2.21834 36.1474 3.31877C37.6117 4.41032 38.3793 5.99883 38.4503 8.08432L34.5101 8.08432C34.4391 6.90402 33.9244 6.06539 32.9659 5.56843C32.327 5.24007 31.5327 5.0759 30.5832 5.0759C29.5271 5.0759 28.684 5.28888 28.0539 5.71485C27.4239 6.14083 27.1088 6.73541 27.1088 7.49861C27.1088 8.19968 27.4194 8.72327 28.0406 9.06938C28.44 9.30011 29.2919 9.57078 30.5965 9.88138L33.9776 10.6934C35.4596 11.0484 36.5778 11.5231 37.3321 12.1177C38.5035 13.0407 39.0893 14.3763 39.0893 16.1245C39.0893 17.9171 38.4015 19.408 37.026 20.5972C35.6593 21.7775 33.7247 22.3677 31.2221 22.3677C28.6663 22.3677 26.6562 21.7864 25.192 20.6238C23.7277 19.4524 22.9955 17.8462 22.9955 15.805H26.9092ZM39.6707 2.24053L43.8372 2.24053V14.3008C43.8372 15.6497 43.997 16.6348 44.3165 17.256C44.8134 18.3564 45.8961 18.9066 47.5645 18.9066C49.224 18.9066 50.3022 18.3564 50.7992 17.256C51.1187 16.6348 51.2784 15.6497 51.2784 14.3008V2.24053L55.4449 2.24053V14.3008C55.4449 16.3863 55.121 18.0103 54.4732 19.1729C53.2663 21.3027 50.9634 22.3677 47.5645 22.3677C44.1656 22.3677 41.8582 21.3027 40.6425 19.1729C39.9946 18.0103 39.6707 16.3863 39.6707 14.3008V2.24053ZM62.2828 14.4473H67.2614L64.812 6.72654L62.2828 14.4473ZM62.5358 2.24053L67.1682 2.24053L74.1168 21.8618H69.6708L68.4062 17.8284H61.178L59.8202 21.8618L55.5339 21.8618L62.5358 2.24053ZM74.1658 2.24053L78.2658 2.24053V18.3342L87.9833 18.3342V21.8618L74.1658 21.8618V2.24053ZM97.0133 5.6483V9.97456H101.832C102.693 9.97456 103.39 9.81482 103.922 9.49535C104.463 9.16699 104.734 8.59016 104.734 7.76484C104.734 6.85078 104.379 6.24732 103.669 5.95446C103.057 5.75035 102.276 5.6483 101.326 5.6483L97.0133 5.6483ZM97.0133 13.2226V18.454L101.832 18.454C102.693 18.454 103.363 18.3387 103.842 18.1079C104.712 17.682 105.147 16.8655 105.147 15.6586C105.147 14.6381 104.725 13.937 103.882 13.5554C103.412 13.3424 102.751 13.2315 101.899 13.2226H97.0133ZM102.631 2.24053C105.036 2.27603 106.74 2.97267 107.742 4.33045C108.346 5.16464 108.648 6.16301 108.648 7.32556C108.648 8.5236 108.346 9.48647 107.742 10.2142C107.405 10.6224 106.908 10.9951 106.252 11.3323C107.254 11.6962 108.009 12.273 108.515 13.0629C109.029 13.8527 109.287 14.8111 109.287 15.9382C109.287 17.1007 108.994 18.1434 108.408 19.0664C108.035 19.6787 107.569 20.1934 107.01 20.6105C106.38 21.0897 105.635 21.4181 104.774 21.5956C103.922 21.7731 102.995 21.8618 101.992 21.8618L93.0997 21.8618V2.24053L102.631 2.24053ZM114.381 5.6483V10.9197L119.026 10.9197C119.949 10.9197 120.642 10.8132 121.103 10.6002C121.919 10.2275 122.328 9.49091 122.328 8.39048C122.328 7.20132 121.933 6.40262 121.143 5.9944C120.699 5.76366 120.034 5.6483 119.146 5.6483H114.381ZM119.998 2.24053C121.374 2.26715 122.43 2.43577 123.166 2.74637C123.912 3.05697 124.542 3.514 125.057 4.11746C125.483 4.61443 125.82 5.16464 126.068 5.7681C126.317 6.37156 126.441 7.05933 126.441 7.8314C126.441 8.76321 126.206 9.68171 125.735 10.5869C125.265 11.4832 124.489 12.1177 123.406 12.4905C124.311 12.8543 124.95 13.3735 125.323 14.0479C125.704 14.7135 125.895 15.734 125.895 17.1096V18.4274C125.895 19.3237 125.931 19.9316 126.002 20.2511C126.108 20.757 126.357 21.1297 126.747 21.3693V21.8618L122.235 21.8618C122.11 21.427 122.022 21.0764 121.968 20.8102C121.862 20.26 121.804 19.6965 121.795 19.1196L121.769 17.2959C121.751 16.0447 121.52 15.2105 121.076 14.7934C120.642 14.3763 119.821 14.1677 118.614 14.1677L114.381 14.1677V21.8618H110.374V2.24053L119.998 2.24053ZM142.038 5.71485L131.655 5.71485V9.88138L141.186 9.88138V13.2892L131.655 13.2892V18.3342H142.517V21.8618H127.648V2.24053L142.038 2.24053V5.71485ZM148.623 14.4473L153.601 14.4473L151.152 6.72654L148.623 14.4473ZM148.876 2.24053L153.508 2.24053L160.457 21.8618H156.011L154.746 17.8284H147.518L146.16 21.8618L141.874 21.8618L148.876 2.24053ZM160.572 2.24053L164.606 2.24053V10.3207L172.18 2.24053L177.478 2.24053L169.438 10.3207L177.891 21.8618H172.619L166.563 13.2892L164.606 15.2992V21.8618H160.572V2.24053ZM181.734 5.6483V18.454H185.514C187.449 18.454 188.798 17.5001 189.561 15.5921C189.978 14.5449 190.186 13.298 190.186 11.8515C190.186 9.85476 189.871 8.32393 189.241 7.259C188.62 6.1852 187.378 5.6483 185.514 5.6483H181.734ZM186.206 2.24053C187.422 2.25828 188.434 2.40027 189.241 2.6665C190.617 3.11909 191.731 3.94885 192.583 5.15577C193.266 6.13195 193.732 7.188 193.98 8.32393C194.229 9.45985 194.353 10.5425 194.353 11.572C194.353 14.181 193.829 16.3908 192.782 18.2011C191.362 20.6416 189.17 21.8618 186.206 21.8618H177.753V2.24053L186.206 2.24053ZM203.68 18.9333C205.304 18.9333 206.591 18.3342 207.541 17.1362C208.499 15.9382 208.978 14.2343 208.978 12.0245C208.978 9.8237 208.499 8.12425 207.541 6.92621C206.591 5.71929 205.304 5.11583 203.68 5.11583C202.056 5.11583 200.76 5.71485 199.793 6.9129C198.826 8.11094 198.342 9.81482 198.342 12.0245C198.342 14.2343 198.826 15.9382 199.793 17.1362C200.76 18.3342 202.056 18.9333 203.68 18.9333ZM213.078 12.0245C213.078 15.5477 212.089 18.2455 210.11 20.118C208.628 21.6444 206.484 22.4076 203.68 22.4076C200.876 22.4076 198.733 21.6444 197.251 20.118C195.263 18.2455 194.269 15.5477 194.269 12.0245C194.269 8.43042 195.263 5.7326 197.251 3.9311C198.733 2.4047 200.876 1.64151 203.68 1.64151C206.484 1.64151 208.628 2.4047 210.11 3.9311C212.089 5.7326 213.078 8.43042 213.078 12.0245ZM216.442 2.24053L219.037 13.4755L219.597 16.6037L220.169 13.5421L222.379 2.24053L226.705 2.24053L229.035 13.4755L229.634 16.6037L230.233 13.5953L232.855 2.24053L237.021 2.24053L231.497 21.8618H227.584L225.214 10.3872L224.522 6.59342L223.83 10.3872L221.46 21.8618H217.653L212.089 2.24053L216.442 2.24053ZM236.991 2.24053L241.29 2.24053L249.104 15.9382V2.24053L252.925 2.24053V21.8618H248.825L240.811 7.92458V21.8618H236.991V2.24053ZM253.932 17.895L257.965 17.895V21.8618L253.932 21.8618V17.895Z" fill="black"/>
<path d="M14.5645 2.24053V1.63572H14.1096L13.9834 2.0728L14.5645 2.24053ZM18.8242 2.24053L19.3966 2.43586L19.6697 1.63572L18.8242 1.63572V2.24053ZM12.1285 21.8618V22.4666H12.5612L12.7009 22.0571L12.1285 21.8618ZM8.25482 21.8618L7.68183 22.0554L7.82076 22.4666H8.25482V21.8618ZM1.62564 2.24053L1.62564 1.63572H0.782911L1.05265 2.43412L1.62564 2.24053ZM6.00516 2.24053L6.58666 2.07424L6.46126 1.63572H6.00516V2.24053ZM10.2649 17.1362L9.68337 17.3025L10.2622 19.3264L10.846 17.3039L10.2649 17.1362ZM14.5645 2.24053V2.84534L18.8242 2.84534V2.24053V1.63572L14.5645 1.63572V2.24053ZM18.8242 2.24053L18.2518 2.0452L11.5561 21.6665L12.1285 21.8618L12.7009 22.0571L19.3966 2.43586L18.8242 2.24053ZM12.1285 21.8618V21.257L8.25482 21.257V21.8618V22.4666L12.1285 22.4666V21.8618ZM8.25482 21.8618L8.82781 21.6682L2.19863 2.04694L1.62564 2.24053L1.05265 2.43412L7.68183 22.0554L8.25482 21.8618ZM1.62564 2.24053L1.62564 2.84534L6.00516 2.84534V2.24053V1.63572L1.62564 1.63572L1.62564 2.24053ZM6.00516 2.24053L5.42366 2.40682L9.68337 17.3025L10.2649 17.1362L10.8464 16.9699L6.58666 2.07424L6.00516 2.24053ZM10.2649 17.1362L10.846 17.3039L15.1456 2.40826L14.5645 2.24053L13.9834 2.0728L9.68378 16.9685L10.2649 17.1362ZM22.5605 21.8618V22.4666H23.1653V21.8618H22.5605ZM18.4872 21.8618H17.8824V22.4666H18.4872V21.8618ZM18.4872 2.24053V1.63572H17.8824V2.24053H18.4872ZM22.5605 2.24053H23.1653V1.63572H22.5605V2.24053ZM22.5605 21.8618V21.257H18.4872V21.8618V22.4666H22.5605V21.8618ZM18.4872 21.8618H19.092L19.092 2.24053H18.4872H17.8824L17.8824 21.8618H18.4872ZM18.4872 2.24053V2.84534L22.5605 2.84534V2.24053V1.63572L18.4872 1.63572V2.24053ZM22.5605 2.24053H21.9557L21.9557 21.8618H22.5605H23.1653L23.1653 2.24053H22.5605ZM26.9092 15.805L27.5082 15.722L27.4359 15.2002H26.9092V15.805ZM27.6413 17.8151L27.1736 18.1986L27.1746 18.1998L27.6413 17.8151ZM33.4185 18.707L33.6198 19.2773L33.6217 19.2766L33.4185 18.707ZM34.2838 14.9265L34.6043 14.4136L34.5985 14.41L34.2838 14.9265ZM31.6081 14.008L31.4757 14.5981L31.4788 14.5988L31.6081 14.008ZM29.5315 13.5421L29.3982 14.132L29.3991 14.1322L29.5315 13.5421ZM25.2984 12.0379L25.643 11.5408L25.6401 11.5388L25.2984 12.0379ZM36.1474 3.31877L35.7826 3.80121L35.7859 3.80367L36.1474 3.31877ZM38.4503 8.08432V8.68913H39.0761L39.0548 8.06374L38.4503 8.08432ZM34.5101 8.08432L33.9064 8.12063L33.9405 8.68913H34.5101V8.08432ZM32.9659 5.56843L33.2443 5.0315L33.2424 5.03049L32.9659 5.56843ZM28.0539 5.71485L27.7152 5.2138L28.0539 5.71485ZM28.0406 9.06938L28.3432 8.54563L28.335 8.54103L28.0406 9.06938ZM30.5965 9.88138L30.7377 9.29329L30.7365 9.29302L30.5965 9.88138ZM33.9776 10.6934L33.8364 11.2815L33.8367 11.2816L33.9776 10.6934ZM37.3321 12.1177L36.9577 12.5927L36.9578 12.5928L37.3321 12.1177ZM37.026 20.5972L37.4213 21.0549L37.4215 21.0547L37.026 20.5972ZM25.192 20.6238L24.8141 21.0961L24.8159 21.0975L25.192 20.6238ZM22.9955 15.805V15.2002H22.3907V15.805H22.9955ZM26.9092 15.805L26.3101 15.8881C26.4416 16.8367 26.7094 17.6325 27.1736 18.1986L27.6413 17.8151L28.109 17.4316C27.8454 17.1102 27.6252 16.566 27.5082 15.722L26.9092 15.805ZM27.6413 17.8151L27.1746 18.1998C28.0058 19.2084 29.3655 19.6313 31.0624 19.6313V19.0264V18.4216C29.5289 18.4216 28.6079 18.037 28.108 17.4304L27.6413 17.8151ZM31.0624 19.0264V19.6313C32.0668 19.6313 32.9275 19.5216 33.6198 19.2773L33.4185 18.707L33.2172 18.1366C32.7026 18.3183 31.9925 18.4216 31.0624 18.4216V19.0264ZM33.4185 18.707L33.6217 19.2766C34.2745 19.0438 34.8145 18.6928 35.1892 18.196C35.5673 17.6948 35.7405 17.094 35.7405 16.4307H35.1357H34.5309C34.5309 16.8767 34.4179 17.2099 34.2236 17.4675C34.026 17.7294 33.7073 17.9619 33.2154 18.1373L33.4185 18.707ZM35.1357 16.4307H35.7405C35.7405 15.5659 35.3418 14.8746 34.6043 14.4136L34.2838 14.9265L33.9632 15.4394C34.3616 15.6884 34.5309 15.9998 34.5309 16.4307H35.1357ZM34.2838 14.9265L34.5985 14.41C33.9433 14.0107 32.9721 13.6875 31.7375 13.4172L31.6081 14.008L31.4788 14.5988C32.6757 14.8609 33.4884 15.15 33.969 15.4429L34.2838 14.9265ZM31.6081 14.008L31.7405 13.4178L29.6639 12.9519L29.5315 13.5421L29.3991 14.1322L31.4757 14.5981L31.6081 14.008ZM29.5315 13.5421L29.6649 12.9522C27.6303 12.4921 26.3203 12.0103 25.643 11.5408L25.2984 12.0379L24.9539 12.5349C25.8385 13.1481 27.3506 13.6691 29.3982 14.132L29.5315 13.5421ZM25.2984 12.0379L25.6401 11.5388C24.5171 10.7701 23.9198 9.56363 23.9198 7.79146H23.315H22.7102C22.7102 9.87078 23.4352 11.4953 24.9568 12.5369L25.2984 12.0379ZM23.315 7.79146H23.9198C23.9198 6.20134 24.4894 4.90504 25.6389 3.85933L25.2319 3.41195L24.8249 2.96457C23.4186 4.24395 22.7102 5.86732 22.7102 7.79146H23.315ZM25.2319 3.41195L25.6389 3.85933C26.7654 2.8345 28.4726 2.27294 30.8627 2.27294V1.66813V1.06332C28.3009 1.06332 26.2542 1.66431 24.8249 2.96457L25.2319 3.41195ZM30.8627 1.66813V2.27294C32.8171 2.27294 34.446 2.7906 35.7826 3.8012L36.1474 3.31877L36.5122 2.83634C34.938 1.64609 33.0437 1.06332 30.8627 1.06332V1.66813ZM36.1474 3.31877L35.7859 3.80367C37.0807 4.76887 37.7801 6.17353 37.8458 8.1049L38.4503 8.08432L39.0548 8.06374C38.9785 5.82414 38.1426 4.05177 36.5089 2.83386L36.1474 3.31877ZM38.4503 8.08432V7.47951L34.5101 7.47951V8.08432V8.68913L38.4503 8.68913V8.08432ZM34.5101 8.08432L35.1138 8.048C35.0315 6.67962 34.4125 5.63722 33.2443 5.0315L32.9659 5.56843L32.6875 6.10535C33.4362 6.49357 33.8467 7.12842 33.9064 8.12063L34.5101 8.08432ZM32.9659 5.56843L33.2424 5.03049C32.4949 4.64636 31.5991 4.47109 30.5832 4.47109V5.0759V5.68071C31.4663 5.68071 32.1591 5.83379 32.6895 6.10636L32.9659 5.56843ZM30.5832 5.0759V4.47109C29.4517 4.47109 28.4773 4.69862 27.7152 5.2138L28.0539 5.71485L28.3927 6.2159C28.8908 5.87915 29.6025 5.68071 30.5832 5.68071V5.0759ZM28.0539 5.71485L27.7152 5.2138C26.9181 5.75273 26.504 6.53542 26.504 7.49861H27.1088H27.7136C27.7136 6.9354 27.9297 6.52892 28.3927 6.2159L28.0539 5.71485ZM27.1088 7.49861H26.504C26.504 7.94101 26.603 8.35709 26.8216 8.72568C27.04 9.09384 27.3582 9.38148 27.7463 9.59772L28.0406 9.06938L28.335 8.54103C28.1019 8.41117 27.9542 8.26397 27.8619 8.10853C27.77 7.95354 27.7136 7.75728 27.7136 7.49861H27.1088ZM28.0406 9.06938L27.7381 9.59306C28.2261 9.87505 29.165 10.1623 30.4564 10.4697L30.5965 9.88138L30.7365 9.29302C29.4189 8.97929 28.6538 8.72517 28.3432 8.54569L28.0406 9.06938ZM30.5965 9.88138L30.4552 10.4695L33.8364 11.2815L33.9776 10.6934L34.1188 10.1053L30.7377 9.2933L30.5965 9.88138ZM33.9776 10.6934L33.8367 11.2816C35.2781 11.6268 36.3007 12.0749 36.9577 12.5927L37.3321 12.1177L37.7065 11.6427C36.8549 10.9714 35.6411 10.4699 34.1185 10.1052L33.9776 10.6934ZM37.3321 12.1177L36.9578 12.5928C37.9577 13.3806 38.4844 14.5257 38.4844 16.1245H39.0893H39.6941C39.6941 14.2268 39.0494 12.7008 37.7064 11.6427L37.3321 12.1177ZM39.0893 16.1245H38.4844C38.4844 17.7386 37.8752 19.0635 36.6304 20.1397L37.026 20.5972L37.4215 21.0547C38.9277 19.7526 39.6941 18.0957 39.6941 16.1245H39.0893ZM37.026 20.5972L36.6306 20.1395C35.4098 21.1939 33.6354 21.7628 31.2221 21.7628V22.3677V22.9725C33.814 22.9725 35.9088 22.3612 37.4213 21.0549L37.026 20.5972ZM31.2221 22.3677V21.7628C28.7532 21.7628 26.892 21.2013 25.568 20.1502L25.192 20.6238L24.8159 21.0975C26.4204 22.3714 28.5794 22.9725 31.2221 22.9725V22.3677ZM25.192 20.6238L25.5698 20.1516C24.2629 19.1061 23.6004 17.681 23.6004 15.805H22.9955H22.3907C22.3907 18.0113 23.1925 19.7988 24.8141 21.0961L25.192 20.6238ZM22.9955 15.805V16.4099H26.9092V15.805V15.2002H22.9955V15.805ZM39.6707 2.24053V1.63572H39.0659V2.24053H39.6707ZM43.8372 2.24053H44.442V1.63572L43.8372 1.63572V2.24053ZM44.3165 17.256L44.8677 17.0071L44.8613 16.9931L44.8543 16.9794L44.3165 17.256ZM50.7992 17.256L50.2614 16.9794L50.2543 16.9931L50.248 17.0071L50.7992 17.256ZM51.2784 2.24053V1.63572H50.6736V2.24053H51.2784ZM55.4449 2.24053H56.0498V1.63572H55.4449V2.24053ZM54.4732 19.1729L54.9994 19.4711L55.0015 19.4673L54.4732 19.1729ZM40.6425 19.1729L40.1141 19.4673L40.1172 19.4727L40.6425 19.1729ZM39.6707 2.24053V2.84534L43.8372 2.84534V2.24053V1.63572L39.6707 1.63572V2.24053ZM43.8372 2.24053H43.2324V14.3008H43.8372H44.442V2.24053H43.8372ZM43.8372 14.3008H43.2324C43.2324 15.6723 43.3906 16.7782 43.7786 17.5326L44.3165 17.256L44.8543 16.9794C44.6033 16.4914 44.442 15.6272 44.442 14.3008H43.8372ZM44.3165 17.256L43.7653 17.5049C44.3975 18.9048 45.7651 19.5115 47.5645 19.5115V18.9066V18.3018C46.0271 18.3018 45.2294 17.808 44.8677 17.0071L44.3165 17.256ZM47.5645 18.9066V19.5115C49.3568 19.5115 50.7187 18.9036 51.3504 17.5049L50.7992 17.256L50.248 17.0071C49.8857 17.8092 49.0912 18.3018 47.5645 18.3018V18.9066ZM50.7992 17.256L51.3371 17.5326C51.725 16.7782 51.8832 15.6723 51.8832 14.3008H51.2784L50.6736 14.3008C50.6736 15.6272 50.5123 16.4914 50.2614 16.9794L50.7992 17.256ZM51.2784 14.3008H51.8832V2.24053H51.2784H50.6736V14.3008L51.2784 14.3008ZM51.2784 2.24053V2.84534L55.4449 2.84534V2.24053V1.63572L51.2784 1.63572V2.24053ZM55.4449 2.24053H54.8401V14.3008H55.4449H56.0498V2.24053H55.4449ZM55.4449 14.3008H54.8401C54.8401 16.3363 54.5219 17.843 53.9449 18.8785L54.4732 19.1729L55.0015 19.4673C55.7202 18.1776 56.0498 16.4364 56.0498 14.3008H55.4449ZM54.4732 19.1729L53.947 18.8747C52.8874 20.7447 50.8408 21.7628 47.5645 21.7628V22.3677L47.5645 22.9725C51.086 22.9725 53.6452 21.8608 54.9994 19.4711L54.4732 19.1729ZM47.5645 22.3677V21.7628C44.2885 21.7628 42.2361 20.7447 41.1677 18.873L40.6425 19.1729L40.1172 19.4727C41.4804 21.8608 44.0427 22.9725 47.5645 22.9725L47.5645 22.3677ZM40.6425 19.1729L41.1708 18.8785C40.5938 17.843 40.2755 16.3363 40.2755 14.3008H39.6707L39.0659 14.3008C39.0659 16.4364 39.3955 18.1776 40.1141 19.4673L40.6425 19.1729ZM39.6707 14.3008H40.2755V2.24053H39.6707H39.0659V14.3008L39.6707 14.3008ZM62.2828 14.4473L61.7081 14.259L61.4483 15.0521L62.2828 15.0521V14.4473ZM67.2614 14.4473V15.0521H68.0878L67.8379 14.2644L67.2614 14.4473ZM64.812 6.72654L65.3885 6.54365L64.8213 4.75555L64.2373 6.53825L64.812 6.72654ZM62.5358 2.24053V1.63572H62.1094L61.9661 2.03726L62.5358 2.24053ZM67.1682 2.24053L67.7383 2.03863L67.5956 1.63572H67.1682V2.24053ZM74.1168 21.8618V22.4666H74.9727L74.687 21.6599L74.1168 21.8618ZM69.6708 21.8618L69.0937 22.0428L69.2266 22.4666H69.6708V21.8618ZM68.4062 17.8284L68.9833 17.6475L68.8504 17.2236H68.4062V17.8284ZM61.178 17.8284V17.2236H60.7434L60.6048 17.6354L61.178 17.8284ZM59.8202 21.8618V22.4666H60.2548L60.3934 22.0548L59.8202 21.8618ZM55.5339 21.8618L54.9642 21.6585L54.6759 22.4666H55.5339V21.8618ZM62.2828 14.4473V15.0521H67.2614V14.4473V13.8425H62.2828V14.4473ZM67.2614 14.4473L67.8379 14.2644L65.3885 6.54365L64.812 6.72654L64.2356 6.90942L66.6849 14.6301L67.2614 14.4473ZM64.812 6.72654L64.2373 6.53825L61.7081 14.259L62.2828 14.4473L62.8576 14.6355L65.3868 6.91482L64.812 6.72654ZM62.5358 2.24053V2.84534L67.1682 2.84534V2.24053V1.63572L62.5358 1.63572V2.24053ZM67.1682 2.24053L66.5981 2.44243L73.5467 22.0637L74.1168 21.8618L74.687 21.6599L67.7383 2.03863L67.1682 2.24053ZM74.1168 21.8618V21.257H69.6708V21.8618V22.4666H74.1168V21.8618ZM69.6708 21.8618L70.2479 21.6809L68.9833 17.6475L68.4062 17.8284L67.8291 18.0093L69.0937 22.0428L69.6708 21.8618ZM68.4062 17.8284V17.2236H61.178V17.8284V18.4332H68.4062V17.8284ZM61.178 17.8284L60.6048 17.6354L59.247 21.6689L59.8202 21.8618L60.3934 22.0548L61.7512 18.0214L61.178 17.8284ZM59.8202 21.8618V21.257L55.5339 21.257V21.8618V22.4666L59.8202 22.4666V21.8618ZM55.5339 21.8618L56.1035 22.0651L63.1054 2.4438L62.5358 2.24053L61.9661 2.03726L54.9642 21.6585L55.5339 21.8618ZM74.1658 2.24053V1.63572L73.561 1.63572V2.24053H74.1658ZM78.2658 2.24053H78.8706V1.63572H78.2658V2.24053ZM78.2658 18.3342H77.661V18.9391H78.2658V18.3342ZM87.9833 18.3342H88.5881V17.7294H87.9833V18.3342ZM87.9833 21.8618V22.4666H88.5881V21.8618H87.9833ZM74.1658 21.8618H73.561V22.4666H74.1658V21.8618ZM74.1658 2.24053V2.84534L78.2658 2.84534V2.24053V1.63572L74.1658 1.63572V2.24053ZM78.2658 2.24053H77.661V18.3342H78.2658L78.8706 18.3342V2.24053H78.2658ZM78.2658 18.3342V18.9391L87.9833 18.9391V18.3342V17.7294L78.2658 17.7294V18.3342ZM87.9833 18.3342H87.3785V21.8618H87.9833H88.5881V18.3342H87.9833ZM87.9833 21.8618V21.257L74.1658 21.257V21.8618V22.4666L87.9833 22.4666V21.8618ZM74.1658 21.8618H74.7706V2.24053H74.1658H73.561V21.8618H74.1658ZM97.0133 5.6483V5.04349H96.4085V5.6483H97.0133ZM97.0133 9.97456H96.4085V10.5794H97.0133V9.97456ZM103.922 9.49535L104.233 10.014L104.236 10.0125L103.922 9.49535ZM103.669 5.95446L103.9 5.39535L103.88 5.38734L103.86 5.38069L103.669 5.95446ZM97.0133 13.2226V12.6178H96.4085V13.2226H97.0133ZM97.0133 18.454H96.4085V19.0589H97.0133V18.454ZM103.842 18.1079L104.105 18.6529L104.108 18.6511L103.842 18.1079ZM103.882 13.5554L103.633 14.1063L103.633 14.1064L103.882 13.5554ZM101.899 13.2226L101.905 12.6178H101.899V13.2226ZM102.631 2.24053L102.64 1.63572H102.631V2.24053ZM107.742 4.33045L108.233 3.97594L108.229 3.97113L107.742 4.33045ZM107.742 10.2142L107.277 9.8281L107.276 9.82898L107.742 10.2142ZM106.252 11.3323L105.975 10.7943L104.742 11.4279L106.045 11.9009L106.252 11.3323ZM108.515 13.0629L108.005 13.3891L108.008 13.3931L108.515 13.0629ZM108.408 19.0664L107.897 18.7423L107.891 18.7519L108.408 19.0664ZM107.01 20.6105L106.649 20.1257L106.644 20.1291L107.01 20.6105ZM104.774 21.5956L104.652 21.0032L104.651 21.0035L104.774 21.5956ZM93.0997 21.8618H92.4949V22.4666H93.0997V21.8618ZM93.0997 2.24053V1.63572H92.4949V2.24053L93.0997 2.24053ZM97.0133 5.6483H96.4085V9.97456H97.0133H97.6181V5.6483H97.0133ZM97.0133 9.97456V10.5794H101.832V9.97456V9.36975H97.0133V9.97456ZM101.832 9.97456V10.5794C102.762 10.5794 103.577 10.4076 104.233 10.014L103.922 9.49535L103.611 8.97673C103.202 9.22208 102.624 9.36975 101.832 9.36975V9.97456ZM103.922 9.49535L104.236 10.0125C105.012 9.5413 105.339 8.72859 105.339 7.76484H104.734H104.129C104.129 8.45172 103.914 8.79269 103.608 8.97823L103.922 9.49535ZM104.734 7.76484H105.339C105.339 7.23212 105.236 6.73898 104.989 6.32005C104.738 5.89364 104.364 5.58688 103.9 5.39535L103.669 5.95446L103.438 6.51357C103.684 6.6149 103.842 6.7563 103.947 6.93335C104.055 7.11787 104.129 7.3835 104.129 7.76484H104.734ZM103.669 5.95446L103.86 5.38069C103.165 5.14879 102.313 5.04349 101.326 5.04349V5.6483V6.25311C102.239 6.25311 102.949 6.35191 103.478 6.52824L103.669 5.95446ZM101.326 5.6483V5.04349L97.0133 5.04349V5.6483V6.25311L101.326 6.25311V5.6483ZM97.0133 13.2226H96.4085V18.454H97.0133H97.6181V13.2226H97.0133ZM97.0133 18.454V19.0589L101.832 19.0589V18.454V17.8492L97.0133 17.8492V18.454ZM101.832 18.454V19.0589C102.734 19.0589 103.508 18.9401 104.105 18.6529L103.842 18.1079L103.58 17.563C103.218 17.7373 102.652 17.8492 101.832 17.8492V18.454ZM103.842 18.1079L104.108 18.6511C105.24 18.0966 105.752 17.028 105.752 15.6586H105.147H104.542C104.542 16.7031 104.183 17.2673 103.576 17.5648L103.842 18.1079ZM105.147 15.6586H105.752C105.752 15.0655 105.629 14.5211 105.349 14.0557C105.067 13.5865 104.65 13.2389 104.132 13.0044L103.882 13.5554L103.633 14.1064C103.958 14.2534 104.173 14.4472 104.312 14.679C104.454 14.9148 104.542 15.2312 104.542 15.6586H105.147ZM103.882 13.5554L104.132 13.0044C103.551 12.7414 102.793 12.6271 101.905 12.6178L101.899 13.2226L101.892 13.8274C102.708 13.8359 103.273 13.9433 103.633 14.1063L103.882 13.5554ZM101.899 13.2226V12.6178H97.0133V13.2226V13.8274H101.899V13.2226ZM102.631 2.24053L102.622 2.84527C104.923 2.87923 106.408 3.54098 107.256 4.68976L107.742 4.33045L108.229 3.97113C107.072 2.40436 105.149 1.67282 102.64 1.63579L102.631 2.24053ZM107.742 4.33045L107.252 4.68494C107.772 5.40292 108.043 6.27316 108.043 7.32556H108.648L109.252 7.32556C109.252 6.05286 108.92 4.92637 108.233 3.97596L107.742 4.33045ZM108.648 7.32556H108.043C108.043 8.42118 107.768 9.23531 107.277 9.8281L107.742 10.2142L108.208 10.6002C108.923 9.73764 109.252 8.62602 109.252 7.32556L108.648 7.32556ZM107.742 10.2142L107.276 9.82898C107.008 10.1542 106.586 10.4808 105.975 10.7943L106.252 11.3323L106.528 11.8704C107.231 11.5094 107.803 11.0906 108.209 10.5994L107.742 10.2142ZM106.252 11.3323L106.045 11.9009C106.941 12.226 107.581 12.7262 108.005 13.389L108.515 13.0629L109.024 12.7367C108.437 11.8199 107.568 11.1664 106.458 10.7638L106.252 11.3323ZM108.515 13.0629L108.008 13.3931C108.447 14.0668 108.682 14.9051 108.682 15.9382H109.287H109.891C109.891 14.7171 109.612 13.6385 109.021 12.7326L108.515 13.0629ZM109.287 15.9382H108.682C108.682 16.9936 108.418 17.9225 107.897 18.7423L108.408 19.0664L108.919 19.3905C109.57 18.3644 109.891 17.2078 109.891 15.9382H109.287ZM108.408 19.0664L107.891 18.7519C107.558 19.3 107.144 19.7563 106.649 20.1258L107.01 20.6105L107.372 21.0953C107.995 20.6306 108.513 20.0575 108.925 19.3809L108.408 19.0664ZM107.01 20.6105L106.644 20.1291C106.094 20.5478 105.434 20.842 104.652 21.0032L104.774 21.5956L104.896 22.1879C105.836 21.9942 106.667 21.6317 107.376 21.0919L107.01 20.6105ZM104.774 21.5956L104.651 21.0035C103.845 21.1714 102.959 21.257 101.992 21.257V21.8618V22.4666C103.03 22.4666 103.999 22.3748 104.897 22.1877L104.774 21.5956ZM101.992 21.8618V21.257L93.0997 21.257V21.8618V22.4666L101.992 22.4666V21.8618ZM93.0997 21.8618H93.7045V2.24053H93.0997L92.4949 2.24053V21.8618H93.0997ZM93.0997 2.24053V2.84534L102.631 2.84534V2.24053V1.63572L93.0997 1.63572V2.24053ZM114.381 5.6483V5.04349L113.776 5.04349V5.6483L114.381 5.6483ZM114.381 10.9197H113.776V11.5245H114.381V10.9197ZM121.103 10.6002L120.852 10.05L120.85 10.0511L121.103 10.6002ZM121.143 5.9944L120.864 6.531L120.865 6.53168L121.143 5.9944ZM119.998 2.24053L120.01 1.63572H119.998V2.24053ZM123.166 2.74637L122.931 3.30366L122.934 3.30465L123.166 2.74637ZM125.057 4.11746L124.596 4.50995L124.597 4.51107L125.057 4.11746ZM126.068 5.7681L126.628 5.53782L126.068 5.7681ZM125.735 10.5869L126.271 10.8679L126.272 10.8658L125.735 10.5869ZM123.406 12.4905L123.209 11.9186L121.675 12.4466L123.18 13.0516L123.406 12.4905ZM125.323 14.0479L124.793 14.3405L124.798 14.3487L125.323 14.0479ZM126.002 20.2511L126.594 20.1265L126.592 20.1199L126.002 20.2511ZM126.747 21.3693H127.352V21.0308L127.063 20.8538L126.747 21.3693ZM126.747 21.8618V22.4666H127.352V21.8618H126.747ZM122.235 21.8618L121.653 22.028L121.778 22.4666H122.235V21.8618ZM121.968 20.8102L121.374 20.9251L121.375 20.9288L121.968 20.8102ZM121.795 19.1196L121.191 19.1285L121.191 19.1289L121.795 19.1196ZM121.769 17.2959L121.164 17.3045L121.164 17.3048L121.769 17.2959ZM121.076 14.7934L120.658 15.2299L120.662 15.234L121.076 14.7934ZM114.381 14.1677V13.5629H113.776V14.1677H114.381ZM114.381 21.8618V22.4666H114.985V21.8618H114.381ZM110.374 21.8618H109.769V22.4666H110.374V21.8618ZM110.374 2.24053V1.63572H109.769V2.24053H110.374ZM114.381 5.6483L113.776 5.6483V10.9197H114.381H114.985V5.6483H114.381ZM114.381 10.9197V11.5245L119.026 11.5245V10.9197V10.3149L114.381 10.3149V10.9197ZM119.026 10.9197V11.5245C119.977 11.5245 120.775 11.4178 121.356 11.1494L121.103 10.6002L120.85 10.0511C120.508 10.2086 119.922 10.3149 119.026 10.3149V10.9197ZM121.103 10.6002L121.354 11.1504C121.872 10.914 122.279 10.5505 122.551 10.0614C122.817 9.58004 122.933 9.01275 122.933 8.39048H122.328H121.723C121.723 8.86865 121.634 9.21985 121.493 9.47505C121.355 9.7225 121.151 9.91364 120.852 10.05L121.103 10.6002ZM122.328 8.39048H122.933C122.933 7.06378 122.48 6.00441 121.421 5.45711L121.143 5.9944L120.865 6.53168C121.386 6.80083 121.723 7.33885 121.723 8.39048H122.328ZM121.143 5.9944L121.422 5.4578C120.849 5.15981 120.066 5.04349 119.146 5.04349V5.6483V6.25311C120.001 6.25311 120.55 6.36751 120.864 6.53099L121.143 5.9944ZM119.146 5.6483V5.04349H114.381V5.6483V6.25311H119.146V5.6483ZM119.998 2.24053L119.986 2.84522C121.333 2.87128 122.299 3.03696 122.931 3.30366L123.166 2.74637L123.401 2.18908C122.561 1.83457 121.415 1.66303 120.01 1.63583L119.998 2.24053ZM123.166 2.74637L122.934 3.30465C123.593 3.57935 124.145 3.98024 124.596 4.50995L125.057 4.11746L125.517 3.72497C124.939 3.04777 124.231 2.53459 123.399 2.18808L123.166 2.74637ZM125.057 4.11746L124.597 4.51107C124.982 4.9594 125.285 5.45451 125.509 5.99838L126.068 5.7681L126.628 5.53782C126.355 4.87477 125.983 4.26946 125.516 3.72386L125.057 4.11746ZM126.068 5.7681L125.509 5.99838C125.722 6.51671 125.836 7.12412 125.836 7.8314H126.441H127.046C127.046 6.99453 126.911 6.22641 126.628 5.53782L126.068 5.7681ZM126.441 7.8314H125.836C125.836 8.65717 125.629 9.48066 125.199 10.308L125.735 10.5869L126.272 10.8658C126.783 9.88276 127.046 8.86925 127.046 7.8314H126.441ZM125.735 10.5869L125.2 10.3059C124.811 11.0474 124.167 11.589 123.209 11.9186L123.406 12.4905L123.603 13.0623C124.811 12.6465 125.719 11.919 126.271 10.8679L125.735 10.5869ZM123.406 12.4905L123.18 13.0516C123.992 13.3777 124.504 13.8173 124.793 14.3404L125.323 14.0479L125.852 13.7554C125.396 12.9297 124.631 12.3309 123.632 11.9293L123.406 12.4905ZM125.323 14.0479L124.798 14.3487C125.1 14.8759 125.29 15.7678 125.29 17.1096H125.895H126.5C126.5 15.7003 126.308 14.5511 125.848 13.7471L125.323 14.0479ZM125.895 17.1096H125.29V18.4274H125.895H126.5V17.1096H125.895ZM125.895 18.4274H125.29C125.29 19.3169 125.324 19.9888 125.411 20.3823L126.002 20.2511L126.592 20.1199C126.538 19.8745 126.5 19.3306 126.5 18.4274H125.895ZM126.002 20.2511L125.41 20.3757C125.546 21.0212 125.88 21.5467 126.431 21.8848L126.747 21.3693L127.063 20.8538C126.833 20.7127 126.671 20.4927 126.594 20.1265L126.002 20.2511ZM126.747 21.3693H126.142V21.8618H126.747H127.352V21.3693H126.747ZM126.747 21.8618V21.257L122.235 21.257V21.8618V22.4666L126.747 22.4666V21.8618ZM122.235 21.8618L122.816 21.6957C122.694 21.2677 122.61 20.9348 122.561 20.6916L121.968 20.8102L121.375 20.9288C121.433 21.218 121.527 21.5863 121.653 22.028L122.235 21.8618ZM121.968 20.8102L122.562 20.6953C122.463 20.1809 122.408 19.6527 122.4 19.1103L121.795 19.1196L121.191 19.1289C121.2 19.7402 121.261 20.3391 121.375 20.9251L121.968 20.8102ZM121.795 19.1196L122.4 19.1108L122.373 17.2871L121.769 17.2959L121.164 17.3048L121.191 19.1285L121.795 19.1196ZM121.769 17.2959L122.373 17.2874C122.364 16.6309 122.299 16.0541 122.165 15.5706C122.032 15.0894 121.82 14.6627 121.491 14.3527L121.076 14.7934L120.662 15.234C120.776 15.3412 120.902 15.5401 120.999 15.8931C121.096 16.2437 121.155 16.7097 121.164 17.3045L121.769 17.2959ZM121.076 14.7934L121.495 14.3569C120.878 13.765 119.842 13.5629 118.614 13.5629V14.1677V14.7725C119.8 14.7725 120.405 14.9875 120.658 15.2298L121.076 14.7934ZM118.614 14.1677V13.5629L114.381 13.5629V14.1677V14.7725L118.614 14.7725V14.1677ZM114.381 14.1677H113.776V21.8618H114.381H114.985V14.1677H114.381ZM114.381 21.8618V21.257H110.374V21.8618V22.4666H114.381V21.8618ZM110.374 21.8618H110.979V2.24053H110.374H109.769V21.8618H110.374ZM110.374 2.24053V2.84534L119.998 2.84534V2.24053V1.63572L110.374 1.63572V2.24053ZM142.038 5.71485V6.31966H142.643V5.71485H142.038ZM131.655 5.71485V5.11005H131.05V5.71485H131.655ZM131.655 9.88138H131.05V10.4862H131.655V9.88138ZM141.186 9.88138H141.791V9.27657H141.186V9.88138ZM141.186 13.2892V13.894H141.791V13.2892H141.186ZM131.655 13.2892V12.6843H131.05V13.2892H131.655ZM131.655 18.3342H131.05V18.9391H131.655V18.3342ZM142.517 18.3342H143.122V17.7294H142.517V18.3342ZM142.517 21.8618V22.4666H143.122V21.8618H142.517ZM127.648 21.8618H127.043V22.4666H127.648V21.8618ZM127.648 2.24053V1.63572H127.043V2.24053H127.648ZM142.038 2.24053L142.643 2.24053V1.63572H142.038V2.24053ZM142.038 5.71485V5.11005L131.655 5.11005V5.71485V6.31966L142.038 6.31966V5.71485ZM131.655 5.71485H131.05V9.88138H131.655H132.26V5.71485H131.655ZM131.655 9.88138V10.4862L141.186 10.4862V9.88138V9.27657L131.655 9.27657V9.88138ZM141.186 9.88138H140.581V13.2892H141.186H141.791V9.88138H141.186ZM141.186 13.2892V12.6843L131.655 12.6843V13.2892V13.894L141.186 13.894V13.2892ZM131.655 13.2892H131.05V18.3342H131.655H132.26V13.2892H131.655ZM131.655 18.3342V18.9391H142.517V18.3342V17.7294H131.655V18.3342ZM142.517 18.3342H141.912V21.8618H142.517H143.122V18.3342H142.517ZM142.517 21.8618V21.257H127.648V21.8618V22.4666H142.517V21.8618ZM127.648 21.8618H128.253V2.24053H127.648H127.043V21.8618H127.648ZM127.648 2.24053V2.84534L142.038 2.84534V2.24053V1.63572L127.648 1.63572V2.24053ZM142.038 2.24053H141.433V5.71485L142.038 5.71485H142.643V2.24053L142.038 2.24053ZM148.623 14.4473L148.048 14.259L147.788 15.0521H148.623V14.4473ZM153.601 14.4473V15.0521H154.428L154.178 14.2644L153.601 14.4473ZM151.152 6.72654L151.729 6.54365L151.161 4.75555L150.577 6.53825L151.152 6.72654ZM148.876 2.24053V1.63572H148.449L148.306 2.03726L148.876 2.24053ZM153.508 2.24053L154.078 2.03863L153.936 1.63572L153.508 1.63572V2.24053ZM160.457 21.8618V22.4666H161.313L161.027 21.6599L160.457 21.8618ZM156.011 21.8618L155.434 22.0428L155.567 22.4666H156.011V21.8618ZM154.746 17.8284L155.323 17.6475L155.19 17.2236H154.746V17.8284ZM147.518 17.8284V17.2236H147.083L146.945 17.6354L147.518 17.8284ZM146.16 21.8618V22.4666H146.595L146.733 22.0548L146.16 21.8618ZM141.874 21.8618L141.304 21.6585L141.016 22.4666H141.874V21.8618ZM148.623 14.4473V15.0521L153.601 15.0521V14.4473V13.8425L148.623 13.8425V14.4473ZM153.601 14.4473L154.178 14.2644L151.729 6.54365L151.152 6.72654L150.576 6.90942L153.025 14.6301L153.601 14.4473ZM151.152 6.72654L150.577 6.53825L148.048 14.259L148.623 14.4473L149.198 14.6355L151.727 6.91482L151.152 6.72654ZM148.876 2.24053V2.84534L153.508 2.84534V2.24053V1.63572L148.876 1.63572V2.24053ZM153.508 2.24053L152.938 2.44243L159.887 22.0637L160.457 21.8618L161.027 21.6599L154.078 2.03863L153.508 2.24053ZM160.457 21.8618V21.257H156.011V21.8618V22.4666H160.457V21.8618ZM156.011 21.8618L156.588 21.6809L155.323 17.6475L154.746 17.8284L154.169 18.0093L155.434 22.0428L156.011 21.8618ZM154.746 17.8284V17.2236H147.518V17.8284V18.4332H154.746V17.8284ZM147.518 17.8284L146.945 17.6354L145.587 21.6689L146.16 21.8618L146.733 22.0548L148.091 18.0214L147.518 17.8284ZM146.16 21.8618V21.257L141.874 21.257V21.8618V22.4666L146.16 22.4666V21.8618ZM141.874 21.8618L142.444 22.0651L149.445 2.4438L148.876 2.24053L148.306 2.03726L141.304 21.6585L141.874 21.8618ZM160.572 2.24053V1.63572L159.968 1.63572V2.24053H160.572ZM164.606 2.24053L165.211 2.24053V1.63572L164.606 1.63572V2.24053ZM164.606 10.3207H164.001V11.8502L165.047 10.7343L164.606 10.3207ZM172.18 2.24053V1.63572H171.918L171.739 1.8269L172.18 2.24053ZM177.478 2.24053L177.907 2.66713L178.933 1.63572L177.478 1.63572V2.24053ZM169.438 10.3207L169.009 9.89406L168.644 10.2607L168.95 10.678L169.438 10.3207ZM177.891 21.8618V22.4666H179.083L178.379 21.5044L177.891 21.8618ZM172.619 21.8618L172.125 22.2108L172.306 22.4666H172.619V21.8618ZM166.563 13.2892L167.057 12.9402L166.637 12.3459L166.129 12.8673L166.563 13.2892ZM164.606 15.2992L164.172 14.8773L164.001 15.0534V15.2992H164.606ZM164.606 21.8618V22.4666H165.211V21.8618H164.606ZM160.572 21.8618H159.968V22.4666H160.572V21.8618ZM160.572 2.24053V2.84534L164.606 2.84534V2.24053V1.63572L160.572 1.63572V2.24053ZM164.606 2.24053H164.001V10.3207H164.606H165.211V2.24053L164.606 2.24053ZM164.606 10.3207L165.047 10.7343L172.621 2.65416L172.18 2.24053L171.739 1.8269L164.165 9.90704L164.606 10.3207ZM172.18 2.24053V2.84534L177.478 2.84534V2.24053V1.63572L172.18 1.63572V2.24053ZM177.478 2.24053L177.049 1.81392L169.009 9.89406L169.438 10.3207L169.867 10.7473L177.907 2.66713L177.478 2.24053ZM169.438 10.3207L168.95 10.678L177.403 22.2192L177.891 21.8618L178.379 21.5044L169.926 9.9633L169.438 10.3207ZM177.891 21.8618V21.257H172.619V21.8618V22.4666H177.891V21.8618ZM172.619 21.8618L173.113 21.5128L167.057 12.9402L166.563 13.2892L166.069 13.6381L172.125 22.2108L172.619 21.8618ZM166.563 13.2892L166.129 12.8673L164.172 14.8773L164.606 15.2992L165.039 15.7211L166.996 13.711L166.563 13.2892ZM164.606 15.2992H164.001V21.8618H164.606H165.211V15.2992H164.606ZM164.606 21.8618V21.257H160.572V21.8618V22.4666H164.606V21.8618ZM160.572 21.8618H161.177V2.24053H160.572H159.968V21.8618H160.572ZM181.734 5.6483V5.04349H181.129V5.6483H181.734ZM181.734 18.454H181.129V19.0589H181.734V18.454ZM189.561 15.5921L190.122 15.8167L190.123 15.8159L189.561 15.5921ZM189.241 7.259L188.718 7.56187L188.721 7.56698L189.241 7.259ZM186.206 2.24053L186.215 1.63572H186.206V2.24053ZM189.241 2.6665L189.052 3.2409L189.052 3.24101L189.241 2.6665ZM192.583 5.15577L193.078 4.80893L193.077 4.80698L192.583 5.15577ZM192.782 18.2011L193.305 18.5053L193.306 18.504L192.782 18.2011ZM177.753 21.8618H177.149V22.4666H177.753V21.8618ZM177.753 2.24053V1.63572H177.149V2.24053H177.753ZM181.734 5.6483H181.129V18.454H181.734H182.338V5.6483H181.734ZM181.734 18.454V19.0589H185.514V18.454V17.8492H181.734V18.454ZM185.514 18.454V19.0589C186.585 19.0589 187.533 18.7933 188.326 18.2323C189.117 17.6732 189.708 16.8526 190.122 15.8167L189.561 15.5921L188.999 15.3674C188.65 16.2395 188.186 16.8499 187.628 17.2448C187.072 17.6378 186.378 17.8492 185.514 17.8492V18.454ZM189.561 15.5921L190.123 15.8159C190.575 14.6804 190.791 13.3539 190.791 11.8515H190.186H189.582C189.582 13.2421 189.381 14.4093 188.999 15.3683L189.561 15.5921ZM190.186 11.8515H190.791C190.791 9.80631 190.471 8.14994 189.762 6.95102L189.241 7.259L188.721 7.56698C189.272 8.49792 189.582 9.90321 189.582 11.8515H190.186ZM189.241 7.259L189.765 6.95614C188.987 5.61206 187.476 5.04349 185.514 5.04349V5.6483V6.25311C187.28 6.25311 188.253 6.75833 188.718 7.56186L189.241 7.259ZM185.514 5.6483V5.04349H181.734V5.6483V6.25311H185.514V5.6483ZM186.206 2.24053L186.197 2.84527C187.376 2.86248 188.322 3.00019 189.052 3.2409L189.241 2.6665L189.431 2.0921C188.546 1.80035 187.468 1.65408 186.215 1.63578L186.206 2.24053ZM189.241 2.6665L189.052 3.24101C190.302 3.65217 191.31 4.40135 192.088 5.50455L192.583 5.15577L193.077 4.80698C192.152 3.49634 190.932 2.58602 189.43 2.09199L189.241 2.6665ZM192.583 5.15577L192.087 5.5026C192.726 6.41493 193.158 7.39733 193.389 8.45317L193.98 8.32393L194.571 8.19468C194.305 6.97868 193.806 5.84897 193.078 4.80893L192.583 5.15577ZM193.98 8.32393L193.389 8.45317C193.63 9.55201 193.748 10.5912 193.748 11.572L194.353 11.572H194.958C194.958 10.4939 194.828 9.36769 194.571 8.19468L193.98 8.32393ZM194.353 11.572L193.748 11.572C193.748 14.1007 193.241 16.2001 192.259 17.8983L192.782 18.2011L193.306 18.504C194.418 16.5814 194.958 14.2613 194.958 11.572H194.353ZM192.782 18.2011L192.259 17.897C190.954 20.1402 188.968 21.257 186.206 21.257V21.8618V22.4666C189.373 22.4666 191.77 21.143 193.305 18.5053L192.782 18.2011ZM186.206 21.8618V21.257H177.753V21.8618V22.4666H186.206V21.8618ZM177.753 21.8618H178.358V2.24053H177.753H177.149V21.8618H177.753ZM177.753 2.24053V2.84534L186.206 2.84534V2.24053V1.63572L177.753 1.63572V2.24053ZM207.541 17.1362L207.068 16.7584L207.067 16.7605L207.541 17.1362ZM207.541 6.92621L207.065 7.30019L207.068 7.30403L207.541 6.92621ZM210.11 20.118L209.694 19.6787L209.685 19.6875L209.676 19.6967L210.11 20.118ZM197.251 20.118L197.685 19.6967L197.675 19.687L197.665 19.6777L197.251 20.118ZM197.251 3.9311L197.657 4.37926L197.671 4.36628L197.685 4.35241L197.251 3.9311ZM210.11 3.9311L209.676 4.35241L209.689 4.36579L209.703 4.37835L210.11 3.9311ZM203.68 18.9333V19.5381C205.476 19.5381 206.942 18.8648 208.015 17.5119L207.541 17.1362L207.067 16.7605C206.24 17.8037 205.133 18.3285 203.68 18.3285V18.9333ZM207.541 17.1362L208.013 17.514C209.088 16.1704 209.583 14.3128 209.583 12.0245H208.978H208.373C208.373 14.1558 207.91 15.7059 207.068 16.7584L207.541 17.1362ZM208.978 12.0245H209.583C209.583 9.74452 209.087 7.89165 208.013 6.54839L207.541 6.92621L207.068 7.30403C207.911 8.35685 208.373 9.90288 208.373 12.0245H208.978ZM207.541 6.92621L208.016 6.55224C206.944 5.19014 205.477 4.51102 203.68 4.51102V5.11583V5.72064C205.131 5.72064 206.238 6.24845 207.065 7.30018L207.541 6.92621ZM203.68 5.11583V4.51102C201.885 4.51102 200.412 5.18398 199.323 6.53295L199.793 6.9129L200.264 7.29284C201.109 6.24573 202.227 5.72064 203.68 5.72064V5.11583ZM199.793 6.9129L199.323 6.53295C198.238 7.87676 197.737 9.73525 197.737 12.0245H198.342H198.947C198.947 9.8944 199.414 8.34512 200.264 7.29284L199.793 6.9129ZM198.342 12.0245H197.737C197.737 14.3139 198.238 16.1723 199.323 17.5161L199.793 17.1362L200.264 16.7563C199.414 15.704 198.947 14.1547 198.947 12.0245H198.342ZM199.793 17.1362L199.323 17.5161C200.412 18.8651 201.885 19.5381 203.68 19.5381V18.9333V18.3285C202.227 18.3285 201.109 17.8034 200.264 16.7563L199.793 17.1362ZM213.078 12.0245H212.473C212.473 15.4328 211.519 17.9515 209.694 19.6787L210.11 20.118L210.525 20.5573C212.658 18.5395 213.683 15.6626 213.683 12.0245H213.078ZM210.11 20.118L209.676 19.6967C208.341 21.0719 206.375 21.8028 203.68 21.8028V22.4076V23.0124C206.594 23.0124 208.915 22.2169 210.544 20.5393L210.11 20.118ZM203.68 22.4076V21.8028C200.985 21.8028 199.02 21.0719 197.685 19.6967L197.251 20.118L196.817 20.5393C198.446 22.2169 200.767 23.0124 203.68 23.0124V22.4076ZM197.251 20.118L197.665 19.6777C195.832 17.9504 194.874 15.432 194.874 12.0245L194.269 12.0245H193.664C193.664 15.6633 194.694 18.5407 196.836 20.5582L197.251 20.118ZM194.269 12.0245L194.874 12.0245C194.874 8.54038 195.834 6.03082 197.657 4.37926L197.251 3.9311L196.845 3.48295C194.691 5.43439 193.664 8.32046 193.664 12.0245H194.269ZM197.251 3.9311L197.685 4.35241C199.02 2.97722 200.985 2.24632 203.68 2.24632V1.64151V1.0367C200.767 1.0367 198.446 1.83219 196.817 3.50979L197.251 3.9311ZM203.68 1.64151V2.24632C206.375 2.24632 208.341 2.97722 209.676 4.35241L210.11 3.9311L210.544 3.50979C208.915 1.83219 206.594 1.0367 203.68 1.0367V1.64151ZM210.11 3.9311L209.703 4.37835C211.517 6.02972 212.473 8.53959 212.473 12.0245H213.078H213.683C213.683 8.32125 212.661 5.43549 210.517 3.48385L210.11 3.9311ZM216.442 2.24053L217.031 2.10438L216.923 1.63572H216.442V2.24053ZM219.037 13.4755L219.633 13.3691L219.63 13.3542L219.627 13.3394L219.037 13.4755ZM219.597 16.6037L219.001 16.7101L220.191 16.7149L219.597 16.6037ZM220.169 13.5421L219.575 13.426L219.574 13.4309L220.169 13.5421ZM222.379 2.24053V1.63572H221.881L221.785 2.12447L222.379 2.24053ZM226.705 2.24053L227.297 2.11774L227.197 1.63572H226.705V2.24053ZM229.035 13.4755L229.629 13.3618L229.627 13.3527L229.035 13.4755ZM229.634 16.6037L229.04 16.7175L230.227 16.7218L229.634 16.6037ZM230.233 13.5953L229.643 13.4592L229.641 13.4682L229.639 13.4772L230.233 13.5953ZM232.855 2.24053V1.63572H232.374L232.266 2.10443L232.855 2.24053ZM237.021 2.24053L237.604 2.40444L237.82 1.63572L237.021 1.63572V2.24053ZM231.497 21.8618V22.4666H231.955L232.079 22.0257L231.497 21.8618ZM227.584 21.8618L226.991 21.9841L227.091 22.4666H227.584V21.8618ZM225.214 10.3872L224.619 10.4958L224.622 10.5095L225.214 10.3872ZM224.522 6.59342L225.117 6.48486L223.927 6.48486L224.522 6.59342ZM223.83 10.3872L224.422 10.5096L224.425 10.4958L223.83 10.3872ZM221.46 21.8618V22.4666H221.953L222.053 21.9841L221.46 21.8618ZM217.653 21.8618L217.071 22.0268L217.196 22.4666H217.653V21.8618ZM212.089 2.24053V1.63572L211.289 1.63572L211.507 2.40554L212.089 2.24053ZM216.442 2.24053L215.852 2.37668L218.448 13.6117L219.037 13.4755L219.627 13.3394L217.031 2.10438L216.442 2.24053ZM219.037 13.4755L218.442 13.5819L219.001 16.7101L219.597 16.6037L220.192 16.4973L219.633 13.3691L219.037 13.4755ZM219.597 16.6037L220.191 16.7149L220.763 13.6532L220.169 13.5421L219.574 13.4309L219.002 16.4926L219.597 16.6037ZM220.169 13.5421L220.763 13.6581L222.972 2.35659L222.379 2.24053L221.785 2.12447L219.575 13.426L220.169 13.5421ZM222.379 2.24053V2.84534L226.705 2.84534V2.24053V1.63572L222.379 1.63572V2.24053ZM226.705 2.24053L226.113 2.36332L228.442 13.5983L229.035 13.4755L229.627 13.3527L227.297 2.11774L226.705 2.24053ZM229.035 13.4755L228.44 13.5893L229.04 16.7175L229.634 16.6037L230.228 16.49L229.629 13.3618L229.035 13.4755ZM229.634 16.6037L230.227 16.7218L230.826 13.7134L230.233 13.5953L229.639 13.4772L229.04 16.4856L229.634 16.6037ZM230.233 13.5953L230.822 13.7314L233.444 2.37663L232.855 2.24053L232.266 2.10443L229.643 13.4592L230.233 13.5953ZM232.855 2.24053V2.84534L237.021 2.84534V2.24053V1.63572L232.855 1.63572V2.24053ZM237.021 2.24053L236.439 2.07662L230.915 21.6979L231.497 21.8618L232.079 22.0257L237.604 2.40444L237.021 2.24053ZM231.497 21.8618V21.257H227.584V21.8618V22.4666H231.497V21.8618ZM227.584 21.8618L228.176 21.7395L225.806 10.2649L225.214 10.3872L224.622 10.5095L226.991 21.9841L227.584 21.8618ZM225.214 10.3872L225.809 10.2787L225.117 6.48486L224.522 6.59342L223.927 6.70198L224.619 10.4958L225.214 10.3872ZM224.522 6.59342L223.927 6.48486L223.235 10.2787L223.83 10.3872L224.425 10.4958L225.117 6.70198L224.522 6.59342ZM223.83 10.3872L223.237 10.2649L220.868 21.7395L221.46 21.8618L222.053 21.9841L224.422 10.5095L223.83 10.3872ZM221.46 21.8618V21.257H217.653V21.8618V22.4666H221.46V21.8618ZM217.653 21.8618L218.235 21.6968L212.671 2.07552L212.089 2.24053L211.507 2.40554L217.071 22.0268L217.653 21.8618ZM212.089 2.24053V2.84534L216.442 2.84534V2.24053V1.63572L212.089 1.63572V2.24053ZM236.991 2.24053V1.63572L236.386 1.63572V2.24053L236.991 2.24053ZM241.29 2.24053L241.816 1.94084L241.642 1.63572H241.29V2.24053ZM249.104 15.9382L248.579 16.2378L249.709 18.219V15.9382L249.104 15.9382ZM249.104 2.24053V1.63572L248.499 1.63572V2.24053H249.104ZM252.925 2.24053L253.529 2.24053V1.63572L252.925 1.63572V2.24053ZM252.925 21.8618V22.4666H253.529V21.8618H252.925ZM248.825 21.8618L248.3 22.1633L248.475 22.4666H248.825V21.8618ZM240.811 7.92458L241.335 7.62311L240.206 5.65933V7.92458H240.811ZM240.811 21.8618V22.4666H241.416V21.8618H240.811ZM236.991 21.8618H236.386V22.4666H236.991V21.8618ZM236.991 2.24053V2.84534L241.29 2.84534V2.24053V1.63572L236.991 1.63572V2.24053ZM241.29 2.24053L240.765 2.54021L248.579 16.2378L249.104 15.9382L249.629 15.6385L241.816 1.94084L241.29 2.24053ZM249.104 15.9382L249.709 15.9382V2.24053H249.104H248.499V15.9382H249.104ZM249.104 2.24053V2.84534L252.925 2.84534V2.24053V1.63572L249.104 1.63572V2.24053ZM252.925 2.24053H252.32V21.8618H252.925H253.529V2.24053L252.925 2.24053ZM252.925 21.8618V21.257H248.825V21.8618V22.4666H252.925V21.8618ZM248.825 21.8618L249.349 21.5603L241.335 7.62311L240.811 7.92458L240.287 8.22605L248.3 22.1633L248.825 21.8618ZM240.811 7.92458H240.206V21.8618H240.811H241.416V7.92458L240.811 7.92458ZM240.811 21.8618V21.257H236.991V21.8618V22.4666H240.811V21.8618ZM236.991 21.8618H237.595V2.24053H236.991L236.386 2.24053V21.8618H236.991ZM253.932 17.895V17.2902H253.327V17.895H253.932ZM257.965 17.895H258.57V17.2902H257.965V17.895ZM257.965 21.8618V22.4666H258.57V21.8618H257.965ZM253.932 21.8618H253.327V22.4666H253.932V21.8618ZM253.932 17.895V18.4998L257.965 18.4998V17.895V17.2902L253.932 17.2902V17.895ZM257.965 17.895H257.361V21.8618H257.965H258.57V17.895H257.965ZM257.965 21.8618V21.257L253.932 21.257V21.8618V22.4666L257.965 22.4666V21.8618ZM253.932 21.8618H254.537V17.895H253.932H253.327V21.8618H253.932Z" fill="black" mask="url(#path-7-outside-1_160_13)"/>
</svg>
