<svg width="1467" height="1008" viewBox="0 0 1467 1008" fill="none" xmlns="http://www.w3.org/2000/svg">
<path d="M1.69864 1006.41V1004.71H8.49319V1003.01H1.69864V1001.31H0V996.218H3.39728V1001.31H8.49319V996.218H11.8905V1004.71H10.1918V1006.41H1.69864ZM16.1031 1004.71V1003.01H14.4044V996.218H17.8017V1003.01H22.8976V996.218H26.2949V1004.71H16.1031ZM28.8089 1004.71V992.821H32.2062V999.616H35.6034V997.917H37.3021V996.218H40.6994V997.917H39.0007V999.616H37.3021V1001.31H39.0007V1003.01H40.6994V1004.71H37.3021V1003.01H35.6034V1001.31H32.2062V1004.71H28.8089ZM48.3093 994.52V992.821H51.7065V994.52H48.3093ZM44.912 1004.71V1003.01H48.3093V997.917H46.6106V996.218H51.7065V1003.01H55.1038V1004.71H44.912Z" fill="black"/>
<path d="M1436.06 1005.03V1003.33H1439.46V996.536H1437.76V994.837H1439.46V993.138H1442.85V1003.33H1446.25V1005.03H1436.06ZM1450.46 1005.03V1003.33H1448.76V996.536H1450.46V994.837H1452.16V993.138H1458.96V994.837H1453.86V996.536H1452.16V998.234H1458.96V999.933H1460.65V1003.33H1458.96V1005.03H1450.46ZM1452.16 1003.33H1457.26V999.933H1452.16V1003.33Z" fill="black"/>
<mask id="path-3-outside-1_192_87" maskUnits="userSpaceOnUse" x="539.805" y="993.958" width="28" height="14" fill="black">
<rect fill="white" x="539.805" y="993.958" width="28" height="14"/>
<path d="M552.695 995.369V997.068H550.997V995.369H552.695ZM549.298 997.068H550.997V998.766H549.298V997.068ZM547.599 998.766H549.298V1000.46H547.599V998.766ZM545.901 1000.46H547.599V1002.16H545.901V1000.46ZM544.202 1002.16H545.901V1003.86H544.202V1002.16ZM542.503 1003.86H544.202V1005.56H542.503V1003.86ZM540.805 1005.56H542.503V1007.26H540.805V1005.56ZM567.1 995.369V997.068H565.401V995.369H567.1ZM563.702 997.068H565.401V998.766H563.702V997.068ZM562.004 998.766H563.702V1000.46H562.004V998.766ZM560.305 1000.46H562.004V1002.16H560.305V1000.46ZM558.606 1002.16H560.305V1003.86H558.606V1002.16ZM556.908 1003.86H558.606V1005.56H556.908V1003.86ZM555.209 1005.56H556.908V1007.26H555.209V1005.56Z"/>
</mask>
<path d="M552.695 995.369V997.068H550.997V995.369H552.695ZM549.298 997.068H550.997V998.766H549.298V997.068ZM547.599 998.766H549.298V1000.46H547.599V998.766ZM545.901 1000.46H547.599V1002.16H545.901V1000.46ZM544.202 1002.16H545.901V1003.86H544.202V1002.16ZM542.503 1003.86H544.202V1005.56H542.503V1003.86ZM540.805 1005.56H542.503V1007.26H540.805V1005.56ZM567.1 995.369V997.068H565.401V995.369H567.1ZM563.702 997.068H565.401V998.766H563.702V997.068ZM562.004 998.766H563.702V1000.46H562.004V998.766ZM560.305 1000.46H562.004V1002.16H560.305V1000.46ZM558.606 1002.16H560.305V1003.86H558.606V1002.16ZM556.908 1003.86H558.606V1005.56H556.908V1003.86ZM555.209 1005.56H556.908V1007.26H555.209V1005.56Z" fill="black"/>
<path d="M552.695 995.369H553.332V994.732H552.695V995.369ZM552.695 997.068V997.705H553.332V997.068H552.695ZM550.997 997.068H550.36V997.705H550.997V997.068ZM550.997 995.369V994.732H550.36V995.369H550.997ZM549.298 997.068V996.431H548.661V997.068H549.298ZM550.997 997.068H551.634V996.431H550.997V997.068ZM550.997 998.766V999.403H551.634V998.766H550.997ZM549.298 998.766H548.661V999.403H549.298V998.766ZM547.599 998.766V998.129H546.962V998.766H547.599ZM549.298 998.766H549.935V998.129H549.298V998.766ZM549.298 1000.46V1001.1H549.935V1000.46H549.298ZM547.599 1000.46H546.962V1001.1H547.599V1000.46ZM545.901 1000.46V999.828H545.264V1000.46H545.901ZM547.599 1000.46H548.236V999.828H547.599V1000.46ZM547.599 1002.16V1002.8H548.236V1002.16H547.599ZM545.901 1002.16H545.264V1002.8H545.901V1002.16ZM544.202 1002.16V1001.53H543.565V1002.16H544.202ZM545.901 1002.16H546.538V1001.53H545.901V1002.16ZM545.901 1003.86V1004.5H546.538V1003.86H545.901ZM544.202 1003.86H543.565V1004.5H544.202V1003.86ZM542.503 1003.86V1003.23H541.866V1003.86H542.503ZM544.202 1003.86H544.839V1003.23H544.202V1003.86ZM544.202 1005.56V1006.2H544.839V1005.56H544.202ZM542.503 1005.56H541.866V1006.2H542.503V1005.56ZM540.805 1005.56V1004.92H540.168V1005.56H540.805ZM542.503 1005.56H543.14V1004.92H542.503V1005.56ZM542.503 1007.26V1007.9H543.14V1007.26H542.503ZM540.805 1007.26H540.168V1007.9H540.805V1007.26ZM552.695 995.369H552.058V997.068H552.695H553.332V995.369H552.695ZM552.695 997.068V996.431H550.997V997.068V997.705H552.695V997.068ZM550.997 997.068H551.634V995.369H550.997H550.36V997.068H550.997ZM550.997 995.369V996.006H552.695V995.369V994.732H550.997V995.369ZM549.298 997.068V997.705H550.997V997.068V996.431H549.298V997.068ZM550.997 997.068H550.36V998.766H550.997H551.634V997.068H550.997ZM550.997 998.766V998.129H549.298V998.766V999.403H550.997V998.766ZM549.298 998.766H549.935V997.068H549.298H548.661V998.766H549.298ZM547.599 998.766V999.403H549.298V998.766V998.129H547.599V998.766ZM549.298 998.766H548.661V1000.46H549.298H549.935V998.766H549.298ZM549.298 1000.46V999.828H547.599V1000.46V1001.1H549.298V1000.46ZM547.599 1000.46H548.236V998.766H547.599H546.962V1000.46H547.599ZM545.901 1000.46V1001.1H547.599V1000.46V999.828H545.901V1000.46ZM547.599 1000.46H546.962V1002.16H547.599H548.236V1000.46H547.599ZM547.599 1002.16V1001.53H545.901V1002.16V1002.8H547.599V1002.16ZM545.901 1002.16H546.538V1000.46H545.901H545.264V1002.16H545.901ZM544.202 1002.16V1002.8H545.901V1002.16V1001.53H544.202V1002.16ZM545.901 1002.16H545.264V1003.86H545.901H546.538V1002.16H545.901ZM545.901 1003.86V1003.23H544.202V1003.86V1004.5H545.901V1003.86ZM544.202 1003.86H544.839V1002.16H544.202H543.565V1003.86H544.202ZM542.503 1003.86V1004.5H544.202V1003.86V1003.23H542.503V1003.86ZM544.202 1003.86H543.565V1005.56H544.202H544.839V1003.86H544.202ZM544.202 1005.56V1004.92H542.503V1005.56V1006.2H544.202V1005.56ZM542.503 1005.56H543.14V1003.86H542.503H541.866V1005.56H542.503ZM540.805 1005.56V1006.2H542.503V1005.56V1004.92H540.805V1005.56ZM542.503 1005.56H541.866V1007.26H542.503H543.14V1005.56H542.503ZM542.503 1007.26V1006.62H540.805V1007.26V1007.9H542.503V1007.26ZM540.805 1007.26H541.442V1005.56H540.805H540.168V1007.26H540.805ZM567.1 995.369H567.737V994.732H567.1V995.369ZM567.1 997.068V997.705H567.737V997.068H567.1ZM565.401 997.068H564.764V997.705H565.401V997.068ZM565.401 995.369V994.732H564.764V995.369H565.401ZM563.702 997.068V996.431H563.065V997.068H563.702ZM565.401 997.068H566.038V996.431H565.401V997.068ZM565.401 998.766V999.403H566.038V998.766H565.401ZM563.702 998.766H563.065V999.403H563.702V998.766ZM562.004 998.766V998.129H561.367V998.766H562.004ZM563.702 998.766H564.339V998.129H563.702V998.766ZM563.702 1000.46V1001.1H564.339V1000.46H563.702ZM562.004 1000.46H561.367V1001.1H562.004V1000.46ZM560.305 1000.46V999.828H559.668V1000.46H560.305ZM562.004 1000.46H562.641V999.828H562.004V1000.46ZM562.004 1002.16V1002.8H562.641V1002.16H562.004ZM560.305 1002.16H559.668V1002.8H560.305V1002.16ZM558.606 1002.16V1001.53H557.969V1002.16H558.606ZM560.305 1002.16H560.942V1001.53H560.305V1002.16ZM560.305 1003.86V1004.5H560.942V1003.86H560.305ZM558.606 1003.86H557.969V1004.5H558.606V1003.86ZM556.908 1003.86V1003.23H556.271V1003.86H556.908ZM558.606 1003.86H559.243V1003.23H558.606V1003.86ZM558.606 1005.56V1006.2H559.243V1005.56H558.606ZM556.908 1005.56H556.271V1006.2H556.908V1005.56ZM555.209 1005.56V1004.92H554.572V1005.56H555.209ZM556.908 1005.56H557.545V1004.92H556.908V1005.56ZM556.908 1007.26V1007.9H557.545V1007.26H556.908ZM555.209 1007.26H554.572V1007.9H555.209V1007.26ZM567.1 995.369H566.463V997.068H567.1H567.737V995.369H567.1ZM567.1 997.068V996.431H565.401V997.068V997.705H567.1V997.068ZM565.401 997.068H566.038V995.369H565.401H564.764V997.068H565.401ZM565.401 995.369V996.006H567.1V995.369V994.732H565.401V995.369ZM563.702 997.068V997.705H565.401V997.068V996.431H563.702V997.068ZM565.401 997.068H564.764V998.766H565.401H566.038V997.068H565.401ZM565.401 998.766V998.129H563.702V998.766V999.403H565.401V998.766ZM563.702 998.766H564.339V997.068H563.702H563.065V998.766H563.702ZM562.004 998.766V999.403H563.702V998.766V998.129H562.004V998.766ZM563.702 998.766H563.065V1000.46H563.702H564.339V998.766H563.702ZM563.702 1000.46V999.828H562.004V1000.46V1001.1H563.702V1000.46ZM562.004 1000.46H562.641V998.766H562.004H561.367V1000.46H562.004ZM560.305 1000.46V1001.1H562.004V1000.46V999.828H560.305V1000.46ZM562.004 1000.46H561.367V1002.16H562.004H562.641V1000.46H562.004ZM562.004 1002.16V1001.53H560.305V1002.16V1002.8H562.004V1002.16ZM560.305 1002.16H560.942V1000.46H560.305H559.668V1002.16H560.305ZM558.606 1002.16V1002.8H560.305V1002.16V1001.53H558.606V1002.16ZM560.305 1002.16H559.668V1003.86H560.305H560.942V1002.16H560.305ZM560.305 1003.86V1003.23H558.606V1003.86V1004.5H560.305V1003.86ZM558.606 1003.86H559.243V1002.16H558.606H557.969V1003.86H558.606ZM556.908 1003.86V1004.5H558.606V1003.86V1003.23H556.908V1003.86ZM558.606 1003.86H557.969V1005.56H558.606H559.243V1003.86H558.606ZM558.606 1005.56V1004.92H556.908V1005.56V1006.2H558.606V1005.56ZM556.908 1005.56H557.545V1003.86H556.908H556.271V1005.56H556.908ZM555.209 1005.56V1006.2H556.908V1005.56V1004.92H555.209V1005.56ZM556.908 1005.56H556.271V1007.26H556.908H557.545V1005.56H556.908ZM556.908 1007.26V1006.62H555.209V1007.26V1007.9H556.908V1007.26ZM555.209 1007.26H555.846V1005.56H555.209H554.572V1007.26H555.209Z" fill="black" mask="url(#path-3-outside-1_192_87)"/>
<path d="M568.115 58.6949L566.417 58.6949L566.417 51.9004L564.718 51.9004L564.718 58.6949L563.019 58.6949L563.019 60.3936L557.923 60.3936L557.923 56.9963L563.019 56.9963L563.019 51.9004L557.923 51.9004L557.923 48.5031L566.417 48.5031L566.417 50.2017L568.115 50.2017L568.115 58.6949ZM566.417 44.2905L564.718 44.2905L564.718 45.9891L557.923 45.9891L557.923 42.5918L564.718 42.5918L564.718 37.4959L557.923 37.4959L557.923 34.0986L566.417 34.0986L566.417 44.2905ZM566.417 31.5847L554.526 31.5847L554.526 28.1874L561.321 28.1874L561.321 24.7901L559.622 24.7901L559.622 23.0915L557.923 23.0915L557.923 19.6942L559.622 19.6942L559.622 21.3928L561.321 21.3928L561.321 23.0915L563.019 23.0915L563.019 21.3928L564.718 21.3928L564.718 19.6942L566.417 19.6942L566.417 23.0915L564.718 23.0915L564.718 24.7901L563.019 24.7901L563.019 28.1874L566.417 28.1874L566.417 31.5847ZM556.225 12.0843L554.526 12.0843L554.526 8.68703L556.225 8.68703L556.225 12.0843ZM566.417 15.4816L564.718 15.4816L564.718 12.0843L559.622 12.0843L559.622 13.7829L557.923 13.7829L557.923 8.68703L564.718 8.68703L564.718 5.28975L566.417 5.28975L566.417 15.4816Z" fill="black"/>
<path d="M478.59 510.197V501.704H480.288V500.005H481.987V498.306H487.083V500.005H488.782V501.704H490.48V510.197H487.083V506.8H481.987V510.197H478.59ZM481.987 505.101H487.083V501.704H485.384V500.005H483.686V501.704H481.987V505.101ZM493.742 510.197V498.306H497.139V508.498H503.934V510.197H493.742ZM507.195 510.197V498.306H510.592V508.498H517.387V510.197H507.195ZM537.499 510.197V500.005H534.101V498.306H544.293V500.005H540.896V510.197H537.499ZM545.856 510.197V498.306H549.253V503.402H554.349V498.306H557.746V510.197H554.349V505.101H549.253V510.197H545.856ZM559.309 510.197V498.306H571.2V500.005H562.706V503.402H569.501V505.101H562.706V508.498H571.2V510.197H559.309ZM586.216 510.197V498.306H589.613V500.005H591.311V501.704H593.01V500.005H594.709V498.306H598.106V510.197H594.709V503.402H593.01V506.8H591.311V503.402H589.613V510.197H586.216ZM599.669 510.197V498.306H611.559V500.005H603.066V503.402H609.861V505.101H603.066V508.498H611.559V510.197H599.669ZM613.122 510.197V498.306H623.314V500.005H625.012V505.101H621.615V506.8H623.314V508.498H625.012V510.197H619.916V508.498H618.218V506.8H616.519V510.197H613.122ZM616.519 505.101H619.916V503.402H621.615V500.005H616.519V505.101ZM629.972 510.197V508.498H628.274V506.8H626.575V501.704H628.274V500.005H629.972V498.306H636.767V500.005H638.466V501.704H635.068V500.005H631.671V501.704H629.972V506.8H631.671V508.498H635.068V506.8H638.466V508.498H636.767V510.197H629.972ZM640.028 510.197V498.306H643.426V503.402H648.522V498.306H651.919V510.197H648.522V505.101H643.426V510.197H640.028Z" fill="black"/>
</svg>
