<svg width="419" height="124" viewBox="0 0 419 124" fill="none" xmlns="http://www.w3.org/2000/svg">
<path d="M398.463 2.93903L416.455 2L417.332 18.7988L399.364 44.5331L397.895 44.6098L396.425 44.6865L375.876 20.9624L375 4.16359L392.992 3.22456L396.005 8.40125L398.463 2.93903Z" fill="black"/>
<mask id="path-2-outside-1_151_556" maskUnits="userSpaceOnUse" x="0.0456556" y="5.75591" width="283.943" height="61.8238" fill="black">
<rect fill="white" x="0.0456556" y="5.75591" width="283.943" height="61.8238"/>
<path d="M10.9361 20.5861L17.9881 45.7991L19.5805 52.8363L20.5614 45.8328L24.4017 19.9707L34.2141 19.5222L40.6624 44.7628L42.3453 51.7959L43.3921 44.9104L48.1628 18.8847L57.613 18.4528L47.1172 63.5285L38.2407 63.9342L31.6771 38.1543L29.7139 29.6213L28.5371 38.2978L24.3524 64.569L15.7175 64.9636L1.0633 21.0374L10.9361 20.5861ZM63.9957 62.7571L61.9618 18.2541L71.1704 17.8332L71.9459 34.8011L89.3365 34.0063L88.561 17.0384L97.7997 16.6162L99.8337 61.1192L90.5949 61.5415L89.687 41.6751L72.2964 42.4699L73.2043 62.3363L63.9957 62.7571ZM118.902 43.3956L130.194 42.8796L123.839 25.6221L118.902 43.3956ZM118.211 15.6833L128.718 15.2031L146.512 58.9859L136.428 59.4468L133.141 50.4297L116.747 51.1789L114.086 60.4679L104.364 60.9122L118.211 15.6833ZM176.664 13.0118L177.024 20.892L163.709 21.5005L165.383 58.1234L156.023 58.5512L154.35 21.9282L140.975 22.5395L140.614 14.6594L176.664 13.0118ZM206.245 19.4052L207.573 48.4499L216.147 48.058C220.535 47.8575 223.496 45.5539 225.029 41.1472C225.866 38.7289 226.21 35.8793 226.06 32.5984C225.853 28.0696 224.98 24.6302 223.441 22.2802C221.92 19.9091 219.047 18.8201 214.82 19.0133L206.245 19.4052ZM216.037 11.2124C218.796 11.1266 221.105 11.3438 222.964 11.8639C226.131 12.7478 228.743 14.5144 230.801 17.1635C232.452 19.3067 233.618 21.6536 234.299 24.2043C234.981 26.7549 235.375 29.1976 235.481 31.5325C235.752 37.4501 234.793 42.5163 232.606 46.7309C229.638 52.4133 224.793 55.4082 218.07 55.7154L198.899 56.5916L196.865 12.0886L216.037 11.2124ZM261.728 47.064C265.411 46.8957 268.268 45.4036 270.297 42.5879C272.347 39.7713 273.257 35.857 273.028 30.8452C272.8 25.8534 271.537 22.0486 269.239 19.4306C266.96 16.7917 263.979 15.5563 260.295 15.7247C256.612 15.893 253.735 17.386 251.666 20.2035C249.596 23.0211 248.675 26.9358 248.905 31.9477C249.134 36.9596 250.407 40.774 252.725 43.391C255.043 46.008 258.044 47.2324 261.728 47.064ZM282.327 30.4202C282.692 38.411 280.728 44.6325 276.433 49.0846C273.23 52.7003 268.448 54.6534 262.088 54.9441C255.727 55.2348 250.787 53.726 247.268 50.4176C242.565 46.3766 240.031 40.3607 239.666 32.3699C239.293 24.2181 241.268 17.9961 245.59 13.7041C248.793 10.0884 253.575 8.13527 259.935 7.84458C266.296 7.55388 271.236 9.06273 274.755 12.3711C279.431 16.252 281.955 22.2683 282.327 30.4202Z"/>
</mask>
<path d="M10.9361 20.5861L17.9881 45.7991L19.5805 52.8363L20.5614 45.8328L24.4017 19.9707L34.2141 19.5222L40.6624 44.7628L42.3453 51.7959L43.3921 44.9104L48.1628 18.8847L57.613 18.4528L47.1172 63.5285L38.2407 63.9342L31.6771 38.1543L29.7139 29.6213L28.5371 38.2978L24.3524 64.569L15.7175 64.9636L1.0633 21.0374L10.9361 20.5861ZM63.9957 62.7571L61.9618 18.2541L71.1704 17.8332L71.9459 34.8011L89.3365 34.0063L88.561 17.0384L97.7997 16.6162L99.8337 61.1192L90.5949 61.5415L89.687 41.6751L72.2964 42.4699L73.2043 62.3363L63.9957 62.7571ZM118.902 43.3956L130.194 42.8796L123.839 25.6221L118.902 43.3956ZM118.211 15.6833L128.718 15.2031L146.512 58.9859L136.428 59.4468L133.141 50.4297L116.747 51.1789L114.086 60.4679L104.364 60.9122L118.211 15.6833ZM176.664 13.0118L177.024 20.892L163.709 21.5005L165.383 58.1234L156.023 58.5512L154.35 21.9282L140.975 22.5395L140.614 14.6594L176.664 13.0118ZM206.245 19.4052L207.573 48.4499L216.147 48.058C220.535 47.8575 223.496 45.5539 225.029 41.1472C225.866 38.7289 226.21 35.8793 226.06 32.5984C225.853 28.0696 224.98 24.6302 223.441 22.2802C221.92 19.9091 219.047 18.8201 214.82 19.0133L206.245 19.4052ZM216.037 11.2124C218.796 11.1266 221.105 11.3438 222.964 11.8639C226.131 12.7478 228.743 14.5144 230.801 17.1635C232.452 19.3067 233.618 21.6536 234.299 24.2043C234.981 26.7549 235.375 29.1976 235.481 31.5325C235.752 37.4501 234.793 42.5163 232.606 46.7309C229.638 52.4133 224.793 55.4082 218.07 55.7154L198.899 56.5916L196.865 12.0886L216.037 11.2124ZM261.728 47.064C265.411 46.8957 268.268 45.4036 270.297 42.5879C272.347 39.7713 273.257 35.857 273.028 30.8452C272.8 25.8534 271.537 22.0486 269.239 19.4306C266.96 16.7917 263.979 15.5563 260.295 15.7247C256.612 15.893 253.735 17.386 251.666 20.2035C249.596 23.0211 248.675 26.9358 248.905 31.9477C249.134 36.9596 250.407 40.774 252.725 43.391C255.043 46.008 258.044 47.2324 261.728 47.064ZM282.327 30.4202C282.692 38.411 280.728 44.6325 276.433 49.0846C273.23 52.7003 268.448 54.6534 262.088 54.9441C255.727 55.2348 250.787 53.726 247.268 50.4176C242.565 46.3766 240.031 40.3607 239.666 32.3699C239.293 24.2181 241.268 17.9961 245.59 13.7041C248.793 10.0884 253.575 8.13527 259.935 7.84458C266.296 7.55388 271.236 9.06273 274.755 12.3711C279.431 16.252 281.955 22.2683 282.327 30.4202Z" fill="black"/>
<path d="M10.9361 20.5861L11.1279 20.5325L11.0853 20.3799L10.927 20.3871L10.9361 20.5861ZM17.9881 45.7991L18.1827 45.7551L18.18 45.7455L17.9881 45.7991ZM19.5805 52.8363L19.3862 52.8803L19.7778 52.8639L19.5805 52.8363ZM20.5614 45.8328L20.3643 45.8035L20.3641 45.8052L20.5614 45.8328ZM24.4017 19.9707L24.3926 19.7717L24.2288 19.7792L24.2047 19.9414L24.4017 19.9707ZM34.2141 19.5222L34.4071 19.4729L34.367 19.3158L34.205 19.3232L34.2141 19.5222ZM40.6624 44.7628L40.8561 44.7165L40.8554 44.7135L40.6624 44.7628ZM42.3453 51.7959L42.1515 51.8422L42.5422 51.8258L42.3453 51.7959ZM43.3921 44.9104L43.196 44.8744L43.1951 44.8804L43.3921 44.9104ZM48.1628 18.8847L48.1538 18.6857L47.9955 18.693L47.9669 18.8488L48.1628 18.8847ZM57.613 18.4528L57.807 18.498L57.8666 18.2418L57.6039 18.2538L57.613 18.4528ZM47.1172 63.5285L47.1263 63.7275L47.277 63.7207L47.3112 63.5737L47.1172 63.5285ZM38.2407 63.9342L38.0477 63.9834L38.0877 64.1406L38.2498 64.1332L38.2407 63.9342ZM31.6771 38.1543L31.4829 38.199L31.4841 38.2035L31.6771 38.1543ZM29.7139 29.6213L29.908 29.5767L29.5165 29.5946L29.7139 29.6213ZM28.5371 38.2978L28.7339 38.3292L28.7345 38.3246L28.5371 38.2978ZM24.3524 64.569L24.3615 64.768L24.5236 64.7606L24.5491 64.6003L24.3524 64.569ZM15.7175 64.9636L15.5285 65.0266L15.5762 65.1695L15.7266 65.1626L15.7175 64.9636ZM1.0633 21.0374L1.0542 20.8383L0.790912 20.8504L0.87432 21.1004L1.0633 21.0374ZM10.9361 20.5861L10.7442 20.6398L17.7963 45.8528L17.9881 45.7991L18.18 45.7455L11.1279 20.5325L10.9361 20.5861ZM17.9881 45.7991L17.7938 45.8431L19.3862 52.8803L19.5805 52.8363L19.7748 52.7923L18.1824 45.7552L17.9881 45.7991ZM19.5805 52.8363L19.7778 52.8639L20.7587 45.8604L20.5614 45.8328L20.3641 45.8052L19.3832 52.8087L19.5805 52.8363ZM20.5614 45.8328L20.7584 45.8621L24.5988 20L24.4017 19.9707L24.2047 19.9414L20.3643 45.8035L20.5614 45.8328ZM24.4017 19.9707L24.4108 20.1697L34.2232 19.7213L34.2141 19.5222L34.205 19.3232L24.3926 19.7717L24.4017 19.9707ZM34.2141 19.5222L34.0211 19.5716L40.4693 44.8121L40.6624 44.7628L40.8554 44.7135L34.4071 19.4729L34.2141 19.5222ZM40.6624 44.7628L40.4686 44.8092L42.1515 51.8422L42.3453 51.7959L42.539 51.7495L40.8561 44.7165L40.6624 44.7628ZM42.3453 51.7959L42.5422 51.8258L43.589 44.9403L43.3921 44.9104L43.1951 44.8804L42.1483 51.7659L42.3453 51.7959ZM43.3921 44.9104L43.588 44.9463L48.3588 18.9207L48.1628 18.8847L47.9669 18.8488L43.1961 44.8745L43.3921 44.9104ZM48.1628 18.8847L48.1719 19.0838L57.622 18.6519L57.613 18.4528L57.6039 18.2538L48.1538 18.6857L48.1628 18.8847ZM57.613 18.4528L57.4189 18.4077L46.9232 63.4834L47.1172 63.5285L47.3112 63.5737L57.807 18.498L57.613 18.4528ZM47.1172 63.5285L47.1081 63.3295L38.2316 63.7352L38.2407 63.9342L38.2498 64.1332L47.1263 63.7275L47.1172 63.5285ZM38.2407 63.9342L38.4338 63.8851L31.8702 38.1052L31.6771 38.1543L31.4841 38.2035L38.0477 63.9834L38.2407 63.9342ZM31.6771 38.1543L31.8713 38.1096L29.908 29.5767L29.7139 29.6213L29.5197 29.666L31.483 38.199L31.6771 38.1543ZM29.7139 29.6213L29.5165 29.5946L28.3397 38.271L28.5371 38.2978L28.7345 38.3246L29.9113 29.6481L29.7139 29.6213ZM28.5371 38.2978L28.3404 38.2665L24.1557 64.5376L24.3524 64.569L24.5491 64.6003L28.7339 38.3292L28.5371 38.2978ZM24.3524 64.569L24.3433 64.37L15.7084 64.7646L15.7175 64.9636L15.7266 65.1626L24.3615 64.768L24.3524 64.569ZM15.7175 64.9636L15.9065 64.9006L1.25227 20.9743L1.0633 21.0374L0.87432 21.1004L15.5285 65.0266L15.7175 64.9636ZM1.0633 21.0374L1.07239 21.2364L10.9452 20.7851L10.9361 20.5861L10.927 20.3871L1.0542 20.8383L1.0633 21.0374ZM63.9957 62.7571L63.7967 62.7662L63.8058 62.9652L64.0048 62.9561L63.9957 62.7571ZM61.9618 18.2541L61.9527 18.0551L61.7537 18.0642L61.7628 18.2632L61.9618 18.2541ZM71.1704 17.8332L71.3694 17.8241L71.3603 17.6251L71.1613 17.6342L71.1704 17.8332ZM71.9459 34.8011L71.7469 34.8102L71.756 35.0092L71.955 35.0001L71.9459 34.8011ZM89.3365 34.0063L89.3456 34.2053L89.5446 34.1962L89.5355 33.9972L89.3365 34.0063ZM88.561 17.0384L88.5519 16.8394L88.3529 16.8485L88.362 17.0475L88.561 17.0384ZM97.7997 16.6162L97.9987 16.6071L97.9896 16.4081L97.7906 16.4172L97.7997 16.6162ZM99.8337 61.1192L99.8428 61.3182L100.042 61.3091L100.033 61.1101L99.8337 61.1192ZM90.5949 61.5415L90.3959 61.5506L90.405 61.7496L90.604 61.7405L90.5949 61.5415ZM89.687 41.6751L89.886 41.666L89.8769 41.467L89.6779 41.4761L89.687 41.6751ZM72.2964 42.4699L72.2873 42.2709L72.0882 42.28L72.0973 42.479L72.2964 42.4699ZM73.2043 62.3363L73.2134 62.5353L73.4124 62.5262L73.4033 62.3272L73.2043 62.3363ZM63.9957 62.7571L64.1947 62.748L62.1608 18.245L61.9618 18.2541L61.7628 18.2632L63.7967 62.7662L63.9957 62.7571ZM61.9618 18.2541L61.9709 18.4531L71.1795 18.0322L71.1704 17.8332L71.1613 17.6342L61.9527 18.0551L61.9618 18.2541ZM71.1704 17.8332L70.9714 17.8423L71.7469 34.8102L71.9459 34.8011L72.1449 34.792L71.3694 17.8241L71.1704 17.8332ZM71.9459 34.8011L71.955 35.0001L89.3456 34.2053L89.3365 34.0063L89.3274 33.8073L71.9368 34.6021L71.9459 34.8011ZM89.3365 34.0063L89.5355 33.9972L88.76 17.0293L88.561 17.0384L88.362 17.0475L89.1375 34.0154L89.3365 34.0063ZM88.561 17.0384L88.5701 17.2374L97.8088 16.8152L97.7997 16.6162L97.7906 16.4172L88.5519 16.8394L88.561 17.0384ZM97.7997 16.6162L97.6007 16.6253L99.6347 61.1283L99.8337 61.1192L100.033 61.1101L97.9987 16.6071L97.7997 16.6162ZM99.8337 61.1192L99.8246 60.9202L90.5858 61.3425L90.5949 61.5415L90.604 61.7405L99.8428 61.3182L99.8337 61.1192ZM90.5949 61.5415L90.7939 61.5324L89.886 41.666L89.687 41.6751L89.4879 41.6842L90.3959 61.5506L90.5949 61.5415ZM89.687 41.6751L89.6779 41.4761L72.2873 42.2709L72.2964 42.4699L72.3054 42.6689L89.696 41.8741L89.687 41.6751ZM72.2964 42.4699L72.0973 42.479L73.0053 62.3454L73.2043 62.3363L73.4033 62.3272L72.4954 42.4608L72.2964 42.4699ZM73.2043 62.3363L73.1952 62.1373L63.9866 62.5581L63.9957 62.7571L64.0048 62.9561L73.2134 62.5353L73.2043 62.3363ZM118.902 43.3956L118.71 43.3423L118.637 43.6072L118.912 43.5946L118.902 43.3956ZM130.194 42.8796L130.203 43.0786L130.475 43.0661L130.381 42.8107L130.194 42.8796ZM123.839 25.6221L124.026 25.5532L123.812 24.9734L123.647 25.5688L123.839 25.6221ZM118.211 15.6833L118.202 15.4843L118.061 15.4907L118.02 15.625L118.211 15.6833ZM128.718 15.2031L128.902 15.1281L128.849 14.9977L128.708 15.0041L128.718 15.2031ZM146.512 58.9859L146.521 59.1849L146.802 59.172L146.696 58.9109L146.512 58.9859ZM136.428 59.4468L136.24 59.515L136.291 59.6524L136.437 59.6458L136.428 59.4468ZM133.141 50.4297L133.328 50.3614L133.278 50.224L133.132 50.2307L133.141 50.4297ZM116.747 51.1789L116.738 50.9799L116.595 50.9865L116.555 51.1241L116.747 51.1789ZM114.086 60.4679L114.095 60.6669L114.238 60.6603L114.277 60.5227L114.086 60.4679ZM104.364 60.9122L104.173 60.8539L104.09 61.1241L104.373 61.1112L104.364 60.9122ZM118.902 43.3956L118.912 43.5946L130.203 43.0786L130.194 42.8796L130.185 42.6805L118.893 43.1966L118.902 43.3956ZM130.194 42.8796L130.381 42.8107L124.026 25.5532L123.839 25.6221L123.652 25.6909L130.007 42.9484L130.194 42.8796ZM123.839 25.6221L123.647 25.5688L118.71 43.3423L118.902 43.3956L119.094 43.4489L124.031 25.6754L123.839 25.6221ZM118.211 15.6833L118.22 15.8823L128.727 15.4021L128.718 15.2031L128.708 15.0041L118.202 15.4843L118.211 15.6833ZM128.718 15.2031L128.533 15.2781L146.327 59.0609L146.512 58.9859L146.696 58.9109L128.902 15.1281L128.718 15.2031ZM146.512 58.9859L146.503 58.7869L136.419 59.2477L136.428 59.4468L136.437 59.6458L146.521 59.1849L146.512 58.9859ZM136.428 59.4468L136.615 59.3785L133.328 50.3614L133.141 50.4297L132.954 50.4979L136.24 59.515L136.428 59.4468ZM133.141 50.4297L133.132 50.2307L116.738 50.9799L116.747 51.1789L116.756 51.3779L133.15 50.6287L133.141 50.4297ZM116.747 51.1789L116.555 51.1241L113.894 60.413L114.086 60.4679L114.277 60.5227L116.939 51.2338L116.747 51.1789ZM114.086 60.4679L114.076 60.2689L104.355 60.7132L104.364 60.9122L104.373 61.1112L114.095 60.6669L114.086 60.4679ZM104.364 60.9122L104.554 60.9705L118.401 15.7416L118.211 15.6833L118.02 15.625L104.173 60.8539L104.364 60.9122ZM176.664 13.0118L176.863 13.0027L176.854 12.8037L176.655 12.8128L176.664 13.0118ZM177.024 20.892L177.033 21.091L177.232 21.0819L177.223 20.8829L177.024 20.892ZM163.709 21.5005L163.7 21.3015L163.501 21.3106L163.51 21.5096L163.709 21.5005ZM165.383 58.1234L165.392 58.3224L165.591 58.3133L165.582 58.1143L165.383 58.1234ZM156.023 58.5512L155.824 58.5603L155.834 58.7593L156.033 58.7502L156.023 58.5512ZM154.35 21.9282L154.549 21.9191L154.54 21.7201L154.341 21.7292L154.35 21.9282ZM140.975 22.5395L140.776 22.5486L140.785 22.7476L140.984 22.7385L140.975 22.5395ZM140.614 14.6594L140.605 14.4604L140.406 14.4695L140.415 14.6685L140.614 14.6594ZM176.664 13.0118L176.465 13.0209L176.825 20.901L177.024 20.892L177.223 20.8829L176.863 13.0027L176.664 13.0118ZM177.024 20.892L177.015 20.6929L163.7 21.3015L163.709 21.5005L163.718 21.6995L177.033 21.091L177.024 20.892ZM163.709 21.5005L163.51 21.5096L165.184 58.1325L165.383 58.1234L165.582 58.1143L163.908 21.4914L163.709 21.5005ZM165.383 58.1234L165.374 57.9244L156.014 58.3522L156.023 58.5512L156.033 58.7502L165.392 58.3224L165.383 58.1234ZM156.023 58.5512L156.222 58.5421L154.549 21.9191L154.35 21.9282L154.151 21.9373L155.824 58.5603L156.023 58.5512ZM154.35 21.9282L154.341 21.7292L140.965 22.3405L140.975 22.5395L140.984 22.7385L154.359 22.1272L154.35 21.9282ZM140.975 22.5395L141.174 22.5304L140.813 14.6503L140.614 14.6594L140.415 14.6685L140.776 22.5486L140.975 22.5395ZM140.614 14.6594L140.624 14.8584L176.673 13.2108L176.664 13.0118L176.655 12.8128L140.605 14.4604L140.614 14.6594ZM206.245 19.4052L206.236 19.2062L206.037 19.2153L206.046 19.4143L206.245 19.4052ZM207.573 48.4499L207.374 48.459L207.383 48.658L207.582 48.6489L207.573 48.4499ZM225.029 41.1472L225.217 41.2127L225.217 41.2124L225.029 41.1472ZM223.441 22.2802L223.273 22.3877L223.274 22.3893L223.441 22.2802ZM216.037 11.2124L216.03 11.0132L216.027 11.0134L216.037 11.2124ZM222.964 11.8639L222.911 12.0558L222.911 12.0558L222.964 11.8639ZM230.801 17.1635L230.959 17.0419L230.958 17.0413L230.801 17.1635ZM232.606 46.7309L232.782 46.8232L232.783 46.8227L232.606 46.7309ZM198.899 56.5916L198.7 56.6007L198.709 56.7997L198.908 56.7906L198.899 56.5916ZM196.865 12.0886L196.855 11.8896L196.656 11.8987L196.666 12.0977L196.865 12.0886ZM206.245 19.4052L206.046 19.4143L207.374 48.459L207.573 48.4499L207.772 48.4408L206.444 19.3961L206.245 19.4052ZM207.573 48.4499L207.582 48.6489L216.156 48.257L216.147 48.058L216.138 47.859L207.564 48.2509L207.573 48.4499ZM216.147 48.058L216.156 48.257C218.384 48.1552 220.263 47.5183 221.781 46.3371C223.298 45.1566 224.441 43.4435 225.217 41.2127L225.029 41.1472L224.841 41.0818C224.084 43.2576 222.98 44.8996 221.536 46.0227C220.094 47.1451 218.298 47.7603 216.138 47.859L216.147 48.058ZM225.029 41.1472L225.217 41.2124C226.065 38.7645 226.41 35.8886 226.259 32.5893L226.06 32.5984L225.861 32.6075C226.01 35.87 225.668 38.6933 224.841 41.082L225.029 41.1472ZM226.06 32.5984L226.259 32.5893C226.052 28.0446 225.175 24.5639 223.607 22.171L223.441 22.2802L223.274 22.3893C224.785 24.6965 225.655 28.0947 225.861 32.6075L226.06 32.5984ZM223.441 22.2802L223.608 22.1726C222.032 19.7149 219.07 18.6196 214.811 18.8143L214.82 19.0133L214.829 19.2123C219.023 19.0206 221.808 20.1032 223.273 22.3877L223.441 22.2802ZM214.82 19.0133L214.811 18.8143L206.236 19.2062L206.245 19.4052L206.254 19.6042L214.829 19.2123L214.82 19.0133ZM216.037 11.2124L216.043 11.4115C218.79 11.3261 221.077 11.5429 222.911 12.0558L222.964 11.8639L223.018 11.6721C221.133 11.1447 218.802 10.9271 216.03 11.0133L216.037 11.2124ZM222.964 11.8639L222.911 12.0558C226.036 12.928 228.612 14.6696 230.643 17.2857L230.801 17.1635L230.958 17.0413C228.875 14.3591 226.227 12.5677 223.018 11.672L222.964 11.8639ZM230.801 17.1635L230.643 17.285C232.278 19.4079 233.432 21.7311 234.107 24.2557L234.299 24.2043L234.492 24.1529C233.803 21.5762 232.625 19.2055 230.959 17.0419L230.801 17.1635ZM234.299 24.2043L234.107 24.2557C234.785 26.7942 235.176 29.2227 235.282 31.5416L235.481 31.5325L235.68 31.5234C235.573 29.1725 235.176 26.7156 234.492 24.1529L234.299 24.2043ZM235.481 31.5325L235.282 31.5416C235.552 37.4328 234.597 42.4624 232.429 46.6392L232.606 46.7309L232.783 46.8227C234.99 42.5701 235.952 37.4675 235.68 31.5234L235.481 31.5325ZM232.606 46.7309L232.429 46.6387C229.497 52.2545 224.718 55.2122 218.061 55.5164L218.07 55.7154L218.08 55.9144C224.869 55.6041 229.78 52.5722 232.782 46.8232L232.606 46.7309ZM218.07 55.7154L218.061 55.5164L198.889 56.3926L198.899 56.5916L198.908 56.7906L218.08 55.9144L218.07 55.7154ZM198.899 56.5916L199.098 56.5825L197.064 12.0795L196.865 12.0886L196.666 12.0977L198.7 56.6007L198.899 56.5916ZM196.865 12.0886L196.874 12.2876L216.046 11.4114L216.037 11.2124L216.027 11.0134L196.855 11.8896L196.865 12.0886ZM270.297 42.5879L270.136 42.4707L270.135 42.4714L270.297 42.5879ZM269.239 19.4306L269.088 19.5609L269.089 19.5621L269.239 19.4306ZM276.433 49.0846L276.29 48.9462L276.284 48.9525L276.433 49.0846ZM247.268 50.4176L247.404 50.2723L247.398 50.2665L247.268 50.4176ZM245.59 13.7041L245.73 13.8457L245.739 13.8362L245.59 13.7041ZM274.755 12.3711L274.619 12.5166L274.628 12.5244L274.755 12.3711ZM261.728 47.064L261.737 47.263C265.477 47.0921 268.391 45.5729 270.459 42.7044L270.297 42.5879L270.135 42.4714C268.144 45.2344 265.346 46.6992 261.719 46.865L261.728 47.064ZM270.297 42.5879L270.458 42.7051C272.544 39.8389 273.457 35.8738 273.227 30.8361L273.028 30.8452L272.829 30.8543C273.057 35.8403 272.149 39.7037 270.136 42.4707L270.297 42.5879ZM273.028 30.8452L273.227 30.8361C272.998 25.8183 271.727 21.9632 269.388 19.2992L269.239 19.4306L269.089 19.5621C271.347 22.134 272.602 25.8886 272.829 30.8543L273.028 30.8452ZM269.239 19.4306L269.389 19.3004C267.068 16.6122 264.027 15.3547 260.286 15.5257L260.295 15.7247L260.304 15.9237C263.931 15.758 266.852 16.9711 269.088 19.5608L269.239 19.4306ZM260.295 15.7247L260.286 15.5257C256.546 15.6966 253.613 17.2166 251.505 20.0856L251.666 20.2035L251.826 20.3215C253.858 17.5554 256.677 16.0895 260.304 15.9237L260.295 15.7247ZM251.666 20.2035L251.505 20.0856C249.399 22.9529 248.475 26.9187 248.706 31.9568L248.905 31.9477L249.104 31.9386C248.876 26.9529 249.793 23.0893 251.826 20.3215L251.666 20.2035ZM248.905 31.9477L248.706 31.9568C248.936 36.9948 250.217 40.8599 252.576 43.5231L252.725 43.391L252.874 43.2589C250.597 40.6881 249.331 36.9243 249.104 31.9386L248.905 31.9477ZM252.725 43.391L252.576 43.5231C254.937 46.1879 257.997 47.4339 261.737 47.263L261.728 47.064L261.719 46.865C258.092 47.0308 255.15 45.8281 252.874 43.2589L252.725 43.391ZM282.327 30.4202L282.128 30.4293C282.492 38.3823 280.536 44.5443 276.29 48.9463L276.433 49.0846L276.577 49.2229C280.919 44.7207 282.893 38.4397 282.526 30.4111L282.327 30.4202ZM276.433 49.0846L276.284 48.9525C273.127 52.5162 268.403 54.4561 262.079 54.7451L262.088 54.9441L262.097 55.1431C268.493 54.8508 273.333 52.8843 276.582 49.2167L276.433 49.0846ZM262.088 54.9441L262.079 54.7451C255.754 55.0342 250.873 53.5333 247.404 50.2724L247.268 50.4176L247.131 50.5627C250.701 53.9187 255.701 55.4355 262.097 55.1431L262.088 54.9441ZM247.268 50.4176L247.398 50.2665C242.748 46.271 240.228 40.3136 239.865 32.3608L239.666 32.3699L239.467 32.379C239.834 40.4079 242.382 46.4823 247.138 50.5687L247.268 50.4176ZM239.666 32.3699L239.865 32.3608C239.494 24.2452 241.46 18.0857 245.73 13.8454L245.59 13.7041L245.449 13.5627C241.075 17.9066 239.093 24.191 239.467 32.379L239.666 32.3699ZM245.59 13.7041L245.739 13.8362C248.896 10.2725 253.62 8.33263 259.944 8.04358L259.935 7.84458L259.926 7.64557C253.53 7.93791 248.69 9.90438 245.441 13.572L245.59 13.7041ZM259.935 7.84458L259.944 8.04358C266.269 7.75453 271.15 9.25543 274.619 12.5163L274.755 12.3711L274.892 12.226C271.322 8.87004 266.323 7.35323 259.926 7.64557L259.935 7.84458ZM274.755 12.3711L274.628 12.5244C279.247 16.3583 281.757 22.3133 282.128 30.4293L282.327 30.4202L282.526 30.4111C282.152 22.2233 279.614 16.1456 274.883 12.2178L274.755 12.3711Z" fill="black" mask="url(#path-2-outside-1_151_556)"/>
<path d="M379.024 12.0626L379.048 12.1357L380.733 17.4925L380.734 17.4983L380.996 18.5268L381.16 17.5087L381.16 17.5078L382.103 11.9903L382.115 11.9115L384.642 11.788L384.664 11.8642L386.203 17.228L386.204 17.2299L386.489 18.2896L386.668 17.264L386.668 17.261L387.836 11.7062L387.851 11.6312L390.344 11.5093L390.309 11.641L387.75 21.2658L387.731 21.3361L385.438 21.4482L385.416 21.372L383.849 15.8931L383.848 15.8912L383.499 14.5414L383.285 15.9187L383.285 15.9207L382.259 21.5263L382.245 21.6042L380.01 21.7134L379.985 21.6453L376.477 12.3171L376.429 12.1894L379.024 12.0626ZM394.938 11.2848L394.966 11.346L398.838 19.7784L398.414 11.1149L400.921 10.9924L400.953 11.0368L405.355 17.169L405.043 10.7909L415.739 10.2681L415.831 12.1448L412.619 12.3018L413 20.1011L410.543 20.2211L410.162 12.4219L407.424 12.5557L407.805 20.355L405.409 20.4721L405.376 20.4277L400.86 14.1827L401.178 20.6789L396.643 20.9005L396.616 20.8353L395.856 18.9865L392.039 19.173L391.413 21.0916L391.391 21.1572L388.83 21.2824L388.879 21.1431L392.247 11.4789L392.269 11.4152L394.938 11.2848ZM392.629 17.307L395.068 17.1878L393.704 13.9077L392.629 17.307Z" fill="#FFEA00" stroke="#FFEA00" stroke-width="0.199215"/>
<mask id="path-5-outside-2_151_556" maskUnits="userSpaceOnUse" x="286.046" y="1.21198" width="89.1464" height="52.9209" fill="black">
<rect fill="white" x="286.046" y="1.21198" width="89.1464" height="52.9209"/>
<path d="M316.259 6.25623L326.796 5.77466L313.181 34.2316L313.945 50.958L304.646 51.383L303.882 34.6566L287.214 7.58367L298.174 7.08278L308.299 26.0438L316.259 6.25623ZM352.289 42.5494C355.972 42.3811 358.829 40.8891 360.858 38.0734C362.908 35.2567 363.818 31.3425 363.589 26.3306C363.361 21.3388 362.098 17.534 359.8 14.9161C357.521 12.2771 354.54 11.0418 350.856 11.2101C347.173 11.3785 344.296 12.8714 342.227 15.689C340.157 18.5065 339.236 22.4212 339.466 27.4331C339.695 32.445 340.968 36.2594 343.286 38.8764C345.604 41.4934 348.605 42.7178 352.289 42.5494ZM372.888 25.9056C373.253 33.8964 371.289 40.1179 366.994 44.57C363.791 48.1857 359.009 50.1389 352.649 50.4296C346.288 50.7202 341.348 49.2114 337.829 45.903C333.126 41.8621 330.592 35.8462 330.227 27.8553C329.854 19.7035 331.829 13.4816 336.151 9.18951C339.354 5.57386 344.136 3.6207 350.496 3.33C356.857 3.03931 361.797 4.54816 365.316 7.85655C369.992 11.7374 372.516 17.7537 372.888 25.9056Z"/>
</mask>
<path d="M316.259 6.25623L326.796 5.77466L313.181 34.2316L313.945 50.958L304.646 51.383L303.882 34.6566L287.214 7.58367L298.174 7.08278L308.299 26.0438L316.259 6.25623ZM352.289 42.5494C355.972 42.3811 358.829 40.8891 360.858 38.0734C362.908 35.2567 363.818 31.3425 363.589 26.3306C363.361 21.3388 362.098 17.534 359.8 14.9161C357.521 12.2771 354.54 11.0418 350.856 11.2101C347.173 11.3785 344.296 12.8714 342.227 15.689C340.157 18.5065 339.236 22.4212 339.466 27.4331C339.695 32.445 340.968 36.2594 343.286 38.8764C345.604 41.4934 348.605 42.7178 352.289 42.5494ZM372.888 25.9056C373.253 33.8964 371.289 40.1179 366.994 44.57C363.791 48.1857 359.009 50.1389 352.649 50.4296C346.288 50.7202 341.348 49.2114 337.829 45.903C333.126 41.8621 330.592 35.8462 330.227 27.8553C329.854 19.7035 331.829 13.4816 336.151 9.18951C339.354 5.57386 344.136 3.6207 350.496 3.33C356.857 3.03931 361.797 4.54816 365.316 7.85655C369.992 11.7374 372.516 17.7537 372.888 25.9056Z" fill="black"/>
<path d="M316.259 6.25623L316.25 6.05723L316.122 6.06307L316.074 6.18188L316.259 6.25623ZM326.796 5.77466L326.976 5.86064L327.119 5.56046L326.787 5.57565L326.796 5.77466ZM313.181 34.2316L313.001 34.1456L312.98 34.1907L312.982 34.2407L313.181 34.2316ZM313.945 50.958L313.954 51.157L314.153 51.1479L314.144 50.9489L313.945 50.958ZM304.646 51.383L304.447 51.3921L304.456 51.5911L304.655 51.582L304.646 51.383ZM303.882 34.6566L304.081 34.6475L304.078 34.596L304.051 34.5522L303.882 34.6566ZM287.214 7.58367L287.205 7.38467L286.867 7.40011L287.045 7.68811L287.214 7.58367ZM298.174 7.08278L298.35 6.98894L298.29 6.87803L298.165 6.88377L298.174 7.08278ZM308.299 26.0438L308.123 26.1377L308.324 26.5144L308.483 26.1182L308.299 26.0438ZM316.259 6.25623L316.268 6.45524L326.805 5.97367L326.796 5.77466L326.787 5.57565L316.25 6.05723L316.259 6.25623ZM326.796 5.77466L326.616 5.68868L313.001 34.1456L313.181 34.2316L313.361 34.3176L326.976 5.86064L326.796 5.77466ZM313.181 34.2316L312.982 34.2407L313.746 50.9671L313.945 50.958L314.144 50.9489L313.38 34.2225L313.181 34.2316ZM313.945 50.958L313.936 50.759L304.637 51.184L304.646 51.383L304.655 51.582L313.954 51.157L313.945 50.958ZM304.646 51.383L304.845 51.3739L304.081 34.6475L303.882 34.6566L303.683 34.6657L304.447 51.3921L304.646 51.383ZM303.882 34.6566L304.051 34.5522L287.384 7.47923L287.214 7.58367L287.045 7.68811L303.712 34.761L303.882 34.6566ZM287.214 7.58367L287.223 7.78268L298.183 7.28179L298.174 7.08278L298.165 6.88377L287.205 7.38467L287.214 7.58367ZM298.174 7.08278L297.998 7.17661L308.123 26.1377L308.299 26.0438L308.474 25.95L298.35 6.98894L298.174 7.08278ZM308.299 26.0438L308.483 26.1182L316.444 6.33059L316.259 6.25623L316.074 6.18188L308.114 25.9695L308.299 26.0438ZM360.858 38.0734L360.697 37.9561L360.696 37.9569L360.858 38.0734ZM359.8 14.9161L359.649 15.0463L359.65 15.0475L359.8 14.9161ZM366.994 44.57L366.851 44.4316L366.845 44.4379L366.994 44.57ZM337.829 45.903L337.965 45.7577L337.959 45.7519L337.829 45.903ZM336.151 9.18951L336.291 9.33115L336.3 9.32161L336.151 9.18951ZM365.316 7.85655L365.18 8.00198L365.189 8.00984L365.316 7.85655ZM352.289 42.5494L352.298 42.7484C356.038 42.5775 358.952 41.0583 361.02 38.1898L360.858 38.0734L360.696 37.9569C358.705 40.7198 355.907 42.1847 352.28 42.3504L352.289 42.5494ZM360.858 38.0734L361.019 38.1906C363.105 35.3243 364.018 31.3592 363.788 26.3215L363.589 26.3306L363.39 26.3397C363.618 31.3257 362.711 35.1892 360.697 37.9561L360.858 38.0734ZM363.589 26.3306L363.788 26.3215C363.559 21.3037 362.288 17.4486 359.949 14.7846L359.8 14.9161L359.65 15.0475C361.908 17.6194 363.163 21.374 363.39 26.3397L363.589 26.3306ZM359.8 14.9161L359.951 14.7859C357.629 12.0977 354.588 10.8402 350.847 11.0111L350.856 11.2101L350.865 11.4091C354.492 11.2434 357.413 12.4565 359.649 15.0463L359.8 14.9161ZM350.856 11.2101L350.847 11.0111C347.108 11.182 344.174 12.702 342.066 15.571L342.227 15.689L342.387 15.8069C344.419 13.0408 347.238 11.5749 350.865 11.4091L350.856 11.2101ZM342.227 15.689L342.066 15.571C339.96 18.4383 339.036 22.4041 339.267 27.4422L339.466 27.4331L339.665 27.424C339.437 22.4383 340.354 18.5747 342.387 15.8069L342.227 15.689ZM339.466 27.4331L339.267 27.4422C339.497 32.4803 340.778 36.3453 343.137 39.0085L343.286 38.8764L343.435 38.7443C341.158 36.1735 339.892 32.4097 339.665 27.424L339.466 27.4331ZM343.286 38.8764L343.137 39.0085C345.498 41.6734 348.558 42.9194 352.298 42.7484L352.289 42.5494L352.28 42.3504C348.653 42.5162 345.711 41.3135 343.435 38.7443L343.286 38.8764ZM372.888 25.9056L372.689 25.9147C373.053 33.8677 371.097 40.0297 366.851 44.4317L366.994 44.57L367.138 44.7084C371.48 40.2061 373.454 33.9251 373.087 25.8965L372.888 25.9056ZM366.994 44.57L366.845 44.4379C363.688 48.0016 358.964 49.9415 352.64 50.2305L352.649 50.4296L352.658 50.6286C359.054 50.3362 363.894 48.3698 367.143 44.7021L366.994 44.57ZM352.649 50.4296L352.64 50.2305C346.315 50.5196 341.434 49.0187 337.965 45.7579L337.829 45.903L337.692 46.0482C341.262 49.4041 346.262 50.9209 352.658 50.6286L352.649 50.4296ZM337.829 45.903L337.959 45.7519C333.309 41.7564 330.789 35.799 330.426 27.8463L330.227 27.8553L330.028 27.8644C330.395 35.8933 332.943 41.9677 337.699 46.0541L337.829 45.903ZM330.227 27.8553L330.426 27.8463C330.055 19.7306 332.021 13.5711 336.291 9.33086L336.151 9.18951L336.01 9.04815C331.636 13.392 329.654 19.6764 330.028 27.8644L330.227 27.8553ZM336.151 9.18951L336.3 9.32161C339.457 5.75793 344.181 3.81806 350.505 3.52901L350.496 3.33L350.487 3.13099C344.091 3.42333 339.251 5.3898 336.002 9.05741L336.151 9.18951ZM350.496 3.33L350.505 3.52901C356.83 3.23996 361.711 4.74086 365.18 8.0017L365.316 7.85655L365.453 7.7114C361.883 4.35546 356.884 2.83866 350.487 3.13099L350.496 3.33ZM365.316 7.85655L365.189 8.00984C369.808 11.8438 372.318 17.7988 372.689 25.9147L372.888 25.9056L373.087 25.8965C372.713 17.7087 370.175 11.631 365.444 7.70326L365.316 7.85655Z" fill="black" mask="url(#path-5-outside-2_151_556)"/>
</svg>
