<svg width="1052" height="29" viewBox="0 0 1052 29" fill="none" xmlns="http://www.w3.org/2000/svg">
<path d="M9.5728 25.7528L11.0142 10.0856V26.9989C10.0537 27.0298 9.5728 26.4062 9.5728 25.7528Z" fill="black"/>
<path d="M19.3586 9.43089L11.009 10.2935L20.0227 10.2935C20.0391 9.71865 19.7068 9.43089 19.3586 9.43089Z" fill="black"/>
<path d="M19.3586 11.2548L11.009 10.3974H20.0227C20.0391 10.9688 19.7068 11.2548 19.3586 11.2548Z" fill="black"/>
<path d="M2.66429 9.43089L11.009 10.2935L2.00059 10.2935C1.98414 9.71865 2.31629 9.43089 2.66429 9.43089Z" fill="black"/>
<path d="M2.66429 11.2548L11.009 10.3974H2.00059C1.98414 10.9688 2.31629 11.2548 2.66429 11.2548Z" fill="black"/>
<path d="M4.42852 15.6363L10.9407 10.3704L4.56897 16.7102C4.1509 16.3174 4.18237 15.8812 4.42852 15.6363Z" fill="black"/>
<path d="M5.72456 16.9258L11.017 10.4463L4.64521 16.7861C5.04002 17.2021 5.47841 17.1708 5.72456 16.9258Z" fill="black"/>
<path d="M17.59 15.6363L11.0778 10.3704L17.4496 16.7102C17.8677 16.3174 17.8362 15.8812 17.59 15.6363Z" fill="black"/>
<path d="M16.294 16.9258L11.0016 10.4463L17.3734 16.7861C16.9785 17.2021 16.5402 17.1708 16.294 16.9258Z" fill="black"/>
<path d="M12.44 25.7528L11.009 10.0856V26.9989C11.9626 27.0298 12.44 26.4062 12.44 25.7528Z" fill="black"/>
<path d="M10.0481 2.65099L11.0038 10.8287V2.00057C10.3669 1.98446 10.0481 2.30996 10.0481 2.65099Z" fill="black"/>
<path d="M11.9543 2.65099L11.0038 10.8287V2.00057C11.6372 1.98446 11.9543 2.30996 11.9543 2.65099Z" fill="black"/>
<path d="M9.5728 25.7528L11.0142 10.0856V26.9989C10.0537 27.0298 9.5728 26.4062 9.5728 25.7528Z" fill="black"/>
<path d="M19.3586 9.43089L11.009 10.2935L20.0227 10.2935C20.0391 9.71865 19.7068 9.43089 19.3586 9.43089Z" fill="black"/>
<path d="M19.3586 11.2548L11.009 10.3974H20.0227C20.0391 10.9688 19.7068 11.2548 19.3586 11.2548Z" fill="black"/>
<path d="M2.66429 9.43089L11.009 10.2935L2.00059 10.2935C1.98414 9.71865 2.31629 9.43089 2.66429 9.43089Z" fill="black"/>
<path d="M2.66429 11.2548L11.009 10.3974H2.00059C1.98414 10.9688 2.31629 11.2548 2.66429 11.2548Z" fill="black"/>
<path d="M4.42852 15.6363L10.9407 10.3704L4.56897 16.7102C4.1509 16.3174 4.18237 15.8812 4.42852 15.6363Z" fill="black"/>
<path d="M5.72456 16.9258L11.017 10.4463L4.64521 16.7861C5.04002 17.2021 5.47841 17.1708 5.72456 16.9258Z" fill="black"/>
<path d="M17.59 15.6363L11.0778 10.3704L17.4496 16.7102C17.8677 16.3174 17.8362 15.8812 17.59 15.6363Z" fill="black"/>
<path d="M16.294 16.9258L11.0016 10.4463L17.3734 16.7861C16.9785 17.2021 16.5402 17.1708 16.294 16.9258Z" fill="black"/>
<path d="M12.44 25.7528L11.009 10.0856V26.9989C11.9626 27.0298 12.44 26.4062 12.44 25.7528Z" fill="black"/>
<path d="M10.0481 2.65099L11.0038 10.8287V2.00057C10.3669 1.98446 10.0481 2.30996 10.0481 2.65099Z" fill="black"/>
<path d="M11.9543 2.65099L11.0038 10.8287V2.00057C11.6372 1.98446 11.9543 2.30996 11.9543 2.65099Z" fill="black"/>
<path d="M11.009 10.2935L19.3586 9.43089C19.7068 9.43089 20.0391 9.71865 20.0227 10.2935L11.009 10.2935ZM11.009 10.2935L2.66429 9.43089C2.31629 9.43089 1.98414 9.71865 2.00059 10.2935L11.009 10.2935ZM11.009 10.3974L19.3586 11.2548C19.7068 11.2548 20.0391 10.9688 20.0227 10.3974H11.009ZM11.009 10.3974L2.66429 11.2548C2.31629 11.2548 1.98414 10.9688 2.00059 10.3974H11.009ZM11.0038 10.8287L10.0481 2.65099C10.0481 2.30996 10.3669 1.98446 11.0038 2.00057M11.0038 10.8287V2.00057M11.0038 10.8287L11.9543 2.65099C11.9543 2.30996 11.6372 1.98446 11.0038 2.00057M11.0142 10.0856L9.5728 25.7528C9.5728 26.4062 10.0537 27.0298 11.0142 26.9989V10.0856ZM10.9407 10.3704L4.42852 15.6363C4.18237 15.8812 4.1509 16.3174 4.56897 16.7102L10.9407 10.3704ZM11.017 10.4463L5.72456 16.9258C5.47841 17.1708 5.04002 17.2021 4.64521 16.7861L11.017 10.4463ZM11.0778 10.3704L17.59 15.6363C17.8362 15.8812 17.8677 16.3174 17.4496 16.7102L11.0778 10.3704ZM11.0016 10.4463L16.294 16.9258C16.5402 17.1708 16.9785 17.2021 17.3734 16.7861L11.0016 10.4463ZM11.009 10.0856L12.44 25.7528C12.44 26.4062 11.9626 27.0298 11.009 26.9989V10.0856Z" stroke="black" stroke-width="2.90698"/>
<path d="M352.573 25.7528L354.014 10.0856V26.9989C353.054 27.0298 352.573 26.4062 352.573 25.7528Z" fill="black"/>
<path d="M362.359 9.43089L354.009 10.2935L363.023 10.2935C363.039 9.71865 362.707 9.43089 362.359 9.43089Z" fill="black"/>
<path d="M362.359 11.2548L354.009 10.3974H363.023C363.039 10.9688 362.707 11.2548 362.359 11.2548Z" fill="black"/>
<path d="M345.664 9.43089L354.009 10.2935L345.001 10.2935C344.984 9.71865 345.316 9.43089 345.664 9.43089Z" fill="black"/>
<path d="M345.664 11.2548L354.009 10.3974H345.001C344.984 10.9688 345.316 11.2548 345.664 11.2548Z" fill="black"/>
<path d="M347.429 15.6363L353.941 10.3704L347.569 16.7102C347.151 16.3174 347.182 15.8812 347.429 15.6363Z" fill="black"/>
<path d="M348.725 16.9258L354.017 10.4463L347.645 16.7861C348.04 17.2021 348.478 17.1708 348.725 16.9258Z" fill="black"/>
<path d="M360.59 15.6363L354.078 10.3704L360.45 16.7102C360.868 16.3174 360.836 15.8812 360.59 15.6363Z" fill="black"/>
<path d="M359.294 16.9258L354.002 10.4463L360.373 16.7861C359.979 17.2021 359.54 17.1708 359.294 16.9258Z" fill="black"/>
<path d="M355.44 25.7528L354.009 10.0856V26.9989C354.963 27.0298 355.44 26.4062 355.44 25.7528Z" fill="black"/>
<path d="M353.048 2.65099L354.004 10.8287V2.00057C353.367 1.98446 353.048 2.30996 353.048 2.65099Z" fill="black"/>
<path d="M354.954 2.65099L354.004 10.8287V2.00057C354.637 1.98446 354.954 2.30996 354.954 2.65099Z" fill="black"/>
<path d="M352.573 25.7528L354.014 10.0856V26.9989C353.054 27.0298 352.573 26.4062 352.573 25.7528Z" fill="black"/>
<path d="M362.359 9.43089L354.009 10.2935L363.023 10.2935C363.039 9.71865 362.707 9.43089 362.359 9.43089Z" fill="black"/>
<path d="M362.359 11.2548L354.009 10.3974H363.023C363.039 10.9688 362.707 11.2548 362.359 11.2548Z" fill="black"/>
<path d="M345.664 9.43089L354.009 10.2935L345.001 10.2935C344.984 9.71865 345.316 9.43089 345.664 9.43089Z" fill="black"/>
<path d="M345.664 11.2548L354.009 10.3974H345.001C344.984 10.9688 345.316 11.2548 345.664 11.2548Z" fill="black"/>
<path d="M347.429 15.6363L353.941 10.3704L347.569 16.7102C347.151 16.3174 347.182 15.8812 347.429 15.6363Z" fill="black"/>
<path d="M348.725 16.9258L354.017 10.4463L347.645 16.7861C348.04 17.2021 348.478 17.1708 348.725 16.9258Z" fill="black"/>
<path d="M360.59 15.6363L354.078 10.3704L360.45 16.7102C360.868 16.3174 360.836 15.8812 360.59 15.6363Z" fill="black"/>
<path d="M359.294 16.9258L354.002 10.4463L360.373 16.7861C359.979 17.2021 359.54 17.1708 359.294 16.9258Z" fill="black"/>
<path d="M355.44 25.7528L354.009 10.0856V26.9989C354.963 27.0298 355.44 26.4062 355.44 25.7528Z" fill="black"/>
<path d="M353.048 2.65099L354.004 10.8287V2.00057C353.367 1.98446 353.048 2.30996 353.048 2.65099Z" fill="black"/>
<path d="M354.954 2.65099L354.004 10.8287V2.00057C354.637 1.98446 354.954 2.30996 354.954 2.65099Z" fill="black"/>
<path d="M354.009 10.2935L362.359 9.43089C362.707 9.43089 363.039 9.71865 363.023 10.2935L354.009 10.2935ZM354.009 10.2935L345.664 9.43089C345.316 9.43089 344.984 9.71865 345.001 10.2935L354.009 10.2935ZM354.009 10.3974L362.359 11.2548C362.707 11.2548 363.039 10.9688 363.023 10.3974H354.009ZM354.009 10.3974L345.664 11.2548C345.316 11.2548 344.984 10.9688 345.001 10.3974H354.009ZM354.004 10.8287L353.048 2.65099C353.048 2.30996 353.367 1.98446 354.004 2.00057M354.004 10.8287V2.00057M354.004 10.8287L354.954 2.65099C354.954 2.30996 354.637 1.98446 354.004 2.00057M354.014 10.0856L352.573 25.7528C352.573 26.4062 353.054 27.0298 354.014 26.9989V10.0856ZM353.941 10.3704L347.429 15.6363C347.182 15.8812 347.151 16.3174 347.569 16.7102L353.941 10.3704ZM354.017 10.4463L348.725 16.9258C348.478 17.1708 348.04 17.2021 347.645 16.7861L354.017 10.4463ZM354.078 10.3704L360.59 15.6363C360.836 15.8812 360.868 16.3174 360.45 16.7102L354.078 10.3704ZM354.002 10.4463L359.294 16.9258C359.54 17.1708 359.979 17.2021 360.373 16.7861L354.002 10.4463ZM354.009 10.0856L355.44 25.7528C355.44 26.4062 354.963 27.0298 354.009 26.9989V10.0856Z" stroke="black" stroke-width="2.90698"/>
<path d="M696.573 25.7528L698.014 10.0856V26.9989C697.054 27.0298 696.573 26.4062 696.573 25.7528Z" fill="black"/>
<path d="M706.359 9.43089L698.009 10.2935L707.023 10.2935C707.039 9.71865 706.707 9.43089 706.359 9.43089Z" fill="black"/>
<path d="M706.359 11.2548L698.009 10.3974H707.023C707.039 10.9688 706.707 11.2548 706.359 11.2548Z" fill="black"/>
<path d="M689.664 9.43089L698.009 10.2935L689.001 10.2935C688.984 9.71865 689.316 9.43089 689.664 9.43089Z" fill="black"/>
<path d="M689.664 11.2548L698.009 10.3974H689.001C688.984 10.9688 689.316 11.2548 689.664 11.2548Z" fill="black"/>
<path d="M691.429 15.6363L697.941 10.3704L691.569 16.7102C691.151 16.3174 691.182 15.8812 691.429 15.6363Z" fill="black"/>
<path d="M692.725 16.9258L698.017 10.4463L691.645 16.7861C692.04 17.2021 692.478 17.1708 692.725 16.9258Z" fill="black"/>
<path d="M704.59 15.6363L698.078 10.3704L704.45 16.7102C704.868 16.3174 704.836 15.8812 704.59 15.6363Z" fill="black"/>
<path d="M703.294 16.9258L698.002 10.4463L704.373 16.7861C703.979 17.2021 703.54 17.1708 703.294 16.9258Z" fill="black"/>
<path d="M699.44 25.7528L698.009 10.0856V26.9989C698.963 27.0298 699.44 26.4062 699.44 25.7528Z" fill="black"/>
<path d="M697.048 2.65099L698.004 10.8287V2.00057C697.367 1.98446 697.048 2.30996 697.048 2.65099Z" fill="black"/>
<path d="M698.954 2.65099L698.004 10.8287V2.00057C698.637 1.98446 698.954 2.30996 698.954 2.65099Z" fill="black"/>
<path d="M696.573 25.7528L698.014 10.0856V26.9989C697.054 27.0298 696.573 26.4062 696.573 25.7528Z" fill="black"/>
<path d="M706.359 9.43089L698.009 10.2935L707.023 10.2935C707.039 9.71865 706.707 9.43089 706.359 9.43089Z" fill="black"/>
<path d="M706.359 11.2548L698.009 10.3974H707.023C707.039 10.9688 706.707 11.2548 706.359 11.2548Z" fill="black"/>
<path d="M689.664 9.43089L698.009 10.2935L689.001 10.2935C688.984 9.71865 689.316 9.43089 689.664 9.43089Z" fill="black"/>
<path d="M689.664 11.2548L698.009 10.3974H689.001C688.984 10.9688 689.316 11.2548 689.664 11.2548Z" fill="black"/>
<path d="M691.429 15.6363L697.941 10.3704L691.569 16.7102C691.151 16.3174 691.182 15.8812 691.429 15.6363Z" fill="black"/>
<path d="M692.725 16.9258L698.017 10.4463L691.645 16.7861C692.04 17.2021 692.478 17.1708 692.725 16.9258Z" fill="black"/>
<path d="M704.59 15.6363L698.078 10.3704L704.45 16.7102C704.868 16.3174 704.836 15.8812 704.59 15.6363Z" fill="black"/>
<path d="M703.294 16.9258L698.002 10.4463L704.373 16.7861C703.979 17.2021 703.54 17.1708 703.294 16.9258Z" fill="black"/>
<path d="M699.44 25.7528L698.009 10.0856V26.9989C698.963 27.0298 699.44 26.4062 699.44 25.7528Z" fill="black"/>
<path d="M697.048 2.65099L698.004 10.8287V2.00057C697.367 1.98446 697.048 2.30996 697.048 2.65099Z" fill="black"/>
<path d="M698.954 2.65099L698.004 10.8287V2.00057C698.637 1.98446 698.954 2.30996 698.954 2.65099Z" fill="black"/>
<path d="M698.009 10.2935L706.359 9.43089C706.707 9.43089 707.039 9.71865 707.023 10.2935L698.009 10.2935ZM698.009 10.2935L689.664 9.43089C689.316 9.43089 688.984 9.71865 689.001 10.2935L698.009 10.2935ZM698.009 10.3974L706.359 11.2548C706.707 11.2548 707.039 10.9688 707.023 10.3974H698.009ZM698.009 10.3974L689.664 11.2548C689.316 11.2548 688.984 10.9688 689.001 10.3974H698.009ZM698.004 10.8287L697.048 2.65099C697.048 2.30996 697.367 1.98446 698.004 2.00057M698.004 10.8287V2.00057M698.004 10.8287L698.954 2.65099C698.954 2.30996 698.637 1.98446 698.004 2.00057M698.014 10.0856L696.573 25.7528C696.573 26.4062 697.054 27.0298 698.014 26.9989V10.0856ZM697.941 10.3704L691.429 15.6363C691.182 15.8812 691.151 16.3174 691.569 16.7102L697.941 10.3704ZM698.017 10.4463L692.725 16.9258C692.478 17.1708 692.04 17.2021 691.645 16.7861L698.017 10.4463ZM698.078 10.3704L704.59 15.6363C704.836 15.8812 704.868 16.3174 704.45 16.7102L698.078 10.3704ZM698.002 10.4463L703.294 16.9258C703.54 17.1708 703.979 17.2021 704.373 16.7861L698.002 10.4463ZM698.009 10.0856L699.44 25.7528C699.44 26.4062 698.963 27.0298 698.009 26.9989V10.0856Z" stroke="black" stroke-width="2.90698"/>
<path d="M1039.57 25.7528L1041.01 10.0856V26.9989C1040.05 27.0298 1039.57 26.4062 1039.57 25.7528Z" fill="black"/>
<path d="M1049.36 9.43089L1041.01 10.2935L1050.02 10.2935C1050.04 9.71865 1049.71 9.43089 1049.36 9.43089Z" fill="black"/>
<path d="M1049.36 11.2548L1041.01 10.3974H1050.02C1050.04 10.9688 1049.71 11.2548 1049.36 11.2548Z" fill="black"/>
<path d="M1032.66 9.43089L1041.01 10.2935L1032 10.2935C1031.98 9.71865 1032.32 9.43089 1032.66 9.43089Z" fill="black"/>
<path d="M1032.66 11.2548L1041.01 10.3974H1032C1031.98 10.9688 1032.32 11.2548 1032.66 11.2548Z" fill="black"/>
<path d="M1034.43 15.6363L1040.94 10.3704L1034.57 16.7102C1034.15 16.3174 1034.18 15.8812 1034.43 15.6363Z" fill="black"/>
<path d="M1035.72 16.9258L1041.02 10.4463L1034.65 16.7861C1035.04 17.2021 1035.48 17.1708 1035.72 16.9258Z" fill="black"/>
<path d="M1047.59 15.6363L1041.08 10.3704L1047.45 16.7102C1047.87 16.3174 1047.84 15.8812 1047.59 15.6363Z" fill="black"/>
<path d="M1046.29 16.9258L1041 10.4463L1047.37 16.7861C1046.98 17.2021 1046.54 17.1708 1046.29 16.9258Z" fill="black"/>
<path d="M1042.44 25.7528L1041.01 10.0856V26.9989C1041.96 27.0298 1042.44 26.4062 1042.44 25.7528Z" fill="black"/>
<path d="M1040.05 2.65099L1041 10.8287V2.00057C1040.37 1.98446 1040.05 2.30996 1040.05 2.65099Z" fill="black"/>
<path d="M1041.95 2.65099L1041 10.8287V2.00057C1041.64 1.98446 1041.95 2.30996 1041.95 2.65099Z" fill="black"/>
<path d="M1039.57 25.7528L1041.01 10.0856V26.9989C1040.05 27.0298 1039.57 26.4062 1039.57 25.7528Z" fill="black"/>
<path d="M1049.36 9.43089L1041.01 10.2935L1050.02 10.2935C1050.04 9.71865 1049.71 9.43089 1049.36 9.43089Z" fill="black"/>
<path d="M1049.36 11.2548L1041.01 10.3974H1050.02C1050.04 10.9688 1049.71 11.2548 1049.36 11.2548Z" fill="black"/>
<path d="M1032.66 9.43089L1041.01 10.2935L1032 10.2935C1031.98 9.71865 1032.32 9.43089 1032.66 9.43089Z" fill="black"/>
<path d="M1032.66 11.2548L1041.01 10.3974H1032C1031.98 10.9688 1032.32 11.2548 1032.66 11.2548Z" fill="black"/>
<path d="M1034.43 15.6363L1040.94 10.3704L1034.57 16.7102C1034.15 16.3174 1034.18 15.8812 1034.43 15.6363Z" fill="black"/>
<path d="M1035.72 16.9258L1041.02 10.4463L1034.65 16.7861C1035.04 17.2021 1035.48 17.1708 1035.72 16.9258Z" fill="black"/>
<path d="M1047.59 15.6363L1041.08 10.3704L1047.45 16.7102C1047.87 16.3174 1047.84 15.8812 1047.59 15.6363Z" fill="black"/>
<path d="M1046.29 16.9258L1041 10.4463L1047.37 16.7861C1046.98 17.2021 1046.54 17.1708 1046.29 16.9258Z" fill="black"/>
<path d="M1042.44 25.7528L1041.01 10.0856V26.9989C1041.96 27.0298 1042.44 26.4062 1042.44 25.7528Z" fill="black"/>
<path d="M1040.05 2.65099L1041 10.8287V2.00057C1040.37 1.98446 1040.05 2.30996 1040.05 2.65099Z" fill="black"/>
<path d="M1041.95 2.65099L1041 10.8287V2.00057C1041.64 1.98446 1041.95 2.30996 1041.95 2.65099Z" fill="black"/>
<path d="M1041.01 10.2935L1049.36 9.43089C1049.71 9.43089 1050.04 9.71865 1050.02 10.2935L1041.01 10.2935ZM1041.01 10.2935L1032.66 9.43089C1032.32 9.43089 1031.98 9.71865 1032 10.2935L1041.01 10.2935ZM1041.01 10.3974L1049.36 11.2548C1049.71 11.2548 1050.04 10.9688 1050.02 10.3974H1041.01ZM1041.01 10.3974L1032.66 11.2548C1032.32 11.2548 1031.98 10.9688 1032 10.3974H1041.01ZM1041 10.8287L1040.05 2.65099C1040.05 2.30996 1040.37 1.98446 1041 2.00057M1041 10.8287V2.00057M1041 10.8287L1041.95 2.65099C1041.95 2.30996 1041.64 1.98446 1041 2.00057M1041.01 10.0856L1039.57 25.7528C1039.57 26.4062 1040.05 27.0298 1041.01 26.9989V10.0856ZM1040.94 10.3704L1034.43 15.6363C1034.18 15.8812 1034.15 16.3174 1034.57 16.7102L1040.94 10.3704ZM1041.02 10.4463L1035.72 16.9258C1035.48 17.1708 1035.04 17.2021 1034.65 16.7861L1041.02 10.4463ZM1041.08 10.3704L1047.59 15.6363C1047.84 15.8812 1047.87 16.3174 1047.45 16.7102L1041.08 10.3704ZM1041 10.4463L1046.29 16.9258C1046.54 17.1708 1046.98 17.2021 1047.37 16.7861L1041 10.4463ZM1041.01 10.0856L1042.44 25.7528C1042.44 26.4062 1041.96 27.0298 1041.01 26.9989V10.0856Z" stroke="black" stroke-width="2.90698"/>
</svg>
