<svg width="547" height="1909" viewBox="0 0 547 1909" fill="none" xmlns="http://www.w3.org/2000/svg">
<path d="M186.824 5.14355L319.5 4.87334L319.5 16.1349L242.635 16.136L279.131 973.254L223.775 975.362L186.824 5.14355Z" fill="black"/>
<g clip-path="url(#clip0_139_516)">
<rect x="307.647" y="1757.61" width="53.135" height="1051.39" transform="rotate(177.819 307.647 1757.61)" fill="#D9D9D9" stroke="black" stroke-width="2.26106"/>
<path d="M309.086 1758.69L253.73 1760.8L245.899 1555.19L300.373 1529.92L309.086 1758.69Z" fill="black"/>
<rect x="545.731" y="1887.7" width="509.272" height="326.582" rx="22.6811" transform="rotate(177.819 545.731 1887.7)" fill="#FFEA00" stroke="black" stroke-width="2.26106"/>
<rect x="537.745" y="1882.07" width="494.049" height="312.405" rx="23.5975" transform="rotate(177.819 537.745 1882.07)" stroke="black" stroke-width="0.428181"/>
<ellipse cx="274.296" cy="1592.37" rx="47.9482" ry="11.8463" transform="rotate(-2.18107 274.296 1592.37)" fill="black"/>
<ellipse cx="528.353" cy="1754.88" rx="2.68802" ry="2.71181" transform="rotate(177.819 528.353 1754.88)" fill="black"/>
<ellipse cx="44.0281" cy="1773.32" rx="2.68802" ry="2.71181" transform="rotate(177.819 44.0281 1773.32)" fill="black"/>
<mask id="path-10-outside-1_139_516" maskUnits="userSpaceOnUse" x="246.267" y="1585.56" width="55.4549" height="15.0838" fill="black">
<rect fill="white" x="246.267" y="1585.56" width="55.4549" height="15.0838"/>
<path d="M246.807 1588.99L254.361 1588.7L254.433 1590.57L249.091 1590.78L249.184 1593.23L253.861 1593.05L253.931 1594.9L249.254 1595.08L249.425 1599.54L247.213 1599.63L246.807 1588.99ZM266.998 1588.2L269.333 1588.11L273.86 1595.39L273.576 1587.95L275.651 1587.87L276.057 1598.53L273.83 1598.61L269.19 1591.21L269.478 1598.78L267.404 1598.86L266.998 1588.2ZM281.735 1590.23C282.55 1590.2 283.223 1590.39 283.755 1590.8C284.291 1591.21 284.579 1591.9 284.616 1592.89L284.818 1598.2L282.707 1598.28L282.525 1593.48C282.509 1593.07 282.442 1592.75 282.322 1592.54C282.105 1592.14 281.711 1591.95 281.143 1591.97C280.444 1592 279.976 1592.31 279.738 1592.92C279.615 1593.23 279.563 1593.64 279.581 1594.12L279.744 1598.39L277.691 1598.47L277.391 1590.6L279.379 1590.53L279.423 1591.68C279.672 1591.26 279.912 1590.96 280.141 1590.77C280.553 1590.44 281.085 1590.26 281.735 1590.23ZM289.296 1591.63C288.819 1591.64 288.453 1591.81 288.199 1592.12C287.951 1592.42 287.802 1592.84 287.754 1593.35L290.957 1593.23C290.902 1592.68 290.72 1592.28 290.411 1592.01C290.106 1591.74 289.734 1591.61 289.296 1591.63ZM289.231 1589.93C289.886 1589.9 290.481 1590 291.016 1590.23C291.551 1590.45 291.999 1590.83 292.362 1591.34C292.688 1591.8 292.908 1592.33 293.023 1592.95C293.09 1593.31 293.132 1593.83 293.148 1594.5L287.755 1594.71C287.814 1595.5 288.084 1596.04 288.563 1596.34C288.855 1596.53 289.201 1596.62 289.601 1596.6C290.025 1596.59 290.365 1596.45 290.621 1596.2C290.761 1596.07 290.881 1595.88 290.983 1595.64L293.087 1595.56C293.052 1596.03 292.827 1596.52 292.411 1597.02C291.766 1597.81 290.836 1598.23 289.621 1598.27C288.619 1598.31 287.722 1598.02 286.931 1597.41C286.14 1596.79 285.717 1595.75 285.662 1594.3C285.61 1592.93 285.915 1591.88 286.576 1591.12C287.242 1590.37 288.127 1589.97 289.231 1589.93ZM296.479 1597.75L294.419 1597.83L294.013 1587.17L296.073 1587.1L296.479 1597.75ZM298.46 1587.04L300.723 1586.96L300.826 1589.66L300.43 1594.65L299.353 1594.7L298.563 1589.75L298.46 1587.04ZM298.836 1595.57L300.99 1595.49L301.07 1597.58L298.915 1597.66L298.836 1595.57Z"/>
</mask>
<path d="M246.807 1588.99L254.361 1588.7L254.433 1590.57L249.091 1590.78L249.184 1593.23L253.861 1593.05L253.931 1594.9L249.254 1595.08L249.425 1599.54L247.213 1599.63L246.807 1588.99ZM266.998 1588.2L269.333 1588.11L273.86 1595.39L273.576 1587.95L275.651 1587.87L276.057 1598.53L273.83 1598.61L269.19 1591.21L269.478 1598.78L267.404 1598.86L266.998 1588.2ZM281.735 1590.23C282.55 1590.2 283.223 1590.39 283.755 1590.8C284.291 1591.21 284.579 1591.9 284.616 1592.89L284.818 1598.2L282.707 1598.28L282.525 1593.48C282.509 1593.07 282.442 1592.75 282.322 1592.54C282.105 1592.14 281.711 1591.95 281.143 1591.97C280.444 1592 279.976 1592.31 279.738 1592.92C279.615 1593.23 279.563 1593.64 279.581 1594.12L279.744 1598.39L277.691 1598.47L277.391 1590.6L279.379 1590.53L279.423 1591.68C279.672 1591.26 279.912 1590.96 280.141 1590.77C280.553 1590.44 281.085 1590.26 281.735 1590.23ZM289.296 1591.63C288.819 1591.64 288.453 1591.81 288.199 1592.12C287.951 1592.42 287.802 1592.84 287.754 1593.35L290.957 1593.23C290.902 1592.68 290.72 1592.28 290.411 1592.01C290.106 1591.74 289.734 1591.61 289.296 1591.63ZM289.231 1589.93C289.886 1589.9 290.481 1590 291.016 1590.23C291.551 1590.45 291.999 1590.83 292.362 1591.34C292.688 1591.8 292.908 1592.33 293.023 1592.95C293.09 1593.31 293.132 1593.83 293.148 1594.5L287.755 1594.71C287.814 1595.5 288.084 1596.04 288.563 1596.34C288.855 1596.53 289.201 1596.62 289.601 1596.6C290.025 1596.59 290.365 1596.45 290.621 1596.2C290.761 1596.07 290.881 1595.88 290.983 1595.64L293.087 1595.56C293.052 1596.03 292.827 1596.52 292.411 1597.02C291.766 1597.81 290.836 1598.23 289.621 1598.27C288.619 1598.31 287.722 1598.02 286.931 1597.41C286.14 1596.79 285.717 1595.75 285.662 1594.3C285.61 1592.93 285.915 1591.88 286.576 1591.12C287.242 1590.37 288.127 1589.97 289.231 1589.93ZM296.479 1597.75L294.419 1597.83L294.013 1587.17L296.073 1587.1L296.479 1597.75ZM298.46 1587.04L300.723 1586.96L300.826 1589.66L300.43 1594.65L299.353 1594.7L298.563 1589.75L298.46 1587.04ZM298.836 1595.57L300.99 1595.49L301.07 1597.58L298.915 1597.66L298.836 1595.57Z" fill="#FFEA00"/>
<path d="M246.807 1588.99L246.79 1588.54L246.343 1588.56L246.36 1589L246.807 1588.99ZM254.361 1588.7L254.809 1588.68L254.792 1588.24L254.344 1588.25L254.361 1588.7ZM254.433 1590.57L254.45 1591.02L254.897 1591L254.88 1590.55L254.433 1590.57ZM249.091 1590.78L249.074 1590.33L248.626 1590.34L248.643 1590.79L249.091 1590.78ZM249.184 1593.23L248.737 1593.24L248.754 1593.69L249.201 1593.67L249.184 1593.23ZM253.861 1593.05L254.308 1593.03L254.291 1592.58L253.844 1592.6L253.861 1593.05ZM253.931 1594.9L253.948 1595.35L254.396 1595.33L254.379 1594.88L253.931 1594.9ZM249.254 1595.08L249.237 1594.63L248.79 1594.65L248.807 1595.09L249.254 1595.08ZM249.425 1599.54L249.442 1599.99L249.889 1599.97L249.872 1599.53L249.425 1599.54ZM247.213 1599.63L246.765 1599.64L246.782 1600.09L247.23 1600.08L247.213 1599.63ZM246.807 1588.99L246.824 1589.43L254.378 1589.15L254.361 1588.7L254.344 1588.25L246.79 1588.54L246.807 1588.99ZM254.361 1588.7L253.914 1588.72L253.985 1590.59L254.433 1590.57L254.88 1590.55L254.809 1588.68L254.361 1588.7ZM254.433 1590.57L254.416 1590.12L249.074 1590.33L249.091 1590.78L249.108 1591.22L254.45 1591.02L254.433 1590.57ZM249.091 1590.78L248.643 1590.79L248.737 1593.24L249.184 1593.23L249.631 1593.21L249.538 1590.76L249.091 1590.78ZM249.184 1593.23L249.201 1593.67L253.878 1593.49L253.861 1593.05L253.844 1592.6L249.167 1592.78L249.184 1593.23ZM253.861 1593.05L253.414 1593.06L253.484 1594.92L253.931 1594.9L254.379 1594.88L254.308 1593.03L253.861 1593.05ZM253.931 1594.9L253.914 1594.45L249.237 1594.63L249.254 1595.08L249.271 1595.52L253.948 1595.35L253.931 1594.9ZM249.254 1595.08L248.807 1595.09L248.977 1599.56L249.425 1599.54L249.872 1599.53L249.702 1595.06L249.254 1595.08ZM249.425 1599.54L249.408 1599.1L247.195 1599.18L247.213 1599.63L247.23 1600.08L249.442 1599.99L249.425 1599.54ZM247.213 1599.63L247.66 1599.61L247.255 1588.97L246.807 1588.99L246.36 1589L246.765 1599.64L247.213 1599.63ZM266.998 1588.2L266.981 1587.76L266.534 1587.77L266.551 1588.22L266.998 1588.2ZM269.333 1588.11L269.713 1587.88L269.576 1587.66L269.316 1587.67L269.333 1588.11ZM273.86 1595.39L273.479 1595.63L274.371 1597.06L274.307 1595.37L273.86 1595.39ZM273.576 1587.95L273.559 1587.51L273.112 1587.52L273.129 1587.97L273.576 1587.95ZM275.651 1587.87L276.098 1587.86L276.081 1587.41L275.634 1587.43L275.651 1587.87ZM276.057 1598.53L276.074 1598.98L276.521 1598.96L276.504 1598.51L276.057 1598.53ZM273.83 1598.61L273.451 1598.85L273.588 1599.07L273.847 1599.06L273.83 1598.61ZM269.19 1591.21L269.57 1590.97L268.679 1589.55L268.743 1591.23L269.19 1591.21ZM269.478 1598.78L269.495 1599.23L269.943 1599.21L269.926 1598.76L269.478 1598.78ZM267.404 1598.86L266.956 1598.88L266.973 1599.32L267.421 1599.31L267.404 1598.86ZM266.998 1588.2L267.015 1588.65L269.35 1588.56L269.333 1588.11L269.316 1587.67L266.981 1587.76L266.998 1588.2ZM269.333 1588.11L268.953 1588.35L273.479 1595.63L273.86 1595.39L274.24 1595.16L269.713 1587.88L269.333 1588.11ZM273.86 1595.39L274.307 1595.37L274.024 1587.94L273.576 1587.95L273.129 1587.97L273.412 1595.41L273.86 1595.39ZM273.576 1587.95L273.593 1588.4L275.668 1588.32L275.651 1587.87L275.634 1587.43L273.559 1587.51L273.576 1587.95ZM275.651 1587.87L275.204 1587.89L275.609 1598.55L276.057 1598.53L276.504 1598.51L276.098 1587.86L275.651 1587.87ZM276.057 1598.53L276.04 1598.08L273.813 1598.17L273.83 1598.61L273.847 1599.06L276.074 1598.98L276.057 1598.53ZM273.83 1598.61L274.21 1598.38L269.57 1590.97L269.19 1591.21L268.811 1591.45L273.451 1598.85L273.83 1598.61ZM269.19 1591.21L268.743 1591.23L269.031 1598.8L269.478 1598.78L269.926 1598.76L269.638 1591.19L269.19 1591.21ZM269.478 1598.78L269.461 1598.33L267.387 1598.41L267.404 1598.86L267.421 1599.31L269.495 1599.23L269.478 1598.78ZM267.404 1598.86L267.851 1598.84L267.445 1588.19L266.998 1588.2L266.551 1588.22L266.956 1598.88L267.404 1598.86ZM283.755 1590.8L283.482 1591.16L283.485 1591.16L283.755 1590.8ZM284.818 1598.2L284.835 1598.64L285.283 1598.63L285.266 1598.18L284.818 1598.2ZM282.707 1598.28L282.26 1598.29L282.277 1598.74L282.725 1598.72L282.707 1598.28ZM282.322 1592.54L281.93 1592.75L282.322 1592.54ZM279.738 1592.92L279.321 1592.75L279.32 1592.75L279.738 1592.92ZM279.744 1598.39L279.761 1598.84L280.208 1598.82L280.191 1598.37L279.744 1598.39ZM277.691 1598.47L277.243 1598.48L277.26 1598.93L277.708 1598.91L277.691 1598.47ZM277.391 1590.6L277.374 1590.15L276.927 1590.17L276.944 1590.62L277.391 1590.6ZM279.379 1590.53L279.826 1590.51L279.809 1590.06L279.362 1590.08L279.379 1590.53ZM279.423 1591.68L278.976 1591.69L279.033 1593.19L279.806 1591.91L279.423 1591.68ZM280.141 1590.77L279.859 1590.42L279.858 1590.43L280.141 1590.77ZM281.735 1590.23L281.752 1590.68C282.485 1590.65 283.05 1590.82 283.482 1591.16L283.755 1590.8L284.028 1590.45C283.396 1589.96 282.614 1589.75 281.718 1589.79L281.735 1590.23ZM283.755 1590.8L283.485 1591.16C283.872 1591.45 284.134 1591.99 284.169 1592.91L284.616 1592.89L285.064 1592.87C285.023 1591.82 284.711 1590.96 284.024 1590.44L283.755 1590.8ZM284.616 1592.89L284.169 1592.91L284.371 1598.21L284.818 1598.2L285.266 1598.18L285.064 1592.87L284.616 1592.89ZM284.818 1598.2L284.801 1597.75L282.69 1597.83L282.707 1598.28L282.725 1598.72L284.835 1598.64L284.818 1598.2ZM282.707 1598.28L283.155 1598.26L282.972 1593.47L282.525 1593.48L282.078 1593.5L282.26 1598.29L282.707 1598.28ZM282.525 1593.48L282.972 1593.47C282.955 1593.02 282.883 1592.63 282.715 1592.32L282.322 1592.54L281.93 1592.75C282 1592.88 282.063 1593.11 282.078 1593.5L282.525 1593.48ZM282.322 1592.54L282.715 1592.32C282.393 1591.73 281.812 1591.5 281.126 1591.53L281.143 1591.97L281.16 1592.42C281.611 1592.4 281.816 1592.54 281.93 1592.75L282.322 1592.54ZM281.143 1591.97L281.126 1591.53C280.713 1591.54 280.336 1591.64 280.018 1591.86C279.697 1592.07 279.469 1592.38 279.321 1592.75L279.738 1592.92L280.154 1593.08C280.245 1592.85 280.369 1592.7 280.517 1592.6C280.667 1592.5 280.873 1592.43 281.16 1592.42L281.143 1591.97ZM279.738 1592.92L279.32 1592.75C279.168 1593.15 279.114 1593.62 279.134 1594.14L279.581 1594.12L280.029 1594.11C280.011 1593.66 280.062 1593.32 280.156 1593.08L279.738 1592.92ZM279.581 1594.12L279.134 1594.14L279.296 1598.41L279.744 1598.39L280.191 1598.37L280.029 1594.11L279.581 1594.12ZM279.744 1598.39L279.727 1597.94L277.674 1598.02L277.691 1598.47L277.708 1598.91L279.761 1598.84L279.744 1598.39ZM277.691 1598.47L278.138 1598.45L277.838 1590.59L277.391 1590.6L276.944 1590.62L277.243 1598.48L277.691 1598.47ZM277.391 1590.6L277.408 1591.05L279.396 1590.97L279.379 1590.53L279.362 1590.08L277.374 1590.15L277.391 1590.6ZM279.379 1590.53L278.932 1590.54L278.976 1591.69L279.423 1591.68L279.87 1591.66L279.826 1590.51L279.379 1590.53ZM279.423 1591.68L279.806 1591.91C280.044 1591.51 280.252 1591.26 280.424 1591.12L280.141 1590.77L279.858 1590.43C279.572 1590.66 279.301 1591.01 279.039 1591.45L279.423 1591.68ZM280.141 1590.77L280.423 1591.12C280.744 1590.86 281.176 1590.7 281.752 1590.68L281.735 1590.23L281.718 1589.79C280.993 1589.81 280.362 1590.02 279.859 1590.42L280.141 1590.77ZM288.199 1592.12L287.854 1591.83L287.851 1591.84L288.199 1592.12ZM287.754 1593.35L287.308 1593.31L287.261 1593.82L287.771 1593.8L287.754 1593.35ZM290.957 1593.23L290.974 1593.67L291.449 1593.66L291.402 1593.18L290.957 1593.23ZM290.411 1592.01L290.112 1592.34L290.118 1592.35L290.411 1592.01ZM292.362 1591.34L291.995 1591.6L291.998 1591.6L292.362 1591.34ZM293.023 1592.95L293.464 1592.86L293.463 1592.86L293.023 1592.95ZM293.148 1594.5L293.165 1594.95L293.606 1594.94L293.596 1594.49L293.148 1594.5ZM287.755 1594.71L287.738 1594.26L287.274 1594.28L287.309 1594.74L287.755 1594.71ZM288.563 1596.34L288.805 1595.97L288.801 1595.97L288.563 1596.34ZM290.621 1596.2L290.309 1595.88L290.307 1595.88L290.621 1596.2ZM290.983 1595.64L290.966 1595.2L290.685 1595.21L290.573 1595.47L290.983 1595.64ZM293.087 1595.56L293.533 1595.6L293.571 1595.1L293.07 1595.12L293.087 1595.56ZM292.411 1597.02L292.067 1596.73L292.064 1596.73L292.411 1597.02ZM286.931 1597.41L286.656 1597.76L286.931 1597.41ZM286.576 1591.12L286.241 1590.82L286.24 1590.83L286.576 1591.12ZM289.296 1591.63L289.279 1591.18C288.701 1591.2 288.204 1591.41 287.854 1591.83L288.199 1592.12L288.545 1592.4C288.702 1592.21 288.936 1592.09 289.313 1592.07L289.296 1591.63ZM288.199 1592.12L287.851 1591.84C287.533 1592.23 287.362 1592.73 287.308 1593.31L287.754 1593.35L288.2 1593.39C288.242 1592.94 288.369 1592.62 288.548 1592.4L288.199 1592.12ZM287.754 1593.35L287.771 1593.8L290.974 1593.67L290.957 1593.23L290.939 1592.78L287.737 1592.9L287.754 1593.35ZM290.957 1593.23L291.402 1593.18C291.34 1592.56 291.125 1592.04 290.704 1591.67L290.411 1592.01L290.118 1592.35C290.315 1592.52 290.464 1592.8 290.511 1593.27L290.957 1593.23ZM290.411 1592.01L290.709 1591.68C290.311 1591.32 289.824 1591.16 289.279 1591.18L289.296 1591.63L289.313 1592.07C289.644 1592.06 289.9 1592.15 290.112 1592.34L290.411 1592.01ZM289.231 1589.93L289.248 1590.37C289.846 1590.35 290.375 1590.44 290.842 1590.64L291.016 1590.23L291.19 1589.82C290.588 1589.56 289.926 1589.45 289.214 1589.48L289.231 1589.93ZM291.016 1590.23L290.842 1590.64C291.292 1590.83 291.676 1591.14 291.995 1591.6L292.362 1591.34L292.728 1591.09C292.322 1590.51 291.809 1590.08 291.19 1589.82L291.016 1590.23ZM292.362 1591.34L291.998 1591.6C292.282 1592 292.479 1592.47 292.584 1593.03L293.023 1592.95L293.463 1592.86C293.338 1592.19 293.094 1591.6 292.726 1591.08L292.362 1591.34ZM293.023 1592.95L292.583 1593.03C292.644 1593.35 292.684 1593.84 292.7 1594.52L293.148 1594.5L293.596 1594.49C293.579 1593.81 293.537 1593.26 293.464 1592.86L293.023 1592.95ZM293.148 1594.5L293.131 1594.06L287.738 1594.26L287.755 1594.71L287.772 1595.16L293.165 1594.95L293.148 1594.5ZM287.755 1594.71L287.309 1594.74C287.374 1595.61 287.682 1596.32 288.326 1596.72L288.563 1596.34L288.801 1595.97C288.485 1595.77 288.255 1595.38 288.202 1594.68L287.755 1594.71ZM288.563 1596.34L288.322 1596.72C288.702 1596.96 289.141 1597.07 289.618 1597.05L289.601 1596.6L289.584 1596.15C289.261 1596.17 289.008 1596.1 288.804 1595.97L288.563 1596.34ZM289.601 1596.6L289.618 1597.05C290.132 1597.03 290.585 1596.86 290.934 1596.52L290.621 1596.2L290.307 1595.88C290.145 1596.04 289.918 1596.14 289.584 1596.15L289.601 1596.6ZM290.621 1596.2L290.933 1596.52C291.126 1596.34 291.276 1596.1 291.394 1595.82L290.983 1595.64L290.573 1595.47C290.487 1595.66 290.396 1595.8 290.309 1595.88L290.621 1596.2ZM290.983 1595.64L291 1596.09L293.104 1596.01L293.087 1595.56L293.07 1595.12L290.966 1595.2L290.983 1595.64ZM293.087 1595.56L292.641 1595.53C292.615 1595.88 292.445 1596.28 292.067 1596.73L292.411 1597.02L292.755 1597.3C293.208 1596.76 293.489 1596.19 293.533 1595.6L293.087 1595.56ZM292.411 1597.02L292.064 1596.73C291.515 1597.41 290.717 1597.78 289.604 1597.83L289.621 1598.27L289.638 1598.72C290.955 1598.67 292.016 1598.21 292.758 1597.3L292.411 1597.02ZM289.621 1598.27L289.604 1597.83C288.707 1597.86 287.914 1597.6 287.207 1597.05L286.931 1597.41L286.656 1597.76C287.53 1598.44 288.53 1598.76 289.638 1598.72L289.621 1598.27ZM286.931 1597.41L287.207 1597.05C286.56 1596.55 286.162 1595.67 286.109 1594.28L285.662 1594.3L285.215 1594.31C285.273 1595.84 285.721 1597.03 286.656 1597.76L286.931 1597.41ZM285.662 1594.3L286.109 1594.28C286.06 1592.99 286.351 1592.06 286.913 1591.42L286.576 1591.12L286.24 1590.83C285.479 1591.69 285.16 1592.88 285.215 1594.31L285.662 1594.3ZM286.576 1591.12L286.912 1591.42C287.489 1590.76 288.253 1590.41 289.248 1590.37L289.231 1589.93L289.214 1589.48C288.001 1589.53 286.996 1589.97 286.241 1590.82L286.576 1591.12ZM296.479 1597.75L296.496 1598.2L296.943 1598.18L296.926 1597.73L296.479 1597.75ZM294.419 1597.83L293.971 1597.85L293.988 1598.29L294.436 1598.28L294.419 1597.83ZM294.013 1587.17L293.996 1586.73L293.549 1586.74L293.566 1587.19L294.013 1587.17ZM296.073 1587.1L296.521 1587.08L296.503 1586.63L296.056 1586.65L296.073 1587.1ZM296.479 1597.75L296.462 1597.3L294.402 1597.38L294.419 1597.83L294.436 1598.28L296.496 1598.2L296.479 1597.75ZM294.419 1597.83L294.866 1597.81L294.46 1587.16L294.013 1587.17L293.566 1587.19L293.971 1597.85L294.419 1597.83ZM294.013 1587.17L294.03 1587.62L296.09 1587.54L296.073 1587.1L296.056 1586.65L293.996 1586.73L294.013 1587.17ZM296.073 1587.1L295.626 1587.11L296.032 1597.77L296.479 1597.75L296.926 1597.73L296.521 1587.08L296.073 1587.1ZM298.46 1587.04L298.443 1586.59L297.996 1586.61L298.013 1587.06L298.46 1587.04ZM300.723 1586.96L301.17 1586.94L301.153 1586.49L300.706 1586.51L300.723 1586.96ZM300.826 1589.66L301.272 1589.69L301.274 1589.67L301.273 1589.64L300.826 1589.66ZM300.43 1594.65L300.447 1595.1L300.845 1595.09L300.876 1594.69L300.43 1594.65ZM299.353 1594.7L298.911 1594.77L298.973 1595.16L299.37 1595.14L299.353 1594.7ZM298.563 1589.75L298.116 1589.76L298.117 1589.79L298.121 1589.82L298.563 1589.75ZM298.836 1595.57L298.819 1595.12L298.371 1595.14L298.388 1595.59L298.836 1595.57ZM300.99 1595.49L301.437 1595.47L301.42 1595.02L300.973 1595.04L300.99 1595.49ZM301.07 1597.58L301.087 1598.02L301.534 1598.01L301.517 1597.56L301.07 1597.58ZM298.915 1597.66L298.468 1597.68L298.485 1598.12L298.932 1598.11L298.915 1597.66ZM298.46 1587.04L298.477 1587.49L300.74 1587.4L300.723 1586.96L300.706 1586.51L298.443 1586.59L298.46 1587.04ZM300.723 1586.96L300.276 1586.97L300.379 1589.68L300.826 1589.66L301.273 1589.64L301.17 1586.94L300.723 1586.96ZM300.826 1589.66L300.38 1589.62L299.984 1594.62L300.43 1594.65L300.876 1594.69L301.272 1589.69L300.826 1589.66ZM300.43 1594.65L300.413 1594.21L299.336 1594.25L299.353 1594.7L299.37 1595.14L300.447 1595.1L300.43 1594.65ZM299.353 1594.7L299.795 1594.63L299.005 1589.67L298.563 1589.75L298.121 1589.82L298.911 1594.77L299.353 1594.7ZM298.563 1589.75L299.011 1589.73L298.908 1587.02L298.46 1587.04L298.013 1587.06L298.116 1589.76L298.563 1589.75ZM298.836 1595.57L298.853 1596.02L301.007 1595.93L300.99 1595.49L300.973 1595.04L298.819 1595.12L298.836 1595.57ZM300.99 1595.49L300.543 1595.5L300.622 1597.59L301.07 1597.58L301.517 1597.56L301.437 1595.47L300.99 1595.49ZM301.07 1597.58L301.053 1597.13L298.898 1597.21L298.915 1597.66L298.932 1598.11L301.087 1598.02L301.07 1597.58ZM298.915 1597.66L299.363 1597.64L299.283 1595.55L298.836 1595.57L298.388 1595.59L298.468 1597.68L298.915 1597.66Z" fill="#FFEA00" mask="url(#path-10-outside-1_139_516)"/>
<path d="M304.021 1584.72C304.125 1584.72 304.219 1584.74 304.301 1584.79C304.383 1584.83 304.447 1584.9 304.494 1584.99C304.541 1585.07 304.566 1585.17 304.571 1585.29C304.575 1585.4 304.557 1585.51 304.516 1585.6C304.476 1585.69 304.417 1585.76 304.34 1585.81C304.313 1585.83 304.284 1585.84 304.254 1585.85L304.69 1586.56L304.72 1586.61L304.234 1586.63L304.223 1586.61L303.803 1585.9L303.652 1585.91L303.681 1586.65L303.276 1586.67L303.203 1584.76L304.021 1584.72ZM303.637 1585.51L304.023 1585.49C304.065 1585.49 304.096 1585.47 304.119 1585.44L304.148 1585.38C304.154 1585.36 304.157 1585.33 304.156 1585.31L304.142 1585.23C304.135 1585.21 304.125 1585.19 304.111 1585.17L304.11 1585.17C304.084 1585.14 304.052 1585.13 304.009 1585.13L303.623 1585.14L303.637 1585.51Z" fill="#FFEA00" stroke="#FFEA00" stroke-width="0.0676764"/>
<circle cx="303.902" cy="1585.68" r="1.64071" transform="rotate(-2.18107 303.902 1585.68)" stroke="#FFEA00" stroke-width="0.404626"/>
<path d="M261.31 1587.68L265.709 1587.52L265.884 1592.11L262.145 1598.1L262.184 1599.11L261.079 1599.16L261.076 1599.16L259.958 1599.2L259.92 1598.18L255.749 1592.5L255.574 1587.9L259.973 1587.73L260.692 1589.04L261.31 1587.68Z" fill="#FFEA00"/>
<path d="M322.121 1883L322.086 1882.98L290.21 1869.34L259.464 1885.37L259.431 1885.38L52.8083 1893.25L52.8019 1893.09L52.0234 1872.95L52.0191 1872.84L52.1229 1872.79L269.637 1777.12L268.952 1760.19L268.945 1760.02L303.045 1758.72L303.697 1775.82L527.859 1854.67L527.966 1854.71L528.744 1875.13L322.121 1883Z" fill="black" stroke="black" stroke-width="0.333029"/>
<path d="M532.648 1750.14L39.3733 1768.93" stroke="black" stroke-width="0.261666"/>
</g>
<path d="M347.601 5L368 5L368 9.81667L349.629 15.9355L349.629 17L344.507 17L344.493 17L339.311 17L339.311 15.9355L321 9.81667L321 5L341.399 5L344.5 6.40076L347.601 5Z" fill="black"/>
<defs>
<clipPath id="clip0_139_516">
<rect x="546.832" y="1888.79" width="511" height="926.756" rx="23.8116" transform="rotate(177.819 546.832 1888.79)" fill="white"/>
</clipPath>
</defs>
</svg>
