<svg width="1774" height="205" viewBox="0 0 1774 205" fill="none" xmlns="http://www.w3.org/2000/svg">
<path d="M3.75195 29.5664H129.667V68.2919H12.2217V81.291V98.7288H67.7963M139.178 98.7288H67.7963M67.7963 98.7288V135.643" stroke="black" stroke-width="24.2771"/>
<path d="M130.571 103.484C130.571 138.586 93.7023 180.89 9.14021 153.805" stroke="black" stroke-width="24.2771"/>
<path d="M360.843 178.946C370.553 165.929 392.136 127.068 400.792 75.7661" stroke="black" stroke-width="24.2771"/>
<path d="M400.791 181.115C410.5 168.098 432.083 129.237 440.739 77.9351" stroke="black" stroke-width="24.2771"/>
<path d="M469.363 75.7661V177.893H515.743" stroke="black" stroke-width="24.2771"/>
<path d="M354.136 139.569H507.543" stroke="black" stroke-width="24.2771"/>
<path d="M354.136 30.292L390.37 40.7094" stroke="black" stroke-width="24.2771"/>
<path d="M510.67 30.292L474.436 40.7094" stroke="black" stroke-width="24.2771"/>
<path d="M567.647 108.736C567.926 129.389 581.869 175.725 686.27 175.725" stroke="black" stroke-width="24.2771"/>
<path d="M601.392 18.6045V109.553" stroke="black" stroke-width="24.2771"/>
<path d="M639.664 52.5264V143.475" stroke="black" stroke-width="24.2771"/>
<path d="M677.802 84.8213V175.77" stroke="black" stroke-width="24.2771"/>
<path d="M553.519 175.498L707.787 175.498" stroke="black" stroke-width="24.2771"/>
<circle cx="761.003" cy="55.5185" r="36.0079" stroke="black" stroke-width="24.2771"/>
<path d="M244.621 27.937C161.493 27.937 163.492 117.345 244.621 117.345" stroke="black" stroke-width="24.2771"/>
<path d="M266.417 19.606C256.808 61.5473 252.01 97.0736 318.361 120.519" stroke="black" stroke-width="24.2771"/>
<path d="M181.575 141.534H307.58V177.859" stroke="black" stroke-width="24.2771"/>
<circle cx="302.053" cy="77.4891" r="12.1385" fill="black" stroke="black" stroke-width="8.33391"/>
<circle cx="223.242" cy="77.4891" r="12.1385" fill="black" stroke="black" stroke-width="8.33391"/>
<circle cx="913.504" cy="46.6869" r="32.0675" stroke="black" stroke-width="24.2771"/>
<path d="M852.722 193.345V132.924H974.198V186.959H885.738" stroke="black" stroke-width="24.2771"/>
<path d="M863.23 105.569H963.69" stroke="black" stroke-width="24.2771"/>
<path d="M911.783 184.378V136.549" stroke="black" stroke-width="24.2771"/>
<path d="M1563.76 192.924C1563.04 172.282 1547.61 126.259 1439.35 128.522" stroke="black" stroke-width="24.2771"/>
<path d="M1447.21 110.008L1447.21 42.793L1568.5 42.793L1568.5 102.903L1480.17 102.903" stroke="black" stroke-width="24.2771"/>
<path d="M1457.72 12.356L1557.99 12.356" stroke="black" stroke-width="24.2771"/>
<path d="M1506.18 100.04L1506.18 46.7754" stroke="black" stroke-width="24.2771"/>
<path d="M1055.54 15.2764L1094.77 68.404" stroke="black" stroke-width="24.2771"/>
<path d="M1100.93 12.3945L1140.2 65.5951" stroke="black" stroke-width="24.2771"/>
<path d="M1078.76 120.967C1078.76 186.37 1147.97 188.635 1205.58 181.207" stroke="black" stroke-width="24.2771"/>
<path d="M1070.52 103.167H1197.97V62.8114" stroke="black" stroke-width="24.2771"/>
<path d="M1063.09 188.454C1099.55 171.114 1173.61 110.639 1178.14 7.46338" stroke="black" stroke-width="24.2771"/>
<circle cx="1322.45" cy="156.343" r="36.0079" stroke="black" stroke-width="24.2771"/>
<path d="M1289.71 99.3188C1289.71 157.93 1347.59 159.959 1395.78 153.303" stroke="black" stroke-width="24.2771"/>
<rect x="1261.26" y="18.6952" width="122.382" height="74.0088" stroke="black" stroke-width="24.2771"/>
<path d="M1323.27 92.9796V18.835" stroke="black" stroke-width="24.2771"/>
<path d="M1258.91 55.9258H1387.63" stroke="black" stroke-width="24.2771"/>
<path d="M1636.56 125.318C1636.56 190.721 1705.77 192.986 1763.38 185.558" stroke="black" stroke-width="24.2771"/>
<path d="M1636.56 104.028C1673.39 85.5938 1708.49 52.7926 1708.49 11.9927" stroke="black" stroke-width="24.2771"/>
<path d="M1709.26 20.146L1763.29 105.478" stroke="black" stroke-width="24.2771"/>
<path d="M1672.53 42.793L1726.56 128.125" stroke="black" stroke-width="24.2771"/>
<path d="M1633.21 67.3423L1687.25 152.674" stroke="black" stroke-width="24.2771"/>
</svg>
