<svg width="60" height="80" viewBox="0 0 60 80" fill="none" xmlns="http://www.w3.org/2000/svg">
<path d="M26.2038 71.5079L30.2399 27.6398V74.9969C27.5502 75.0834 26.2038 73.3373 26.2038 71.5079Z" fill="black"/>
<path d="M53.604 25.8065L30.2252 28.2218L55.4635 28.2218C55.5095 26.6122 54.579 25.8065 53.604 25.8065Z" fill="black"/>
<path d="M53.604 30.9135L30.2252 28.5128H55.4635C55.5095 30.1127 54.579 30.9135 53.604 30.9135Z" fill="black"/>
<path d="M6.86001 25.8065L30.2252 28.2218L5.00164 28.2218C4.95559 26.6122 5.8856 25.8065 6.86001 25.8065Z" fill="black"/>
<path d="M6.86001 30.9135L30.2252 28.5128H5.00164C4.95559 30.1127 5.8856 30.9135 6.86001 30.9135Z" fill="black"/>
<path d="M11.7998 43.1817L30.0341 28.4372L12.1931 46.1887C11.0225 45.0888 11.1106 43.8674 11.7998 43.1817Z" fill="black"/>
<path d="M15.4288 46.7924L30.2475 28.6496L12.4066 46.4011C13.5121 47.5658 14.7395 47.4781 15.4288 46.7924Z" fill="black"/>
<path d="M48.6521 43.1817L30.4179 28.4372L48.2589 46.1887C49.4295 45.0888 49.3413 43.8674 48.6521 43.1817Z" fill="black"/>
<path d="M45.0232 46.7924L30.2044 28.6496L48.0454 46.4011C46.9399 47.5658 45.7124 47.4781 45.0232 46.7924Z" fill="black"/>
<path d="M34.232 71.5079L30.2252 27.6398V74.9969C32.8954 75.0834 34.232 73.3373 34.232 71.5079Z" fill="black"/>
<path d="M27.5346 6.82278L30.2106 29.7204V5.00161C28.4273 4.95648 27.5346 5.86788 27.5346 6.82278Z" fill="black"/>
<path d="M32.8721 6.82278L30.2106 29.7204V5.00161C31.9842 4.95648 32.8721 5.86788 32.8721 6.82278Z" fill="black"/>
<path d="M26.2038 71.5079L30.2399 27.6398V74.9969C27.5502 75.0834 26.2038 73.3373 26.2038 71.5079Z" fill="black"/>
<path d="M53.604 25.8065L30.2252 28.2218L55.4635 28.2218C55.5095 26.6122 54.579 25.8065 53.604 25.8065Z" fill="black"/>
<path d="M53.604 30.9135L30.2252 28.5128H55.4635C55.5095 30.1127 54.579 30.9135 53.604 30.9135Z" fill="black"/>
<path d="M6.86001 25.8065L30.2252 28.2218L5.00164 28.2218C4.95559 26.6122 5.8856 25.8065 6.86001 25.8065Z" fill="black"/>
<path d="M6.86001 30.9135L30.2252 28.5128H5.00164C4.95559 30.1127 5.8856 30.9135 6.86001 30.9135Z" fill="black"/>
<path d="M11.7998 43.1817L30.0341 28.4372L12.1931 46.1887C11.0225 45.0888 11.1106 43.8674 11.7998 43.1817Z" fill="black"/>
<path d="M15.4288 46.7924L30.2475 28.6496L12.4066 46.4011C13.5121 47.5658 14.7395 47.4781 15.4288 46.7924Z" fill="black"/>
<path d="M48.6521 43.1817L30.4179 28.4372L48.2589 46.1887C49.4295 45.0888 49.3413 43.8674 48.6521 43.1817Z" fill="black"/>
<path d="M45.0232 46.7924L30.2044 28.6496L48.0454 46.4011C46.9399 47.5658 45.7124 47.4781 45.0232 46.7924Z" fill="black"/>
<path d="M34.232 71.5079L30.2252 27.6398V74.9969C32.8954 75.0834 34.232 73.3373 34.232 71.5079Z" fill="black"/>
<path d="M27.5346 6.82278L30.2106 29.7204V5.00161C28.4273 4.95648 27.5346 5.86788 27.5346 6.82278Z" fill="black"/>
<path d="M32.8721 6.82278L30.2106 29.7204V5.00161C31.9842 4.95648 32.8721 5.86788 32.8721 6.82278Z" fill="black"/>
<path d="M30.2252 28.2218L53.604 25.8065C54.579 25.8065 55.5095 26.6122 55.4635 28.2218L30.2252 28.2218ZM30.2252 28.2218L6.86001 25.8065C5.8856 25.8065 4.95559 26.6122 5.00164 28.2218L30.2252 28.2218ZM30.2252 28.5128L53.604 30.9135C54.579 30.9135 55.5095 30.1127 55.4635 28.5128H30.2252ZM30.2252 28.5128L6.86001 30.9135C5.8856 30.9135 4.95559 30.1127 5.00164 28.5128H30.2252ZM30.2106 29.7204L27.5346 6.82278C27.5346 5.86788 28.4273 4.95648 30.2106 5.00161M30.2106 29.7204V5.00161M30.2106 29.7204L32.8721 6.82278C32.8721 5.86788 31.9842 4.95648 30.2106 5.00161M30.2399 27.6398L26.2038 71.5079C26.2038 73.3373 27.5502 75.0834 30.2399 74.9969V27.6398ZM30.0341 28.4372L11.7998 43.1817C11.1106 43.8674 11.0225 45.0888 12.1931 46.1887L30.0341 28.4372ZM30.2475 28.6496L15.4288 46.7924C14.7395 47.4781 13.5121 47.5658 12.4066 46.4011L30.2475 28.6496ZM30.4179 28.4372L48.6521 43.1817C49.3413 43.8674 49.4295 45.0888 48.2589 46.1887L30.4179 28.4372ZM30.2044 28.6496L45.0232 46.7924C45.7124 47.4781 46.9399 47.5658 48.0454 46.4011L30.2044 28.6496ZM30.2252 27.6398L34.232 71.5079C34.232 73.3373 32.8954 75.0834 30.2252 74.9969V27.6398Z" stroke="black" stroke-width="8.13953"/>
</svg>
