<svg width="924" height="60" viewBox="0 0 924 60" fill="none" xmlns="http://www.w3.org/2000/svg">
<path d="M16.0252 43.8548L18.5045 16.9073V45.9981C16.8523 46.0512 16.0252 44.9786 16.0252 43.8548Z" fill="black"/>
<path d="M32.8568 15.7811L18.4955 17.2648L33.999 17.2648C34.0273 16.2761 33.4557 15.7811 32.8568 15.7811Z" fill="black"/>
<path d="M32.8568 18.9183L18.4955 17.4436H33.999C34.0273 18.4263 33.4557 18.9183 32.8568 18.9183Z" fill="black"/>
<path d="M4.14258 15.7811L18.4955 17.2648L3.00101 17.2648C2.97272 16.2761 3.54401 15.7811 4.14258 15.7811Z" fill="black"/>
<path d="M4.14258 18.9183L18.4955 17.4436H3.00101C2.97272 18.4263 3.54401 18.9183 4.14258 18.9183Z" fill="black"/>
<path d="M7.17705 26.4545L18.3781 17.3971L7.41863 28.3016C6.69955 27.626 6.75368 26.8757 7.17705 26.4545Z" fill="black"/>
<path d="M9.40624 28.6725L18.5092 17.5276L7.54976 28.4321C8.22883 29.1476 8.98286 29.0937 9.40624 28.6725Z" fill="black"/>
<path d="M29.8149 26.4545L18.6139 17.3971L29.5733 28.3016C30.2924 27.626 30.2383 26.8757 29.8149 26.4545Z" fill="black"/>
<path d="M27.5857 28.6725L18.4827 17.5276L29.4422 28.4321C28.7631 29.1476 28.0091 29.0937 27.5857 28.6725Z" fill="black"/>
<path d="M20.9568 43.8548L18.4955 16.9073V45.9981C20.1357 46.0512 20.9568 44.9786 20.9568 43.8548Z" fill="black"/>
<path d="M16.8427 4.11971L18.4865 18.1854V3.00099C17.391 2.97327 16.8427 3.53312 16.8427 4.11971Z" fill="black"/>
<path d="M20.1214 4.11971L18.4865 18.1854V3.00099C19.576 2.97327 20.1214 3.53312 20.1214 4.11971Z" fill="black"/>
<path d="M16.0252 43.8548L18.5045 16.9073V45.9981C16.8523 46.0512 16.0252 44.9786 16.0252 43.8548Z" fill="black"/>
<path d="M32.8568 15.7811L18.4955 17.2648L33.999 17.2648C34.0273 16.2761 33.4557 15.7811 32.8568 15.7811Z" fill="black"/>
<path d="M32.8568 18.9183L18.4955 17.4436H33.999C34.0273 18.4263 33.4557 18.9183 32.8568 18.9183Z" fill="black"/>
<path d="M4.14258 15.7811L18.4955 17.2648L3.00101 17.2648C2.97272 16.2761 3.54401 15.7811 4.14258 15.7811Z" fill="black"/>
<path d="M4.14258 18.9183L18.4955 17.4436H3.00101C2.97272 18.4263 3.54401 18.9183 4.14258 18.9183Z" fill="black"/>
<path d="M7.17705 26.4545L18.3781 17.3971L7.41863 28.3016C6.69955 27.626 6.75368 26.8757 7.17705 26.4545Z" fill="black"/>
<path d="M9.40624 28.6725L18.5092 17.5276L7.54976 28.4321C8.22883 29.1476 8.98286 29.0937 9.40624 28.6725Z" fill="black"/>
<path d="M29.8149 26.4545L18.6139 17.3971L29.5733 28.3016C30.2924 27.626 30.2383 26.8757 29.8149 26.4545Z" fill="black"/>
<path d="M27.5857 28.6725L18.4827 17.5276L29.4422 28.4321C28.7631 29.1476 28.0091 29.0937 27.5857 28.6725Z" fill="black"/>
<path d="M20.9568 43.8548L18.4955 16.9073V45.9981C20.1357 46.0512 20.9568 44.9786 20.9568 43.8548Z" fill="black"/>
<path d="M16.8427 4.11971L18.4865 18.1854V3.00099C17.391 2.97327 16.8427 3.53312 16.8427 4.11971Z" fill="black"/>
<path d="M20.1214 4.11971L18.4865 18.1854V3.00099C19.576 2.97327 20.1214 3.53312 20.1214 4.11971Z" fill="black"/>
<path d="M18.4955 17.2648L32.8568 15.7811C33.4557 15.7811 34.0273 16.2761 33.999 17.2648L18.4955 17.2648ZM18.4955 17.2648L4.14258 15.7811C3.54401 15.7811 2.97272 16.2761 3.00101 17.2648L18.4955 17.2648ZM18.4955 17.4436L32.8568 18.9183C33.4557 18.9183 34.0273 18.4263 33.999 17.4436H18.4955ZM18.4955 17.4436L4.14258 18.9183C3.54401 18.9183 2.97272 18.4263 3.00101 17.4436H18.4955ZM18.4865 18.1854L16.8427 4.11971C16.8427 3.53312 17.391 2.97327 18.4865 3.00099M18.4865 18.1854V3.00099M18.4865 18.1854L20.1214 4.11971C20.1214 3.53312 19.576 2.97327 18.4865 3.00099M18.5045 16.9073L16.0252 43.8548C16.0252 44.9786 16.8523 46.0512 18.5045 45.9981V16.9073ZM18.3781 17.3971L7.17705 26.4545C6.75368 26.8757 6.69955 27.626 7.41863 28.3016L18.3781 17.3971ZM18.5092 17.5276L9.40624 28.6725C8.98286 29.0937 8.22883 29.1476 7.54976 28.4321L18.5092 17.5276ZM18.6139 17.3971L29.8149 26.4545C30.2383 26.8757 30.2924 27.626 29.5733 28.3016L18.6139 17.3971ZM18.4827 17.5276L27.5857 28.6725C28.0091 29.0937 28.7631 29.1476 29.4422 28.4321L18.4827 17.5276ZM18.4955 16.9073L20.9568 43.8548C20.9568 44.9786 20.1357 46.0512 18.4955 45.9981V16.9073Z" stroke="black" stroke-width="5"/>
<path d="M53.3083 6.38334H55.0778V8.15278H56.8472V9.92223H58.6167V13.4611H60.3861V15.2306H56.8472V13.4611H55.0778V9.92223H51.5389V15.2306H48V2.84446H51.5389V8.15278H53.3083V6.38334ZM60.3861 2.84446V4.6139H58.6167V6.38334H55.0778V4.6139H56.8472V2.84446H60.3861ZM62.4387 15.2306V6.38334H65.9775V9.92223H71.2859V6.38334H74.8248V15.2306H71.2859V11.6917H65.9775V15.2306H62.4387ZM80.4162 11.6917H82.1856V13.4611H80.4162V15.2306H76.8773V6.38334H80.4162V11.6917ZM89.2634 6.38334V15.2306H85.7245V9.92223H83.9551V8.15278H85.7245V6.38334H89.2634ZM82.1856 9.92223H83.9551V11.6917H82.1856V9.92223ZM91.316 15.2306V11.6917H93.0854V9.92223H91.316V6.38334H94.8548V9.92223H96.6243V6.38334H98.3937V9.92223H100.163V6.38334H103.702V9.92223H101.933V11.6917H103.702V15.2306H100.163V11.6917H98.3937V15.2306H96.6243V11.6917H94.8548V15.2306H91.316ZM112.832 8.15278H114.602V9.92223H116.371V11.6917H118.141V15.2306H114.602V11.6917H109.294V15.2306H105.755V6.38334H109.294V9.92223H112.832V8.15278ZM118.141 6.38334V8.15278H114.602V6.38334H118.141ZM121.963 15.2306V13.4611H120.193V11.6917H121.963V9.92223H129.04V8.15278H121.963V6.38334H130.81V8.15278H132.579V15.2306H121.963ZM123.732 13.4611H129.04V11.6917H123.732V13.4611ZM149.071 15.2306V6.38334H161.457V15.2306H157.918V8.15278H152.609V15.2306H149.071ZM165.279 15.2306V13.4611H163.509V8.15278H165.279V6.38334H174.126V8.15278H175.895V13.4611H174.126V15.2306H165.279ZM167.048 13.4611H172.356V8.15278H167.048V13.4611ZM179.717 15.2306V13.4611H177.948V8.15278H179.717V6.38334H188.565V8.15278H190.334V9.92223H186.795V8.15278H181.487V13.4611H186.795V11.6917H190.334V13.4611H188.565V15.2306H179.717ZM192.387 15.2306V6.38334H203.003V8.15278H204.773V9.92223H203.003V11.6917H204.773V13.4611H203.003V15.2306H192.387ZM195.925 9.92223H201.234V8.15278H195.925V9.92223ZM195.925 13.4611H201.234V11.6917H195.925V13.4611ZM206.825 15.2306V11.6917H208.595V9.92223H206.825V8.15278H208.595V6.38334H219.211V15.2306H215.672V11.6917H210.364V15.2306H206.825ZM210.364 9.92223H215.672V8.15278H210.364V9.92223ZM231.881 17V15.2306H221.264V6.38334H224.803V13.4611H226.572V6.38334H228.342V13.4611H230.111V6.38334H233.65V13.4611H235.419V17H231.881ZM237.472 15.2306V13.4611H235.703V8.15278H237.472V6.38334H246.319V8.15278H248.089V11.6917H239.241V13.4611H246.319V15.2306H237.472ZM239.241 9.92223H244.55V8.15278H239.241V9.92223ZM250.141 15.2306V6.38334H253.68V9.92223H258.988V6.38334H262.527V15.2306H258.988V11.6917H253.68V15.2306H250.141ZM264.58 15.2306V6.38334H268.119V9.92223H273.427V6.38334H276.966V15.2306H273.427V11.6917H268.119V15.2306H264.58ZM280.788 15.2306V13.4611H279.018V11.6917H280.788V9.92223H287.866V8.15278H280.788V6.38334H289.635V8.15278H291.405V15.2306H280.788ZM282.557 13.4611H287.866V11.6917H282.557V13.4611ZM293.457 15.2306V11.6917H295.227V9.92223H293.457V8.15278H295.227V6.38334H305.843V15.2306H302.304V11.6917H296.996V15.2306H293.457ZM296.996 9.92223H302.304V8.15278H296.996V9.92223ZM322.334 15.2306V6.38334H334.721V15.2306H331.182V8.15278H325.873V15.2306H322.334ZM349.159 8.15278V13.4611H347.39V15.2306H340.312V17H336.773V6.38334H340.312V8.15278H342.081V9.92223H340.312V13.4611H345.62V8.15278H342.081V6.38334H347.39V8.15278H349.159ZM352.981 15.2306V13.4611H351.212V8.15278H352.981V6.38334H361.828V8.15278H363.598V13.4611H361.828V15.2306H352.981ZM354.751 13.4611H360.059V8.15278H354.751V13.4611ZM367.42 15.2306V13.4611H365.65V8.15278H367.42V6.38334H376.267V8.15278H378.037V9.92223H374.498V8.15278H369.189V13.4611H374.498V11.6917H378.037V13.4611H376.267V15.2306H367.42ZM385.397 15.2306V8.15278H381.859V6.38334H392.475V8.15278H388.936V15.2306H385.397ZM406.914 8.15278V13.4611H405.144V15.2306H398.067V17H394.528V6.38334H398.067V8.15278H399.836V9.92223H398.067V13.4611H403.375V8.15278H399.836V6.38334H405.144V8.15278H406.914ZM410.736 15.2306V13.4611H408.966V11.6917H410.736V9.92223H417.814V8.15278H410.736V6.38334H419.583V8.15278H421.352V15.2306H410.736ZM412.505 13.4611H417.814V11.6917H412.505V13.4611ZM423.405 15.2306V6.38334H426.944V9.92223H432.252V6.38334H435.791V15.2306H432.252V11.6917H426.944V15.2306H423.405ZM439.613 15.2306V13.4611H437.844V8.15278H439.613V6.38334H448.46V8.15278H450.23V9.92223H446.691V8.15278H441.383V13.4611H446.691V11.6917H450.23V13.4611H448.46V15.2306H439.613ZM457.591 15.2306V8.15278H454.052V6.38334H464.668V8.15278H461.13V15.2306H457.591ZM466.721 15.2306V6.38334H477.338V8.15278H479.107V9.92223H477.338V11.6917H479.107V13.4611H477.338V15.2306H466.721ZM470.26 9.92223H475.568V8.15278H470.26V9.92223ZM470.26 13.4611H475.568V11.6917H470.26V13.4611ZM482.929 17V15.2306H490.007V13.4611H482.929V11.6917H481.16V6.38334H484.699V11.6917H490.007V6.38334H493.546V15.2306H491.776V17H482.929ZM511.806 15.2306V13.4611H510.037V8.15278H511.806V6.38334H520.654V8.15278H522.423V13.4611H520.654V15.2306H511.806ZM513.576 13.4611H518.884V8.15278H513.576V13.4611ZM529.784 17V15.2306H526.245V13.4611H524.476V8.15278H526.245V6.38334H529.784V4.6139H531.553V6.38334H535.092V8.15278H536.862V13.4611H535.092V15.2306H531.553V17H529.784ZM528.015 13.4611H529.784V8.15278H528.015V13.4611ZM531.553 13.4611H533.323V8.15278H531.553V13.4611ZM542.453 11.6917H544.223V13.4611H542.453V15.2306H538.914V6.38334H542.453V11.6917ZM551.3 6.38334V15.2306H547.761V9.92223H545.992V8.15278H547.761V6.38334H551.3ZM544.223 9.92223H545.992V11.6917H544.223V9.92223ZM555.122 15.2306V13.4611H553.353V8.15278H555.122V6.38334H563.97V8.15278H565.739V9.92223H562.2V8.15278H556.892V13.4611H562.2V11.6917H565.739V13.4611H563.97V15.2306H555.122ZM569.561 15.2306V13.4611H567.792V11.6917H569.561V9.92223H576.639V8.15278H569.561V6.38334H578.408V8.15278H580.178V15.2306H569.561ZM571.33 13.4611H576.639V11.6917H571.33V13.4611ZM601.977 15.2306V9.92223H600.208V8.15278H598.438V2.84446H601.977V8.15278H605.516V2.84446H609.055V8.15278H607.286V9.92223H605.516V15.2306H601.977ZM612.877 15.2306V13.4611H611.108V2.84446H614.646V13.4611H619.955V2.84446H623.494V13.4611H621.724V15.2306H612.877ZM625.546 15.2306V2.84446H629.085V8.15278H630.855V6.38334H632.624V4.6139H634.393V2.84446H637.932V4.6139H636.163V6.38334H634.393V8.15278H632.624V9.92223H634.393V11.6917H636.163V13.4611H637.932V15.2306H632.624V13.4611H630.855V11.6917H629.085V15.2306H625.546ZM641.754 15.2306V13.4611H645.293V4.6139H641.754V2.84446H652.371V4.6139H648.832V13.4611H652.371V15.2306H641.754ZM672.401 11.6917H674.171V13.4611H672.401V15.2306H668.862V6.38334H672.401V11.6917ZM681.248 6.38334V15.2306H677.709V9.92223H675.94V8.15278H677.709V6.38334H681.248ZM674.171 9.92223H675.94V11.6917H674.171V9.92223ZM685.07 15.2306V13.4611H683.301V11.6917H686.84V13.4611H692.148V11.6917H688.609V9.92223H692.148V8.15278H686.84V9.92223H683.301V8.15278H685.07V6.38334H693.918V8.15278H695.687V9.92223H693.918V11.6917H695.687V13.4611H693.918V15.2306H685.07ZM713.948 15.2306V13.4611H712.178V11.6917H715.717V13.4611H721.025V9.92223H715.717V8.15278H717.486V6.38334H719.256V4.6139H713.948V2.84446H724.564V4.6139H722.795V6.38334H721.025V8.15278H722.795V9.92223H724.564V13.4611H722.795V15.2306H713.948ZM728.386 9.92223V8.15278H739.003V9.92223H728.386ZM742.825 15.2306V13.4611H741.055V8.15278H742.825V6.38334H751.672V8.15278H753.442V11.6917H744.594V13.4611H751.672V15.2306H742.825ZM744.594 9.92223H749.903V8.15278H744.594V9.92223ZM757.264 15.2306V6.38334H767.88V9.92223H766.111V8.15278H760.802V15.2306H757.264ZM771.702 15.2306V13.4611H769.933V8.15278H771.702V6.38334H780.549V8.15278H782.319V13.4611H780.549V15.2306H771.702ZM773.472 13.4611H778.78V8.15278H773.472V13.4611ZM804.118 8.15278V9.92223H802.349V15.2306H798.81V6.38334H802.349V8.15278H804.118ZM811.196 6.38334V15.2306H807.657V9.92223H805.888V8.15278H807.657V6.38334H811.196ZM804.118 9.92223H805.888V13.4611H804.118V9.92223ZM815.018 15.2306V13.4611H813.249V8.15278H815.018V6.38334H823.865V8.15278H825.635V13.4611H823.865V15.2306H815.018ZM816.788 13.4611H822.096V8.15278H816.788V13.4611ZM840.073 13.4611H841.843V17H838.304V15.2306H831.226V17H827.687V13.4611H829.457V11.6917H831.226V6.38334H840.073V13.4611ZM832.996 13.4611H836.535V8.15278H832.996V13.4611ZM843.895 17V15.2306H850.973V13.4611H843.895V11.6917H842.126V6.38334H845.665V11.6917H850.973V6.38334H854.512V15.2306H852.743V17H843.895ZM868.951 6.38334V15.2306H865.412V8.15278H861.873V13.4611H860.104V15.2306H856.565V11.6917H858.334V9.92223H860.104V6.38334H868.951ZM871.003 15.2306V11.6917H872.773V9.92223H871.003V8.15278H872.773V6.38334H883.389V15.2306H879.851V11.6917H874.542V15.2306H871.003ZM874.542 9.92223H879.851V8.15278H874.542V9.92223ZM888.981 15.2306V11.6917H892.52V15.2306H888.981ZM49.7694 29.2306V27.4611H48V25.6917H51.5389V27.4611H56.8472V23.9222H51.5389V22.1528H56.8472V18.6139H51.5389V20.3833H48V18.6139H49.7694V16.8445H58.6167V18.6139H60.3861V22.1528H58.6167V23.9222H60.3861V27.4611H58.6167V29.2306H49.7694ZM74.8248 27.4611H76.5942V31H73.0553V29.2306H65.9775V31H62.4387V27.4611H64.2081V25.6917H65.9775V20.3833H74.8248V27.4611ZM67.747 27.4611H71.2859V22.1528H67.747V27.4611ZM78.6468 29.2306V27.4611H76.8773V22.1528H78.6468V20.3833H87.494V22.1528H89.2634V25.6917H80.4162V27.4611H87.494V29.2306H78.6468ZM80.4162 23.9222H85.7245V22.1528H80.4162V23.9222ZM93.0854 29.2306V27.4611H91.316V22.1528H93.0854V20.3833H101.933V22.1528H103.702V23.9222H100.163V22.1528H94.8548V27.4611H100.163V25.6917H103.702V27.4611H101.933V29.2306H93.0854ZM105.755 29.2306V20.3833H109.294V23.9222H116.371V25.6917H118.141V27.4611H116.371V29.2306H105.755ZM109.294 27.4611H114.602V25.6917H109.294V27.4611ZM134.632 29.2306V20.3833H147.018V29.2306H143.479V22.1528H138.171V29.2306H134.632ZM161.457 22.1528V27.4611H159.687V29.2306H152.609V31H149.071V20.3833H152.609V22.1528H154.379V23.9222H152.609V27.4611H157.918V22.1528H154.379V20.3833H159.687V22.1528H161.457ZM165.279 29.2306V27.4611H163.509V22.1528H165.279V20.3833H174.126V22.1528H175.895V25.6917H167.048V27.4611H174.126V29.2306H165.279ZM167.048 23.9222H172.356V22.1528H167.048V23.9222ZM190.334 27.4611H192.103V31H188.565V29.2306H181.487V31H177.948V27.4611H179.717V25.6917H181.487V20.3833H190.334V27.4611ZM183.256 27.4611H186.795V22.1528H183.256V27.4611ZM194.156 29.2306V27.4611H192.387V22.1528H194.156V20.3833H203.003V22.1528H204.773V23.9222H201.234V22.1528H195.925V27.4611H201.234V25.6917H204.773V27.4611H203.003V29.2306H194.156ZM212.134 29.2306V22.1528H208.595V20.3833H219.211V22.1528H215.672V29.2306H212.134ZM223.033 29.2306V27.4611H221.264V25.6917H223.033V23.9222H230.111V22.1528H223.033V20.3833H231.881V22.1528H233.65V29.2306H223.033ZM224.803 27.4611H230.111V25.6917H224.803V27.4611ZM235.703 29.2306V20.3833H246.319V22.1528H248.089V23.9222H246.319V25.6917H248.089V27.4611H246.319V29.2306H235.703ZM239.241 23.9222H244.55V22.1528H239.241V23.9222ZM239.241 27.4611H244.55V25.6917H239.241V27.4611ZM262.527 20.3833V29.2306H258.988V22.1528H255.45V27.4611H253.68V29.2306H250.141V25.6917H251.911V23.9222H253.68V20.3833H262.527ZM266.349 29.2306V27.4611H264.58V22.1528H266.349V20.3833H275.196V22.1528H276.966V25.6917H268.119V27.4611H275.196V29.2306H266.349ZM268.119 23.9222H273.427V22.1528H268.119V23.9222ZM279.018 29.2306V20.3833H282.557V23.9222H287.866V20.3833H291.405V29.2306H287.866V25.6917H282.557V29.2306H279.018ZM293.457 29.2306V20.3833H296.996V23.9222H300.535V29.2306H293.457ZM302.304 29.2306V20.3833H305.843V29.2306H302.304ZM296.996 27.4611H298.765V25.6917H296.996V27.4611ZM324.104 29.2306V27.4611H322.334V22.1528H324.104V20.3833H332.951V22.1528H334.721V27.4611H332.951V29.2306H324.104ZM325.873 27.4611H331.182V22.1528H325.873V27.4611ZM349.159 27.4611H350.929V31H347.39V29.2306H340.312V31H336.773V27.4611H338.543V25.6917H340.312V20.3833H349.159V27.4611ZM342.081 27.4611H345.62V22.1528H342.081V27.4611ZM351.212 29.2306V20.3833H354.751V23.9222H360.059V20.3833H363.598V29.2306H360.059V25.6917H354.751V29.2306H351.212ZM369.189 25.6917H370.959V27.4611H369.189V29.2306H365.65V20.3833H369.189V25.6917ZM378.037 20.3833V29.2306H374.498V23.9222H372.728V22.1528H374.498V20.3833H378.037ZM370.959 23.9222H372.728V25.6917H370.959V23.9222ZM398.067 25.6917H399.836V27.4611H398.067V29.2306H394.528V20.3833H398.067V25.6917ZM406.914 20.3833V29.2306H403.375V23.9222H401.605V22.1528H403.375V20.3833H406.914ZM399.836 23.9222H401.605V25.6917H399.836V23.9222ZM425.174 29.2306V27.4611H423.405V22.1528H425.174V20.3833H434.022V22.1528H435.791V23.9222H432.252V22.1528H426.944V27.4611H432.252V25.6917H435.791V27.4611H434.022V29.2306H425.174ZM439.613 29.2306V27.4611H437.844V25.6917H439.613V23.9222H446.691V22.1528H439.613V20.3833H448.46V22.1528H450.23V29.2306H439.613ZM441.383 27.4611H446.691V25.6917H441.383V27.4611ZM457.591 22.1528V23.9222H455.821V29.2306H452.282V20.3833H455.821V22.1528H457.591ZM464.668 20.3833V29.2306H461.13V23.9222H459.36V22.1528H461.13V20.3833H464.668ZM457.591 23.9222H459.36V27.4611H457.591V23.9222ZM466.721 29.2306V20.3833H470.26V23.9222H473.799V29.2306H466.721ZM475.568 29.2306V20.3833H479.107V29.2306H475.568ZM470.26 27.4611H472.029V25.6917H470.26V27.4611ZM481.16 29.2306V27.4611H482.929V25.6917H484.699V23.9222H482.929V22.1528H481.16V20.3833H484.699V22.1528H486.468V23.9222H488.237V22.1528H490.007V20.3833H493.546V22.1528H491.776V23.9222H490.007V25.6917H491.776V27.4611H493.546V29.2306H490.007V27.4611H488.237V25.6917H486.468V27.4611H484.699V29.2306H481.16ZM511.806 29.2306V27.4611H510.037V25.6917H513.576V27.4611H518.884V25.6917H515.345V23.9222H518.884V22.1528H513.576V23.9222H510.037V22.1528H511.806V20.3833H520.654V22.1528H522.423V23.9222H520.654V25.6917H522.423V27.4611H520.654V29.2306H511.806ZM526.245 29.2306V27.4611H524.476V25.6917H526.245V23.9222H533.323V22.1528H526.245V20.3833H535.092V22.1528H536.862V29.2306H526.245ZM528.015 27.4611H533.323V25.6917H528.015V27.4611ZM538.914 29.2306V20.3833H551.3V29.2306H547.761V22.1528H542.453V29.2306H538.914ZM555.122 29.2306V27.4611H553.353V22.1528H555.122V20.3833H563.97V22.1528H565.739V27.4611H563.97V29.2306H555.122ZM556.892 27.4611H562.2V22.1528H556.892V27.4611ZM573.1 22.1528V23.9222H571.33V29.2306H567.792V20.3833H571.33V22.1528H573.1ZM580.178 20.3833V29.2306H576.639V23.9222H574.869V22.1528H576.639V20.3833H580.178ZM573.1 23.9222H574.869V27.4611H573.1V23.9222ZM582.23 29.2306V20.3833H585.769V23.9222H591.077V20.3833H594.616V29.2306H591.077V25.6917H585.769V29.2306H582.23ZM600.208 25.6917H601.977V27.4611H600.208V29.2306H596.669V20.3833H600.208V25.6917ZM609.055 20.3833V29.2306H605.516V23.9222H603.747V22.1528H605.516V20.3833H609.055ZM601.977 23.9222H603.747V25.6917H601.977V23.9222ZM611.108 29.2306V20.3833H621.724V22.1528H623.494V23.9222H621.724V25.6917H623.494V27.4611H621.724V29.2306H611.108ZM614.646 23.9222H619.955V22.1528H614.646V23.9222ZM614.646 27.4611H619.955V25.6917H614.646V27.4611ZM625.546 29.2306V20.3833H629.085V27.4611H630.855V20.3833H632.624V27.4611H634.393V20.3833H637.932V29.2306H625.546ZM643.524 25.6917H645.293V27.4611H643.524V29.2306H639.985V20.3833H643.524V25.6917ZM652.371 20.3833V29.2306H648.832V23.9222H647.063V22.1528H648.832V20.3833H652.371ZM645.293 23.9222H647.063V25.6917H645.293V23.9222ZM654.424 29.2306V27.4611H656.193V25.6917H657.962V23.9222H656.193V22.1528H654.424V20.3833H657.962V22.1528H659.732V23.9222H661.501V22.1528H663.271V20.3833H666.81V22.1528H665.04V23.9222H663.271V25.6917H665.04V27.4611H666.81V29.2306H663.271V27.4611H661.501V25.6917H659.732V27.4611H657.962V29.2306H654.424ZM670.632 29.2306V27.4611H668.862V22.1528H670.632V20.3833H679.479V22.1528H681.248V23.9222H677.709V22.1528H672.401V27.4611H677.709V25.6917H681.248V27.4611H679.479V29.2306H670.632ZM683.301 29.2306V25.6917H685.07V23.9222H683.301V22.1528H685.07V20.3833H695.687V29.2306H692.148V25.6917H686.84V29.2306H683.301ZM686.84 23.9222H692.148V22.1528H686.84V23.9222ZM717.486 22.1528V23.9222H715.717V29.2306H712.178V20.3833H715.717V22.1528H717.486ZM724.564 20.3833V29.2306H721.025V23.9222H719.256V22.1528H721.025V20.3833H724.564ZM717.486 23.9222H719.256V27.4611H717.486V23.9222ZM726.617 29.2306V20.3833H730.156V23.9222H735.464V20.3833H739.003V29.2306H735.464V25.6917H730.156V29.2306H726.617ZM742.825 29.2306V27.4611H741.055V22.1528H742.825V20.3833H751.672V22.1528H753.442V25.6917H744.594V27.4611H751.672V29.2306H742.825ZM744.594 23.9222H749.903V22.1528H744.594V23.9222ZM771.702 29.2306V27.4611H769.933V22.1528H771.702V20.3833H780.549V22.1528H782.319V23.9222H778.78V22.1528H773.472V27.4611H778.78V25.6917H782.319V27.4611H780.549V29.2306H771.702ZM789.68 29.2306V22.1528H786.141V20.3833H796.758V22.1528H793.219V29.2306H789.68ZM811.196 22.1528V27.4611H809.427V29.2306H802.349V31H798.81V20.3833H802.349V22.1528H804.118V23.9222H802.349V27.4611H807.657V22.1528H804.118V20.3833H809.427V22.1528H811.196ZM815.018 29.2306V27.4611H813.249V25.6917H815.018V23.9222H822.096V22.1528H815.018V20.3833H823.865V22.1528H825.635V29.2306H815.018ZM816.788 27.4611H822.096V25.6917H816.788V27.4611ZM827.687 29.2306V20.3833H831.226V23.9222H836.535V20.3833H840.073V29.2306H836.535V25.6917H831.226V29.2306H827.687ZM845.665 25.6917H847.434V27.4611H845.665V29.2306H842.126V20.3833H845.665V25.6917ZM854.512 20.3833V29.2306H850.973V23.9222H849.204V22.1528H850.973V20.3833H854.512ZM847.434 23.9222H849.204V25.6917H847.434V23.9222ZM865.412 31V29.2306H856.565V20.3833H860.104V27.4611H863.642V20.3833H867.181V27.4611H868.951V31H865.412ZM874.542 29.2306V25.6917H878.081V29.2306H874.542Z" fill="black"/>
</svg>
