<svg width="939" height="60" viewBox="0 0 939 60" fill="none" xmlns="http://www.w3.org/2000/svg">
<path d="M16.0252 43.8548L18.5045 16.9073V45.9981C16.8523 46.0512 16.0252 44.9786 16.0252 43.8548Z" fill="black"/>
<path d="M32.8568 15.7811L18.4955 17.2648L33.999 17.2648C34.0273 16.2761 33.4557 15.7811 32.8568 15.7811Z" fill="black"/>
<path d="M32.8568 18.9183L18.4955 17.4436H33.999C34.0273 18.4263 33.4557 18.9183 32.8568 18.9183Z" fill="black"/>
<path d="M4.14258 15.7811L18.4955 17.2648L3.00101 17.2648C2.97272 16.2761 3.54401 15.7811 4.14258 15.7811Z" fill="black"/>
<path d="M4.14258 18.9183L18.4955 17.4436H3.00101C2.97272 18.4263 3.54401 18.9183 4.14258 18.9183Z" fill="black"/>
<path d="M7.17705 26.4545L18.3781 17.3971L7.41863 28.3016C6.69955 27.626 6.75368 26.8757 7.17705 26.4545Z" fill="black"/>
<path d="M9.40624 28.6725L18.5092 17.5276L7.54976 28.4321C8.22883 29.1476 8.98286 29.0937 9.40624 28.6725Z" fill="black"/>
<path d="M29.8149 26.4545L18.6139 17.3971L29.5733 28.3016C30.2924 27.626 30.2383 26.8757 29.8149 26.4545Z" fill="black"/>
<path d="M27.5857 28.6725L18.4827 17.5276L29.4422 28.4321C28.7631 29.1476 28.0091 29.0937 27.5857 28.6725Z" fill="black"/>
<path d="M20.9568 43.8548L18.4955 16.9073V45.9981C20.1357 46.0512 20.9568 44.9786 20.9568 43.8548Z" fill="black"/>
<path d="M16.8427 4.11971L18.4865 18.1854V3.00099C17.391 2.97327 16.8427 3.53312 16.8427 4.11971Z" fill="black"/>
<path d="M20.1214 4.11971L18.4865 18.1854V3.00099C19.576 2.97327 20.1214 3.53312 20.1214 4.11971Z" fill="black"/>
<path d="M16.0252 43.8548L18.5045 16.9073V45.9981C16.8523 46.0512 16.0252 44.9786 16.0252 43.8548Z" fill="black"/>
<path d="M32.8568 15.7811L18.4955 17.2648L33.999 17.2648C34.0273 16.2761 33.4557 15.7811 32.8568 15.7811Z" fill="black"/>
<path d="M32.8568 18.9183L18.4955 17.4436H33.999C34.0273 18.4263 33.4557 18.9183 32.8568 18.9183Z" fill="black"/>
<path d="M4.14258 15.7811L18.4955 17.2648L3.00101 17.2648C2.97272 16.2761 3.54401 15.7811 4.14258 15.7811Z" fill="black"/>
<path d="M4.14258 18.9183L18.4955 17.4436H3.00101C2.97272 18.4263 3.54401 18.9183 4.14258 18.9183Z" fill="black"/>
<path d="M7.17705 26.4545L18.3781 17.3971L7.41863 28.3016C6.69955 27.626 6.75368 26.8757 7.17705 26.4545Z" fill="black"/>
<path d="M9.40624 28.6725L18.5092 17.5276L7.54976 28.4321C8.22883 29.1476 8.98286 29.0937 9.40624 28.6725Z" fill="black"/>
<path d="M29.8149 26.4545L18.6139 17.3971L29.5733 28.3016C30.2924 27.626 30.2383 26.8757 29.8149 26.4545Z" fill="black"/>
<path d="M27.5857 28.6725L18.4827 17.5276L29.4422 28.4321C28.7631 29.1476 28.0091 29.0937 27.5857 28.6725Z" fill="black"/>
<path d="M20.9568 43.8548L18.4955 16.9073V45.9981C20.1357 46.0512 20.9568 44.9786 20.9568 43.8548Z" fill="black"/>
<path d="M16.8427 4.11971L18.4865 18.1854V3.00099C17.391 2.97327 16.8427 3.53312 16.8427 4.11971Z" fill="black"/>
<path d="M20.1214 4.11971L18.4865 18.1854V3.00099C19.576 2.97327 20.1214 3.53312 20.1214 4.11971Z" fill="black"/>
<path d="M18.4955 17.2648L32.8568 15.7811C33.4557 15.7811 34.0273 16.2761 33.999 17.2648L18.4955 17.2648ZM18.4955 17.2648L4.14258 15.7811C3.54401 15.7811 2.97272 16.2761 3.00101 17.2648L18.4955 17.2648ZM18.4955 17.4436L32.8568 18.9183C33.4557 18.9183 34.0273 18.4263 33.999 17.4436H18.4955ZM18.4955 17.4436L4.14258 18.9183C3.54401 18.9183 2.97272 18.4263 3.00101 17.4436H18.4955ZM18.4865 18.1854L16.8427 4.11971C16.8427 3.53312 17.391 2.97327 18.4865 3.00099M18.4865 18.1854V3.00099M18.4865 18.1854L20.1214 4.11971C20.1214 3.53312 19.576 2.97327 18.4865 3.00099M18.5045 16.9073L16.0252 43.8548C16.0252 44.9786 16.8523 46.0512 18.5045 45.9981V16.9073ZM18.3781 17.3971L7.17705 26.4545C6.75368 26.8757 6.69955 27.626 7.41863 28.3016L18.3781 17.3971ZM18.5092 17.5276L9.40624 28.6725C8.98286 29.0937 8.22883 29.1476 7.54976 28.4321L18.5092 17.5276ZM18.6139 17.3971L29.8149 26.4545C30.2383 26.8757 30.2924 27.626 29.5733 28.3016L18.6139 17.3971ZM18.4827 17.5276L27.5857 28.6725C28.0091 29.0937 28.7631 29.1476 29.4422 28.4321L18.4827 17.5276ZM18.4955 16.9073L20.9568 43.8548C20.9568 44.9786 20.1357 46.0512 18.4955 45.9981V16.9073Z" stroke="black" stroke-width="5"/>
<path d="M48 15.2306V2.84446H58.6167V4.6139H60.3861V8.15278H58.6167V9.92223H60.3861V13.4611H58.6167V15.2306H48ZM51.5389 8.15278H56.8472V4.6139H51.5389V8.15278ZM51.5389 13.4611H56.8472V9.92223H51.5389V13.4611ZM62.4387 15.2306V6.38334H65.9775V9.92223H71.2859V6.38334H74.8248V15.2306H71.2859V11.6917H65.9775V15.2306H62.4387ZM78.6468 15.2306V13.4611H76.8773V8.15278H78.6468V6.38334H87.494V8.15278H89.2634V11.6917H80.4162V13.4611H87.494V15.2306H78.6468ZM80.4162 9.92223H85.7245V8.15278H80.4162V9.92223ZM91.316 15.2306V6.38334H94.8548V13.4611H96.6243V6.38334H98.3937V13.4611H100.163V6.38334H103.702V15.2306H91.316ZM105.755 15.2306V6.38334H109.294V9.92223H114.602V6.38334H118.141V15.2306H114.602V11.6917H109.294V15.2306H105.755ZM123.732 11.6917H125.502V13.4611H123.732V15.2306H120.193V6.38334H123.732V11.6917ZM132.579 6.38334V15.2306H129.04V9.92223H127.271V8.15278H129.04V6.38334H132.579ZM125.502 9.92223H127.271V11.6917H125.502V9.92223ZM145.249 2.84446V4.6139H136.401V2.84446H145.249ZM138.171 11.6917H139.94V13.4611H138.171V15.2306H134.632V6.38334H138.171V11.6917ZM147.018 6.38334V15.2306H143.479V9.92223H141.71V8.15278H143.479V6.38334H147.018ZM139.94 9.92223H141.71V11.6917H139.94V9.92223ZM163.509 15.2306V6.38334H174.126V8.15278H175.895V9.92223H174.126V11.6917H175.895V13.4611H174.126V15.2306H163.509ZM167.048 9.92223H172.356V8.15278H167.048V9.92223ZM167.048 13.4611H172.356V11.6917H167.048V13.4611ZM181.487 11.6917H183.256V13.4611H181.487V15.2306H177.948V6.38334H181.487V11.6917ZM190.334 6.38334V15.2306H186.795V9.92223H185.026V8.15278H186.795V6.38334H190.334ZM183.256 9.92223H185.026V11.6917H183.256V9.92223ZM204.773 13.4611H206.542V17H203.003V15.2306H195.925V17H192.387V13.4611H194.156V11.6917H195.925V6.38334H204.773V13.4611ZM197.695 13.4611H201.234V8.15278H197.695V13.4611ZM233.65 6.38334V15.2306H230.111V8.15278H226.572V13.4611H224.803V15.2306H221.264V11.6917H223.033V9.92223H224.803V6.38334H233.65ZM237.472 15.2306V13.4611H235.703V8.15278H237.472V6.38334H246.319V8.15278H248.089V13.4611H246.319V15.2306H237.472ZM239.241 13.4611H244.55V8.15278H239.241V13.4611ZM251.911 15.2306V6.38334H262.527V9.92223H260.758V8.15278H255.45V15.2306H251.911ZM266.349 15.2306V13.4611H264.58V8.15278H266.349V6.38334H275.196V8.15278H276.966V13.4611H275.196V15.2306H266.349ZM268.119 13.4611H273.427V8.15278H268.119V13.4611ZM284.327 15.2306V8.15278H280.788V6.38334H291.405V8.15278H287.866V15.2306H284.327ZM296.996 11.6917H298.765V13.4611H296.996V15.2306H293.457V6.38334H296.996V11.6917ZM305.843 6.38334V15.2306H302.304V9.92223H300.535V8.15278H302.304V6.38334H305.843ZM298.765 9.92223H300.535V11.6917H298.765V9.92223ZM307.896 15.2306V6.38334H320.282V15.2306H316.743V8.15278H311.435V15.2306H307.896ZM324.104 15.2306V13.4611H322.334V11.6917H324.104V9.92223H331.182V8.15278H324.104V6.38334H332.951V8.15278H334.721V15.2306H324.104ZM325.873 13.4611H331.182V11.6917H325.873V13.4611ZM351.212 15.2306V6.38334H363.598V15.2306H360.059V8.15278H354.751V15.2306H351.212ZM367.42 15.2306V13.4611H365.65V8.15278H367.42V6.38334H376.267V8.15278H378.037V11.6917H369.189V13.4611H376.267V15.2306H367.42ZM369.189 9.92223H374.498V8.15278H369.189V9.92223ZM392.475 8.15278V13.4611H390.706V15.2306H383.628V17H380.089V6.38334H383.628V8.15278H385.397V9.92223H383.628V13.4611H388.936V8.15278H385.397V6.38334H390.706V8.15278H392.475ZM396.297 15.2306V13.4611H394.528V8.15278H396.297V6.38334H405.144V8.15278H406.914V11.6917H398.067V13.4611H405.144V15.2306H396.297ZM398.067 9.92223H403.375V8.15278H398.067V9.92223ZM408.966 15.2306V11.6917H410.736V9.92223H408.966V6.38334H412.505V9.92223H414.275V6.38334H416.044V9.92223H417.814V6.38334H421.352V9.92223H419.583V11.6917H421.352V15.2306H417.814V11.6917H416.044V15.2306H414.275V11.6917H412.505V15.2306H408.966ZM426.944 11.6917H428.713V13.4611H426.944V15.2306H423.405V6.38334H426.944V11.6917ZM435.791 6.38334V15.2306H432.252V9.92223H430.483V8.15278H432.252V6.38334H435.791ZM428.713 9.92223H430.483V11.6917H428.713V9.92223ZM450.23 6.38334V15.2306H446.691V8.15278H443.152V13.4611H441.383V15.2306H437.844V11.6917H439.613V9.92223H441.383V6.38334H450.23ZM472.029 15.2306V8.15278H468.49V6.38334H479.107V8.15278H475.568V15.2306H472.029ZM493.546 8.15278V13.4611H491.776V15.2306H484.699V17H481.16V6.38334H484.699V8.15278H486.468V9.92223H484.699V13.4611H490.007V8.15278H486.468V6.38334H491.776V8.15278H493.546ZM499.137 11.6917H500.907V13.4611H499.137V15.2306H495.598V6.38334H499.137V11.6917ZM507.984 6.38334V15.2306H504.446V9.92223H502.676V8.15278H504.446V6.38334H507.984ZM500.907 9.92223H502.676V11.6917H500.907V9.92223ZM536.862 8.15278V13.4611H535.092V15.2306H528.015V17H524.476V6.38334H528.015V8.15278H529.784V9.92223H528.015V13.4611H533.323V8.15278H529.784V6.38334H535.092V8.15278H536.862ZM540.684 15.2306V13.4611H538.914V11.6917H540.684V9.92223H547.761V8.15278H540.684V6.38334H549.531V8.15278H551.3V15.2306H540.684ZM542.453 13.4611H547.761V11.6917H542.453V13.4611ZM555.122 15.2306V13.4611H553.353V11.6917H556.892V13.4611H562.2V11.6917H558.661V9.92223H562.2V8.15278H556.892V9.92223H553.353V8.15278H555.122V6.38334H563.97V8.15278H565.739V9.92223H563.97V11.6917H565.739V13.4611H563.97V15.2306H555.122ZM567.792 15.2306V6.38334H571.33V9.92223H576.639V6.38334H580.178V15.2306H576.639V11.6917H571.33V15.2306H567.792ZM582.23 15.2306V6.38334H585.769V9.92223H589.308V15.2306H582.23ZM591.077 15.2306V6.38334H594.616V15.2306H591.077ZM585.769 13.4611H587.539V11.6917H585.769V13.4611ZM596.669 15.2306V13.4611H598.438V11.6917H600.208V9.92223H598.438V8.15278H596.669V6.38334H600.208V8.15278H601.977V9.92223H603.747V8.15278H605.516V6.38334H609.055V8.15278H607.286V9.92223H605.516V11.6917H607.286V13.4611H609.055V15.2306H605.516V13.4611H603.747V11.6917H601.977V13.4611H600.208V15.2306H596.669ZM625.546 15.2306V6.38334H636.163V8.15278H637.932V9.92223H636.163V11.6917H637.932V13.4611H636.163V15.2306H625.546ZM629.085 9.92223H634.393V8.15278H629.085V9.92223ZM629.085 13.4611H634.393V11.6917H629.085V13.4611ZM643.524 11.6917H645.293V13.4611H643.524V15.2306H639.985V6.38334H643.524V11.6917ZM652.371 6.38334V15.2306H648.832V9.92223H647.063V8.15278H648.832V6.38334H652.371ZM645.293 9.92223H647.063V11.6917H645.293V9.92223ZM656.193 15.2306V13.4611H654.424V11.6917H657.962V13.4611H663.271V11.6917H659.732V9.92223H663.271V8.15278H657.962V9.92223H654.424V8.15278H656.193V6.38334H665.04V8.15278H666.81V9.92223H665.04V11.6917H666.81V13.4611H665.04V15.2306H656.193ZM670.632 17V15.2306H677.709V13.4611H670.632V11.6917H668.862V6.38334H672.401V11.6917H677.709V6.38334H681.248V15.2306H679.479V17H670.632ZM685.07 15.2306V13.4611H683.301V11.6917H685.07V9.92223H692.148V8.15278H685.07V6.38334H693.918V8.15278H695.687V15.2306H685.07ZM686.84 13.4611H692.148V11.6917H686.84V13.4611ZM710.126 6.38334V15.2306H706.587V8.15278H703.048V13.4611H701.278V15.2306H697.74V11.6917H699.509V9.92223H701.278V6.38334H710.126ZM712.178 15.2306V6.38334H715.717V9.92223H722.795V11.6917H724.564V13.4611H722.795V15.2306H712.178ZM715.717 13.4611H721.025V11.6917H715.717V13.4611ZM726.617 15.2306V6.38334H730.156V9.92223H735.464V6.38334H739.003V15.2306H735.464V11.6917H730.156V15.2306H726.617ZM741.055 15.2306V6.38334H744.594V9.92223H748.133V15.2306H741.055ZM749.903 15.2306V6.38334H753.442V15.2306H749.903ZM744.594 13.4611H746.364V11.6917H744.594V13.4611ZM755.494 15.2306V13.4611H757.264V11.6917H759.033V9.92223H757.264V8.15278H755.494V6.38334H759.033V8.15278H760.802V9.92223H762.572V8.15278H764.341V6.38334H767.88V8.15278H766.111V9.92223H764.341V11.6917H766.111V13.4611H767.88V15.2306H764.341V13.4611H762.572V11.6917H760.802V13.4611H759.033V15.2306H755.494ZM789.68 8.15278V9.92223H787.91V15.2306H784.371V6.38334H787.91V8.15278H789.68ZM796.758 6.38334V15.2306H793.219V9.92223H791.449V8.15278H793.219V6.38334H796.758ZM789.68 9.92223H791.449V13.4611H789.68V9.92223ZM800.58 15.2306V13.4611H798.81V8.15278H800.58V6.38334H809.427V8.15278H811.196V11.6917H802.349V13.4611H809.427V15.2306H800.58ZM802.349 9.92223H807.657V8.15278H802.349V9.92223ZM818.557 15.2306V8.15278H815.018V6.38334H825.635V8.15278H822.096V15.2306H818.557ZM829.457 15.2306V13.4611H827.687V11.6917H829.457V9.92223H836.535V8.15278H829.457V6.38334H838.304V8.15278H840.073V15.2306H829.457ZM831.226 13.4611H836.535V11.6917H831.226V13.4611ZM847.434 17V15.2306H843.895V13.4611H842.126V8.15278H843.895V6.38334H847.434V4.6139H849.204V6.38334H852.743V8.15278H854.512V13.4611H852.743V15.2306H849.204V17H847.434ZM845.665 13.4611H847.434V8.15278H845.665V13.4611ZM849.204 13.4611H850.973V8.15278H849.204V13.4611ZM858.334 15.2306V13.4611H856.565V8.15278H858.334V6.38334H867.181V8.15278H868.951V13.4611H867.181V15.2306H858.334ZM860.104 13.4611H865.412V8.15278H860.104V13.4611ZM883.389 8.15278V13.4611H881.62V15.2306H874.542V17H871.003V6.38334H874.542V8.15278H876.312V9.92223H874.542V13.4611H879.851V8.15278H876.312V6.38334H881.62V8.15278H883.389ZM885.442 15.2306V6.38334H888.981V9.92223H892.52V15.2306H885.442ZM894.289 15.2306V6.38334H897.828V15.2306H894.289ZM888.981 13.4611H890.75V11.6917H888.981V13.4611ZM917.858 11.6917H919.628V13.4611H917.858V15.2306H914.319V6.38334H917.858V11.6917ZM926.705 6.38334V15.2306H923.167V9.92223H921.397V8.15278H923.167V6.38334H926.705ZM919.628 9.92223H921.397V11.6917H919.628V9.92223ZM55.0778 29.2306V25.6917H48V22.1528H49.7694V20.3833H51.5389V18.6139H53.3083V16.8445H58.6167V23.9222H60.3861V25.6917H58.6167V29.2306H55.0778ZM51.5389 23.9222H55.0778V20.3833H53.3083V22.1528H51.5389V23.9222ZM89.2634 22.1528V27.4611H87.494V29.2306H80.4162V31H76.8773V20.3833H80.4162V22.1528H82.1856V23.9222H80.4162V27.4611H85.7245V22.1528H82.1856V20.3833H87.494V22.1528H89.2634ZM93.0854 29.2306V27.4611H91.316V25.6917H93.0854V23.9222H100.163V22.1528H93.0854V20.3833H101.933V22.1528H103.702V29.2306H93.0854ZM94.8548 27.4611H100.163V25.6917H94.8548V27.4611ZM107.524 29.2306V27.4611H105.755V25.6917H109.294V27.4611H114.602V25.6917H111.063V23.9222H114.602V22.1528H109.294V23.9222H105.755V22.1528H107.524V20.3833H116.371V22.1528H118.141V23.9222H116.371V25.6917H118.141V27.4611H116.371V29.2306H107.524ZM120.193 29.2306V20.3833H123.732V23.9222H129.04V20.3833H132.579V29.2306H129.04V25.6917H123.732V29.2306H120.193ZM134.632 29.2306V20.3833H138.171V23.9222H141.71V29.2306H134.632ZM143.479 29.2306V20.3833H147.018V29.2306H143.479ZM138.171 27.4611H139.94V25.6917H138.171V27.4611ZM149.071 29.2306V27.4611H150.84V25.6917H152.609V23.9222H150.84V22.1528H149.071V20.3833H152.609V22.1528H154.379V23.9222H156.148V22.1528H157.918V20.3833H161.457V22.1528H159.687V23.9222H157.918V25.6917H159.687V27.4611H161.457V29.2306H157.918V27.4611H156.148V25.6917H154.379V27.4611H152.609V29.2306H149.071ZM177.948 29.2306V20.3833H188.565V22.1528H190.334V23.9222H188.565V25.6917H190.334V27.4611H188.565V29.2306H177.948ZM181.487 23.9222H186.795V22.1528H181.487V23.9222ZM181.487 27.4611H186.795V25.6917H181.487V27.4611ZM194.156 29.2306V27.4611H192.387V25.6917H194.156V23.9222H201.234V22.1528H194.156V20.3833H203.003V22.1528H204.773V29.2306H194.156ZM195.925 27.4611H201.234V25.6917H195.925V27.4611ZM219.211 22.1528V27.4611H217.442V29.2306H210.364V31H206.825V20.3833H210.364V22.1528H212.134V23.9222H210.364V27.4611H215.672V22.1528H212.134V20.3833H217.442V22.1528H219.211ZM224.803 25.6917H226.572V27.4611H224.803V29.2306H221.264V20.3833H224.803V25.6917ZM233.65 20.3833V29.2306H230.111V23.9222H228.342V22.1528H230.111V20.3833H233.65ZM226.572 23.9222H228.342V25.6917H226.572V23.9222ZM237.472 29.2306V27.4611H235.703V25.6917H237.472V23.9222H244.55V22.1528H237.472V20.3833H246.319V22.1528H248.089V29.2306H237.472ZM239.241 27.4611H244.55V25.6917H239.241V27.4611ZM258.988 31V29.2306H250.141V20.3833H253.68V27.4611H257.219V20.3833H260.758V27.4611H262.527V31H258.988ZM268.119 25.6917H269.888V27.4611H268.119V29.2306H264.58V20.3833H268.119V25.6917ZM276.966 20.3833V29.2306H273.427V23.9222H271.658V22.1528H273.427V20.3833H276.966ZM269.888 23.9222H271.658V25.6917H269.888V23.9222ZM282.557 25.6917H284.327V27.4611H282.557V29.2306H279.018V20.3833H282.557V25.6917ZM291.405 20.3833V29.2306H287.866V23.9222H286.096V22.1528H287.866V20.3833H291.405ZM284.327 23.9222H286.096V25.6917H284.327V23.9222ZM296.996 29.2306V25.6917H300.535V29.2306H296.996Z" fill="black"/>
</svg>
