<svg width="1425" height="967" viewBox="0 0 1425 967" fill="none" xmlns="http://www.w3.org/2000/svg">
<path d="M710.038 962.698V959.418H703.477V956.137H705.117V954.497H706.757V952.856H708.397V951.216H713.318V957.777H714.959V959.418H713.318V962.698H710.038ZM706.757 957.777H710.038V954.497H708.397V956.137H706.757V957.777Z" fill="black"/>
<path d="M1.64028 964.338V962.698H8.20141V961.058H1.64028V959.418H0L0 954.497H3.28056V959.418H8.20141V954.497H11.482V962.698H9.84169V964.338H1.64028ZM15.5499 962.698V961.058H13.9096V954.497H17.1902V961.058H22.111V954.497H25.3916V962.698H15.5499ZM27.8192 962.698V951.216H31.0997V957.777H34.3803V956.137H36.0206V954.497H39.3012V956.137H37.6609V957.777H36.0206V959.418H37.6609V961.058H39.3012V962.698H36.0206V961.058H34.3803V959.418H31.0997V962.698H27.8192ZM46.6496 952.856V951.216H49.9302V952.856H46.6496ZM43.369 962.698V961.058H46.6496V956.137H45.0093V954.497H49.9302V961.058H53.2107V962.698H43.369Z" fill="black"/>
<path d="M684.82 14V12.3597L691.381 12.3597V10.7194L684.82 10.7194V9.07915H683.18V4.15831H686.46V9.07915L691.381 9.07915V4.15831H694.662V12.3597H693.021V14L684.82 14ZM698.73 12.3597V10.7194H697.089V4.15831L700.37 4.15831V10.7194H705.291V4.15831H708.571V12.3597L698.73 12.3597ZM710.999 12.3597V0.877747L714.279 0.877747V7.43887H717.56V5.79859L719.2 5.79859V4.15831L722.481 4.15831V5.79859H720.841V7.43887H719.2V9.07915H720.841V10.7194L722.481 10.7194V12.3597L719.2 12.3597V10.7194H717.56V9.07915H714.279V12.3597H710.999ZM729.829 2.51803V0.877747L733.11 0.877747V2.51803L729.829 2.51803ZM726.549 12.3597V10.7194H729.829V5.79859H728.189V4.15831L733.11 4.15831V10.7194H736.39V12.3597L726.549 12.3597Z" fill="black"/>
<path d="M558.597 489.476V482.915H555.317V481.275H565.158V482.915H561.878V489.476H558.597ZM578.937 482.915V487.836H577.296V489.476H570.735V491.117H567.455V481.275H570.735V482.915H572.375V484.556H570.735V487.836H575.656V482.915H572.375V481.275H577.296V482.915H578.937ZM582.873 489.476V487.836H581.233V482.915H582.873V481.275H591.075V482.915H592.715V486.196H584.514V487.836H591.075V489.476H582.873ZM584.514 484.556H589.434V482.915H584.514V484.556ZM596.652 491.117V489.476H603.213V487.836H596.652V486.196H595.011V481.275H598.292V486.196H603.213V481.275H606.493V489.476H604.853V491.117H596.652ZM610.43 489.476V481.275H620.272V484.556H618.631V482.915H613.711V489.476H610.43ZM624.208 489.476V487.836H622.568V482.915H624.208V481.275H632.41V482.915H634.05V487.836H632.41V489.476H624.208ZM625.849 487.836H630.77V482.915H625.849V487.836ZM647.828 481.275V489.476H644.548V482.915H641.267V487.836H639.627V489.476H636.346V486.196H637.987V484.556H639.627V481.275H647.828ZM650.125 489.476V481.275H653.405V484.556H659.967V486.196H661.607V487.836H659.967V489.476H650.125ZM653.405 487.836H658.326V486.196H653.405V487.836ZM663.903 489.476V481.275H667.184V484.556H672.105V481.275H675.385V489.476H672.105V486.196H667.184V489.476H663.903ZM679.322 489.476V487.836H677.682V486.196H679.322V484.556H685.883V482.915H679.322V481.275H687.523V482.915H689.164V489.476H679.322ZM680.962 487.836H685.883V486.196H680.962V487.836ZM691.46 489.476V486.196H693.1V484.556H691.46V482.915H693.1V481.275H702.942V489.476H699.661V486.196H694.741V489.476H691.46ZM694.741 484.556H699.661V482.915H694.741V484.556ZM725.578 482.915H727.218V484.556H728.858V486.196H730.499V489.476H727.218V486.196H722.297V489.476H719.017V481.275H722.297V484.556H725.578V482.915ZM730.499 481.275V482.915H727.218V481.275H730.499ZM734.435 489.476V487.836H732.795V482.915H734.435V481.275H742.637V482.915H744.277V487.836H742.637V489.476H734.435ZM736.076 487.836H740.996V482.915H736.076V487.836ZM751.494 482.915V484.556H749.854V489.476H746.573V481.275H749.854V482.915H751.494ZM758.055 481.275V489.476H754.775V484.556H753.135V482.915H754.775V481.275H758.055ZM751.494 484.556H753.135V487.836H751.494V484.556ZM760.352 489.476V481.275H771.834V489.476H768.553V482.915H763.632V489.476H760.352ZM775.77 489.476V487.836H774.13V482.915H775.77V481.275H783.972V482.915H785.612V487.836H783.972V489.476H775.77ZM777.411 487.836H782.332V482.915H777.411V487.836ZM789.549 489.476V487.836H787.909V486.196H791.189V487.836H796.11V486.196H792.829V484.556H796.11V482.915H791.189V484.556H787.909V482.915H789.549V481.275H797.75V482.915H799.39V484.556H797.75V486.196H799.39V487.836H797.75V489.476H789.549ZM804.967 486.196H806.608V487.836H804.967V489.476H801.687V481.275H804.967V486.196ZM813.169 481.275V489.476H809.888V484.556H808.248V482.915H809.888V481.275H813.169ZM806.608 484.556H808.248V486.196H806.608V484.556ZM823.667 491.117V489.476H815.465V481.275H818.746V487.836H822.026V481.275H825.307V487.836H826.947V491.117H823.667ZM832.524 486.196H834.164V487.836H832.524V489.476H829.244V481.275H832.524V486.196ZM840.726 481.275V489.476H837.445V484.556H835.805V482.915H837.445V481.275H840.726ZM834.164 484.556H835.805V486.196H834.164V484.556ZM843.022 489.476V486.196H844.662V484.556H843.022V482.915H844.662V481.275H854.504V489.476H851.223V486.196H846.303V489.476H843.022ZM846.303 484.556H851.223V482.915H846.303V484.556Z" fill="black"/>
<path d="M1408.6 966.418V963.957H1411.06V961.497H1406.14V959.036H1411.06V956.576H1408.6V954.115H1413.52V956.576H1415.98V954.115H1420.9V956.576H1418.44V959.036H1423.36V961.497H1418.44V963.957H1420.9V966.418H1415.98V963.957H1413.52V966.418H1408.6Z" fill="black"/>
<path d="M67.1487 907.153L711.062 25.5015L1384.6 907.153H7.99609" stroke="black" stroke-width="1.64028"/>
<path d="M711.062 20.6836V935.448" stroke="black" stroke-width="1.23021"/>
<path d="M70.9453 907.05L711.065 639.479L1384.5 907.05" stroke="black" stroke-width="1.23021"/>
</svg>
