<svg width="426" height="135" viewBox="0 0 426 135" fill="none" xmlns="http://www.w3.org/2000/svg">
<path d="M2 132.929V2H144.154H254.577V76.4652C252.885 95.2864 239.41 132.929 199.048 132.929C158.687 132.929 145.635 95.2864 144.154 76.4652V2L48.2476 132.929H2Z" fill="black"/>
<path d="M256.877 132.929V2H360.558L323.433 68.2178L360.558 132.929H256.877Z" fill="black"/>
<path d="M362.7 2V132.929H423.226V2H362.7Z" fill="black"/>
<path d="M144.154 2H2V132.929H48.2476L144.154 2ZM144.154 2V76.4652C145.635 95.2864 158.687 132.929 199.048 132.929C239.41 132.929 252.885 95.2864 254.577 76.4652V2H144.154ZM256.877 2V132.929H360.558L323.433 68.2178L360.558 2H256.877ZM362.7 132.929V2H423.226V132.929H362.7Z" stroke="black" stroke-width="3.81776"/>
</svg>
